<svg xmlns="http://www.w3.org/2000/svg" width="1440" height="1024" fill="none">
  <g>
    <!-- <path fill="#fff" d="M0 0h1440v1024H0z" /> -->
    <g stroke="#fff" stroke-width="1.261" opacity=".2">
      <path
        d="M-50.617 624.998H1460.96M-50.617 947.736H1460.96M-50.617 302.259H1460.96M-50.617 463.627H1460.96M-50.617 786.366H1460.96M-50.617 140.889H1460.96M-50.617 544.313l1511.577-.001M-50.617 867.051H1460.96M-50.617 221.574H1460.96M-50.617 382.942H1460.96M-50.617 705.683H1460.96M-50.617 60.204H1460.96M642.139-48.845V1118.56M319.399-48.846V1118.56M964.875-48.845V1118.56M1287.62-48.845V1118.56M158.028-48.845V1118.56M803.505-48.845V1118.56M480.769-48.845V1118.56M1126.25-48.846V1118.56M77.345-48.845V1118.56M722.822-48.846V1118.56M400.082-48.845l-.001 1167.405M1045.56-48.845V1118.56M1368.3-48.845V1118.56M238.716-48.845V1118.56M884.192-48.845V1118.56M561.452-48.845V1118.56M1206.93-48.845V1118.56" />
    </g>
    <g fill="#fff" opacity=".95">
      <path fill-opacity=".5" d="M803.564 786.309h80.226v80.226h-80.226z" />
      <path fill-opacity=".2" d="M400.141 786.309h80.226v80.226h-80.226z" />
      <path fill-opacity=".25" d="M1126.76 222.433h80.226v79.08h-80.226z" />
      <path fill-opacity=".15" d="M480.368 464.207h80.226v79.08h-80.226z" />
      <path fill-opacity=".25" d="M1045.39 302.659h80.226v79.08h-80.226z" />
      <path fill-opacity=".15" d="M399.995 222.433h80.226v79.08h-80.226z" />
      <path fill-opacity=".25" d="M1045.39 222.433h80.226v79.08h-80.226z" />
      <path fill-opacity=".15" d="M399.995 464.207h80.226v79.08h-80.226z" />
      <path fill-opacity=".2"
        d="M319.914 786.309h80.226v80.226h-80.226zM319.914 866.535h80.226v81.372h-80.226zM158.316 706.082h80.226v80.226h-80.226z" />
      <path fill-opacity=".15"
        d="M965.162 60.834h80.226v80.226h-80.226zM884.059-19.853h80.226v79.506h-80.226zM884.059 60.405h80.226v80.028h-80.226z" />
      <path fill-opacity=".2" d="M158.316 139.915h81.372v82.518h-81.372zM76.944 59.688h81.372v80.226H76.944z" />
      <path fill-opacity=".2" d="M-3.283 60.834h81.372v80.226H-3.283z" />
      <path fill-opacity=".2" d="M76.944 139.915h81.372v82.518H76.944z" />
      <path fill-opacity=".25" d="M400.141-20.538h81.372v80.226h-81.372z" />
      <path fill-opacity=".2" d="M158.316 301.513h80.226v81.372h-80.226z" />
      <path fill-opacity=".15" d="M1126.76 706.082h80.226v80.226h-80.226zM1206.99 786.309h80.226v80.226h-80.226z" />
    </g>
  </g>
</svg>