<svg xmlns="http://www.w3.org/2000/svg" viewBox="0 0 1200 800">
  <defs>
    <pattern id="a" width="1200" height="1200" x="0" y="0" data-name="New Pattern"
      patternTransform="matrix(.79 0 0 .79 -2565.88 -407.58)" patternUnits="userSpaceOnUse" viewBox="0 0 1200 1200">
      <path d="M0 0h1200v1200H0z" style="stroke-width:0;fill:none" />
      <path
        d="M267.87 87h18.96v3h-18.96zm-75.84 0h18.96v3h-18.96zm379.18 0h18.96v3h-18.96zm455.01 0h18.96v3h-18.96zm-75.83 0h18.96v3h-18.96zm-455.02 0h18.96v3h-18.96zm-37.91 0h18.96v3h-18.96zm341.26 0h18.96v3h-18.96zm-568.77 0h18.96v3h-18.96zm303.34 0h18.96v3h-18.96zm455.01 0h18.96v3H988.3zm-151.67 0h18.96v3h-18.96zM40.36 87h18.96v3H40.36zm1099.62 0h18.96v3h-18.96zm-530.85 0h18.96v3h-18.96zm75.83 0h18.96v3h-18.96zm-303.34 0h18.96v3h-18.96zM3.15 87H21.4v3H3.15zm643.89 0H666v3h-18.96zm530.85 0h18.96v3h-18.96zm-303.34 0h18.96v3h-18.96zm37.92 0h18.96v3h-18.96zM116.2 87h18.96v3H116.2zm606.68 0h18.96v3h-18.96zm-568.77 0h18.96v3h-18.96zm910.03 0h18.96v3h-18.96zM343.7 87h18.96v3H343.7zm-37.92 0h18.96v3h-18.96zm341.26 177H666v3h-18.96zm-37.91 0h18.96v3h-18.96zm75.83 0h18.96v3h-18.96zm37.92 0h18.96v3h-18.96zm-227.51 0h18.96v3h-18.96zm37.92 0h18.96v3h-18.96zm-113.75 0h18.96v3h-18.96zm379.18 0h18.96v3h-18.96zm-341.26 0h18.96v3h-18.96zm113.75 0h18.96v3h-18.96zm189.59 0h18.96v3H760.8zm113.75 0h18.96v3h-18.96zm-37.92 0h18.96v3h-18.96zm-606.68 0h18.96v3h-18.96zm-113.75 0h18.96v3H116.2zm-75.84 0h18.96v3H40.36zm113.75 0h18.96v3h-18.96zm910.03 0h18.96v3h-18.96zm-796.27 0h18.96v3h-18.96zm682.52 0h18.96v3h-18.96zm189.59 0h18.96v3h-18.96zm-113.76 0h18.96v3h-18.96zm-947.94 0h18.96v3H78.28zm910.02 0h18.96v3H988.3zm-796.27 0h18.96v3h-18.96zm113.75 0h18.96v3h-18.96zm796.28 0h18.96v3h-18.96zM3.15 264H21.4v3H3.15zm1174.74 0h18.96v3h-18.96zm-834.19 0h18.96v3H343.7zm37.92 0h18.96v3h-18.96zm530.85 0h18.96v3h-18.96zM609.13 430h18.96v3h-18.96zm-530.85 3h8.37v5.85h3V433h7.59v-3h-7.59v-10.11h-3V430h-8.37v3zm-75.13-3H21.4v3H3.15zm37.21 0h18.96v3H40.36zm227.51 0h18.96v3h-18.96zm37.91 0h18.96v3h-18.96zm189.59 0h18.96v3h-18.96zm-37.91 0h18.96v3h-18.96zm-113.76 0h18.96v3H343.7zm-227.5 0h18.96v3H116.2zm303.34 3h7.11v5.85h3V433h8.85v-3h-8.85v-10.11h-3V430h-7.11v3zm151.67-3h18.96v3h-18.96zm-341.26 0h18.96v3h-18.96zm-37.92 0h18.96v3h-18.96zm-37.92 0h18.96v3h-18.96zm492.93 0H666v3h-18.96zm-113.75 0h18.96v3h-18.96zm-151.67 0h18.96v3h-18.96zm720.44 3h7.59v5.85h3V433h8.37v-3h-8.37v-10.11h-3V430h-7.59v3zm-189.59-3h18.96v3h-18.96zm227.51 0h18.96v3h-18.96zm37.91 0h18.96v3h-18.96zm-455.01 0h18.96v3h-18.96zm37.92 3h5.85v5.85h3V433h10.11v-3h-10.11v-10.11h-3V430h-5.85v3zm75.83-3h18.96v3h-18.96zm-37.91 0h18.96v3h-18.96zm75.83 0h18.96v3h-18.96zm-189.59 0h18.96v3h-18.96zm379.18 0h18.96v3h-18.96zm-75.84 0h18.96v3H988.3zm37.92 0h18.96v3h-18.96zm-75.83 0h18.96v3h-18.96zM343.7 600h18.96v3H343.7zm530.85 0h18.96v3h-18.96zm-796.27 0h18.96v3H78.28zm568.76 0H666v3h-18.96zm151.68 0h18.96v3h-18.96zm303.34 0h18.96v3h-18.96zm-644.6 0h18.96v3h-18.96zm-341.26 0h18.96v3H116.2zm492.93 0h18.96v3h-18.96zm568.76 0h18.96v3h-18.96zm-265.42 0h18.96v3h-18.96zm-75.84 0h18.96v3h-18.96zm113.76 0h18.96v3h-18.96zm-568.77 0h18.96v3h-18.96zm606.68 0h18.96v3H988.3zm-568.76 0h18.96v3h-18.96zm265.42 0h18.96v3h-18.96zm-455.01 0h18.96v3h-18.96zm341.26 0h18.96v3h-18.96zm-265.43 0h18.96v3h-18.96zm-265.42 0h18.96v3H40.36zm682.52 0h18.96v3h-18.96zm-455.01 0h18.96v3h-18.96zm-113.76 0h18.96v3h-18.96zm379.18 0h18.96v3h-18.96zm227.51 0h18.96v3H760.8zm265.42 0h18.96v3h-18.96zm-530.85 0h18.96v3h-18.96zm644.61 0h18.96v3h-18.96zm-947.95 0h18.96v3h-18.96zm872.11 0h18.96v3h-18.96zM3.15 600H21.4v3H3.15zm1023.07 170h18.96v3h-18.96zm-872.11 0h18.96v3h-18.96zm492.93 0H666v3h-18.96zm37.92 0h18.96v3h-18.96zm37.92 0h18.96v3h-18.96zm227.51 0h18.96v3h-18.96zm37.91 0h18.96v3H988.3zm-720.43 0h18.96v3h-18.96zm-37.92 0h18.96v3h-18.96zm834.19 0h18.96v3h-18.96zm-947.94 0h18.96v3H116.2zm75.83 0h18.96v3h-18.96zm417.1 0h18.96v3h-18.96zm568.76 0h18.96v3h-18.96zm-379.17 0h18.96v3h-18.96zm-417.1 0h18.96v3h-18.96zm492.93 0h18.96v3h-18.96zm37.92 0h18.96v3h-18.96zm227.51 0h18.96v3h-18.96zm-796.28 0h18.96v3H343.7zm113.76 0h18.96v3h-18.96zm379.17 0h18.96v3h-18.96zm-417.09 3h7.11v7.11h3V773h8.85v-3h-8.85v-8.85h-3V770h-7.11v3zm682.52 0h7.59v7.11h3V773h8.37v-3h-8.37v-8.85h-3V770h-7.59v3zM3.15 770H21.4v3H3.15zm757.65 3h5.85v7.11h3V773h10.11v-3h-10.11v-8.85h-3V770h-5.85v3zm-455.02-3h18.96v3h-18.96zm227.51 0h18.96v3h-18.96zm37.92 0h18.96v3h-18.96zm-75.84 0h18.96v3h-18.96zm-455.01 0h18.96v3H40.36zm37.92 3h8.37v7.11h3V773h7.59v-3h-7.59v-8.85h-3V770h-8.37v3zm985.86 166h18.96v3h-18.96zm75.84 0h18.96v3h-18.96zm37.91 0h18.96v3h-18.96zm-75.83 0h18.96v3h-18.96zm-1061.7 0h18.96v3H40.36zm75.84 0h18.96v3H116.2zm-37.92 0h18.96v3H78.28zm-75.13 0H21.4v3H3.15zm264.72 0h18.96v3h-18.96zm606.68 0h18.96v3h-18.96zm-37.92 0h18.96v3h-18.96zm-530.85 0h18.96v3h-18.96zm455.02 0h18.96v3H760.8zm-606.69 0h18.96v3h-18.96zm417.1 0h18.96v3h-18.96zm-189.59 0h18.96v3h-18.96zm113.75 0h18.96v3h-18.96zm-37.91 0h18.96v3h-18.96zm75.83 0h18.96v3h-18.96zm-189.59 0h18.96v3H343.7zm568.77 0h18.96v3h-18.96zm-682.52 0h18.96v3h-18.96zm758.35 0h18.96v3H988.3zm-341.26 0H666v3h-18.96zm151.68 0h18.96v3h-18.96zm-606.69 0h18.96v3h-18.96zm834.19 0h18.96v3h-18.96zm-417.09 0h18.96v3h-18.96zm341.26 0h18.96v3h-18.96zm-265.43 0h18.96v3h-18.96zm37.92 0h18.96v3h-18.96zm-303.34 0h18.96v3h-18.96zm189.59 171h18.96v3h-18.96zm-75.84 0h18.96v3h-18.96zm492.93 0h18.96v3h-18.96zm-341.26 0h18.96v3h-18.96zm-37.92 0H666v3h-18.96zm-75.83 0h18.96v3h-18.96zm-151.67 3h7.11v8.37h3V1113h8.85v-3h-8.85v-7.59h-3v7.59h-7.11v3zm37.92-3h18.96v3h-18.96zm37.91 0h18.96v3h-18.96zm303.35 0h18.96v3h-18.96zm37.91 0h18.96v3h-18.96zm-113.75 0h18.96v3h-18.96zm151.67 0h18.96v3h-18.96zm-113.75 3h5.85v8.37h3V1113h10.11v-3h-10.11v-7.59h-3v7.59h-5.85v3zm-417.1-3h18.96v3H343.7zm644.6 0h18.96v3H988.3zm-37.91 0h18.96v3h-18.96zm-37.92 0h18.96v3h-18.96zm-530.85 0h18.96v3h-18.96zm682.52 0h18.96v3h-18.96zM3.15 1110H21.4v3H3.15zm1098.91 3h7.59v8.37h3V1113h8.37v-3h-8.37v-7.59h-3v7.59h-7.59v3zm75.83-3h18.96v3h-18.96zm-37.91 0h18.96v3h-18.96zm-1099.62 0h18.96v3H40.36zm37.92 3h8.37v8.37h3V1113h7.59v-3h-7.59v-7.59h-3v7.59h-8.37v3zm227.5-3h18.96v3h-18.96zm-37.91 0h18.96v3h-18.96zm-151.67 0h18.96v3H116.2zm75.83 0h18.96v3h-18.96zm-37.92 0h18.96v3h-18.96zm75.84 0h18.96v3h-18.96zm879.7-879.7h3v18.96h-3zm0-75.83h3v18.96h-3zm0-37.92h3v18.96h-3zm0 227.51h3v18.96h-3zm0-341.27h3v18.96h-3zm0 84.21h-7.59v3h7.59v7.59h3V90h8.37v-3h-8.37v-8.37h-3V87zm0 105.38h3v18.96h-3zm0-151.67h3v18.96h-3zm0 265.43h3v18.96h-3zm0 75.83h3v18.96h-3zm0 341.26h3v18.96h-3zm0 265.43h3v18.96h-3zm0-341.26h3v18.96h-3zm0 379.18h3v18.96h-3zm0-341.26h3v18.96h-3zm0 379.17h3v18.96h-3zm0-455.01h3v18.96h-3zm0 227.51h3v18.96h-3zm0 75.83h3v18.96h-3zm0-37.92h3v18.96h-3zm0-75.83h3v18.96h-3zm0-530.85h3v18.96h-3zm0 227.51h3v18.96h-3zm0 75.83h3v18.96h-3zm0-37.92h3v18.96h-3zm0 606.69h3v18.96h-3zm0-682.52h3v18.96h-3zm0 720.44h3v18.96h-3zm0-227.51h3v18.96h-3zm-171-227.51h3v18.96h-3zm0 151.67h3v18.96h-3zm0-75.83h3v18.96h-3zm0 37.92h3v18.96h-3zm0-75.84h3v18.96h-3zm0-75.83h3v18.96h-3zm0-75.84h3v18.96h-3zm0 37.92h3v18.96h-3zm0 417.09h3v18.96h-3zm0-492.93h3v18.96h-3zm0 455.02h3v18.96h-3zm0 151.67h3v18.96h-3zm0-75.84h3v18.96h-3zm0 37.92h3v18.96h-3zm0-227.51h3v18.96h-3zm0 37.92h3v18.96h-3zm0 37.92h3v18.96h-3zm0-796.28h3v18.96h-3zm0 341.26h3v18.96h-3zm0-303.34h3v18.96h-3zm0-113.75h3v18.96h-3zm0 37.92h3v18.96h-3zm0-113.76h3v18.96h-3zm0 37.92h3v18.96h-3zm0-75.84h3v18.96h-3zm0 265.43h3v18.96h-3zm0 151.67h3v18.96h-3zm0 37.92h3v18.96h-3zm0-151.67h3v18.96h-3zm0 189.59h3v18.96h-3zm0-151.67h3v18.96h-3zm0 37.91h3v18.96h-3zm-172 0h3v18.96h-3zm0-75.83h3v18.96h-3zm0-37.92h3v18.96h-3zm0 75.84h3v18.96h-3zm0 151.67h3v18.96h-3zm0 37.91h3v18.96h-3zm0 37.92h3v18.96h-3zm0-568.77h3v18.96h-3zm0 84.21h-5.85v3h5.85v7.59h3V90h10.11v-3h-10.11v-8.37h-3V87zm0 29.55h3v18.96h-3zm0-75.84h3v18.96h-3zm0 113.76h3v18.96h-3zm0 37.91h3v18.96h-3zm0 37.92h3v18.96h-3zm0 492.93h3v18.96h-3zm0 265.43h3v18.96h-3zm0 37.92h3v18.96h-3zm0 37.91h3v18.96h-3zm0-113.75h3v18.96h-3zm0 189.59h3v18.96h-3zm0-682.52h3v18.96h-3zm0 720.44h3v18.96h-3zm0-568.77h3v18.96h-3zm0 75.84h3v18.96h-3zm0 189.58h3v18.96h-3zm0-75.83h3v18.96h-3zm0-151.67h3v18.96h-3zm0 265.42h3v18.96h-3zm0-75.83h3v18.96h-3zm-170-151.67h3v18.96h-3zm0-644.61h3v18.96h-3zm0 379.18h3v18.96h-3zm0-113.75h3v18.96h-3zm0 37.92h3v18.96h-3zm0 227.5h3v18.96h-3zm0-37.92h3v18.96h-3zm0-37.91h3v18.96h-3zm0-37.92h3v18.96h-3zm0-379.18h3v18.96h-3zm0 189.59h3v18.96h-3zm0-265.43h3v18.96h-3zm0 113.76h3v18.96h-3zm0 113.75h3v18.96h-3zm0-37.92h3v18.96h-3zm0-37.91h3v18.96h-3zm0 227.5h3v18.96h-3zm0 644.61h3v18.96h-3zm0-417.1h3v18.96h-3zm0 379.18h3v18.96h-3zm0 151.67h3v18.96h-3zm0 37.92h3v18.96h-3zm0-227.51h3v18.96h-3zm0 151.67h3v18.96h-3zm0-37.92h3v18.96h-3zm0-341.26h3v18.96h-3zm0-75.83h3v18.96h-3zm0 265.42h3v18.96h-3zm0-151.67h3v18.96h-3zm0 37.92h3v18.96h-3zm0 37.92h3v18.96h-3zm0 37.91h3v18.96h-3zm-170-341.26h3v18.96h-3zm0-492.93h3v18.96h-3zm0 644.61h3v18.96h-3zm0-113.76h3v18.96h-3zm0-303.34h3v18.96h-3zm0-181.22h-7.11v3h7.11v7.59h3V90h8.85v-3h-8.85v-8.37h-3V87zm0 143.3h3v18.96h-3zm0-37.92h3v18.96h-3zm0-189.59h3v18.96h-3zm0 379.18h3v18.96h-3zm0-75.83h3v18.96h-3zm0 37.92h3v18.96h-3zm0-189.59h3v18.96h-3zm0-37.92h3v18.96h-3zm0 1061.7h3v18.96h-3zm0-37.92h3v18.96h-3zm0-227.51h3v18.96h-3zm0-265.42h3v18.96h-3zm0-189.59h3v18.96h-3zm0 265.42h3v18.96h-3zm0 113.76h3v18.96h-3zm0 37.91h3v18.96h-3zm0 113.76h3v18.96h-3zm0 75.83h3v18.96h-3zm0-113.75h3v18.96h-3zm0-151.67h3v18.96h-3zm0-303.34h3v18.96h-3zm0 530.85h3v18.96h-3zm0-417.1h3v18.96h-3zm-169-379.18h3v18.96h-3zm0-75.83h3v18.96h-3zm0 37.91h3v18.96h-3zm0-75.83h3v18.96h-3zm0 379.18h3v18.96h-3zm0 682.52h3v18.96h-3zm0-1137.54h3v18.96h-3zm0-37.92h3v18.96h-3zm0 455.02h3v18.96h-3zm0-379.18h3v18.96h-3zm0 341.26h3v18.96h-3zm0 151.67h3v18.96h-3zm0-227.5h3v18.96h-3zm0-37.92h3v18.96h-3zm0 75.83h3v18.96h-3zm0-113.75h3v18.96h-3zm0 265.42h3v18.96h-3zm0 417.1h3v18.96h-3zm0 37.92h3v18.96h-3zm0-75.84h3v18.96h-3zm0 189.59h3v18.96h-3zm0 37.92h3v18.96h-3zm0-75.84h3v18.96h-3zm0-189.59h3v18.96h-3zm0 151.68h3v18.96h-3zm0-379.18h3v18.96h-3zm0 37.92h3v18.96h-3zm0-75.84h3v18.96h-3zm0 151.67h3v18.96h-3zm0 75.84h3v18.96h-3zm0-37.92h3v18.96h-3zm0-75.84h3v18.96h-3zm-171-492.93h3v18.96h-3zm0-227.51h3v18.96h-3zm0 189.59h3v18.96h-3zm0-105.38h-8.37v3h8.37v7.59h3V90h7.59v-3h-7.59v-8.37h-3V87zm0 29.55h3v18.96h-3zm0 265.42h3v18.96h-3zm0-227.5h3v18.96h-3zm0 189.59h3v18.96h-3zm0 682.52h3v18.96h-3zm0 37.91h3v18.96h-3zm0-265.42h3v18.96h-3zm0 37.92h3v18.96h-3zm0 37.91h3v18.96h-3zm0 37.92h3v18.96h-3zm0 227.51h3v18.96h-3zm0-1099.62h3v18.96h-3zm0 568.77h3v18.96h-3zm0 379.18h3v18.96h-3zm0-37.92h3v18.96h-3zm0 227.51h3v18.96h-3zm0-910.03h3v18.96h-3zm0 265.42h3v18.96h-3zm0-227.5h3v18.96h-3zm0 265.42h3v18.96h-3zm0-113.75h3v18.96h-3zm0 265.42h3v18.96h-3zm0-37.91h3v18.96h-3zm0-37.92h3v18.96h-3zm0-151.67h3v18.96h-3z"
        class="cls-2" />
    </pattern>
  </defs>
  <path d="M0 0h1200v800H0z" style="fill:url(#a);stroke-width:0" />
</svg>
