<svg xmlns="http://www.w3.org/2000/svg" viewBox="0 0 1931 2039">
  <path
    d="M1359.5.308c-11.85 1.243-27.21 3.785-36.5 6.04-19.16 4.65-34.15 11-76.5 32.418-47.54 24.04-66.07 32.583-98.5 45.414-40.87 16.168-66.87 23.789-107.34 31.461-12.01 2.277-25.51 5.292-30 6.699-20.597 6.457-33.16 16.42-41.138 32.627-7.6 15.438-9.639 26.168-12.007 63.162-1.917 29.943-4.181 42.146-10.029 54.064-2.429 4.95-5.52 11.562-6.87 14.693-4.732 10.98-22.411 32.216-39.881 47.903-15.918 14.294-31.18 25.796-57.235 43.134-33.655 22.395-41.554 29.181-51.159 43.946-10.428 16.031-14.946 33.916-24.864 98.417-12.367 80.434-23.98 121.176-45.334 159.059l-5.039 8.937-12.302 8.121c-25.71 16.972-51.362 29.231-83.302 39.809-31.766 10.52-54.96 14.864-79.5 14.891-18.933.021-28.652-1.575-41.616-6.834-11.216-4.549-18.444-9.512-28.418-19.516-11.466-11.5-18.999-23.142-32.703-50.545-31.228-62.444-57.029-101.482-106.75-161.515-16.157-19.508-27.558-33.921-43.513-55.01-33.601-44.411-45.244-58.395-64.933-77.99-31.708-31.557-53.639-43.429-91.598-49.585-9.555-1.55-18.572-1.794-69.969-1.898-32.45-.065-59.787-.482-60.75-.925-1.244-.573-1.75-.375-1.75.684 0 .82 1.237 1.792 2.75 2.159 1.512.367 29.3 1.04 61.75 1.493 54.324.76 59.991 1.001 71.5 3.042 34.505 6.118 58.29 19.361 88.05 49.024 15.154 15.104 27.341 29.475 48.758 57.492 27.384 35.825 44.06 57.03 59.778 76.014 45.457 54.903 72.359 95.959 102.551 156.5 14.276 28.627 21.405 40.095 31.943 51.379 12.414 13.292 26.311 21.677 43.738 26.388 8.948 2.42 11.235 2.62 30.182 2.637 22.432.02 28.16-.723 53.716-6.97 40.567-9.917 89.502-31.73 113.194-50.457 2.767-2.187 5.283-3.977 5.591-3.977.888 0-8.716 13.88-15.617 22.57-10.939 13.775-25.244 28.679-45.629 47.541a538526.508 538526.508 0 0 0-37.028 34.265c-19.286 17.849-27.72 27.768-33.934 39.906-6.827 13.336-8.716 21.685-8.757 38.718-.029 12.235.325 15.743 2.268 22.455 3.256 11.25 8.171 19.994 16.376 29.134 19.399 21.61 24.82 33 24.82 52.145 0 16.839-5.243 31.223-19.848 54.473-11.785 18.75-12.53 20.53-12.483 29.79.043 8.63 3.249 21.43 12.379 49.45l5.848 17.94-11.047 11.4c-13.759 14.21-16.395 19.16-15.552 29.22.311 3.7 2.22 13.66 4.244 22.11 5.93 24.8 6.15 38.2.901 54.94-3.716 11.84-9.713 23.01-23.147 43.09-12.57 18.79-21.98 36.97-25.281 48.85-8.598 30.96-5.961 63.54 7.403 91.5 17.616 36.86 50.548 59.57 121.083 83.48 22.136 7.51 35.861 11.47 77.5 22.39 101.832 26.69 131.982 32.49 201 38.64 70.62 6.29 102.4 13.14 133.6 28.79 34.23 17.18 59.22 42.92 77.29 79.61 3.28 6.65 10.66 23.34 16.4 37.09 14.39 34.45 20.56 47.92 29.37 64.1 21.27 39.05 46.18 71.39 81.97 106.41 34.96 34.21 68.17 58.31 120.15 87.2 35.35 19.64 45.65 26.5 59.22 39.45 4.12 3.94 9.53 9.88 12 13.21 3.93 5.28 4.93 6.06 7.86 6.09l3.37.04-1.78-2.75c-12.53-19.4-31.41-35.05-65.45-54.25-49.27-27.79-74.85-44.89-106.51-71.16-23.03-19.12-54.84-52.38-73.24-76.6-26.33-34.65-39.5-58.66-63.6-115.96-21.07-50.09-31.81-67.68-54.94-89.94-17.31-16.66-38.93-29.6-63.71-38.11-27.1-9.32-55.84-14.02-117.5-19.24-39.841-3.37-62.683-6.48-95.5-12.99-41.542-8.25-127.67-30.17-161.066-40.99-15.299-4.96-43.915-15.36-43.475-15.8.224-.22 5.274.73 11.224 2.13 27.144 6.35 75.808 14.23 110.317 17.85 19.463 2.04 79.989 1.73 96.5-.5 14.439-1.95 36.999-6.31 39.292-7.59 1.732-.97-6.54-2.5-8.868-1.64-.783.29-10.199 1.47-20.924 2.63-27.522 2.98-81.815 3.74-109.112 1.52-30.297-2.46-61.936-6.84-95.388-13.22-25.455-4.85-37.425-8.24-49-13.85-49.986-24.22-74.5-60.91-74.5-111.52 0-30.12 6.248-48.26 28.105-81.6 18.8-28.67 26.651-47.29 27.015-64.04.076-3.55.316-6.27.533-6.06 1.683 1.69 22.655 81.94 32.842 125.68 3.138 13.48 7.059 28.78 8.714 34 13.358 42.19 49.873 75.68 95.43 87.51 10.245 2.67 37.538 6.95 39.608 6.22 2.499-.88-6.997-3.94-17.747-5.72-13.781-2.29-18.137-3.29-28.618-6.6-34.969-11.04-67.602-40.2-80.808-72.23-4.148-10.05-7.132-21.06-14.56-53.68-7.999-35.12-15.763-65.58-26.38-103.5-4.389-15.67-8.281-29.4-8.649-30.5-.369-1.1.734.68 2.45 3.95 5.761 10.98 13.626 19.92 31.992 36.36 29.981 26.85 43.299 39.76 47.446 46.01 6.441 9.69 8.627 17 8.627 28.85 0 5.43.376 9.31.851 8.78 1.724-1.92 6.037-14.3 7.57-21.72 4.262-20.63-.274-39.05-12.823-52.06-7.009-7.26-15.128-12.55-35.66-23.22-16.38-8.51-33.423-18.92-35.924-21.93-.893-1.08-.415-1.08 2.7 0 5.64 1.94 17.802 4.27 26.286 5.03 6.807.61 8.562 1.27 19 7.17 38.83 21.93 49.52 35.06 51.572 63.35.406 5.6-.101 15.4-1.511 29.19-2.254 22.04-1.977 30.25 1.389 41.24 10.293 33.62 62.975 59.01 134.05 64.61 20.117 1.58 57.855.6 80.966-2.1 44.319-5.19 95.074-17.17 140.534-33.16 26.92-9.47 53.57-20.95 110-47.36 38.05-17.81 51.92-23.91 66.86-29.4 24.47-8.99 44.21-11.84 60.16-8.68 10.46 2.07 26.32 9.64 33.64 16.06 2.84 2.5 5.65 4.53 6.25 4.53 4.93 0-8.35-11.09-20.41-17.04-12.25-6.04-18.79-7.44-34.5-7.39-25.81.09-41.42 5.43-126 43.16-48.28 21.53-65.67 28.88-90.73 38.32-50.5 19.03-100.521 32.12-145.27 38.03-20.86 2.75-67.212 3.79-87.262 1.95-60.182-5.5-109.087-27.59-122.763-55.44-5.916-12.05-7.065-23.75-4.475-45.59 1.92-16.18 1.916-36.61-.008-44.77-4.318-18.31-15.52-30.75-41.754-46.34-7.281-4.33-13.913-8.3-14.738-8.82-.977-.62 5.185-.97 17.684-1.01l19.185-.06 7.377 5.87c11.156 8.86 17.082 19.19 19.589 34.13.599 3.58 1.58 14.15 2.179 23.5 1.599 24.95 4.311 36.38 12.333 51.97 15.702 30.51 47.194 55.7 80.07 64.04 15.394 3.9 25.25 4.8 46.083 4.22 26.992-.77 49.567-4.89 108-19.75 87.27-22.19 122.89-36 230-89.14 59.19-29.37 82.84-36.95 110.88-35.55 18.27.92 32.92 6.41 47.05 17.66 6 4.77 14.5 13.89 18.05 19.35 2.01 3.1 4.16 2.3 3.07-1.14-.89-2.8-17.96-20.05-23.69-23.95-7.29-4.95-17.79-9.9-25.91-12.21-9.82-2.78-27.9-3.7-40.17-2.02-21.97 2.99-53.53 14.38-89.03 32.13-5.64 2.82-10.03 4.89-9.75 4.6.28-.29 5.68-4 12-8.25 15.49-10.41 29.62-20.99 53.5-40.06 31.39-25.08 37.98-29.49 51.74-34.59 6.56-2.44 10.37-3.17 18.51-3.57 17.22-.84 29.57 2.88 46.59 14.03 8.99 5.88 27.21 23.06 37.92 35.73 3.01 3.55 4.67 4.9 4.7 3.79.06-2.29-12.67-17.34-23.09-27.29-11.83-11.32-20.84-17.85-32.37-23.46-21.53-10.5-39.63-10.67-61-.59-11.63 5.48-17.46 9.56-44.78 31.33-25.62 20.43-39.73 30.74-61.07 44.65-58.41 38.07-126.3 68.61-197.012 88.61l-20.862 5.91-1.798-2.22c-1.744-2.16-2.554-2.25-27.138-2.89-26.48-.7-32.138-1.44-49.321-6.46-41.217-12.05-90.572-40.15-115.061-65.51-13.605-14.09-25.231-34.16-33.067-57.1-4.29-12.55-5.744-21.14-5.185-30.63.55-9.35 1.964-12.18 8.337-16.72l4.957-3.53.714 6.31c2.552 22.54 32.02 55.01 75.485 83.17 25.733 16.67 63.896 36.46 91.301 47.35 36.282 14.42 59.363 18.18 76.151 12.4 6.79-2.33 8.13-3.16 22.849-14.09 19.78-14.69 28.02-16.9 50.44-13.51 33.96 5.13 73.9-6.67 120.4-35.59 12.86-8 33.42-23.32 46.06-34.35 15.96-13.92 38.94-38.22 50.67-53.58 12.13-15.89 18.9-22.13 29.93-27.55 10.57-5.2 20.82-7.45 33.91-7.43 13.73.02 21.44 1.76 31.98 7.24 17.69 9.21 33.51 31.03 44.02 60.74 1.45 4.13 2.88 8.14 3.15 8.92.35.98.83 1.1 1.54.38 2.24-2.24-11.51-33.57-20.91-47.63-8.85-13.24-22.21-24.55-34.92-29.56-18.99-7.49-41.21-6.61-59.77 2.37-11.73 5.67-18.82 12.2-30.93 28.48-44.66 60.05-116.12 109.97-175.57 122.65-9.5 2.02-29.31 2.41-49.1.96-16.61-1.22-21.13.31-41.36 13.92-19.932 13.42-24.617 15.03-41.406 14.22-23.095-1.11-57.243-13.19-105.134-37.17-43.281-21.68-69.24-38.92-89.903-59.68-16.045-16.13-27.034-35.23-27.085-47.08-.013-2.87.046-2.93 14.106-15.05l7.618-6.57.522 5.75c.818 9.02 4.894 16.42 14.157 25.68 13.966 13.97 30.323 23.77 86.681 51.96 64.956 32.49 83.958 39.45 107.652 39.45 16.381 0 26.292-3.49 40.352-14.22 21.07-16.08 27.37-17.72 54.23-14.16 45.49 6.03 92.69-9.25 136.67-44.23 19.97-15.88 48.11-46.98 66.16-73.11 16.38-23.72 26.43-29.61 63.91-37.42 18.98-3.95 21.53-4.26 35.93-4.24 14.07.01 16.24.25 23.5 2.66 18.28 6.06 30.46 18.27 37.52 37.61 5.24 14.36 7.42 32.84 8.46 71.49 1.11 41.95 5.1 71.74 11.57 86.44l1.9 4.32-4.4 6.56-4.4 6.56-1.01-3.88c-.55-2.13-3.75-14.68-7.11-27.88-7.53-29.58-14.91-55.69-16.1-56.93-2.05-2.14-2.02.78.08 7.63 1.23 4.02 6.68 24.84 12.1 46.27 8.11 32.01 9.64 39.21 8.58 40.28-1.07 1.07-2.19-.71-6.25-9.93-8.19-18.63-30.33-56.78-34.42-59.3-2.46-1.52-.55 2.55 5.82 12.4 11.98 18.53 22.2 37.9 29.57 56.05l2.28 5.61-5.96 10.96c-4.98 9.17-16.7 33.53-21.64 44.96l-1.29 3-3.24-9c-13.8-38.28-37.49-87.5-42.13-87.5-2.08 0-1.93.4 3.63 9.6 10.66 17.66 23.57 47.13 34.48 78.72l4.77 13.81-4.65 14.69c-13 41.05-18.1 79.13-15.7 117.18 5.38 85.06 29.01 171.2 60.68 221.15 13.66 21.54 29.2 38.56 54.61 59.82 8.11 6.78 14.75 12.94 14.75 13.69s-.71 5.75-1.57 11.1c-.87 5.36-2.13 15.14-2.81 21.74l-1.23 12-16.28-16c-24.16-23.74-40.93-44.86-56.78-71.5-27.61-46.42-47.13-107.44-53.73-168-2.62-24.06-3.47-38.74-6.63-115-3.31-79.59-9.43-115.96-24.67-146.5-7.53-15.08-18.16-29.5-21.75-29.5-.85 0-1.55.24-1.55.53 0 .3 2.42 3.39 5.38 6.87 16.56 19.53 27.99 50.55 33.01 89.6 2.13 16.58 3.42 39.4 5.13 91 2.06 61.85 4.21 90.2 9.05 118.93 1.34 7.94 2.41 14.69 2.38 15-.02.32-2.76-4.8-6.08-11.37-3.32-6.58-8.84-16.7-12.28-22.5-24.17-40.83-33.59-68.12-52.02-150.65-10.19-45.64-14.92-61.43-23.33-77.77-5.38-10.46-16.36-22.91-18.41-20.87-.94.94-.02 2.39 4.23 6.61 12.6 12.5 18.64 29.7 31.83 90.62 16.39 75.73 27.39 106.7 53.6 150.99 17.36 29.32 23.75 43.51 30.04 66.69 21.38 78.71 49.88 129.89 100.51 180.44l17.64 17.62-.86 11.94c-1.31 18.33-.63 70.56.94 71.08.99.33 1.12-3.83.62-19.92-.55-17.92.87-59.42 2.08-60.63.23-.23 3.71 2.25 7.73 5.53 13.84 11.28 36.38 27.5 64.31 46.29 15.4 10.35 32.29 22.38 37.53 26.73 22.03 18.27 37.72 41.91 47.46 71.52 3.45 10.5 4.1 11.72 6.18 11.72 1.28 0 2.33-.47 2.33-1.04 0-2.81-8.73-27.54-12.56-35.56-9.57-20.08-25.41-39.3-44.25-53.67-5.33-4.06-21.62-15.27-36.19-24.9-26.31-17.4-51.39-35.34-65.02-46.5l-7.1-5.83.54-6c1.01-11.47 4.95-39.5 5.54-39.5 1.58 0 66.06 52.18 90.97 73.61 50.14 43.14 95.16 98.98 108.56 134.64.98 2.62 2.4 4.75 3.15 4.75 1.76 0 1.79.18-1.19-7.72-7.68-20.43-29.34-52.47-56.3-83.28-11.78-13.45-38.38-39.54-53.65-52.6-14.66-12.55-47.52-39.56-73-60.03-8.25-6.62-15.62-12.79-16.38-13.71-1.14-1.38-1.17-2.77-.18-7.91 4.37-22.9 10.98-48.7 17.68-69l3.55-10.76 7.16 6.59c3.95 3.62 22.02 19.01 40.17 34.19 68.66 57.45 89.49 76.02 123.54 110.14 40.57 40.66 57.92 62.98 78.2 100.59 7.02 13.03 22.67 46.15 24.21 51.25.38 1.24 1.34 2.25 2.13 2.25 1.24 0 1.22-.54-.13-3.75-.87-2.06-2.98-7.12-4.7-11.25-5.54-13.32-25.48-52.19-32.46-63.26-29.51-46.8-75.09-93-172.79-175.15-45.1-37.93-47.95-40.4-56.44-48.99l-7.45-7.53 5.34-14.28c2.94-7.86 5.62-14.6 5.95-14.98.33-.38 4.2 2.46 8.6 6.3 4.4 3.84 13.62 10.72 20.5 15.28 6.88 4.56 25.81 17.11 42.07 27.88 51.19 33.89 76.14 53.71 108.46 86.14 34.05 34.18 59.39 67.19 83.11 108.29 10.45 18.1 31.05 59.5 39.7 79.76 3.52 8.22 6.95 15.14 7.63 15.37 1.68.56 1.09-1.15-7.19-20.83-8.92-21.19-27.27-58.35-38.17-77.32-24.44-42.51-51.7-77.96-87.04-113.18-36.03-35.9-63.63-57.03-132.49-101.43-20.68-13.33-33.99-23.11-39.75-29.21l-3.16-3.36 6.75-15c7.61-16.92 19.28-40.4 28.58-57.5 3.44-6.32 7.16-13.2 8.27-15.29l2.03-3.8 5.75 10.8c24.72 46.36 37.22 61.63 82.4 100.67 92.16 79.61 127.32 117.8 163.07 177.12 17.02 28.25 30.88 57.79 53.66 114.37 7.45 18.5 13.69 33.79 13.87 33.99.18.19.77.19 1.31 0 1.11-.4-.2-3.99-16.38-44.86-22.76-57.48-37.75-87.72-61.19-123.43-22.68-34.54-39.93-55.12-76.44-91.19-23.05-22.77-36.27-34.92-72.85-66.98-28.32-24.82-38.92-35.23-50.44-49.6-12.08-15.05-24.35-34.99-35.58-57.81l-4.19-8.51 16.53-29.67c33.27-59.72 44.69-77.38 74.86-115.81 19.36-24.65 28.29-40 33.17-57 5.93-20.67 4.16-37.2-7.36-68.8l-4.84-13.3 4.37-17.7c6.79-27.53 7.85-34.63 7.85-52.7 0-12.18-.52-18.82-2.18-27.85-4.62-25-2.65-38.06 12.81-85.15 20.55-62.59 26.34-95.47 23.93-135.93-2.53-42.591-11.77-74.861-34.47-120.448-19.6-39.369-42.14-72.635-69.53-102.619-24.16-26.451-36.9-46.12-42.1-65-1.92-6.974-2.21-10.566-2.25-28-.04-16.915.31-21.774 2.23-31.5 3.09-15.595 7.76-33.22 16.69-63.075 15.08-50.387 18.46-67.969 19.23-99.992.58-23.914 0-30.894-5.27-63.433-9.29-57.317-10.52-79.021-9.58-169.5.4-39.102-.47-51.887-4.96-72.677-9.93-45.998-37.67-92.79-70.92-119.61-36.82-29.7-83.33-47.475-142-54.26-12.82-1.483-60.79-2.752-69.5-1.838Zm48.18 4.4c57.75 2.803 101.3 14.98 138.82 38.808 48.57 30.85 84.16 88.458 94.14 152.373 1.3 8.294 1.76 23.762 2.38 79.304.87 77.747 1.82 91.656 9.54 139.19 4.6 28.273 5.48 35.774 6.1 51.81 1.29 33.678-3.17 58.488-21.5 119.5-14.61 48.602-17.51 63.3-17.59 89-.04 13.008.38 19.476 1.65 25.196 4.91 22.087 16.12 39.945 45.52 72.513 36.03 39.903 63.48 84.322 83.62 135.313 19.64 49.728 24.19 101.025 13.57 152.865-3.44 16.8-8.54 34.76-18.81 66.29-13.17 40.43-14.63 47.09-14.53 66.32.06 10.53.59 17.09 1.8 22 .99 4.06 1.94 13.1 2.25 21.5.65 17.23-.65 27.27-6.84 52.73l-4.19 17.24-5.67-11.74c-3.12-6.45-9.95-18.75-15.16-27.34-14.42-23.72-24.46-44.21-40.2-82.05l-5.68-13.66 4.11-19.33c5.49-25.85 6.95-36.82 6.97-52.56.03-21.95-4.68-48.97-14.53-83.36-15.24-53.215-37.13-101.586-66.24-146.389-18.06-27.801-33.34-44.915-57.8-64.734-21.08-17.082-24.41-22.392-24.41-38.884 0-19.059 7.95-44.091 29.56-93.043 16.62-37.66 24.32-56.133 41.64-99.877 30.43-76.864 33.16-84.977 37.76-112.5 6.86-41.06 7.86-106.59 2.48-163.358-10.14-106.943-32.39-174.015-74.44-224.393-23.49-28.142-57.26-48.35-90.74-54.29-37.44-6.643-96.52 1.782-158.34 22.58-38.29 12.884-75.06 29.373-121.19 54.35-54.5 29.505-81.98 40.853-126.08 52.061-30.79 7.826-40.81 12.978-50.317 25.876-6.638 9.007-10.665 17.606-19.025 40.629-7.042 19.397-16.883 41.803-17.909 40.778-.257-.257-.03-2.44.505-4.85.998-4.504 2.235-17.934 4.106-44.586 2.261-32.215 7.304-48.636 18.901-61.548 11.944-13.298 23.959-17.758 72.089-26.759 31.84-5.956 64.97-15.849 102-30.459 32.7-12.902 48.09-20.119 107-50.154 17.32-8.834 36.15-17.709 41.84-19.724 20.6-7.3 40.87-11.378 62.66-12.608 19.25-1.086 18.43-1.085 40.18-.03Zm47.45 17.821c33.77 7.92 62.76 26.153 86.41 54.341 33.82 40.315 55.7 98.207 66.86 176.917 10.47 73.842 11.28 155.251 2.08 208.425-3.99 23.027-8.41 36.645-24.22 74.481-6.32 15.125-16.55 40.325-22.75 56-6.2 15.675-17.91 44.475-26.03 64-30.34 72.969-36.52 92.859-35.24 113.422.58 9.226 3.27 16.514 8.31 22.465 1.57 1.864 10.38 9.846 19.56 17.74 18.9 16.23 26.46 24.098 38.36 39.873 37.62 49.894 68.84 116.681 86.03 183.997 10.71 41.96 12.61 66.33 7.46 95.93-2.02 11.65-6.82 34.76-7.31 35.26-.13.13-3.33-8.18-7.1-18.47-3.77-10.3-9.21-25.03-12.07-32.75-2.87-7.73-6.42-19.2-7.89-25.5-7.49-32.07-21.6-76.72-35.39-111.967-24.11-61.623-39.74-93.982-75.88-157.174-6.82-11.921-13.47-24.299-14.77-27.507-3.71-9.13-5.55-20.044-5.55-32.899 0-26.581 6.71-55.442 28.47-122.42 30.77-94.681 41.09-135.478 47.21-186.5 1.48-12.352 1.8-22.943 1.8-60 .01-44.31-.4-52.85-4.05-85.5-5.5-49.191-15.94-102.053-26.47-134.049-9.51-28.925-23.26-50.965-40.74-65.307-4.09-3.362-10.2-8.832-13.58-12.156-20.29-19.97-50.59-35.87-79.84-41.899-44.83-9.235-102.43 1.084-147.97 26.51-11.25 6.28-37.97 23.725-61.83 40.364-58.58 40.854-81.26 54.288-135.5 80.27-49.28 23.604-63.22 32.072-79.503 48.267-18.809 18.714-26.264 33.944-48.136 98.35-14.718 43.337-18.706 54.053-25.497 68.518-10.588 22.554-22.406 36.625-36.568 43.539-9.457 4.618-15.71 6.147-35.244 8.616-25.469 3.219-40.428 7.563-51.552 14.971-2.475 1.649-4.888 2.999-5.361 3.002-1.546.007.434-7.402 3.047-11.403 7.112-10.893 13.032-13.252 40.314-16.062 19.539-2.012 30.302-4.544 40.708-9.577 15.094-7.301 25.747-18.477 34.74-36.447 6.073-12.134 9.843-22.554 21.167-58.507 11.927-37.864 16.716-51.033 20.997-57.735 4.871-7.626 9.346-16.802 12.011-24.631 1.285-3.777 4.02-9.402 6.077-12.5 4.628-6.971 9.746-18.711 17.495-40.134 11.307-31.258 18.993-44.017 31.465-52.228 8.97-5.908 15.01-8.043 37.82-13.356 41.88-9.756 71.92-22.092 127.52-52.373 35.79-19.493 37.89-20.582 55.7-28.906 54.92-25.676 111.86-42.788 163.3-49.075 4.12-.504 17.62-.766 30-.583 18.22.27 24.14.718 31.13 2.357Zm-59.1 29.206c24.83 3.053 51.56 13.56 73.97 29.083 7.83 5.425 14 10.316 14 11.103 0 .178-4.42-1.836-9.82-4.475-12.21-5.968-28.61-10.226-45.5-11.814-26.95-2.534-65.66 3.417-108.68 16.71-29.68 9.172-64.37 25.172-106.98 49.341-12.55 7.12-35.58 19.769-51.17 28.108-73.53 39.327-106.5 60.999-135.2 88.864-19.57 19.001-30.664 34.156-42.111 57.538-8.25 16.852-13.831 32.53-21.91 61.548-8.083 29.036-12.265 41.186-19.209 55.821-13.282 27.993-29.578 45.004-55.42 57.852-9.117 4.533-23.656 9.399-50 16.736-20.034 5.579-30.537 10.551-39.353 18.63l-6.482 5.939-.528-2.763c-.29-1.52-1.034-6.138-1.653-10.263s-2.504-13.319-4.19-20.432l-3.064-12.931 2.385-1.971c4.005-3.31 17.932-9.396 26.385-11.531 7.73-1.951 11.436-2.516 36.731-5.595 25.969-3.162 41.191-12.333 54.014-32.54 9.613-15.149 17.947-35.029 32.069-76.5 24.447-71.788 31.462-86.747 49.651-105.871 14.554-15.302 29.265-24.513 79.535-49.813 61.58-30.988 74.44-38.782 148.5-89.974 38.27-26.453 57-37.389 78.29-45.713 17.51-6.848 42.02-13.01 59.71-15.019 10.91-1.237 36.21-1.275 46.03-.068Zm49.47 28.914c32.39 7.404 56.62 23.156 74.68 48.544 12.5 17.584 22.74 45.069 31.41 84.316 13.98 63.301 21.34 141.619 18.57 197.473-3.05 61.275-11.08 97.563-44.65 201.711-28.42 88.172-33.81 110.898-33.89 143-.07 25.846 2.07 32.671 19.65 62.587 21.14 35.99 41.41 74.423 54.57 103.469 12 26.496 30.21 72.863 39.11 99.601 7.15 21.46 15.08 47.87 15.03 50.02-.01.45-4.44-10.2-9.85-23.68-12.75-31.79-20.88-49.812-33.82-74.997-5.79-11.275-14.44-28.15-19.22-37.5-4.77-9.35-11.32-21.275-14.55-26.5-9.28-15.021-16.05-27.238-34.06-61.5-9.25-17.6-20.98-39.477-26.07-48.615-18.23-32.743-19.6-36.836-19.67-58.885-.1-29.174 7.74-54.461 32.07-103.5 22.91-46.159 30.98-66.773 38.69-98.832 17.53-72.886 16.29-137.944-4.6-242.025-12.16-60.566-22.68-93.333-39.33-122.527-16.96-29.711-35.35-48.163-58.99-59.165-38.5-17.925-91.1-13.617-141.08 11.554-18.73 9.433-108.23 64.715-144.5 89.249-37.34 25.258-60.68 43.893-83.59 66.714-35.18 35.058-46.3 53.875-73.907 125.032-15.662 40.375-27.681 61.244-46.613 80.937-22.851 23.77-42.474 36.912-89.734 60.1-13.94 6.839-28.347 14.431-32.016 16.87-9.042 6.011-18.517 16.096-21.958 23.371l-2.811 5.945-.147-22.111c-.081-12.162-.551-24.787-1.045-28.056l-.897-5.943 4.609-4.965c10.001-10.773 19.915-15.337 50.609-23.296 22.541-5.844 36.504-10.93 47.267-17.216 27.789-16.229 44.544-37.821 58.719-75.667 2.005-5.353 6.967-21.261 11.026-35.351 8.19-28.427 10.515-35.518 15.883-48.454 11.106-26.764 23.105-45.106 42.535-65.027 28.3-29.019 63.39-52.461 148.07-98.914 14.57-7.996 36.18-19.998 48-26.672 38.36-21.651 63.94-33.749 91.81-43.423 25.59-8.88 55.9-16.236 79.09-19.194 15.3-1.952 43.82-1.172 55.6 1.522Zm-47.93 27.116c32.29 4.492 59.58 21.948 79.14 50.619 22.49 32.96 33.9 65.369 48.2 136.812 12.11 60.57 15.97 91.606 16.8 135.049.72 38.088-1.56 64.022-8.3 94.387-8.29 37.285-16.5 59.255-38.84 103.923-18.84 37.666-26.22 56.932-31.72 82.856-1.83 8.627-2.29 14.001-2.32 26.884l-.03 16.103-1.75-4.6c-7.33-19.311-9.03-47.676-4.25-71.113 4.88-23.902 14.51-48.063 38.47-96.492 20.76-41.942 26.59-55.604 30.72-72 2.54-10.066 2.78-12.57 2.77-29.5-.01-20.391-1.34-29.756-8.04-56.5-15.64-62.404-43.2-121.761-81.71-176-16.13-22.715-37-38.453-64.71-48.797-14.45-5.394-24.91-7.03-41-6.412-21.79.837-28.01 2.949-79.64 27.046-49.53 23.122-69.18 33.45-99.36 52.232-44.32 27.585-68.33 50.472-88.27 84.141-3.51 5.934-12.16 21.815-19.21 35.29-27.88 53.261-40.99 73.574-60.195 93.278C964.481 505.33 956.111 511.1 901 542.418c-31.566 17.937-40.614 23.586-55.148 34.426-31.179 23.254-45.766 43.114-51.868 70.612l-1.938 8.737.446-22c.515-25.437 1.829-33.648 7.095-44.345 4.397-8.931 12.914-17.939 23.327-24.671 4.077-2.636 17.413-9.664 29.635-15.617 35.194-17.144 52.965-27.638 70.795-41.807 30.133-23.946 47.105-48.606 65.079-94.56 16.447-42.056 19.287-48.846 26.117-62.5 3.98-7.975 9.91-18.55 13.17-23.5 28.51-43.274 80.03-86.909 167.29-141.666 81.1-50.894 99.25-61.095 122-68.578 12.89-4.238 27.64-7.705 39-9.166 9.61-1.236 32.74-1.246 41.57-.018Zm-36.07 91.288c26.61 7.408 50.03 22.123 65.45 41.123 8.29 10.227 8.28 10.913-.04 2.845-9.36-9.061-11.65-10.917-21.07-17.053-18.84-12.276-39.22-16.026-55.67-10.244-18.45 6.486-29.31 18.379-70.71 77.469-29.49 42.094-40.6 56.361-67.21 86.29-28.23 31.748-29.46 33.994-52.39 96-12.66 34.22-14.61 56.227-7.27 82.102 3.6 12.707 13.83 32.28 28.58 54.722 20.21 30.733 25.5 43.288 24.62 58.438-.86 14.92-9.22 26.625-24.29 34.015-12.63 6.194-18.56 7.37-37 7.341-18.67-.029-24.25-.926-58.26-9.361-43.69-10.841-56.73-12.555-89.485-11.775-22.71.541-35.817 1.932-59.755 6.341-19.042 3.508-52.382 11.028-59.5 13.421-11.435 3.844-20.718 13.223-22.188 22.417-1.003 6.272-2.159 1.621-2.242-9.019-.117-15.184 4.917-27.604 15.464-38.151 11.254-11.254 22.627-15.323 57.966-20.735 13.737-2.104 24.906-5.792 42.65-14.081 20.554-9.602 28.516-11.749 43.85-11.823 21.52-.103 38.83 5.441 74.99 24.025 11.27 5.792 24.54 11.938 29.5 13.659 8.05 2.797 10.23 3.131 20.51 3.143 10.82.013 11.89-.172 18.12-3.116 12.55-5.927 18.77-14.316 22.28-30.05 6.87-30.82-5.12-49.425-57.9-89.805-30.03-22.977-32.49-25.459-32.5-32.788 0-7.162 5.38-15.119 24.15-35.71 42.04-46.109 53.54-63.298 79.86-119.407 20.21-43.091 28.2-57.012 48.02-83.593 20.1-26.98 27.82-41.539 28.75-54.237.52-7.145-.31-9.245-4.24-10.78-1.64-.639 1.18-2.348 14.46-8.767 27.48-13.278 39.27-16.375 60-15.761 10.44.309 15.54.969 22.5 2.905Zm19.83 19.234c15.4 3.969 29.49 13.102 47.49 30.785 14.26 14.009 19.48 21.35 35.61 50.121 38.69 69.002 63.91 152.84 58.69 195.097-2.62 21.194-8.24 36.314-28.39 76.403-37.09 73.774-46.95 100.76-48.4 132.5-1.3 28.395 4.63 50.198 21.96 80.765 4.13 7.279 9.54 18.185 12.03 24.235 10.34 25.129 36.89 79.512 43.68 89.483 2.07 3.034 7.53 10.541 12.15 16.681 10.16 13.525 25.69 39.141 29.79 49.131 4.49 10.966 10.48 29.967 14.56 46.172 15.96 63.45 28.07 166.59 22.1 188.29-2.41 8.78-6.3 15.66-19.52 34.57-6.66 9.52-18.06 26.17-25.32 36.99-18.83 28.05-28.01 36.67-43.3 40.65-10.08 2.63-23.65 1.69-37.96-2.62l-7-2.11 5.15-1.77c8.96-3.09 24.53-11.69 33.79-18.65 11.19-8.43 28.58-25.7 39.18-38.93 33.39-41.65 47.03-81.24 43.37-125.89-3.57-43.53-22.46-125.99-36.95-161.259-5.23-12.712-8.71-18.132-20.15-31.354-10.96-12.673-14.11-18.099-16.46-28.384-3.41-14.942-6.37-23.09-10.44-28.772-7.13-9.958-15.39-14.247-34.13-17.71-23.43-4.331-33.88-9.052-45.4-20.518-18.15-18.064-26.42-44.92-29.5-95.836-1.76-29.093 1.59-62.397 9.13-90.664 1.69-6.325 6.88-22.975 11.54-37 13.87-41.751 18.42-61.316 20.39-87.75 1.69-22.524-.41-45.203-6.53-70.75-4.79-19.995-10.45-35.791-18.98-53-8.58-17.296-17.79-30.195-26.84-37.566-34.92-28.435-85.63-12.333-136.88 43.464-29.74 32.373-45.84 57.121-53.42 82.102-2.49 8.227-2.73 10.46-2.79 26-.06 14.758.24 18.187 2.28 26 5.1 19.542 14.14 38.747 38.09 80.927 18.89 33.279 25.94 46.765 30.56 58.473 18.09 45.84 1.71 85.406-41.01 99.015-12.77 4.068-22.03 5.397-37.5 5.379-27.92-.032-42.62-4.177-83.5-23.542-51.78-24.53-78.66-33.541-112.474-37.708-12.253-1.51-39.118-1.282-52.225.444-26.211 3.45-55.392 13.272-71.912 24.204-4.34 2.873-5.196 2.586-7.858-2.631-2.242-4.396-1.527-8.767 2.449-14.979 5.823-9.095 12.979-12.715 33.52-16.954 48.871-10.086 93.332-14.651 126.45-12.982 18.53.934 31.03 2.863 60.55 9.344 40.73 8.942 40.56 8.918 61 8.899 15.87-.015 19.62-.326 26.34-2.186 25.66-7.095 40.66-23.914 40.66-45.592 0-6.85-3.66-19.412-8.33-28.611-2.38-4.675-9.05-15.7-14.81-24.5-25.47-38.851-32.2-56.155-32.27-83-.04-16.048 1.41-24.233 7.38-41.732 7.18-21.048 24.97-66.992 28.12-72.642 4.73-8.479 12.13-17.947 27.87-35.626 28-31.447 43.04-51.138 77.53-101.5 22.12-32.294 26.49-38.089 35.46-47 15.35-15.245 31.04-19.647 51.38-14.406Zm-115.78 5.099c1.36 1.356 1.59 2.898 1.16 7.75-1.06 11.966-8.84 26.291-26.64 49.031-24.97 31.905-30.54 41.363-60.39 102.526-22.52 46.13-36.04 66.277-70.14 104.5-24.62 27.602-28.36 35.939-20.93 46.661 1.53 2.208 7.1 7.462 12.37 11.677 15.29 12.228 16.6 13.321 15.02 12.513-5.72-2.917-23.2-16.468-31.88-24.713-11.6-11.02-17.95-14.646-30.21-17.258-18.47-3.934-47.89 1.893-82.344 16.305-16.74 7.002-59.395 28.084-75.566 37.348-55.699 31.908-85.192 62.156-93.085 95.467-3.368 14.213-2.459 25.383 3.402 41.801 6.773 18.973 8.17 26.046 8.042 40.699-.169 19.427-3.909 33.18-16.328 60.048-18.35 39.702-22.023 66.339-13.575 98.464 4.722 17.956 11.459 30.606 35.943 67.488 24.055 36.237 28.288 43.217 37.116 61.197 8.372 17.06 13.711 32.5 19.466 56.3 8.385 34.69 13.274 45.94 24.969 57.5 16.077 15.89 45.377 26.2 74.55 26.22 26.81.02 47.22-7.65 65.02-24.44 17.67-16.66 28.15-36.86 40.59-78.22 3.32-11.03 7.77-24.22 9.9-29.32 12.11-28.98 33.86-52.729 63.31-69.098 10.85-6.031 27.1-11.939 51.18-18.604 32.29-8.939 45.8-13.603 74.06-25.568 41.99-17.779 58.1-23.052 80.6-26.394 16.62-2.468 31.11-1.884 61.84 2.492 54.95 7.826 109.91 46.556 132.57 93.435 7.71 15.937 9.87 24.947 9.85 40.997-.02 9.34-.67 16.39-2.32 25-1.94 10.12-2.33 15.77-2.52 36-.25 26.12-.88 30.64-6.59 47-6.23 17.85-24.87 53.92-47.28 91.5-11.57 19.4-26.29 42.8-28 44.5-1.3 1.3-1.09.92 5.5-10 23.11-38.3 38.59-80.05 45.41-122.5 2.61-16.21 2.38-45.9-.47-62.14-3.98-22.62-9.29-38.96-19.66-60.42-22.73-47.099-59.95-80.523-107.24-96.311-17.43-5.82-27.86-7.481-47.25-7.526-27.11-.063-39.46 3.107-68.25 17.526-20.3 10.165-31.19 14.461-52.75 20.812-58.01 17.089-75.75 24.627-93.47 39.709-18.97 16.15-28.53 36.2-39.49 82.85-6.45 27.46-9.28 37.59-13.68 49-16.47 42.76-48.06 66.53-102.135 76.88-20.811 3.98-32.668 5.11-52.725 5.06-27.205-.08-42.159-3.13-60-12.23-10.973-5.59-22.302-16.34-27.308-25.89-6.349-12.12-7.265-18.35-7.547-51.32-.277-32.51-.793-36.5-7.208-55.82-7.14-21.49-20.176-48.86-44.147-92.677-6.62-12.1-13.918-25.752-16.219-30.338-15.735-31.371-22.662-60.834-20.155-85.736 1.939-19.27 6.021-31.91 19.353-59.926 24.031-50.499 27.352-65.205 26.141-115.759-.737-30.759-.167-37.759 4.132-50.794 4.893-14.836 16.571-31.721 30.136-43.574 19.643-17.165 36.144-27.967 75.669-49.537 45.493-24.827 58.999-33.941 76.676-51.74 21.137-21.278 34.087-40.93 63.007-95.596 25.11-47.457 31.97-57.725 51.86-77.613 18.42-18.419 37.48-31.93 73.11-51.823 23.72-13.242 88.02-44.999 91.18-45.034 1.47-.017 3.44.732 4.37 1.663ZM922.895 339.704c-13.61 43.027-18.108 55.649-24.407 68.489-13.744 28.016-33.064 41.005-66.217 44.518l-18.522 1.962c-16.237 1.72-24.854 5.681-30.594 14.062l-2.369 3.458.681-3.5c8.246-42.393 18.324-55.973 62.669-84.436 18.03-11.574 34.789-23.708 47.864-34.657 11.97-10.025 33.686-31.834 37.978-38.143 1.362-2.003 2.567-3.552 2.677-3.442.11.11-4.282 14.37-9.76 31.689Zm443.825 12.013c12.63 4.346 24.75 14.387 33.81 28.026 15.66 23.559 27.59 56.039 33.61 91.509 2.93 17.267 3.16 47.416.49 64.441-2.48 15.822-7.62 35.496-14.24 54.5-16.88 48.463-21.16 63.464-25.09 88-2.26 14.055-2.54 63.728-.46 78.5 7.75 54.865 22.7 80.6 54.01 92.94 2.72 1.073 12.08 3.367 20.8 5.099 18.84 3.743 26.39 6.926 32.27 13.605 5.5 6.247 8.63 13.254 11.64 26.071 2.59 10.987 6.17 20.178 9.24 23.677 1.62 1.856 1.61 1.91-.3 1.153-7.63-3.033-16.58-4.791-43-8.447-30.54-4.227-35.82-5.106-57-9.5-17.34-3.596-28.75-4.599-52.21-4.588-32.92.015-64.5 4.173-170.79 22.486-17.6 3.032-44.38 7.334-59.5 9.56-15.12 2.226-31.04 4.946-35.35 6.044-29.67 7.538-46.77 21.074-59.91 47.4-5.73 11.476-9.52 22.617-15.16 44.497-5.48 21.25-8.12 29.14-13.16 39.34-7.08 14.31-17.258 24.25-28.897 28.22-6.594 2.24-26.836 3.05-37.741 1.51-21.041-2.98-39.472-10.16-48.151-18.75-9.257-9.16-18.027-24.83-25.641-45.82-6.498-17.9-17.362-36.844-30.824-53.732-3.391-4.254-6.166-7.942-6.166-8.195 0-.252 2.44.658 5.423 2.023 7.713 3.531 21.669 6.848 39.368 9.357 28.372 4.021 40.564 8.339 59.209 20.967 14.608 9.9 18.581 11.9 27.286 13.71 13.973 2.91 31.054-2.36 36.754-11.36 3.63-5.721 4.62-10.88 5.93-30.912 1.75-26.655 4.35-33.833 20.49-56.355 5.32-7.425 11-15.824 12.63-18.664 13.19-23.032 9.06-53.063-9.94-72.281-11.09-11.203-23.63-15.574-38.387-13.375-9.467 1.41-16.175 4.041-27.585 10.818-16.307 9.686-29.723 14.239-44.678 15.16-11.415.704-19.864-1.185-30.842-6.897-30.322-15.775-52.59-49.386-58.165-87.791-.835-5.759-2.859-16.77-4.496-24.47-6.481-30.487-5.542-44.61 3.94-59.281 6.893-10.665 15.559-17.633 28.202-22.676 3.499-1.395 17.611-5.429 31.361-8.965 40.612-10.442 58.129-16.421 95.587-32.625 26.363-11.405 34.013-13.953 41.893-13.953 11.29 0 19.54 4.962 30.75 18.492 3.65 4.404 8.46 9.986 10.7 12.403 2.69 2.908 3.39 4.134 2.07 3.624-15.77-6.082-28.59-8.621-46.59-9.226-26.22-.881-35.965 1.299-93.41 20.893-37.297 12.722-50.95 18.549-63.03 26.9-17.174 11.872-29.467 31.124-32.546 50.967-3.096 19.956 6.947 41.125 23.836 50.243 10.562 5.701 22.584 6.695 55.385 4.579 37.739-2.436 70.731 3.684 102.355 18.986 22.59 10.929 36.73 21.313 55.64 40.863 31.38 32.426 39.64 39.493 56.95 48.702 23.66 12.584 60.06 19.035 93.58 16.585 15.77-1.152 23.95-2.261 69.83-9.453 33.64-5.274 39.58-6.514 50.73-10.582 16.34-5.965 23.77-12.378 23.77-20.527 0-6.442-2.57-13.589-12.02-33.449-9.44-19.842-13.72-31.924-16.88-47.62-3.86-19.229-4.6-29.706-4.52-63.88.06-27.185.46-36.348 2.27-52 1.21-10.45 2.93-25.3 3.83-33 2.32-20.076 2.32-56.914 0-69.5-3.73-20.175-9.65-34.519-18.03-43.689-11.85-12.967-26.99-14.545-45.63-4.753-25.75 13.531-40.68 45.2-37.01 78.513 2.51 22.826 6.96 34.751 30.93 82.929 23.18 46.577 28.06 61.157 28.06 83.798 0 13.265-2.31 23.331-7.97 34.702-11.91 23.938-41.96 45.89-75.54 55.184-8.85 2.45-11.7 2.766-24.99 2.775-13.14.008-16.31-.332-25.59-2.738-23.93-6.207-47.55-17.658-94.54-45.831-48.38-29.008-64.41-37.304-85.87-44.432-14.253-4.735-24.3-6.545-36.51-6.578-12.842-.035-18.523.905-39.99 6.616-20.168 5.366-26.46 6.524-34.934 6.434-11.299-.121-11.727-1.063-2.566-5.644 16.516-8.259 31.472-13.063 51.5-16.541 17.101-2.97 55.05-3.178 71-.391 33.2 5.803 56.03 13.518 101 34.134 12.38 5.672 25.2 11.425 28.5 12.783 37.36 15.376 77.42 15.598 108.37.601 8.78-4.253 11.63-6.282 18.58-13.199 9-8.952 13.34-15.753 17.08-26.759 8.43-24.781 3.75-51.861-15.2-87.914-3.61-6.875-13.26-23.869-21.45-37.765-21.62-36.718-29.36-52.619-34.65-71.235-2.43-8.573-2.69-11.062-2.66-25.5.04-14.53.3-16.819 2.78-24.916 7.9-25.738 27.48-53.335 63.63-89.706 18.02-18.12 26.59-25.206 40.96-33.843 21.56-12.954 44.34-17.015 61.78-11.011ZM780 484.634c0 .518-.45 1.219-1 1.559-.55.34-1-.084-1-.941s.45-1.559 1-1.559 1 .423 1 .941Zm2.407 11.309c2.134 9.621 4.122 21.202 5.562 32.409 1.043 8.112.985 9.53-.506 12.412-3.547 6.859-5.771 15.52-12.503 48.679-7.556 37.22-13.934 63.27-21.973 89.75-10.529 34.683-18.263 50.593-34.038 70.018-16.52 20.345-38.058 35.389-85.684 59.851-13.071 6.713-26.57 14.113-29.997 16.444-8.278 5.629-16.681 14.368-19.765 20.557-1.377 2.763-2.503 4.472-2.503 3.798 0-1.859 5.803-12.975 10.007-19.168 6.117-9.013 12.008-14.977 43.991-44.534 33.935-31.361 55.065-52.569 65.476-65.716 23.13-29.21 35.855-52.5 48.002-87.859 10.026-29.184 15.833-55.781 23.99-109.891 2.529-16.775 4.839-31.288 5.134-32.25 1.2-3.926 3.232-1.602 4.807 5.5Zm533.093.099c12.69 5.909 22.59 23.395 27.27 48.151 2.62 13.868 2.32 50.818-.58 72.5-1.22 9.075-3.37 25.05-4.78 35.5-3.45 25.582-4.41 66.342-2.05 86.669 3.69 31.775 8.34 46.453 24.94 78.831 9.82 19.148 11.93 26.204 9.4 31.51-2.16 4.523-8.16 8.75-17.56 12.373-9.27 3.576-18.92 5.469-41.47 8.139-9.45 1.118-27.29 3.585-39.67 5.481-12.38 1.897-26.32 3.886-31 4.42-38.74 4.425-75.07.107-100.88-11.989-16.68-7.815-23.87-13.574-50.62-40.514-30.94-31.162-40-38.056-67-50.97-14.43-6.901-26.737-11.197-42.5-14.831-19.258-4.441-26.875-5.135-51.5-4.691-50.423.911-55.015.57-61.048-4.523l-2.952-2.492 4.5.794c9.051 1.595 25.901.662 39-2.16 33.759-7.274 35.342-7.526 47.292-7.536 29.078-.026 54.838 10.349 114.098 45.947 17.53 10.536 37.62 22.296 44.64 26.133 23.59 12.9 45.73 21.748 63.97 25.562 10.09 2.11 29.61 2.364 38.5.501 23.59-4.943 45.12-16.274 62.68-32.986 26.18-24.912 34.3-54.881 24.84-91.587-4.03-15.624-8.52-26.428-26.02-62.581-21.07-43.518-25.36-55.386-28.06-77.718-2.65-21.807 3.34-43.395 16.52-59.572 13.65-16.761 35.93-24.934 50.04-18.361Zm-255.99 24.726c7.05 2.178 15.37 7.969 22.74 15.833 2.61 2.786 4.75 5.184 4.75 5.329 0 .145-4.09.104-9.1-.09-71.04-2.758-190.644 45.492-240.471 97.008-9.37 9.689-13.219 15.071-17.949 25.101-9.08 19.253-8.618 33.774 1.598 50.216 2.744 4.415 6.661 11.403 8.705 15.528 3.641 7.348 3.715 7.724 3.611 18.5-.16 16.584-3.163 26.165-19.469 62.103-19.113 42.127-22.676 66.502-14.455 98.897 2.847 11.22 10.582 27.809 18.417 39.5 2.765 4.125 11.646 15.825 19.735 26 22.531 28.337 26.392 34.767 37.783 62.907 14.244 35.18 25.318 47.45 50.095 55.51 13.692 4.46 23.737 5.97 40 6.03 12.85.05 16.022-.27 22.129-2.19 21.271-6.69 34.411-26.73 44.941-68.54 9.5-37.715 18.23-55.857 33.92-70.513 8.38-7.823 18.71-13.654 31.01-17.5 9.94-3.108 19.61-4.891 44.5-8.202 10.72-1.427 40.43-5.925 66-9.994 74.64-11.877 101.31-15.816 128.5-18.978 17.09-1.987 17.95-1.849 6 .958-13.64 3.203-29.55 8.858-53.24 18.924-38.75 16.47-48.77 19.992-84.26 29.637-23.96 6.511-37.33 11.107-48.27 16.597-28.43 14.268-50.38 34.771-63.57 59.351-5.94 11.07-9.63 21.07-15.64 42.39-8.83 31.28-15.21 47.27-24.41 61.16-24.92 37.64-70.091 49.73-119.648 32.02-23.743-8.49-36.56-20.23-44.469-40.74-1.69-4.38-5.732-18.85-8.984-32.15-12.715-52.01-20.703-69-59.594-126.752C791.783 922.096 785 905.261 785 876.714c0-20.935 4.113-37.054 16.36-64.115 13.209-29.189 16.912-43.2 16.887-63.906-.017-13.953-1.448-21.967-6.249-35-7.288-19.784-7.999-22.657-7.983-32.288.019-12.065 1.975-20.017 7.923-32.212 12.389-25.399 36.049-47.095 76.062-69.745 14.783-8.368 76.031-38.991 91-45.498 18.997-8.259 37.31-13.556 54-15.62 6.44-.796 20.11.461 26.51 2.438Zm-270.542 72.925c-4.438 47.641-21.912 95.044-51.238 139-20.702 31.029-53.756 67.823-83.84 93.328-6.935 5.88-14.637 13.274-17.114 16.432-9.19 11.712-13.942 24.762-14.106 38.74-.227 19.281 8.928 29.471 32.33 35.982 10.869 3.025 13.404 4.534 24.643 14.672 4.479 4.04 10.629 9.478 13.667 12.085 6.727 5.772 14.401 19.761 10.841 19.761-.886 0-18.189-18.352-26.555-28.164-2.656-3.116-6.762-7.052-9.123-8.748-4.875-3.501-15.37-6.559-19.604-5.712-2.424.485-3.822-.313-9.603-5.482-3.721-3.327-13.765-11.366-22.318-17.865-23.901-18.159-30.338-26.321-30.388-38.529-.03-7.492 2.705-13.441 9.702-21.097 7.9-8.644 15.732-13.869 41.738-27.85 53.495-28.76 71.343-42.365 90.363-68.88 18.148-25.3 33.336-72.185 49.197-151.865 5.883-29.552 8.842-41.525 11.143-45.077 1.314-2.03 1.518 35.814.265 49.269Zm305.192-46.286c2.39 1.767 10.87 7.603 18.84 12.967 29.36 19.749 41.44 35.729 37.84 50.034-1.62 6.44-7.9 12.632-14.93 14.719-11.85 3.519-29.8 1.121-44.91-6.001-6.66-3.137-9.19-5.258-22.5-18.848-16.58-16.926-22.04-20.551-32.24-21.396-8.34-.692-14.75 1.158-39.261 11.331-26.77 11.108-44.694 17.192-74.999 25.457-12.375 3.375-28.222 7.698-35.215 9.607-22.986 6.276-34.076 11.83-44.76 22.416-7.743 7.671-13.273 17.963-15.655 29.135-2.105 9.866-1.264 21.93 2.632 37.785 1.678 6.831 2.925 12.798 2.771 13.26-.441 1.323-12.563-19.139-14.935-25.211-2.731-6.993-2.918-18.987-.426-27.417 5.721-19.35 19.334-35.93 45.559-55.49 45.012-33.572 118.806-63.983 177.029-72.956 18.6-2.867 18.62-2.868 35.66-2.729l15.15.123 4.35 3.214Zm51.35 33.479c15.83 13.595 25.53 25.831 29.6 37.346 5.81 16.428-.38 42.85-11.89 50.8-7.6 5.246-10.9 6.098-23.72 6.131-15.28.038-19.82-1.339-47.31-14.372-43.35-20.55-65.75-26.649-88.41-24.075-10.791 1.227-17.817 3.394-40.28 12.427-20.027 8.053-27.001 10.106-49.357 14.532-26.597 5.266-37.121 9.81-47.845 20.661-7.181 7.266-13.442 19.131-15.357 29.101-1.792 9.332-.828 20.978 2.251 27.199 2.125 4.296 2.225 4.839.619 3.386-1.053-.953-3.745-5.427-5.983-9.944-3.594-7.254-4.125-9.243-4.551-17.049-1.454-26.64 15.288-52.334 43.223-66.336 4.4-2.205 17.225-6.964 28.5-10.576 11.275-3.611 31.975-10.579 46-15.485 38.007-13.292 49.69-15.65 72.5-14.625 15.32.688 29.35 3.958 48 11.197 28.68 11.128 27.99 10.94 40 10.954 12.64.015 17.2-1.49 24.53-8.102 5.61-5.063 7.92-10.284 7.95-17.987.04-10.732-4.14-18.717-15.9-30.376-7.53-7.472-6.43-6.707 7.43 5.193Zm-355.848 48.057c-.277.688-.504.125-.504-1.25s.227-1.937.504-1.25c.278.688.278 1.813 0 2.5Zm-1.663 19.64c-2.416 23.499-10.075 43.394-28.529 74.11-21.673 36.076-52.639 76.997-85.873 113.483-11.972 13.142-14.883 18.245-14.883 26.086 0 5.365 3.578 13.576 7.439 17.07 2.973 2.69 3.287.804.479-2.877-6.105-8.004-7.11-15.405-3.166-23.316 1.357-2.72 7.319-10.125 13.25-16.454 32.971-35.187 67.323-79.122 86.17-110.209 12.194-20.114 20.289-37.504 25.693-55.196l2.47-8.087-.592 13c-.325 7.15-1.258 16.375-2.072 20.5-4.268 21.614-15.796 46.791-35.718 78-20.66 32.365-24.168 38.162-28.742 47.5-6.937 14.163-9.3 24.219-8.68 36.951.612 12.591 2.574 17.931 14.743 40.136 11.458 20.906 17.737 34.826 23.033 51.065 11.322 34.708 13.664 66.275 7.482 100.845-6.09 34.06-7.229 46.67-5.51 61 1.232 10.28 4.739 23.05 8.192 29.85 1.075 2.12 1.804 4 1.62 4.18-.417.42-19.034-24.45-28.839-38.53-9.348-13.42-34.525-38.75-43.99-44.27-13.57-7.91-33.707-12.4-51.377-11.46l-10.099.53 8.226-3.82c9.732-4.52 22.054-12.82 26.421-17.8 4.248-4.83 6.805-10.82 6.831-15.99.012-2.42-1.914-10.31-4.398-17.999a2422.36 2422.36 0 0 1-7.965-25.188c-4.722-15.319-10.083-26.08-17.131-34.388-6.261-7.38-6.096-7.543 3.523-3.479 5.11 2.159 7.35 5.243 13.964 19.227 8.05 17.02 14.547 21.663 37.306 26.659 14.502 3.185 22.818 3.629 26.56 1.418 3.291-1.944 6.163-7.603 6.163-12.143 0-9.59-7.57-27.474-15.131-35.747-7.586-8.3-13.888-10.518-42.869-15.09-33.422-5.272-46.177-15.157-46.351-35.922-.168-19.957 7.864-35.134 27.62-52.194 27.307-23.581 44.091-40.774 66.132-67.743 32.58-39.865 55.95-82.957 66.708-123 2.009-7.479 2.445-8.358 2.726-5.5.184 1.871-.192 8.528-.836 14.792Zm4.582 62.487c-1.448 31.096-6.304 47.958-25.541 88.693-15.824 33.506-20.22 49.437-20.265 73.43-.052 28.12 6.244 50.586 24.274 86.611 3.96 7.914 14.189 27.664 22.73 43.886 18.485 35.12 27.814 54.94 33.194 70.55 6.003 17.41 7.02 25.12 7.024 53.26.002 13.37.504 27.55 1.117 31.5 3.614 23.34 16.696 41.01 38.199 51.6 5.603 2.76 13.562 5.94 17.687 7.07 39.099 10.67 103.357 3.5 141.6-15.81 21.25-10.73 36.9-25.12 48.75-44.85 9.21-15.33 14.69-31.26 22.67-65.91 11.4-49.48 18.77-66.39 36.17-83.05 15.19-14.545 36.37-24.76 74.31-35.837 39.21-11.449 46.86-14.268 73.5-27.098 31.65-15.243 43.91-18.155 72-17.102 29.74 1.115 56.53 10.179 83.97 28.412 42.08 27.963 72.64 81.175 80.58 140.265 6.01 44.76-5.58 100.88-31.93 154.65-6.91 14.09-27.25 50.35-28.25 50.35-.56 0 .72-2.48 6.76-13.04 10.85-19 22.19-51.54 27.85-79.96 10.07-50.61 5.13-94.04-15.44-135.68-19.25-38.99-50.31-72.51-83.54-90.159-35.8-19.022-74.8-18.898-113 .359-4.68 2.356-16.68 9.166-26.68 15.133-10 5.967-23.72 13.777-30.5 17.347-24.49 12.92-52.71 33.72-69.11 50.95-11.63 12.22-15.04 19.2-18.19 37.14-6.64 37.85-14.73 57.54-33.12 80.57-9.37 11.73-10.69 13.98-15.35 26.05-1.74 4.52-3.93 9.14-4.86 10.26-1 1.22-4.75 2.89-9.19 4.09-4.12 1.12-16.28 4.9-27 8.41-10.72 3.5-23.1 7.07-27.5 7.92-20.12 3.89-40.492 4.55-65.589 2.13-43.299-4.19-80.987-14.07-110.411-28.97-31.949-16.17-67.553-45.62-78.374-64.82-14.427-25.61-16.398-46.99-8.5-92.23 3.76-21.53 3.841-22.52 3.856-47 .013-21.99-.255-26.329-2.23-36.071-5.021-24.768-13.938-46.564-30.192-73.798-9.719-16.284-13.414-23.922-15.521-32.088-4.992-19.337 1.63-38.237 27.519-78.54 17.104-26.627 22.55-35.949 30.469-52.159 6.779-13.875 12.949-31.409 14.096-40.056.536-4.042.86-4.673 1.662-3.24.628 1.122.737 7.343.296 16.832Zm50.33 63.397c10.537 26.733 29.826 48.969 52.584 60.618 21.454 10.982 46.498 7.684 76.582-10.085 11.898-7.028 18.84-9.435 28.973-10.046 14.59-.88 25.12 3.511 35.04 14.613 9.66 10.803 14.93 25.18 14.88 40.586-.04 15.491-3.88 23.855-21.12 46.031-15.66 20.153-19.78 30.836-19.85 51.509-.05 16.164-1.64 28.628-4.26 33.357-4.65 8.42-16.884 13.37-30.48 12.35-9.309-.71-14.875-3.28-30.717-14.197-20.072-13.834-31.404-18.131-55.543-21.066-25.498-3.1-35.83-5.501-47.498-11.039-6.698-3.18-7.587-4.006-14.156-13.149-19.152-26.659-25.993-44.317-27.067-69.861-.997-23.7 2.267-37.109 18.597-76.395 10.757-25.878 15.304-39.388 16.662-49.5l.671-5 2.328 8.042c1.281 4.423 3.249 10.378 4.374 13.232Zm652.809 56.226c4.38 7.975 13.3 24.4 19.81 36.5 6.51 12.1 16 28.829 21.09 37.176 9.13 14.973 13.5 22.776 11.67 20.824-4.6-4.904-22.48-29.242-25.95-35.317-7.31-12.812-37.34-74.77-37.34-77.052 0-1.175 2.95 3.744 10.72 17.869Zm-912.333 42.359c3.821 7.809 12.194 15.778 27.787 26.446 13.917 9.522 26.747 19.25 26.797 20.32.033.703-10.758 1.559-31.538 2.501l-14.066.637-3.228-4.381c-10.58-14.362-15.104-38.13-11.018-57.882l1.345-6.5.587 6.621c.373 4.215 1.585 8.663 3.334 12.238Zm898.363 40.619c35.23 5.832 43.55 9.007 54.25 20.709 10.12 11.076 16.22 24.401 25.94 56.632 10.37 34.358 17.74 67.718 23.58 106.678 7.68 51.23-.16 87.27-27.96 128.5-10.74 15.93-18.28 25.2-32.03 39.36-14.05 14.47-27.53 24.64-42.13 31.8-6.3 3.09-11.64 5.43-11.86 5.21-.23-.22 1.86-3.32 4.63-6.88 6.12-7.87 28.09-40.53 37-54.99 16.72-27.15 35.21-63.16 42.34-82.45 7.85-21.25 9.53-32.35 9.27-61.05-.16-17.95.07-21.12 2.26-31 2.04-9.17 2.44-13.57 2.39-26.5-.06-13.95-.34-16.4-2.81-24.5-12.72-41.69-52.21-81.409-100.6-101.179-5.78-2.365-10.02-4.304-9.42-4.309.61-.005 11.92 1.781 25.15 3.969Zm-798.25 9.058c10.188 1.56 15.413 2.969 20.608 5.557 12.207 6.083 24.595 28.64 22.228 40.475-1.002 5.014-7.927 6.644-14.657 3.45-3.209-1.523-3.443-1.976-3.959-7.674-.756-8.337-5.501-17.711-11.531-22.78-2.579-2.168-9.189-7.624-14.689-12.125-5.5-4.502-10.225-8.407-10.5-8.679-.275-.271.85-.224 2.5.105 1.65.33 6.15 1.082 10 1.671Zm-41.579 2.229c1.332.679 2.618 1.832 2.859 2.561.335 1.015.001 1.085-1.421.297-1.023-.567-5.459-1.365-9.859-1.774-7.178-.667-7.589-.811-4-1.404 6.513-1.076 9.853-.99 12.421.32Zm19.907 2.328C664.961 928.576 679 941.2 679 942.727c0 .388-3.263-.974-7.25-3.027-3.987-2.052-9.874-4.792-13.081-6.087-5.596-2.26-10.669-6.136-10.669-8.15 0-1.239 9.403 0 13.828 1.823Zm-35.555 3.297c11.17 5.407 21.028 20.393 30.661 46.61 2.83 7.7 6.465 17.375 8.079 21.5 4.071 10.407 4.942 15.077 3.806 20.407-2.52 11.81-23.186 25.51-53.656 35.57-12.571 4.15-22.169 6.08-18.815 3.79 1.017-.7 7.308-4.87 13.98-9.27 15.161-10 24.306-18.49 28.772-26.73 3.263-6.01 3.399-6.69 3.365-16.77-.034-10.098-.209-10.934-4.627-21.997-7.027-17.601-7.104-17.948-6.305-28.593l.713-9.514-4.628-4.435c-5.135-4.919-13.925-9.734-21.893-11.992l-5.225-1.481 10.58.336c8.432.268 11.516.789 15.193 2.569Zm-12.422 5.212c1.293.509 4.837 2.575 7.874 4.591 6.656 4.418 8.408 7.819 7.051 13.687-.524 2.266-.732 6.595-.462 9.62l.49 5.5-1.848-5.269c-2.466-7.034-4.762-10.099-15.532-20.731-5.014-4.95-9.652-10.014-10.307-11.254l-1.192-2.254 5.788 2.593c3.183 1.425 6.845 3.008 8.138 3.517Zm54.765 7.289c17.261 8.342 23.701 15.609 13.833 15.609-5.383 0-7.781 3.642-5.368 8.151 2.183 4.08-.251 3.072-5.361-2.218-3.439-3.561-6.744-8.534-9.591-14.433-2.389-4.95-5.04-9.788-5.891-10.75-2.686-3.037.501-2.099 12.378 3.641Zm-50.307 10.859c4.691 5.792 6.183 8.984 8.797 18.821 4.905 18.454 2.17 36.216-7.911 51.396-4.53 6.81-30.195 34.36-30.195 32.4 0-1.68 3.091-7.05 9.996-17.37 9.392-14.03 14.372-23.49 18.158-34.5 3.046-8.854 3.27-10.411 3.307-22.997.033-11.522-.302-14.526-2.285-20.5-1.279-3.85-2.977-8.013-3.773-9.25-2.501-3.884.303-2.448 3.906 2Zm77.733 8.391 4.458 4.64-4.461-2.595c-2.454-1.427-4.802-3.516-5.218-4.641-1.189-3.215.396-2.427 5.221 2.596Zm-6.83 2.361c5.105 1.932 19.192 9.75 15.44 8.568-1.016-.32-5.066-1.058-9-1.639-9.596-1.417-13.471-2.725-14.66-4.945-2.434-4.55-.066-5.121 8.22-1.984Zm668.288 7.107c58.22 7.134 118.88 68.158 137.51 138.338 4.94 18.62 6.29 29.2 6.3 49.55.02 32.41-6.59 65.82-20.09 101.5-6.77 17.91-14.68 34.38-15.91 33.15-.24-.25.47-6.68 1.6-14.3 7.95-53.97 9.99-80.47 8.28-107.52-3.09-48.97-15.29-87.33-37.08-116.55-16.62-22.3-36.76-36.05-63.04-43.02-13.28-3.53-37.42-3.73-52.72-.44-59.34 12.75-107.39 55.34-142.78 126.56-12.28 24.71-18.13 34.15-25.28 40.79-8.89 8.25-16.63 11.25-33.18 12.82-5.53.53-11.26 1.26-12.73 1.63-2.32.59-1.7-.48 4.82-8.22 4.13-4.89 9.42-11.77 11.77-15.27 10.45-15.6 18.43-38.08 22.07-62.21 3.44-22.77 6.27-28.45 21.88-43.92 18.54-18.36 40.71-34.55 68.02-49.65 8.5-4.7 20.42-11.66 26.5-15.472 37.1-23.25 64.62-31.374 94.06-27.766Zm-720.341 19.212c1.644 5.393 1.986 8.637 1.637 15.496-.517 10.16-2.907 15.75-10.197 23.86-4.74 5.27-19.287 16.81-30.599 24.26-6.174 4.07-5.784 3.58 7.78-9.84 7.853-7.76 16.029-16.83 18.167-20.14 9.104-14.08 11.05-29.048 6.495-49.957-.888-4.078 4.462 8.923 6.717 16.321Zm62.104-15.744c3.17.361 6.039 1.102 6.375 1.647.381.616-.474.754-2.263.365-1.581-.344-5.524-1.053-8.761-1.577-3.238-.523-6.163-1.243-6.5-1.599-.338-.355.736-.387 2.386-.07 1.65.317 5.593.872 8.763 1.234Zm23.431 1.955c-1.543 1.357-3.53 2.468-4.416 2.468-2.014 0-1.342-.688 2.893-2.965 4.55-2.446 4.782-2.37 1.523.497Zm861.806 24.405c16.59 37.75 43.22 107.98 45.48 119.95 1.5 7.92 1.21 34.03-.51 46.11-2.75 19.33-9.38 43.6-19.62 71.76-8.26 22.71-20.05 50.03-24.92 57.74-8.04 12.73-21.62 22.15-38.43 26.67-6.35 1.7-10.79 2.14-21.5 2.13-16.56-.03-27.93-2.69-43.34-10.14-16.07-7.78-17.99-10.25-4.43-5.73 10.07 3.36 25.75 5.15 33.36 3.8 18.74-3.33 29.34-11.97 49.94-40.73 13.9-19.41 33.97-49.97 38.16-58.1 7.46-14.51 7.83-16.36 7.69-39.4-.31-52.39-15.55-147.47-30.85-192.497-1.75-5.159 1.91 2.369 8.97 18.437Zm-217.34 12.53c22.6 3.94 41.03 13.59 57.03 29.84 22.74 23.12 39.05 60.14 45.26 102.78 4.98 34.25 4.3 66.24-2.48 115.91-1.09 7.98-2.38 18.33-2.87 23-.59 5.63-.85-13.48-.75-56.5.15-63.97.11-65.17-2.13-76.22-5.44-26.89-15.41-47.43-30.61-63.11-24.58-25.37-54.37-31.33-107.61-21.56-19.54 3.59-32.88 7.69-46.5 14.32-13.54 6.59-16.42 8.56-25.24 17.27-6.4 6.32-10.23 11.82-23.74 34.13-14.4 23.79-28.21 40.02-44.52 52.32-9.5 7.17-29.83 17.64-43.5 22.4-8.43 2.93-46.68 13.11-47.22 12.56-.39-.38 7.85-18.92 9.11-20.51 2.04-2.58 7.6-4.15 18.37-5.17 18.73-1.77 26.72-4.77 36.26-13.61 8.03-7.43 12-13.76 26.07-41.55 16.64-32.86 29.46-51.79 48.8-72.04 29.14-30.52 66.42-50.51 102.61-55.05 7.7-.97 26.06-.53 33.66.79Zm-714.391 43.1c19.823 2.94 37.358 10.13 47.64 19.52 7.383 6.75 12.818 14.46 21.087 29.91 8.248 15.42 18.429 32.84 19.618 33.57.487.31.87 1.09.85 1.74-.041 1.35.545 2.01-19.067-21.39-27.543-32.85-47.514-49.09-69.498-56.49-6.781-2.28-9.047-2.59-16.008-2.16-18.68 1.14-30.429 11.65-29.174 26.1.377 4.33 9.067 28.4 15.301 42.38 1.379 3.1 1.348 3.25-.64 3.25-2.97 0-14.149-2.99-15.57-4.16-1.852-1.53-14.417-40.57-17.751-55.15-2.387-10.44-2.42-10.35 4.082-11.16 3.101-.39 9.963-1.85 15.25-3.24 17.135-4.52 27.472-5.16 43.88-2.72Zm2.543 12.68c18.736 8.9 35.812 23.22 61.877 51.89 10.18 11.2 20.489 22.07 22.91 24.15l4.401 3.79-8-4.18c-16.272-8.48-25.837-15.53-46.066-33.92-15.388-13.99-19.104-17.07-25.934-21.46-15.085-9.71-36.538-8.95-41.748 1.48-2.178 4.36-2.276 13.09-.266 23.6.818 4.27 1.314 7.94 1.102 8.15-.211.21-1.172-2.01-2.134-4.93s-3.256-8.76-5.097-12.97c-5.181-11.84-6.797-19.2-5.349-24.38 1.502-5.36 7.051-10.89 13.564-13.51 3.917-1.57 6.781-1.92 13.963-1.68 8.003.26 9.919.72 16.777 3.97Zm721.188-1.23c45.07 5.02 74.43 39.6 83.2 97.98.29 1.93.59 33.97.66 71.22.14 65.63.09 67.55-1.61 62.58-4.87-14.33-8.35-43.05-9.28-76.8-.35-12.37-.87-23.17-1.16-24-.29-.82-.46-4.42-.38-8 .18-7.64-2.36-27.93-4.56-36.5-3.66-14.2-11.73-28.24-20.84-36.26-15.09-13.29-39.11-18.55-67.53-14.81-25.45 3.35-42.78 8.26-55.31 15.69-9.17 5.45-15.62 12.15-25.42 26.48-18.24 26.64-44.76 56.34-64.59 72.34-26.09 21.04-56.35 36.05-85.18 42.25-13.24 2.85-37.51 3.48-54.3 1.42-21.15-2.59-31.41.17-48.74 13.14-16 11.96-24.854 14.74-44.46 13.96-19.45-.76-31.124-4.76-81-27.7-84.929-39.08-109.702-54.52-118.992-74.15-4.282-9.05-4.122-20.86.282-20.86.49 0 5.012 3.96 10.05 8.8 36.729 35.27 80.691 56.09 139.66 66.12 23.266 3.95 39.064 5.35 60.5 5.36 28.62 0 38.14-1.57 73.81-12.13 7.6-2.25 21.1-5.71 30-7.68 54.62-12.08 75.24-20.63 100.31-41.57 14.36-11.99 26.25-27.58 44.46-58.27 5.38-9.08 11.93-18.62 15.29-22.29 16.9-18.44 43.17-29.16 85.13-34.74 20.04-2.67 27.57-2.96 40-1.58Zm-721.015 21.35c7.208 3.3 11.76 6.93 26.515 21.18 6.325 6.1 14.875 13.94 19 17.42 4.125 3.47 7.725 6.54 8 6.8.275.27-1.075-.31-3-1.29-6.722-3.41-16.601-9.97-29.968-19.9-7.408-5.51-17.304-11.99-21.993-14.4-7.594-3.91-9.096-4.34-13.766-3.95-11.43.95-14.575 9.7-10.336 28.77 1.119 5.04 1.523 8.88.992 9.44-.492.51-1.098.73-1.345.48-1.349-1.35-4.944-23.66-5.009-31.09-.086-9.96 1.57-13.39 7.519-15.58 5.481-2.02 16.545-1.02 23.391 2.12Zm81.713 24.13c14.083 20.04 22.459 31.11 30.085 39.78 6.692 7.6 6.444 7.63-7.137.8-7.404-3.73-8.482-4.67-12.946-11.32-5.722-8.53-8.951-14.36-20.626-37.26-8.186-16.05-8.444-16.75-4.644-12.5 2.212 2.48 9.083 11.7 15.268 20.5Zm-85.218-12.08c7.125 3.58 12.495 7.14 25.02 16.6 4.125 3.11 10.391 7.61 13.925 9.98 6.595 4.43 33.393 17.75 42.482 21.12l5.093 1.88-8-.54c-16.938-1.17-34.412-4.72-68.295-13.9-5.112-1.39-13.501-2.82-18.641-3.18l-9.346-.66-1.61-8.11c-.885-4.46-1.609-10.95-1.609-14.43.001-5.66.31-6.64 2.924-9.25 4.102-4.1 9.17-3.97 18.057.49Zm997.94 69.2 2.21 5.11-4.51 19.89c-2.48 10.94-8.08 35.41-12.44 54.38-4.36 18.98-9.15 40.13-10.64 47-1.49 6.88-4.09 15.42-5.78 18.98-5.88 12.39-18.44 21.62-35.62 26.2-9.82 2.61-35.26 3.62-47.2 1.88-21.78-3.19-45.16-13.86-60.44-27.58l-4-3.6 4.5 2.46c7.48 4.08 22.03 9.42 30.21 11.09 11.14 2.27 29.18 2.06 39.79-.47 13.15-3.13 24.14-9.04 32.7-17.58 6.21-6.2 8.03-8.9 13.16-19.53 13.02-27.05 29.22-71.63 35.6-98 4.68-19.35 6.54-33.09 6.56-48.47l.02-12.88 6.84 18c3.76 9.9 7.83 20.31 9.04 23.12Zm-1038.67-35.42c3.481 1.26 3.425 1.76-.528 4.7-7.919 5.9-15.48 18.45-17.705 29.4-1.851 9.11.093 16.79 5.847 23.09l2.636 2.89-3.11-.58c-1.71-.33-5.398-.89-8.195-1.27l-5.085-.67-2.151-9.13c-2.868-12.18-2.93-19-.218-24.21 3.321-6.37 22.27-26.63 24.18-25.86.869.36 2.816 1.1 4.329 1.64Zm12.75 3.17c0 .19-1.794 4.19-3.988 8.87-5.127 10.94-7.359 19.51-7.36 28.26-.001 7.95 1.579 12.42 6.279 17.77l3.182 3.63-3.807-.54c-2.093-.29-6.121-1.17-8.95-1.94-18.515-5.07-17.252-32.94 2.334-51.5 4.219-4 5.856-4.92 8.75-4.92 1.958 0 3.56.17 3.56.37Zm7.242 9.04c.882 14.12 7.326 25.28 17.47 30.24 4.825 2.36 6.781 2.74 13.708 2.64 10.123-.14 17.336-2.13 40.08-11.03 21.049-8.24 32.858-11.95 40.5-12.74l5.5-.56-7.089 3.39c-3.9 1.86-12.099 6.36-18.221 10-32.941 19.55-52.777 26.22-81.468 27.39l-13.778.56-4.413-4.6c-2.453-2.56-4.88-6.29-5.466-8.4-1.468-5.29-1.299-14.69.391-21.8 1.518-6.38 6.817-19.92 8.675-22.15 2.573-3.1 3.586-1.37 4.111 7.06Zm12.964-4.02c2.963 2.42 6.664 6.06 8.222 8.11 1.559 2.04 4.888 5.02 7.399 6.61 6.094 3.86 11.72 3.85 21.562-.06 10.651-4.23 19-5.44 32.064-4.65 6.076.36 12.79.94 14.92 1.28 3.826.61 3.77.65-4.497 3.03-4.603 1.33-16.29 5.53-25.969 9.33-9.68 3.8-20.239 7.6-23.464 8.44-8.098 2.11-18.913 1.95-23.982-.35-5.942-2.7-11.769-9.88-14.31-17.62-2.053-6.25-2.899-16.43-1.484-17.84 1.546-1.55 4.473-.4 9.539 3.72Zm9.794-2.98c3.575.73 13.597 3.19 22.271 5.46 8.674 2.27 16.774 4.16 18 4.19 1.226.03-1.146 1.09-5.271 2.36-4.125 1.27-9.469 3.05-11.876 3.95-6.375 2.38-10.147 2.06-15.203-1.31-5.618-3.75-17.844-16.07-15.892-16.02.809.02 4.396.64 7.971 1.37Zm108.5 19.59c4.74 2.2 9.042 4 9.559 4 2.306 0 .266 2-9.208 9-5.578 4.13-10.487 7.64-10.909 7.81-.421.16.094-2.46 1.146-5.84 2.106-6.77 2.432-12.47.937-16.4-.537-1.41-.788-2.57-.559-2.57.228 0 4.294 1.8 9.034 4Zm-12.068 14.41c-.938 3.9-2.127 7.91-2.642 8.91-1.434 2.79-17.232 12.67-26.766 16.74-18.439 7.87-33.814 10.17-69.024 10.32-28.022.12-36.048-.75-49.463-5.36-5.921-2.04-12.98-5.91-12.2-6.69.243-.24 3.079.24 6.302 1.07 3.224.83 11.486 1.98 18.361 2.56 6.875.58 15.875 1.49 20 2.03 13.114 1.72 44.127 2.92 52.5 2.03 11.192-1.18 16.849-2.7 25.5-6.82 6.206-2.97 9.398-5.49 18.5-14.66 6.05-6.09 13.025-14.06 15.5-17.72l4.5-6.66.32 3.58c.175 1.96-.449 6.77-1.388 10.67Zm-6.256-10.66c-4.381 6.15-22.124 23.24-28.676 27.62-11.777 7.88-16.552 8.96-41 9.26-20.758.25-20.896.24-12-1.06 23.436-3.42 37.965-9.22 60-23.96 8.593-5.75 22.645-14.54 23.318-14.58.175-.02-.564 1.21-1.642 2.72Zm917.184 33.31c15.39 34.59 23.73 50.45 40.4 76.82 8.92 14.12 17.79 31.43 18.81 36.71.6 3.14.44 3.73-21.01 74.41-4.76 15.68-12.43 42.45-17.04 59.5-10.61 39.18-10.08 36.97-8.6 36.06 1.8-1.12 2.49-3.3 12.2-38.56 4.92-17.87 12.36-43.75 16.52-57.5s10.22-33.77 13.46-44.5c3.24-10.72 5.9-20.03 5.9-20.69.01-8.16 10.82 21.94 13.6 37.86 4.96 28.42-4.76 53.32-36.25 92.83-26.05 32.7-43.54 59.46-76.7 117.33-10.29 17.96-12.67 21.5-13.46 20-1.9-3.61-13.59-31.33-28.15-66.74-21.21-51.61-28.9-69.01-42.18-95.59-17.9-35.8-31.91-57.71-56.92-89-16.53-20.68-19.45-24.89-18.18-26.16.64-.64 1.63-.18 2.86 1.34 1.04 1.28 5.03 5.09 8.88 8.46 16.2 14.2 36.27 24.14 58.5 28.98 12.36 2.69 35.57 2.45 46.38-.47 13.14-3.55 22.18-8.5 30.21-16.55 9.77-9.78 12.56-15.99 17.43-38.89 4.12-19.37 7.88-35.63 18.45-79.71 7.26-30.23 7.54-31.32 8.09-30.77.21.21 3.27 6.88 6.8 14.83Zm-930.509 7.97c-1.41 6.09-.447 20.93 1.924 29.64 4.594 16.87 14.646 38.68 25.04 54.33 21.383 32.2 77.812 67.4 128.175 79.96 17.876 4.45 27.678 5.5 49.51 5.3 27.909-.27 32.874.75 19.75 4.06-74.591 18.79-104.019 22.43-137.25 17.01-37.909-6.19-70.966-30.64-88.572-65.52-7.366-14.59-9.806-25.52-11.449-51.31-1.685-26.45-4.59-37.67-12.553-48.49-2.446-3.32-7.119-7.95-10.383-10.27-3.264-2.33-5.959-4.48-5.989-4.78-.03-.3 3.154-1.1 7.075-1.77 9.057-1.55 23.896-6.47 30.371-10.05 2.75-1.53 5.087-2.73 5.194-2.68.106.06-.273 2.11-.843 4.57Zm-132.586 5.76c7.958 7.21 20.518 15.19 39.796 25.3 24.354 12.78 31.378 17.73 38.455 27.15 6.732 8.95 8.983 16.81 8.957 31.26-.017 8.99-.514 13.63-1.982 18.5l-1.959 6.5-.702-6.94c-.853-8.43-3.928-17.21-8.585-24.51-5.022-7.87-22.093-24.53-42.355-41.34-19.19-15.92-28.345-25.2-34.143-34.61-2.065-3.35-3.532-6.1-3.261-6.1.271 0 2.872 2.16 5.779 4.79Zm881.055 126.1c38.63 49.24 58.22 86.49 98.66 187.61 7.25 18.15 16.78 41.4 21.16 51.67l7.97 18.66-6.93 12.84c-10.81 20.04-22.22 43.23-30.67 62.33-4.25 9.63-7.91 17.7-8.13 17.93-1.28 1.37-10.3-15.86-14.3-27.3-1.71-4.87-5.36-17.57-8.1-28.22-6.25-24.2-9.62-34.29-16.61-49.71-16.77-36.99-18.25-41.76-28.25-91.32-3.89-19.31-10.42-48.56-14.5-65-4.07-16.43-8.62-35.16-10.09-41.62-1.48-6.47-5.8-21.64-9.61-33.71-3.8-12.08-6.92-22.52-6.92-23.19 0-.67 1.9-4.13 4.22-7.69l4.21-6.47 2.04 2.79c1.11 1.54 8.25 10.72 15.85 20.4Zm-23.35 10.7c2.85 8.58 5.03 15.75 4.83 15.95-.55.55-11.8-27.86-11.8-29.81 0-4.76 2.27-.25 6.97 13.86Zm-3.68 3.91c13.16 34.99 26.99 86.82 35.22 132 3.59 19.69 10.81 50.42 14.43 61.4 2.11 6.38 7.43 19.28 11.84 28.67 11 23.47 14.67 33.72 20.39 56.93 7.74 31.46 13.43 46.75 22.06 59.33l2.97 4.32-4.7 12.68c-2.58 6.97-5.24 13.99-5.92 15.59l-1.22 2.92-8.43-10.71c-25.88-32.86-47.35-78.52-67.78-144.13-5.92-19.02-9.54-31.49-25.66-88.5-4.75-16.77-12.72-42.72-17.71-57.66l-9.08-27.16 3.86-9.84c5.49-13.94 23.42-49.76 24.4-48.71.45.48 2.85 6.27 5.33 12.87Zm-210.65 3.54c-16.13 2.53-31.92 7.83-81.14 27.19-67.71 26.64-110.22 41.51-158 55.28-78.229 22.55-159.237 36.47-212.309 36.49-9.494 0-16.075.38-15.749.91.308.5 2.472 1.53 4.809 2.3 3.345 1.09 7.828 1.23 21.062.65 68.809-3.01 154.197-19.13 233.187-44.01 35.19-11.08 69.44-24.1 143-54.36 49.28-20.26 72.27-25.49 91.64-20.82 4.64 1.13 7.25 1.34 7.93.67 3.14-3.15-21.89-6.27-34.43-4.3Zm189.34 94.46c3.24 10.45 10.43 34.75 16 54 25.18 87.16 38.07 123.66 57 161.47 12.22 24.4 21.46 38.96 35.78 56.38l6.45 7.84-5.05 17.16c-6.24 21.19-9.39 33.61-13.66 53.98-1.82 8.7-3.53 16.04-3.8 16.31-.75.75-20.07-15.79-31.56-27.02-31.1-30.38-49.09-60.78-66.64-112.62-21.04-62.14-32.53-150.4-26.1-200.5 2.19-17.08 6.66-39.1 10.97-54 5.89-20.4 5.06-20 10.25-4.98 2.47 7.14 7.13 21.53 10.36 31.98ZM1101 1437.61c-29.38 9.71-48.49 16.57-98.5 35.34-46.306 17.38-87.958 31.86-95.75 33.28-5.328.97-4.82 2.88.57 2.14 6.265-.86 39.771-12.24 73.18-24.87 52.63-19.89 71.64-26.9 104.46-38.48 30.05-10.61 37.13-13.32 34.54-13.23-.55.02-8.88 2.64-18.5 5.82Zm415.38 528.67c1.05 8.95 4.49 21.38 7.39 26.72 2.46 4.53 11.14 15.75 28.23 36.48 5.41 6.56 8.15 9.11 9.82 9.16l2.32.05-1.97-2.75c-1.09-1.51-6.43-7.92-11.88-14.25-23.76-27.59-26.2-31.64-29.76-49.3-1.32-6.49-2.78-11.28-3.54-11.53-1.01-.34-1.15.84-.61 5.42Z"
    clip-rule="evenodd" />
</svg>