<?xml version="1.0" standalone="no"?>
<!DOCTYPE svg PUBLIC "-//W3C//DTD SVG 20010904//EN"
 "http://www.w3.org/TR/2001/REC-SVG-20010904/DTD/svg10.dtd">
<svg version="1.0" xmlns="http://www.w3.org/2000/svg"
 width="700.000000pt" height="700.000000pt" viewBox="0 0 700.000000 700.000000"
 preserveAspectRatio="xMidYMid meet">
<metadata>
Created by potrace 1.14, written by Peter Selinger 2001-2017
</metadata>
<g transform="translate(0.000000,700.000000) scale(0.100000,-0.100000)"
fill="#000000" stroke="none">
<path d="M5752 6874 c-141 -38 -248 -140 -292 -281 -18 -56 -18 -163 -18
-2768 0 -2551 -1 -2713 -17 -2753 -18 -44 -73 -86 -125 -95 -31 -6 -94 15
-122 40 -54 49 -53 29 -54 688 -2 546 -3 615 -19 660 -46 135 -145 234 -271
271 -234 68 -461 -61 -525 -298 -7 -28 -10 -279 -10 -787 l1 -747 -22 -44
c-31 -59 -65 -82 -133 -88 -47 -4 -61 -1 -94 21 -21 14 -46 42 -56 64 -18 36
-19 87 -20 1138 -2 1023 -3 1103 -19 1149 -137 383 -674 366 -788 -24 -7 -23
-11 -472 -13 -1296 -2 -1204 -3 -1262 -20 -1292 -30 -50 -73 -76 -135 -80 -65
-4 -111 20 -144 78 -21 35 -21 45 -21 1150 l0 1115 -23 50 c-28 60 -83 119
-137 147 -59 31 -166 36 -230 10 -27 -10 -309 -171 -625 -357 -316 -185 -588
-345 -605 -355 -229 -132 -359 -213 -385 -240 -82 -84 -105 -213 -57 -320 38
-84 63 -104 302 -240 17 -9 302 -174 635 -365 720 -414 741 -426 815 -434 l56
-6 3 -87 c4 -75 9 -97 40 -160 39 -80 61 -108 121 -153 102 -78 225 -102 350
-70 123 32 212 106 269 225 l31 65 5 1280 5 1280 25 37 c24 36 68 65 112 73
35 7 98 -12 125 -37 61 -57 57 21 59 -1168 1 -597 4 -1100 8 -1118 27 -136
109 -237 242 -299 52 -25 70 -28 159 -27 79 0 112 5 156 22 67 27 171 117 200
175 55 106 52 62 54 892 2 675 4 774 17 800 65 124 232 121 299 -5 10 -20 13
-151 14 -625 1 -330 5 -618 10 -640 32 -160 190 -298 355 -312 120 -10 250 34
326 111 30 29 91 130 107 176 9 27 13 644 17 2775 5 2647 6 2741 24 2767 24
36 75 67 116 72 63 7 138 -35 162 -92 9 -20 12 -444 13 -1619 0 -876 4 -1595
8 -1599 9 -9 202 -11 226 -2 17 6 18 67 17 1620 -2 1611 -2 1613 -23 1670 -51
136 -150 226 -289 262 -75 19 -122 19 -192 0z m-3206 -4204 c55 -31 80 -56
106 -109 l23 -46 1 -746 c1 -826 3 -802 -63 -873 -50 -55 -108 -80 -183 -80
-73 0 -90 7 -295 127 -66 38 -145 84 -175 101 -65 36 -458 263 -480 277 -23
14 -257 147 -320 182 -87 48 -126 83 -154 139 -50 101 -23 230 62 295 29 22
765 459 962 571 25 14 89 52 143 84 55 32 101 58 105 58 3 0 13 7 22 15 9 8
40 21 70 28 62 16 118 9 176 -23z"/>
<path d="M2353 2623 c-17 -2 -172 -87 -345 -187 -280 -164 -493 -288 -775
-453 -148 -86 -179 -120 -189 -207 -8 -59 10 -116 48 -159 20 -21 105 -78 207
-137 95 -55 175 -100 176 -100 2 0 37 -20 78 -44 70 -42 380 -220 457 -263 19
-11 80 -47 135 -79 165 -96 183 -104 242 -104 93 0 163 50 192 137 14 42 16
128 15 743 -1 761 1 732 -61 794 -49 49 -108 69 -180 59z m-10 -252 c14 -5 37
-21 51 -36 56 -56 56 -57 56 -575 0 -330 -4 -487 -11 -511 -32 -93 -134 -140
-221 -101 -24 10 -182 99 -353 197 -170 98 -344 198 -387 222 -91 52 -135 93
-144 130 -3 16 -8 34 -10 42 -8 27 18 95 49 126 26 25 166 111 490 299 18 10
95 55 172 101 77 45 154 89 170 98 34 18 101 22 138 8z"/>
<path d="M2200 2303 c-8 -3 -118 -66 -245 -140 -126 -75 -293 -172 -369 -217
-153 -89 -191 -121 -201 -166 -8 -35 11 -100 34 -117 17 -13 232 -141 311
-185 25 -14 141 -80 259 -148 230 -133 263 -144 319 -110 67 41 66 36 66 540
0 421 -1 457 -18 485 -31 52 -101 78 -156 58z"/>
</g>
</svg>
