<svg xmlns="http://www.w3.org/2000/svg" viewBox="0 0 158.75 144.46">
  <path
    d="M0 88.98c2.33-.65 4.67-1.31 7.24-2.03v-5.38c-1.38.25-2.59.69-3.74.59-.79-.07-1.88-.72-2.18-1.4-.45-1.01.31-1.83 1.45-2.1 1.42-.33 2.85-.67 4.46-1.05.09-1-.04-2.05.32-2.89.32-.77 1.08-1.72 1.79-1.86 1.11-.22 1.68.75 1.74 1.89.03.59.09 1.17.17 2.08 3.95-.77 7.66-1.5 11.37-2.22 1.09-.21 2.19-.35 3.26-.63 1.3-.35 2.58-.47 3 1.11.52 1.93-1.1 2.24-2.39 2.53-2.88.64-5.79 1.15-8.68 1.74-2.16.44-4.31.92-6.52 1.4v5.87c3.86-.58 7.47-1.14 11.09-1.66 1.58-.23 3.17-.55 4.76-.51.62.01 1.64.83 1.72 1.39.08.59-.61 1.49-1.21 1.92-.54.39-1.41.33-2.13.44-4.61.73-9.22 1.45-14.24 2.25.48 7.58.95 15.01 1.41 22.34-2.73 1.02-3.4.74-3.66-1.62-.36-3.18-.58-6.38-.81-9.57-.24-3.31-.42-6.63-.64-10.08-2.61-.11-5.09-.21-7.56-.31V89Zm44.36 55.48c-.43-1.5-.86-3.01-1.34-4.72-.89-1.06-1.97-2.33-3.36-3.98 1.31-.55 2.11-.88 3.14-1.31.13-4.38-2.02-8.8-1.34-13.74l2.62.64c.68-.48 1.43-1.16 2.3-1.59 2.85-1.43 5.3.09 5.19 3.3-.05 1.44-.58 2.86-.95 4.57 1.07-.32 2.06-.69 3.08-.9 1.86-.38 3.81-.61 5 1.28 1.16 1.83.39 3.54-.81 5.09-2.43 3.12-5.6 5.12-9.41 6.14-.82.22-1.63.45-2.63.73v4.49h-1.48Zm1.92-7.33c4.51-.98 8.37-2.84 10.56-7.36-2.65-1-6.47.42-9.88 3.37-1.29 1.12-1.83 2.24-.67 3.99Zm2.37-15.29c-4.3 1.74-4.96 3.44-3.24 8.54 1.93-2.6 4.14-4.93 3.24-8.54Zm77.74-58.93c-.23 3.04-.44 5.59-.6 8.15-.09 1.48-.11 2.96-.13 4.43-.02 1.22-.32 2.35-1.75 2.34-1.67-.01-1.88-1.3-1.79-2.64.07-.98.23-1.96.3-2.94.19-3.06.36-6.12.56-9.59-29.26-2.62-58.24-1.5-87.55-.4-.16 1.47-.3 2.76-.43 4.06-.12 1.17.25 2.57-1.52 3.09-2.41-1.75-.33-4.38-1.34-6.73-1.83 0-3.85-.04-5.88 0-5.41.12-10.83.29-16.24.41-1.41.03-2.77-.11-3.23-2.42.84-.44 1.79-1.29 2.82-1.41 4.39-.54 8.8-.96 13.22-1.22 3.06-.18 6.13-.04 9.56-.04.27-3.97.55-7.6.76-11.24.59-10.21 1.08-20.42 1.76-30.62.25-3.68.92-7.33 1.42-10.98.08-.6.29-1.19.51-1.77C37.92.51 39.54.11 41.77 2.3c1.04 1.03 1.96 2.23 2.72 3.48 2.18 3.57 4.38 7.14 6.32 10.84 3.37 6.42 6.54 12.95 9.8 19.43.43.86.9 1.7 1.61 3.04.9-1.42 1.6-2.47 2.27-3.55 5.5-8.9 10.98-17.81 16.51-26.68.97-1.56 2.14-3.02 3.34-4.41.96-1.1 2.02-2.23 3.8-1.89 1.66 1 2.03 2.68 2.08 4.43.19 6.89.36 13.79.47 20.68.07 4.29.01 8.59.01 12.88l.72.27c.81-.84 1.64-1.67 2.43-2.54 7.41-8.06 13.7-17.01 20.32-25.7 2.61-3.43 5.34-6.77 8.14-10.04.9-1.05 2.2-1.75 3.28-2.57 2.26 1.61 2.17 3.71 2.17 5.6 0 7.88-.04 15.77-.26 23.65-.27 9.73-.73 19.45-1.1 29.18-.02.6.08 1.21.14 2.03 3.9.64 7.77 1.16 11.59 1.94 4.33.88 8.63 1.95 12.91 3.06 1.22.31 2.34 1.03 3.58 1.59-.65 2.05-1.57 1.95-2.97 1.5-4.09-1.31-8.19-2.64-12.38-3.57-4.07-.91-8.24-1.34-12.89-2.07ZM39.65 3.79c-2.5 7.52-5.2 48.66-3.65 53.88 29.01-.92 58-.21 87.24 2.39 1.14-18.71 2.41-37.23 1.41-55.91-1.88 1.8-3.47 3.65-4.87 5.64-5.75 8.14-11.32 16.41-17.22 24.44-2.66 3.62-5.82 6.91-9.03 10.08-2.86 2.82-5.39 1.79-6.12-2.21-.09-.48-.13-.98-.12-1.47.09-5.54.18-11.08.31-16.61.11-4.92.31-9.84.36-14.76.01-1.25-.36-2.5-.56-3.76-.31-.07-.62-.13-.92-.2-2.39 3.7-4.95 7.29-7.13 11.11-4.21 7.36-8.2 14.86-12.31 22.28-.89 1.61-1.83 3.22-2.94 4.68-1.39 1.82-2.88 1.71-4.13-.14-.41-.61-.7-1.3-1.02-1.96-1.94-4.11-3.81-8.26-5.82-12.34-3.36-6.84-6.75-13.66-10.23-20.44-.82-1.59-2.04-2.97-3.24-4.67Z" />
  <path
    d="M102.67 80.77v5.79c3.78-.55 7.36-1.08 10.94-1.59 1.46-.21 2.93-.58 4.38-.52.81.03 2.05.61 2.29 1.25.47 1.28-.61 2.06-1.79 2.25-3.75.63-7.53 1.14-11.29 1.74-1.43.23-2.85.54-4.56.87.15 3.12.22 6.05.44 8.97.27 3.68.66 7.35.99 11.02.02.25.04.49.05.74.09 1.31-.49 2.24-1.79 2.33-1.15.08-1.72-.74-1.84-1.88-.19-1.83-.47-3.66-.6-5.5-.37-4.89-.69-9.78-1.06-15.2-1.87.25-3.63.54-5.39.71-2.23.22-2.68-.48-2.07-3.26 2.4-.52 4.88-1.05 7.35-1.58v-4.92c-.87-.08-1.67-.23-2.47-.2-.6.02-1.19.3-1.79.4-1.2.2-2.32 0-2.63-1.34-.31-1.37.57-1.97 1.81-2.26 1.64-.38 3.27-.85 4.93-1.29.13-1.12.04-2.03.37-2.77.3-.68 1.01-1.58 1.59-1.61.59-.03 1.39.76 1.81 1.38.37.55.34 1.36.56 2.43 3.69-.7 7.27-1.38 10.85-2.07 1.45-.28 2.89-.8 4.33-.8.76 0 1.88.7 2.19 1.38.49 1.08-.43 1.86-1.48 2.09-3.23.72-6.49 1.34-9.73 2.02-2.13.45-4.24.95-6.39 1.44Zm31.13-4.3c2.39.25 2.45 1.59 2.41 3.02-.18 7.39-.32 14.78-.51 22.16-.1 3.82-.3 7.63-.4 11.45-.04 1.43-.12 2.75-2.01 3.1-2.6-.95-1.43-3.26-1.58-5.03-.15-1.81-.03-3.64-.46-5.56-.74 1.51-1.41 3.06-2.24 4.52-1.61 2.85-3.57 4.11-5.42 3.61-2.03-.55-3.27-2.4-3.18-5.64.21-8 .58-15.99.97-23.99.11-2.2.5-2.36 3.57-2.11.19 9.11-1.44 18.25-.09 27.67.74-1.32 1.6-2.59 2.2-3.97 2.54-5.93 3.78-12.2 4.59-18.56.33-2.56.45-5.15.87-7.7.18-1.08.88-2.07 1.28-2.96ZM85.11 98.13c-1.76.53-3.04.92-4.65 1.41.37 3.58.7 7.11 1.12 10.62.3 2.54-.15 3.91-1.5 3.82-2.11-.14-1.87-2.02-2.12-3.36-.4-2.18-.47-4.41-.88-6.59-.34-1.83-.96-3.62-1.45-5.42.19-1.89.58-3.9.55-5.9-.09-5.42-.44-10.83-.52-16.25-.04-2.57.37-2.79 3.43-2.61.33 7.12.66 14.31 1.01 21.88 1.88-.59 3.35-1.05 5.24-1.65-.69-4.91-1.35-9.64-2.03-14.36-.09-.61-.31-1.19-.38-1.8-.13-1.08.16-2.01 1.37-2.25 1.16-.23 1.94.34 2.16 1.47.53 2.65 1.05 5.31 1.45 7.99.35 2.31.45 4.66.81 6.97.16 1.06.69 2.05 1 2.94-.18 1.51-.48 2.93-.51 4.36-.08 3.69 0 7.39-.08 11.08-.03 1.33-.03 2.79-1.78 3.4-1.88-.24-2.06-1.59-2-3.21.11-3.08.15-6.15.15-9.23 0-.96-.22-1.91-.39-3.28ZM33 99.49c-1.75 3.77.79 8.25-2.25 11.64q-2.24-1.35-2.02-10.7c-.73-.14-1.6-.12-2.27-.48-.55-.3-1.19-1.03-1.2-1.58-.01-.56.58-1.37 1.12-1.64.82-.42 1.83-.48 2.45-.62 1.58-5.61 2.98-10.94 4.63-16.19.46-1.48.58-3.82 2.94-3.65 2.01.15 2.12 2.26 2.5 3.69.96 3.55 1.66 7.17 2.44 10.77.23 1.07.38 2.16.57 3.28 1.28.85 3.56-.52 3.97 1.81.4 2.27-1.85 1.83-3.18 2.95l1.23 8.45c.19 1.34.4 2.67.55 4.02.14 1.21-.11 2.35-1.52 2.48-1.36.13-1.9-.94-2.1-2.11-.33-1.94-.58-3.89-.88-5.83-.36-2.28-.75-4.56-1.16-7.03-2.14.28-4.04.52-5.83.75Zm3.36-15.14c-.26 0-.51.01-.77.02l-2.65 11.39c2.12-.35 3.62-.6 5.36-.89-.68-3.69-1.32-7.11-1.95-10.52Zm106.9 27.66c3.81-1.24 7.06-2.32 10.33-3.33 1.05-.32 2.17-.65 3.24-.59.7.04 1.75.68 1.9 1.25.15.55-.57 1.43-1.08 2.02-.27.31-.9.31-1.37.47-4.28 1.5-8.55 3.02-12.84 4.5-.97.33-1.98.53-3.41.89-.16-1.59-.37-2.64-.37-3.7.1-12.44.23-24.87.37-37.31.02-1.55-.32-3.43 1.88-3.84 1.36-.25 1.95 1.26 1.9 4.1-.21 11.68-.38 23.36-.57 35.54Zm-88.91-34.5c.38-.18.8-.46 1.26-.56 5.5-1.21 11.02-2.38 16.52-3.58 1.2-.26 2.3-.21 2.59 1.23.27 1.34-.62 2.04-1.79 2.37-2.47.7-4.94 1.37-7.63 2.1.53 5.01 1.26 9.95 1.53 14.92.32 6.01.26 12.04.35 18.06 0 .37 0 .75-.1 1.1-.29 1.04-.92 1.94-2.05 1.58-.62-.2-1.36-1.11-1.43-1.76-.19-1.82-.11-3.68-.04-5.52.31-8.38-.58-16.69-1.64-24.98-.09-.72-.38-1.41-.69-2.51-1.53.16-3.07.34-4.62.46-2.12.17-2.37-.16-2.27-2.9Zm62.84 40.36c.37.56.95 1.09 1.07 1.7 1.22 6.02 2.4 12.05 3.51 18.09.2 1.07.24 2.27-.05 3.3-.27.97-.92 2.28-1.7 2.53-.75.24-2.18-.43-2.77-1.15-1.07-1.3-1.85-2.89-2.55-4.44-1.15-2.55-2.15-5.17-3.43-8.29-.21 4.57 1.37 8.55.45 12.47l-1.01.15c-.37-.55-1.02-1.07-1.08-1.66-.75-6.85-1.43-13.7-2.04-20.56-.06-.67.52-1.4 1.15-2.98.97 1.8 1.62 2.76 2.03 3.82 2.03 5.14 3.98 10.31 6 15.46.48 1.21 1.1 2.36 1.96 4.16.95-3.8-.17-6.71-.64-9.63-.48-2.91-1.31-5.75-1.82-8.65-.23-1.33-.04-2.74-.04-4.12.32-.07.64-.13.96-.2Zm16.26 14.02c-.82 1.84-1.28 3.1-1.92 4.26-.59 1.06-1.22 2.18-2.1 2.98-1.84 1.66-4.47 1-4.91-1.39-.97-5.28-.73-10.54 1.89-15.42.44-.81 1.27-1.58 2.1-1.96 1.39-.64 2.61-.33 3.14 1.66-2.2.77-3.61 2.17-4.08 4.53-.69 3.45-1.7 6.85-.03 10.68.72-1.01 1.26-1.78 1.81-2.55-.73-.64-1.34-1.16-1.97-1.71.1-.43.1-.83.27-1.11 1.42-2.27 2.75-4.61 4.38-6.72.55-.71 2.19-1.39 2.78-1.07.87.47 1.73 1.84 1.76 2.84.09 2.94-.24 5.89-.39 8.83-.07 1.35-.01 2.72-.21 4.05-.09.59-.67 1.11-1.32 2.11-2.51-3.25-.3-6.52-1.21-10.02Zm-37.31-1.69c-1.14.55-1.88.91-2.26 1.09-.35 4.11-.66 7.86-1.03 11.6-.02.15-.61.25-1.12.44-2.18-3.69 1.22-8.42-2.48-11.76 1.39-1.37 1.68-2.89 1.27-4.73-.49-2.15-.61-4.38-.89-6.57-.15-1.18-.14-1.18 1.08-3.33 2.7 3.46 1.38 7.71 2.89 11.34.64-.24 1.29-.49 1.84-.69.72-4.02-2.21-7.44-1.15-11.29.05-.16.4-.24.69-.41 1.7.83 1.57 2.57 1.95 4.06.72 2.8.79 5.9 3.59 7.73-2.11 4.98.61 9.96-.27 15.08-.91.06-1.7.12-2.83.19-.42-4.27-.83-8.37-1.26-12.76ZM49.09 92.72V80.79c0-.61.03-1.23.11-1.84.16-1.22.76-2.34 2.07-1.99.68.18 1.17 1.33 1.59 2.13.21.39.06.97.08 1.46.36 10.2.73 20.39 1.07 30.59.05 1.38.8 3.12-1.3 3.68-1.36.37-2.14-.78-2.33-3.43-.47-6.38-.88-12.76-1.29-18.66Zm-18.26 29.01c1.38 5.19-.19 10.76 1.41 16.25 1.32-.86 1.64-2.01 1.81-3.17.53-3.52.97-7.06 1.5-10.58.2-1.36-.07-3.04 2.06-3.57 1.57 2.09.67 4.49.86 6.68.22 2.44.19 4.92.14 7.38-.05 2.2.74 4.55-.57 6.6-2.22-.25-1.48-1.92-1.98-2.88-1.29 1.06-2.6 2.14-4.28 3.52-.91-1.38-2.02-2.31-2.09-3.31-.37-5.26-.49-10.53-.64-15.8 0-.37.53-.76.82-1.14.32 0 .64.02.96.03Zm-12.45 1.34c-1.95 1.1.14 3.81-2.52 3.95-1.65-2.29-1.51-4.38.46-5.97 1.02-.82 2.13-1.53 3.28-2.35 1.3 1.04 2.65 2.17 4.05 3.21 5.58 4.16 3.43 8.88.06 11.67-.55.45-1.26.71-1.84 1.02-1.11 2.91 1.49 6.12-.84 8.82-1.91-.24-1.64-1.6-1.78-2.78-.3-2.65-.82-5.28-.94-7.94-.12-2.55.14-5.12.21-7.68.01-.56-.08-1.12-.15-1.96Zm3.08 8.72c1.97-1.06 2.84-2.49 2.88-4.2.05-1.79-1.1-2.96-2.88-3.7v7.91Zm64.28-5.09c-1.15-1.84-1.88-3.01-2.6-4.17-2.55-.05-3.58.47-3.98 2.14-.43 1.78.25 3.15 1.76 4.09.62.39 1.31.66 1.98.97.89.41 1.82.75 2.69 1.2 1.91.99 3.82 2.26 3.64 4.64-.2 2.57-2.43 3.7-4.61 4.18-2.56.57-5.33.98-7.74-2.04 3.28-1.44 7.56 1.79 9.68-2.47-.6-1.66-2.22-2.04-3.61-2.76-1.62-.84-3.42-1.56-4.71-2.78-3.15-2.99-1.95-8.09 2.08-9.64 1.75-.67 3.38-.59 4.8.75 1.33 1.26 1.55 2.58.62 5.88ZM62.93 140c2.8-.7 5.22-1.31 7.65-1.91l.55.73c-.36.59-.58 1.51-1.09 1.7-2.84 1.07-5.74 1.96-9.16 3.09-.6-7.54-.07-14.84-.13-22.12 0-.73.46-1.47.74-2.33 2.24.83 1.77 2.47 1.75 3.83-.06 4.31-.21 8.61-.31 12.92-.03 1.32 0 2.64 0 4.08Zm8.71-20.3c1.1.49 1.78.59 2.06.98.33.45.39 1.15.44 1.75.45 4.89.88 9.78 1.29 14.67.09 1.06.35 2.23-1.18 2.93-.36-.45-.95-.86-1.01-1.33-.75-6.15-1.59-12.31-1.61-19Zm32.33.25c.23.28.74.62.78 1 .48 5.73.9 11.47 1.29 17.21.02.25-.45.53-.96 1.11-.53-.69-1.32-1.24-1.39-1.87-.56-5-1-10.02-1.42-15.04-.09-1.08-.12-2.32 1.71-2.41Z" />
</svg>
