<svg xmlns="http://www.w3.org/2000/svg" viewBox="0 0 275.41 209.87">
  <path
    d="M108.88 56.99c-.62 4.71-1.38 8.62-1.61 12.56-1.3 21.99 14.5 41.89 37.58 45.41 2.51.38 5.1.38 7.65.39 11.03.05 22.06 0 33.09.08 2.38.02 4.81.19 7.14.67 10.37 2.1 17.47 11.32 17.33 22.31-.13 9.61-7.9 18.75-17.65 20.58-2.5.47-5.08.64-7.62.65-10.71.08-21.42.04-32.13.07-1.74 0-3.48.11-5.39.17-3.62 6.92-6.04 14.22-9.69 21.15-1.09.12-2.17.36-3.26.35-6.39-.05-12.79-.03-19.18-.3-3.34-.14-6.7-.57-9.96-1.3-7.18-1.59-13.49-4.94-18.58-10.33-3.84-4.07-7.61-8.21-11.39-12.33-14.79-16.15-29.58-32.31-44.36-48.48-1.07-1.17-2.09-2.38-3.26-3.72.91-1.14 1.64-2.17 2.49-3.09 17.89-19.6 35.8-39.19 53.71-58.77.86-.94 1.76-1.86 2.67-2.75 6.74-6.61 14.73-10.63 24.21-11.41 4.14-.34 8.29-.54 12.45-.76.6-.03 1.21.17 2.13.31-.3 1.7-1.52 2.54-2.41 3.53-13.67 15.01-27.36 30.01-41.04 45.01-7.33 8.03-14.66 16.06-21.98 24.1-1.06 1.17-2.05 2.4-3.13 3.67.85 1.07 1.5 1.97 2.24 2.79 13.46 14.77 26.95 29.52 40.4 44.3 3.66 4.02 7.95 6.89 13.38 7.86.45.08.93.04 1.4.01.12 0 .24-.18.48-.37-.32-1.67-1.79-2.52-2.87-3.6-13.67-13.69-27.37-27.35-41.06-41.01-1.13-1.13-2.31-2.22-3.36-3.42-3.68-4.2-3.65-8.72.02-12.94.52-.6 1.11-1.15 1.67-1.72 12.44-12.43 24.89-24.85 37.34-37.27.66-.66 1.36-1.28 2.57-2.42Z" />
  <path
    d="M229.56 154.1c.82-4.35 1.61-8.24 2.29-12.15.92-5.3.26-10.53-1.14-15.65-4.22-15.52-17.62-32.19-41.75-32.75-11.34-.26-22.69-.31-34.04-.48-2.08-.03-4.16-.07-6.23-.24-10.27-.89-18.14-9.25-18.94-19.56-.98-12.62 7.95-20.95 16.49-22.71 2.17-.45 4.43-.53 6.66-.55 16.3-.14 32.61-.22 48.91-.32 1.6 0 3.2-.04 4.8-.02 4.83.07 9.58-.26 14.21-2.69 1.22 1.11 2.42 2.12 3.52 3.22 13.7 13.65 27.39 27.31 41.09 40.97 2.04 2.03 4.11 4.03 6.13 6.08.78.79 1.55 1.63 2.16 2.55 2.35 3.55 2.22 7.32-.34 10.7-.58.76-1.27 1.44-1.95 2.11a78030.54 78030.54 0 0 1-40.76 40.61c-.22.22-.49.39-1.12.89ZM.52 28.28c2.28-.48 4.42.18 6.5.88 8.24 2.74 13.96 10.39 14.34 19.09.06 1.28.03 2.56.03 3.83.02 34.83.04 69.66.05 104.49 0 1.6.03 3.2-.05 4.79-.47 8.84-6.44 16.59-14.83 19.29-1.98.64-3.98 1.07-6.19.49-.13-.66-.37-1.26-.37-1.87 0-49.85 0-99.7.03-149.55 0-.44.29-.88.49-1.45ZM203.8 179.64c-.46.58-.79 1.1-1.21 1.52-8.37 8.33-16.75 16.65-25.14 24.96-.68.67-1.37 1.34-2.14 1.91-3.39 2.48-7.3 2.46-10.63-.06-.76-.58-1.44-1.26-2.12-1.93-6.76-6.79-13.51-13.57-20.24-20.39-.75-.76-1.35-1.66-2.09-2.57 1.18-1.32 2.53-.98 3.72-1 13.56-.17 27.12-.38 40.69-.42 6.09-.02 12.11-.27 17.96-2.18.26-.08.6.08 1.2.17Zm-2.95-152.43c-2.62.08-4.17.18-5.72.18-11.96-.03-23.93-.12-35.89-.11-6.5 0-13.04-.57-19.38 1.18-.77-1.79.51-2.33 1.2-3.02 6.26-6.37 12.57-12.69 18.87-19.03 1.35-1.36 2.68-2.74 4.08-4.03C165.58.93 167.4.07 169.6.01c2.33-.06 4.42.52 6.18 2.07.84.74 1.63 1.52 2.43 2.31 6.34 6.29 12.68 12.58 19.01 18.89 1 1 1.92 2.08 3.63 3.93Z" />
</svg>
