<svg xmlns="http://www.w3.org/2000/svg" viewBox="0 0 102.4 48.25">
  <path
    d="M94.99 0c.12.57.35 1.15.35 1.72.03 6.33.08 12.67-.02 19-.04 2.71-.6 5.42-2.23 7.64-1.84 2.49-4.12 4.6-7.29 5.32-2.1.47-4.24.89-6.41.74-2.38-.16-4.84-.22-7.12-.85-4.62-1.26-7.75-4.25-8.91-8.99-.49-2.02-.79-4.09-.78-6.2.03-5.43 0-10.86.03-16.28 0-.7.23-1.39.35-2.09h9.83c0 4.4.01 8.81.01 13.21 0 2.59-.07 5.19.02 7.78.11 3.42 2.27 5.14 5.22 5.11.79 0 1.58.02 2.36 0 2.42-.09 3.77-1.12 4.47-3.43.19-.62.28-1.29.28-1.93.02-6.21 0-12.42.03-18.64 0-.7.23-1.39.35-2.09h9.46Zm-62.6 0c-.26 1.39-1.55 1.91-2.38 2.82-.24.26-.61.39-.87.63-2.38 2.22-4.74 4.47-7.12 6.69-1.41 1.31-2.86 2.58-4.26 3.9-.81.77-.78.8-.06 1.57.12.13.26.26.38.39 5.32 5.43 10.65 10.86 15.97 16.3.32.33.54.75.81 1.13-.44.1-.88.28-1.32.29-2.85.03-5.69.01-8.54.01-.61 0-1.17.02-1.67-.49-1.81-1.86-3.7-3.66-5.5-5.53-2.8-2.91-5.55-5.86-8.56-9.04-.07.71-.14 1.07-.14 1.44v11.58c0 .42-.01.84 0 1.27.01.52-.23.77-.76.76H6.92c-2.3 0-4.6 0-6.9-.01V0h9.1c.01 3.45.03 6.89.04 10.47 1.05-.85 1.97-1.52 2.8-2.28 2.25-2.07 4.46-4.18 6.7-6.27.67-.65 1.38-1.28 2.08-1.92h11.65Zm14.92 0c.52.63 1.23.27 1.85.34 1.8.22 3.51.58 5.08 1.6 2.26 1.47 3.27 3.64 3.6 6.13.23 1.72.19 3.5-.74 5.09-1.32 2.25-3.54 4.55-7.23 5.14 2.26 2.38 4.45 4.68 6.64 6.98 2.5 2.62 5 5.23 7.49 7.86.17.18.2.5.29.76-.22.06-.45.18-.67.18-3.03.01-6.06-.02-9.09.03-.77.01-1.22-.38-1.7-.86-2.13-2.14-4.28-4.27-6.42-6.41-3.04-3.03-5.98-6.17-9.16-9.05-1.72-1.56-1.64-3.35-1.54-5.27.01-.19.35-.49.57-.52.53-.08 1.09-.03 1.63-.03 2.24 0 4.48.05 6.72-.02.88-.03 1.76-.3 2.63-.5 1.01-.22 1.34-1.12 1.37-1.9.03-.77-.22-1.61-1.17-2.04-1.17-.52-2.35-.96-3.62-.93-2.1.05-4.23-.32-6.3.31-.06.02-.12 0-.18 0-1.64.11-1.7.06-1.71-1.63 0-1.75.01-3.5.02-5.25h11.65ZM0 37.34c.58-.12 1.15-.34 1.73-.35 2.42-.04 4.84-.03 7.26-.01 2.72.01 4.33 1.44 4.45 4.11.1 2.11 0 4.22.02 6.33 0 .64-.3.86-.89.83h-.36c-1.67.04-1.67.04-1.68-1.66 0-1.81.02-3.62-.01-5.42-.02-1-.24-1.21-1.12-1.27-.86-.05-1.02.07-1.03 1.02-.02 1.99 0 3.98 0 5.97 0 1.36-.02 1.36-1.44 1.36-1.47 0-1.48 0-1.49-1.49-.01-1.93.01-3.86 0-5.79-.01-1.06-.04-1.06-1.15-1.08-1.32-.02-1.33-.02-1.34 1.25-.02 1.81 0 3.62 0 5.42 0 1.76.1 1.68-1.66 1.68-.42 0-.85-.01-1.27-.02C0 44.59 0 40.96 0 37.34ZM100.81 0c.27.32.51.67.81.95 1.03.94.85 2.16.49 3.19-.34.97-1.3 1.56-2.42 1.66-1.27.12-2.23-.44-2.88-1.47-.64-1.01-.53-2.08.09-3.07.28-.45.66-.85 1-1.26h2.91Zm-1.53 5.07c1.56.03 2.62-.93 2.59-2.35-.02-.94-1.27-2.23-2.25-2.31-1.39-.11-2.44.96-2.45 2.49 0 1.27.85 2.15 2.1 2.17ZM52.47 48.23c-1.45 0-2.91.01-4.36 0-1.17-.02-1.17-.03-1.18-1.25v-.18c.02-1.09.03-1.13 1.1-1.14 2.36-.02 4.72 0 7.08 0 .61 0 1.21.04 1.66-.51.28-.35.24-.71-.19-.81-.35-.08-.71-.1-1.07-.1-1.51-.01-3.03-.04-4.54 0-.82.02-1.52-.21-2.24-.55-1.39-.66-1.83-1.77-1.81-3.22.02-1.42.58-2.44 1.91-2.97.6-.24 1.25-.48 1.88-.5 2.72-.05 5.45-.03 8.17-.02 1.15 0 1.15.03 1.18 1.25v.18c0 1.46 0 1.47-1.5 1.48h-7.08c-.36 0-.75-.06-1.08.05-.21.07-.44.36-.5.59-.09.37.04.75.52.76 1.09.03 2.18.02 3.27.02.91 0 1.82-.02 2.72 0 1.69.05 3.37 1.57 3.6 3.23.23 1.61-1.34 3.59-3 3.67-1.51.07-3.03.01-4.54.01Zm-28.46-6.67v-3.8c0-.51.19-.8.74-.79h.91c1.25.02 1.27.02 1.28 1.33.01 1.99-.01 3.98.01 5.97.01 1.18.2 1.35 1.37 1.38 1.15.03 2.3.03 3.45 0 1.25-.03 1.68-.48 1.7-1.79.02-1.93 0-3.86.01-5.79.01-1.07.05-1.08 1.15-1.1h.73c.66 0 1.06.35 1.03.99-.12 2.51.34 5.04-.31 7.54-.47 1.81-1.56 2.71-3.42 2.73-1.76.01-3.51.01-5.27 0-1.86-.01-3.29-1.39-3.36-3.23-.04-1.14 0-2.29 0-3.44Zm66.47 6.67c-1.03 0-2.06.02-3.09 0-1.91-.06-3.28-1.41-3.33-3.32-.04-1.33.04-2.66-.02-3.98-.1-2.27 1.67-4.03 3.93-3.97 1.88.05 3.75 0 5.63.02.98.01.98.04 1.03 1.04v.18c.04 1.68.04 1.68-1.65 1.69-1.57 0-3.15-.01-4.72 0-1.23.01-1.24.03-1.27 1.16a79.06 79.06 0 0 0 0 3.08c.02 1.14.31 1.45 1.5 1.51.97.05 1.94.01 2.91.01h1.82q1.43.02 1.42 1.38c-.01 1.16-.01 1.17-1.24 1.19-.97.02-1.94 0-2.91 0Zm-19.89-5.72c0-1.57.01-3.14 0-4.7 0-.63.27-.88.88-.84h.36c1.68-.04 1.69-.04 1.69 1.65 0 2.84.01 5.67 0 8.51 0 1.07-.04 1.08-1.14 1.11h-.73c-1.01-.04-1.04-.04-1.05-1.01-.02-1.57 0-3.14 0-4.7Z" />
  <path
    d="M99.17 3.28c-.09.29-.12.47-.2.62-.07.14-.19.34-.31.35-.11.02-.35-.16-.36-.27-.05-.53-.06-1.08-.05-1.61.02-1.26.12-1.35 1.3-1.29 1.06.05 1.45.47 1.22 1.47-.11.47-.37.87-.03 1.34.04.06-.1.35-.22.41-.14.07-.41.08-.51-.02-.29-.28-.52-.61-.84-1Zm.15-1.67c-.1.22-.25.4-.21.5.07.16.27.36.42.36.15 0 .3-.22.45-.35-.16-.12-.31-.24-.66-.52Z" />
</svg>
