<svg xmlns="http://www.w3.org/2000/svg" viewBox="0 0 132.82 41.95">
  <path
    d="M118.96 27.62c-2.68 3.93-5.35 7.85-8.14 11.94-2.8-4.08-5.49-7.99-8.32-12.1-.03.55-.05.86-.05 1.16 0 4.03-.03 8.06.02 12.08.01 1-.3 1.25-1.27 1.23-3.77-.05-7.54-.05-11.31 0-.84 0-1.1-.22-1.1-1.08.03-13.24.03-26.49 0-39.73 0-.84.23-1.13 1.09-1.11 3.09.04 6.19.03 9.28 0 .67 0 1.05.25 1.41.79 3.17 4.7 6.36 9.38 9.55 14.06.2.29.4.58.68.99.81-1.16 1.58-2.25 2.32-3.35 2.6-3.84 5.2-7.68 7.76-11.54.46-.7.97-.97 1.81-.96 3 .05 5.99.04 8.99 0 .84-.01 1.13.27 1.12 1.11-.02 13.24-.01 26.49 0 39.73 0 .85-.3 1.09-1.13 1.08-3.77-.04-7.54-.05-11.31 0-1.01.02-1.23-.32-1.22-1.26.05-3.99.02-7.99.02-11.99v-1.03c-.07-.01-.14-.03-.21-.04Zm5.59-19.43c.11.04.23.09.34.13v1.14c0 8.64 0 17.27.02 25.91 0 .46-.35 1.21.6 1.22 1 .01.67-.78.67-1.28.03-2.48.01-4.96.01-7.44 0-7.15 0-14.31-.02-21.46 0-.35-.3-1-.4-.99-.45.05-.89.28-1.33.47-.08.03-.12.15-.18.23-3.72 5.49-7.43 10.98-11.15 16.47-.73 1.08-1.48 2.14-2.31 3.33-.42-.6-.74-1.03-1.05-1.48-4.13-6.07-8.27-12.13-12.37-18.22-.54-.8-1.13-1.05-2.03-.75v30.99c1.25.27 1.36.19 1.36-.98V9.47c0-.39.05-.78.07-1.17.09-.02.18-.05.27-.07 4.56 6.64 9.12 13.27 13.76 20.02 4.64-6.77 9.18-13.42 13.73-20.06ZM30.19 27.62c-2.68 3.92-5.35 7.84-8.15 11.94-2.81-4.09-5.5-8.02-8.2-11.95-.06.02-.13.03-.19.05v1.12c0 3.96-.02 7.93.02 11.89.01.93-.19 1.29-1.21 1.28-3.8-.06-7.61-.05-11.41-.01-.81 0-1.05-.26-1.05-1.05.02-13.28.03-26.56 0-39.84C0 .22.32.01 1.09.02c3.09.03 6.19.02 9.28 0 .65 0 1.05.21 1.42.76 3.09 4.6 6.2 9.18 9.31 13.76.27.4.56.78.94 1.31.81-1.18 1.57-2.27 2.31-3.37C26.91 8.69 29.48 4.91 32 1.09 32.52.31 33.08-.02 34.05 0c2.93.07 5.87.05 8.8.01.85-.01 1.19.2 1.19 1.13-.03 13.21-.02 26.43 0 39.65 0 .89-.27 1.16-1.16 1.15-3.8-.04-7.61-.04-11.41 0-.83 0-1.11-.21-1.1-1.08.04-4.38.02-8.76.02-13.15-.06-.03-.13-.06-.19-.09Zm5.56-19.39c.12.03.24.07.36.1v27.49c0 .69.51 1.07 1.03.73.23-.15.34-.64.34-.98.02-9.73.01-19.46.01-29.19 0-.94-.49-1.32-1.31-.97-.29.12-.51.47-.7.75-4.27 6.28-8.53 12.57-12.8 18.86-.19.27-.41.52-.67.84-.25-.31-.42-.5-.56-.71-4.3-6.3-8.61-12.6-12.87-18.93-.55-.82-1.14-1.01-1.98-.76-.04.1-.08.15-.08.21 0 10.09-.01 20.17 0 30.26 0 .21.13.57.28.61.29.09.75.12.91-.05.2-.21.21-.64.21-.98 0-8.67 0-17.34.01-26 0-.4.04-.79.07-1.19.09-.03.19-.06.28-.09 4.56 6.63 9.13 13.26 13.77 20.01 4.63-6.76 9.17-13.39 13.71-20.01ZM44.68.12c.42-.04.73-.08 1.03-.08 4.22 0 8.45 0 12.67-.02.76 0 1.13.23 1.41.96 2 5.22 4.05 10.43 6.09 15.64.13.33.27.65.49 1.17.68-1.7 1.31-3.22 1.91-4.75 1.57-4.01 3.15-8.02 4.7-12.04.26-.67.59-1 1.4-.99 4.19.05 8.38.02 12.57.02.34 0 .69.04 1.22.07-.6 1.57-1.13 3-1.68 4.43-3.07 7.91-6.14 15.82-9.22 23.73-1.67 4.28-3.36 8.56-5.02 12.84-.23.59-.53.84-1.2.83-3.06-.04-6.13-.04-9.19 0-.73 0-1.08-.23-1.34-.9-1.76-4.59-3.56-9.17-5.35-13.76-3.41-8.75-6.81-17.5-10.22-26.25-.1-.26-.16-.53-.28-.91Zm34.45 5.37c-.97-.33-1.51-.09-1.77.83-.23.8-.57 1.57-.88 2.35l-8.94 22.8c-.33.83-.71 1.64-1.07 2.46-1.11-2.2-1.97-4.34-2.81-6.49-2.76-7.06-5.52-14.13-8.25-21.2-.33-.85-.8-1.07-1.67-.75.1.32.19.62.3.91 3.82 9.79 7.64 19.58 11.48 29.37.13.34.52.71.87.82.64.2.76-.42.93-.86 2.25-5.75 4.5-11.5 6.74-17.25 1.68-4.31 3.36-8.62 5.06-12.99Z" />
</svg>
