<svg xmlns="http://www.w3.org/2000/svg" viewBox="0 0 96.21 26.59">
  <path
    d="M22.48 19.47c-.14 1.48-.11 2.24-.3 2.94-.22.84-.62 1.63-.94 2.44-.82-.41-1.87-.63-2.42-1.28-2.74-3.22-5.34-6.56-8.03-9.83-.48-.59-1.09-1.1-1.73-1.52-3.79-2.46-7.22-.84-7.61 3.63-.16 1.82-.04 3.66-.08 5.49-.02.88-.14 1.75-.21 2.62-.26.01-.51.02-.77.04-.12-.77-.34-1.53-.35-2.3C0 15.73-.03 9.76.07 3.78c.02-.92.69-1.82 1.06-2.73.85.51 1.9.84 2.5 1.55 2.56 3.01 4.93 6.18 7.49 9.18 1.69 1.98 3.79 3.44 6.57 2.54 2.94-.95 3.28-3.51 3.34-6.1.05-2.09 0-4.19 0-6.28l.9-.06c.15 1.76.3 3.52.48 5.68 11.1-8.69 22.58-8.76 34.5-1.85.18-1.54.34-3 .51-4.46.35-.1.7-.2 1.06-.3 1.02 1.64 2.06 3.28 3.05 4.93.64 1.07 1.08 2.29 1.87 3.23 2.07 2.46 4.37 2.22 6.03-.56.98-1.65 1.77-3.43 2.77-5.06.56-.91 1.4-1.65 2.44-2.85.5 1.32.79 2.08 1.1 2.91.22-.03.57.03.74-.11 2.75-2.35 5.73-2.75 9.19-1.64 1.14.36 2.66-.44 4.01-.74 1.59-.35 3.56-1.47 4.65-.9 1.08.57 1.71 2.82 1.76 4.35.19 5.68-.06 11.37.11 17.05.09 2.8-1.03 3.46-3.6 3.35-2.71-.12-5.46.03-8.15.37-3.71.47-7.56-1.31-9.38-4.86-.99-1.93-1.7-4-2.76-6.56-1.2 2.81-2.01 5.18-3.21 7.33-.63 1.13-1.87 2.45-2.99 2.62-.82.12-2.12-1.36-2.8-2.39-.99-1.49-1.62-3.22-2.61-5.29-3.98 7.47-10.6 9.86-18.1 10.36-7.37.49-14.15-1.24-20.13-7.04Zm18.6-17.29c-4.69.17-9.31.9-13.33 3.77-6.51 4.64-6.55 11.15-.09 15.91 7.05 5.2 19.77 5.03 26.73-.35 5.76-4.45 5.67-10.9-.16-15.26-3.89-2.9-8.35-3.82-13.15-4.07Zm51.98 10.81c-.03-4.71-3.81-8.53-8.41-8.5-4.61.03-8.47 3.93-8.43 8.52.04 4.6 3.91 8.5 8.46 8.54 4.55.04 8.41-3.91 8.38-8.56Z" />
</svg>
