<svg xmlns="http://www.w3.org/2000/svg" viewBox="0 0 83.42 82.42">
  <path
    d="M0 77.53V5.09C1.36 1.19 4.16-.02 8.19 0 30.64.12 53.1.06 75.55.06c.88 0 1.78 0 2.65.12 2.56.34 4.44 2.1 4.89 4.61.2 1.1.31 2.23.31 3.35.02 22.12.02 44.25 0 66.37 0 .8-.07 1.6-.18 2.4-.57 3.96-2.28 5.44-6.24 5.44-23.18 0-46.36-.09-69.53.08-3.92.03-6.27-1.27-7.45-4.9ZM41.54 1.37H7.98c-4.68 0-6.46 1.76-6.46 6.34v67.1c0 4.73 1.78 6.51 6.55 6.51h67.37c4.66 0 6.48-1.77 6.48-6.36.01-22.45 0-44.89 0-67.34 0-4.47-1.81-6.24-6.33-6.24H41.54Z" />
  <path
    d="M59 26.91c-1.82.37-3.68.75-5.83 1.18-1.42-4.59-4.14-8.3-8.9-10.13-3.18-1.22-6.42-1.25-9.68-.29-5.61 1.66-9.89 7.44-9.91 13.45-.02 6.09 4.03 11.65 9.73 13.58 5.54 1.88 13.01.7 17.78-7.34 1.94.62 3.84 1.23 5.74 1.84-2.66 8.64-13.16 13.98-23.62 11.8-9.44-1.98-16.66-12.14-15.5-21.84C20.1 18.37 29.23 10.5 40.06 10.84c9.31.3 18.42 7.91 18.95 16.07Z" />
  <path
    d="M41.26 36.57c7.85-1.83 15.69-3.67 23.11-5.4 1.92 1.31 3.51 2.4 5.36 3.67-4.66 1.08-8.99 2.11-13.33 3.08-.43.1-1.08.06-1.37-.2-2.81-2.58-5.88-1.1-8.87-.61-2.13.35-4.21.99-6.35 1.27-3.29.43-6.02-1.25-7.32-4.28-1.25-2.91-.49-6.34 1.84-8.33 2.53-2.16 6.01-2.5 8.73-.86 2.75 1.67 4.04 4.76 3.42 7.83-.28 1.39-.93 2.1-2.34 2.29-1.05.14-2.07.48-3.11.73.08.27.15.54.23.81ZM12.47 64.77v5.42H7.31v-7.05c0-1.85.06-3.7-.02-5.55-.06-1.49.36-2.26 2.02-2.17 2.57.14 5.14.15 7.71.19 2.33.04 4.17.9 4.64 3.34.46 2.38-.81 3.94-2.73 4.71 1.29 2.08 2.58 4.15 3.93 6.32-4.87 1.05-5.3.83-7.53-3-.55-.94-1.33-1.76-2-2.63-.29.14-.58.28-.87.41Zm.14-2.88c1.53-.49 2.69-.82 3.79-1.29.13-.05.04-1.21-.12-1.26-1.14-.33-2.33-.5-3.67-.75v3.3ZM75.24 55.95c-1.43 1.4-2.74 2.79-4.18 4.03-1.01.87-1.02 1.57-.28 2.64 1.65 2.36 3.17 4.81 5.2 7.94-2.58-.27-4.92.12-6.37-.84-1.5-1-2.12-3.3-3.56-5.79-1.08 2.35-1.92 4.19-2.88 6.29h-4.2c0-4.55-.06-8.96.02-13.36.04-2.16 1.84-1.25 2.94-1.4 1.12-.15 2.12.01 2.02 1.59-.07 1.11-.01 2.23-.01 4.18 3.08-3.92 5.8-7.51 11.3-5.27ZM39.67 62.95c0 4.93-2.95 7.82-8.03 7.84-5.02.02-8.46-3.2-8.43-7.88.03-4.64 3.31-7.64 8.35-7.65 5.16 0 8.11 2.79 8.11 7.69Zm-11.25.16c.02 2.64 1.03 3.91 3.13 3.91 2.14 0 3.17-1.36 3.14-4.16-.03-2.5-1.2-3.98-3.17-4-2.05-.02-3.12 1.45-3.1 4.24ZM56.52 59.96c-2.02.55-3.97 1.58-5.5-.68-.12-.17-.42-.24-.65-.3-1.68-.41-2.8.29-3.46 1.82-.9 2.08-.33 5.28 1.18 5.91 1.55.65 2.94.42 3.96-1.18 1.58-2.46 3.13.07 4.77-.12-1.17 3.95-4.2 5.85-8.18 5.31-4.53-.62-6.97-3.11-7.15-7.32-.18-4.27 2.1-7.43 6.03-8.03 4.27-.66 8.1.63 8.99 4.59Z" />
  <path
    d="M67.46 25.55c-1.03 3.27-2.43 5.2-5.68 5.57-3.44.4-6.82 1.35-10.23 2.06.35-3.04 1.89-4.46 4.72-4.97 3.65-.65 7.24-1.7 11.18-2.66Z" />
</svg>
