<svg xmlns="http://www.w3.org/2000/svg" viewBox="0 0 223.24 58.41">
  <path
    d="M45.14 56.82h-7.75c-1.85 0-1.92-.02-2.57-1.81-1.78-4.85-3.51-9.71-5.27-14.57-.35-.97-.74-1.93-1.15-2.88-.57-1.32-1.46-2.38-2.79-2.99-.91-.42-1.32-1.05-1.13-2.1.48-2.69.91-5.4 1.35-8.1.11-.69.52-.97 1.17-.98.98-.02 1.97.06 2.94-.05 1.89-.21 3.81-.38 5.65-.82 2.7-.65 4.63-3.31 4.64-6.08 0-1.92-1-3.39-2.92-3.9-1.34-.35-2.74-.55-4.13-.61-2.11-.1-4.24 0-6.36-.04-1.16-.03-1.64.51-1.83 1.61-1.19 6.82-2.44 13.62-3.65 20.44-1.27 7.12-2.54 14.24-3.78 21.36-.2 1.12-.78 1.55-1.91 1.54-4.65-.05-9.3-.04-13.95-.07-1.77-.01-1.89-.15-1.58-1.89 1.27-7.12 2.56-14.23 3.83-21.35C5.77 23.36 7.58 13.2 9.39 3.03c.05-.3.14-.61.16-.91C9.64.96 10.23.6 11.4.62c5.94.08 11.88.09 17.82.1 3.98 0 7.97-.15 11.94.03 2.98.13 6 .43 8.89 1.1 4.85 1.13 7.85 5.17 7.99 10.16.26 9.52-5.14 16.86-14.3 19.49-.5.14-.95.48-1.42.73.42.26.83.57 1.28.76 1.37.59 2.47 1.45 3.3 2.71 1.4 2.12 2.6 4.32 3.37 6.77 1.28 4.09 2.72 8.13 4.09 12.19.68 2.02.59 2.16-1.63 2.18-2.53.01-5.07 0-7.6 0ZM73.08 1.37c2.33 0 4.65-.02 6.98 0 1.61.02 1.69.14 1.41 1.72-1.95 10.93-3.91 21.85-5.86 32.78-.36 2.02-.32 4.03.69 5.89 1.62 2.98 4.44 3.74 7.51 3.68 5.74-.11 9.93-3.64 10.96-9.29 1.7-9.29 3.28-18.61 4.92-27.91.32-1.83.7-3.65 1.02-5.48.17-.99.73-1.39 1.71-1.38 4.8.05 9.61.05 14.41.1 1.26.01 1.43.35 1.16 1.88-.76 4.22-1.51 8.43-2.28 12.65-1.27 6.96-2.33 13.96-3.86 20.86-1.91 8.59-6.89 15.02-14.86 18.95-3.29 1.62-6.86 2.32-10.5 2.49-5.22.25-10.43.09-15.59-.91-6.8-1.31-11.91-7-12.63-13.91-.38-3.64-.12-7.21.53-10.78 1.71-9.5 3.38-19.01 5.12-28.51.55-3.03.2-2.82 3.42-2.83h5.74Zm85.64 15.74c-2.12.12-4.24.18-6.34.38-1.05.1-1.51-.18-1.63-1.26-.17-1.5-.59-2.94-1.73-4.05-2.66-2.57-8.59-2.42-11.09.29-2.03 2.19-1.59 4.62 1.21 5.65 2.12.79 4.39 1.16 6.56 1.83 3.7 1.14 7.47 2.13 11.03 3.62 8.34 3.49 10.28 10.21 7.62 18.23-2.35 7.09-7.51 11.61-14.4 14.19-5.17 1.94-10.59 2.34-16.05 1.88-3.07-.26-6.16-.74-9.16-1.46-5.91-1.42-8.92-5.68-10.13-11.33-.37-1.74-.28-3.59-.37-5.39-.05-.88.4-1.32 1.3-1.37 4.69-.25 9.39-.51 14.08-.79.86-.05 1.24.28 1.3 1.12.06.82.12 1.65.29 2.46.61 2.89 2.3 4.86 5.22 5.51 3.79.85 7.3.4 10.09-2.68 2.3-2.54 1.97-5.88-1.06-7.45-2.08-1.08-4.44-1.63-6.69-2.37-3.23-1.07-6.55-1.92-9.7-3.2-1.92-.78-3.77-1.99-5.33-3.37-3.39-2.96-4.15-6.95-3.39-11.19 1.01-5.65 4.35-9.74 9.19-12.62 4.18-2.49 8.82-3.52 13.63-3.66 4.44-.13 8.89-.23 13.26.92 2.27.6 4.43 1.42 6.28 2.91 3.74 3.02 4.68 7.13 4.5 11.66-.04.95-.75 1.14-1.52 1.18l-6.96.39v-.03Zm44.2-16.04c2.59 0 5.17-.01 7.76 0 1.61.01 1.74.1 2.05 1.68 1.76 8.87 3.5 17.74 5.25 26.6 1.71 8.66 3.43 17.32 5.14 25.99.3 1.5.12 1.77-1.42 1.77-4.91.01-9.82-.05-14.73 0-1.26.01-1.58-.62-1.7-1.68-.55-4.56-1.12-9.12-1.7-13.68-.76-5.99-1.55-11.98-2.31-17.98-.25-2-.43-4-.7-6-.06-.42-.32-.82-.49-1.23-.29.32-.67.59-.85.96-2.98 6.13-5.93 12.28-8.9 18.42-3.24 6.7-6.49 13.39-9.72 20.09-.36.75-.86 1.09-1.69 1.08-5.01-.03-10.03-.03-15.04-.07-1.16-.01-1.23-.23-.54-1.48 2.85-5.16 5.7-10.31 8.56-15.46 6.75-12.15 13.53-24.28 20.2-36.47 1.02-1.86 2.12-2.79 4.33-2.57 2.15.21 4.34.05 6.51.05Zm6.05 10.53v.25c-2.22.45-4.44.93-6.67 1.35-.94.18-1.16.65-.98 1.53.18.87.65 1.08 1.45.91 3.19-.64 6.39-1.26 9.58-1.91.38-.08 1.03-.36 1.02-.54-.02-.96-.09-1.95-.39-2.85-.12-.37-.84-.69-1.33-.75-1.74-.23-3.5-.32-5.25-.5-.38-.04-.74-.21-1.11-.32.32-.24.62-.52.97-.7 1.52-.78 3.04-1.55 4.58-2.27.83-.39 1.19-.94.99-1.84-.1-.45-.21-.91-.29-1.36-.16-.9-.67-1.18-1.56-.99-1.72.36-3.45.67-5.17 1.01-1.47.29-2.94.57-4.41.9-1.07.24-1.31.82-.9 1.82.33.79.94.68 1.56.56 2.19-.41 4.39-.83 6.58-1.25-2.07 1.28-4.19 2.33-6.34 3.31-.92.42-1.17.99-.96 1.97.21.96.78 1.23 1.65 1.27 2.32.12 4.63.26 6.95.4Zm9.07 22.46c-.3-1.03-.5-2.1-.93-3.07-.67-1.51-2.12-2.37-3.41-2.22-1.47.17-2.71 1.41-3 3.12-.19 1.12-.24 2.25-.36 3.38-.08.74-.17 1.52-1.12 1.6-.93.08-1.39-.56-1.67-1.34-.46-1.29-.26-2.4.84-3.34.65-.56.65-1.54.07-2.19-.67-.77-1.22-.11-1.73.24-.98.68-1.55 1.66-1.67 2.85-.17 1.63.15 3.19.95 4.62.81 1.46 2.21 2.17 3.72 1.95 1.7-.24 2.78-1.2 3.11-2.98.23-1.21.18-2.47.41-3.68.1-.52.47-1.28.88-1.4.81-.23 1.11.56 1.27 1.22.25 1 .14 1.9-.65 2.71-.51.53-.34 2.22.23 2.33.53.1 1.27-.19 1.72-.55.99-.8 1.24-1.97 1.34-3.26Zm-10.95-6.48c2.58-.49 5.16-.98 7.75-1.45.89-.16 1.22-.63 1.07-1.52-.16-.96-.65-1.33-1.62-1.09-.65.16-1.32.22-1.98.34-1.57.3-3.13.65-4.71.89-1.37.21-1.98-.19-2.43-1.36-.65-1.68 0-2.97 1.8-3.38 2.21-.5 4.45-.89 6.68-1.33.9-.17.98-.78.82-1.52-.15-.71-.4-1.31-1.32-1.11-2.57.55-5.16 1.02-7.7 1.67-1.79.46-2.82 1.82-2.77 3.65.04 1.31.36 2.66.83 3.88.59 1.52 1.86 2.3 3.59 2.32Zm1.31 23.64c0 2.63 1.44 4.8 3.58 5.41 1.24.35 1.71-.03 1.78-1.31.05-.92-.54-1.11-1.21-1.32-1.17-.38-1.74-1.23-1.8-2.43-.07-1.28.44-2.32 1.66-2.68 1.31-.38 2.71-.63 4.07-.63 1.32 0 2 .83 2.31 2.12.25 1.06-.1 1.9-.77 2.7-.49.59-.32 1.91.3 2.35.8.58 1.23-.2 1.66-.63 1.46-1.49 1.57-3.33 1.03-5.2-1.29-4.44-6.99-5.81-10.62-2.58-1.26 1.12-2.01 2.47-1.97 4.2Zm10.85-9.27c-.08-1.57-.52-2.07-1.45-1.89-3.28.63-6.55 1.32-9.83 1.96-.86.17-1.26.55-1.05 1.48.18.8.47 1.38 1.43 1.19 3.33-.64 6.67-1.25 9.99-1.95.41-.09.73-.62.9-.78Z" />
</svg>
