<svg xmlns="http://www.w3.org/2000/svg" viewBox="0 0 109.52 53.75">
  <path
    d="M1.63 30.86c-.54-.05-.92-.08-1.5-.13.39-1.79.76-3.54 1.16-5.28C3.1 17.52 4.94 9.61 6.69 1.67c.27-1.21.7-1.6 1.93-1.6C16.11.09 23.6.03 31.09 0h4.9c-.23 1.11-.45 2.18-.71 3.38h3.26c-.52 2.27-1 4.4-1.51 6.52-1.83 7.72-3.66 15.44-5.48 23.17-.16.68-.27 1.17-1.2 1.16-9.61-.04-19.23-.02-28.84-.03-.11 0-.23-.02-.52-.05.2-1.07.4-2.11.63-3.29Zm-1.05-.39h1.3c8.42 0 16.84-.02 25.26.02.98 0 1.4-.26 1.63-1.25 1.73-7.51 3.53-15 5.3-22.5.49-2.08.96-4.17 1.45-6.32-.42-.03-.69-.06-.95-.06C26.03.38 17.5.41 8.96.43c-.23 0-.46.05-.69.04-.7-.03-.96.28-1.12.99-1.79 7.97-3.64 15.93-5.46 23.89-.38 1.64-.71 3.29-1.11 5.12ZM71.48 0c-.22 1.1-.44 2.17-.68 3.39h3.26c-.53 2.25-1.01 4.34-1.51 6.43-1.85 7.8-3.7 15.6-5.53 23.4-.13.57-.22.99-.98.99-9.77-.03-19.54-.02-29.31-.03-.07 0-.14-.04-.26-.08.22-1.04.43-2.08.67-3.19-.51-.08-.92-.15-1.44-.23.04-.34.06-.67.13-.99 2.13-9.39 4.3-18.78 6.38-28.19.26-1.17.78-1.43 1.85-1.43C51.47.07 58.89.02 66.3 0h5.19ZM36.09 30.37c.38.06.53.1.68.1 8.77 0 17.53 0 26.3.02.86 0 .99-.47 1.15-1.12 1.79-7.65 3.6-15.31 5.41-22.96.46-1.97.92-3.95 1.41-6.06h-1.42c-3.86 0-7.72.02-11.59.03-4.56.01-9.11.04-13.67.04-.98 0-1.54.16-1.8 1.36-1.65 7.57-3.43 15.11-5.15 22.66-.44 1.94-.86 3.89-1.31 5.93Zm35.88 3.78c.12-.56.24-1.07.34-1.59.1-.52.19-1.04.3-1.64-.49-.08-.9-.15-1.48-.24.34-1.54.66-3.06 1-4.58 1.91-8.34 3.83-16.68 5.71-25.02.16-.69.39-1.04 1.12-.96.38.04.77-.02 1.16-.02l22.01-.09h4.84c-.22 1.1-.43 2.16-.67 3.37h3.21c-.3 1.37-.54 2.59-.83 3.81-2.06 8.7-4.14 17.4-6.18 26.1-.17.71-.42.94-1.14.93-9.62-.02-19.24-.01-28.86-.01-.15 0-.3-.03-.55-.06Zm-.41-3.76c.47.03.77.07 1.08.07 8.61 0 17.22 0 25.83.02.76 0 1.06-.24 1.24-.99 1.59-6.83 3.22-13.64 4.83-20.46.67-2.84 1.32-5.69 2.01-8.68h-1.49c-4.09 0-8.19.02-12.28.03-4.29.01-8.57.05-12.86.03-1.12 0-1.65.31-1.91 1.54-1.28 6.03-2.7 12.03-4.07 18.04L71.56 30.4ZM42.41 53.43h-1.53c.78-3.71 1.55-7.35 2.32-11 1.66 0 3.28-.07 4.88.03.96.06 1.94.34 2.25 1.47.3 1.1-.08 2.06-.8 2.86-.38.41-.9.69-1.36 1.02 1.59 1.66.25 3.72.78 5.63h-1.61c0-1.06-.04-2.09 0-3.11.06-1.3-.18-1.64-1.46-1.83-2.27-.33-2.35-.28-2.8 1.92-.21 1.01-.46 2.01-.69 3.01Zm1.35-6.22c1.3-.09 2.45-.08 3.56-.28.86-.16 1.41-.86 1.35-1.75-.03-.43-.4-1.13-.72-1.2-1.03-.21-2.11-.19-3.18-.22-.12 0-.34.21-.37.36-.22.96-.4 1.92-.63 3.09Zm-34.35-2.1H8.04c-.83-1.76-3.01-2.17-4.46-.86-.94.86-.75 2 .43 2.41.76.27 1.55.45 2.32.68 2.53.75 3.11 2.88 1.31 4.82-1.37 1.48-4.72 2.05-6.47 1.1C.2 52.73-.2 51.82.09 50.83c.11-.38.91-.55 1.56-.92.04 1.37.25 2.23 1.44 2.4 1.67.24 3.11-.29 3.65-1.39.48-.96.16-1.72-.92-2.06-.84-.26-1.73-.4-2.56-.69-2.19-.75-2.66-2.52-1.19-4.32 1.31-1.6 4.45-2.25 6.26-1.28.97.52 1.29 1.35 1.07 2.52Zm78.66 8.55c-.59-.22-1.09-.42-1.71-.65-.57.17-1.41.58-2.29.66-1.51.14-2.33-.54-2.59-2.02-.45-2.61 1.35-6.35 4.54-6.06.68.06 1.34.41 2.08.64.18-.81.51-1.79.61-2.8.12-1.21.76-1.22 1.7-.97-.77 3.67-1.53 7.3-2.35 11.2Zm-5.38-3.04c.47.69.76 1.51 1.34 1.88.84.53 1.83.13 2.33-.63.56-.87.95-1.91 1.19-2.93.21-.87.02-1.78-.97-2.22-.96-.42-1.84-.08-2.35.66-.62.92-.97 2.03-1.53 3.25Zm-48.14-2.07c-.3-.72-.37-1.48-.77-1.74-.74-.48-1.5-.14-2.18.47-.4.36-1 .49-1.5.72-.12-.17-.24-.33-.35-.5.47-.49.86-1.26 1.43-1.42 1.07-.31 2.25-.46 3.35-.33 1.12.13 1.53.99 1.31 2.18-.34 1.81-.74 3.62-1.13 5.5-.55-.02-1.32.53-1.36-.42-.98.23-1.98.64-2.99.65-1.54.01-2.21-1.21-1.65-2.66.54-1.39 1.64-1.98 3.02-2.17.8-.11 1.6-.16 2.83-.27Zm-.69.96c-1.15.3-2.18.44-3.06.88-.37.19-.59 1.05-.53 1.56.03.26.83.6 1.28.61 1.26.03 2.12-1.05 2.3-3.04Zm23.64 1.64c-.22 2.32-4.21 3.36-5.82 1.91-.86-.78-.74-1.82-.67-2.81.18-2.85 2.2-4.78 4.84-4.67 2 .09 3.2 2.18 2.22 3.97-.12.22-.55.38-.85.39-1.19.04-2.39.01-3.59.02-.52 0-1.14-.14-1.2.68-.06.83.09 1.62.97 1.88.84.25 1.79.18 2.27-.67.47-.83 1.07-.84 1.82-.69Zm-.81-2.36c.13-1.43-.23-2.03-1.23-2.17-1.13-.16-2.18.74-2.5 2.17h3.73Zm14.87-3.22c2.15.01 3.23 1.15 3.08 3.24-.22 3.08-2.38 5.08-5.28 4.89-1.66-.11-2.59-1.08-2.65-2.75-.11-3.14 1.92-5.39 4.85-5.38Zm1.79 3.22-.3-.15c.03-1.59-.93-2.35-2.46-1.9-1.68.5-2.04 1.93-2.29 3.4-.15.87-.13 1.77.75 2.23.93.49 2 .39 2.63-.43.71-.93 1.12-2.09 1.67-3.15ZM102.27 47c-2.94 0-5.27-2.2-5.32-4.99-.04-2.79 2.41-5.11 5.36-5.08 2.99.03 5.27 2.2 5.28 5.01 0 2.89-2.28 5.07-5.32 5.06Zm.05-.89c2.42-.03 4.34-1.88 4.32-4.19-.02-2.2-2.02-4.11-4.32-4.12-2.33 0-4.42 1.96-4.42 4.17 0 2.23 2.06 4.17 4.42 4.14Zm-5.28 1.75h-1.42c-.11-1-.75-1.51-1.7-1.17-.53.19-.9.79-1.34 1.21.4.3.76.66 1.2.89.4.21.88.25 1.32.4 1.66.59 2 1.86.89 3.23-.99 1.21-3.66 1.72-5.03.95-.72-.4-.9-.94-.71-2.15h1.23c.61 1.47 2.2 1.86 3.14.74.56-.67.45-1.2-.38-1.51-.57-.21-1.19-.31-1.78-.49-1.65-.52-2.02-1.89-.87-3.22 1-1.16 3.22-1.59 4.59-.9.8.4 1.08 1.05.87 2.02Zm-80.3-2.07c.54.03.91.05 1.44.07-.53 2.55-1.05 5.02-1.58 7.57-.42.02-.83.05-1.33.07-.02-.29-.04-.53-.06-.79-.06 0-.12 0-.16.02-.36.22-.68.52-1.07.67-1 .38-2.05.6-2.95-.17-.86-.73-.68-1.73-.47-2.69.26-1.2.6-2.39.75-3.61.14-1.12.65-1.34 1.69-1.01-.27 1.31-.54 2.62-.81 3.92-.05.26-.18.55-.13.79.14.63.17 1.54.58 1.78.75.46 1.75.21 2.25-.58.5-.79.82-1.72 1.09-2.63.32-1.1.5-2.23.76-3.44Zm49.15 2.35h-1.22l.17-.21c-.48-.44-.9-1.14-1.45-1.27-.88-.2-1.67.36-2.01 1.22-.36.92-.73 1.89-.77 2.86-.02.59.42 1.47.92 1.74.73.4 1.65.1 2.05-.75.4-.84.98-.95 1.76-.73-.21 2.22-3.41 3.46-5.27 2.28-.33-.21-.63-.58-.79-.95-1.32-3.03 1.46-6.98 4.73-6.75 1.42.1 2.11 1 1.9 2.57Zm11.24 5.29h-1.45c.53-2.55 1.05-5.02 1.58-7.55h1.39v.58c.9-.32 1.82-.65 2.96-1.05-.15.75-.23 1.12-.3 1.48-2.65.42-2.89.66-3.46 3.33-.22 1.05-.47 2.09-.73 3.21ZM20.7 45.84h1.34c.02.28.03.53.04.65.86-.34 1.73-.68 2.86-1.12-.09.75-.13 1.15-.17 1.52-2.62.36-2.91.63-3.47 3.22-.23 1.08-.48 2.16-.74 3.31h-1.4c.04-.3.05-.56.1-.81.48-2.25.96-4.49 1.45-6.78Zm7.19-.28c-.55 2.67-1.03 4.95-1.49 7.24-.2 1-.91.65-1.63.65.5-2.43.94-4.79 1.53-7.12.08-.32.9-.45 1.6-.77Zm-1.25-1.69c.12-.52.21-.97.33-1.46h1.69q-.26 1.69-2.02 1.46Z" />
  <path
    d="M27.94 8.92h-3.41c-.54-2.72-1.41-3.46-4.21-3.54-1.8-.05-3.6.15-5.08 1.25-.76.56-1.44 1.41-1.81 2.28-.68 1.59-.1 2.71 1.53 3.26 1.64.55 3.32.97 4.99 1.44.63.18 1.27.32 1.9.5 5.17 1.43 5.34 5 3.16 8.86-1.24 2.19-3.36 3.37-5.72 4.05-2.47.71-4.99.93-7.55.52-4.21-.67-5.85-3.05-4.88-7.26h3.47c.03.11.05.15.05.19.02 3.29.74 4.22 4.08 4.36 1.68.07 3.41-.43 5.07-.84.63-.15 1.25-.66 1.69-1.17 1.72-2.01 2.1-4.75-1.52-5.72-1.64-.44-3.3-.76-4.95-1.17-.56-.14-1.1-.34-1.64-.54-4.51-1.72-4.46-5.23-2.43-8.38 1.74-2.7 4.51-3.76 7.51-4.27 2.27-.39 4.53-.37 6.73.46 2.58.97 3.63 2.95 3.01 5.75Zm17.62 18.29h-3.39c.34-1.63.66-3.2 1-4.76 1.37-6.16 2.76-12.33 4.12-18.49.13-.6.31-.96 1.03-.95 3.43.07 6.87.09 10.3.13.23 0 .46.02.69.06 4.49.75 6.02 4.03 3.72 8-.91 1.58-2.03 2.44-4.87 3.72.08.09.14.2.23.24 1.88.86 2.24 1.6 2.19 3.72-.07 2.73-.02 5.47-.02 8.29h-3.88c.13-2.28.19-4.54.39-6.79.22-2.47-.48-4.13-3.47-4.04-1.46.04-2.94.03-4.4-.08-.93-.07-1.27.29-1.44 1.16-.59 2.91-1.25 5.8-1.9 8.69-.08.37-.21.73-.32 1.11Zm3.11-13.93c2.5 0 4.89.15 7.26-.07 1.06-.1 2.22-.74 3.03-1.47 1.14-1.02 1.61-2.51 1.06-4.02-.54-1.5-1.97-1.74-3.35-1.78-1.85-.06-3.7-.04-5.56 0-.31 0-.83.23-.88.45-.56 2.27-1.04 4.56-1.56 6.89Zm49.77 8.01c-.75 1.03-1.35 2.23-2.28 3.06-3.39 3.05-7.41 4.02-11.83 2.98-3.14-.74-5-3.02-5.16-6.85-.26-6.11 1.54-11.57 6.51-15.49 3.49-2.75 7.56-3.18 11.74-1.81 2.76.91 3.99 3.09 3.58 5.92h-3.49c-.4-2.33-1.47-3.38-3.82-3.65-2.8-.33-5.29.46-7.09 2.61-3.04 3.64-4.23 7.95-3.62 12.63.38 2.92 2.59 4.42 5.55 4.18 2.51-.2 4.65-1.07 5.95-3.41.12-.21.45-.42.69-.43.99-.05 1.99-.02 2.99-.02l.27.27Zm1.78 17.63c.78 0 1.5-.13 2.14.03.73.18 1.68.46 1.99 1.01.27.48-.21 1.39-.38 2.21.2.69.46 1.62.75 2.64-.48.04-.81.07-1.17.09-.59-.99.09-3.12-2.24-2.48-.66.65.54 2.12-1.1 2.58v-6.08Zm.88 2.33c.11.11.21.22.32.33.6-.26 1.22-.51 1.8-.82.06-.03-.05-.65-.15-.67-.54-.12-1.15-.26-1.65-.12-.21.06-.22.82-.32 1.26Z" />
</svg>
