<svg xmlns="http://www.w3.org/2000/svg" viewBox="0 0 221.91 70.21">
  <path
    d="M80.84 18.25c0-4.96.05-9.91-.02-14.87-.02-1.74.51-2.63 2.39-2.51 1.5.09 3.02-.03 4.52.04.61.03 1.71.23 1.74.47.63 4.2 2.41 1.25 3.61.54 4.13-2.41 12.03-3.3 16.17 2.21 1.1 1.46 1.76 1.37 2.93.13 2.74-2.88 6.16-4.23 10.15-4.19 6.82.06 11.32 3.98 11.6 10.82.31 7.53.12 15.08.19 22.63.01 1.48-.54 2.06-2.03 2.22-6.38.71-6.69.44-6.76-5.89-.05-5.27 0-10.56-.43-15.81-.33-4.02-1.98-5.56-4.89-5.78-3.37-.25-6.32 1.73-7.21 5.21-.53 2.06-.69 4.25-.74 6.38-.11 4.42-.14 8.84 0 13.25.06 2-.61 2.57-2.57 2.6-7.96.12-6.2.3-6.36-5.95-.13-4.95-.04-9.91-.28-14.86-.2-4.09-1.98-6.26-4.89-6.63-3.36-.42-6.34 1.57-7.41 5.36-.54 1.93-.62 4.03-.67 6.06-.1 4.42-.12 8.84 0 13.25.06 2.17-.84 2.75-2.85 2.82-6.19.21-6.19.28-6.19-5.88V18.23ZM11.39 36.69c-3.52-.11-7.2-1.3-10.25-4.22-1.2-1.14-1.72-2.16-.24-3.45.56-.49 1.07-1.08 1.5-1.69 1.54-2.21 2.92-2.79 5.3-.65 1.33 1.19 3.69 1.44 5.63 1.65.74.08 2.07-1.05 2.3-1.86.21-.73-.51-2-1.19-2.65-.9-.87-2.15-1.38-3.24-2.05-2.28-1.42-4.79-2.56-6.77-4.31C-1.51 12.2.17 3.63 7.54.78c4.7-1.82 11.16-.36 14.7 3.19 1.25 1.25 1.44 2.26.03 3.45-.66.55-1.33 1.13-1.83 1.82-1.38 1.87-2.64 1.92-4.48.42-1.06-.86-2.72-1.19-4.14-1.32-.73-.06-1.96.72-2.19 1.38-.19.56.57 1.81 1.23 2.21 2.56 1.57 5.3 2.84 7.89 4.37 3.96 2.33 6.04 5.76 5.54 10.46-.63 6-5.47 9.86-12.89 9.93Zm174.75-15.31c0 3.55.02 7.1 0 10.65-.02 3.56-1.93 4.96-5 3.26-1.2-.66-1.75-.5-2.75-.04-4.73 2.12-9.56.58-12.31-3.84-4.28-6.89-.39-16.46 7.07-17.06 1.83-.15 3.83.4 5.56 1.11 1.58.65 1.89.31 1.86-1.17-.03-1.51.08-3.02-.02-4.52-.13-2.05.33-3.14 2.79-3.14 2.45 0 2.86 1.09 2.82 3.13-.09 3.87-.03 7.75-.02 11.62Zm-5.21 3.75c-.03-3.29-2.48-5.86-5.59-5.88-3.09-.02-5.52 2.55-5.56 5.89-.03 3.38 2.65 6.23 5.73 6.11 3.02-.12 5.45-2.86 5.42-6.12Zm40.34.16v7.11c-.02 3.17-2.3 4.67-4.95 2.83-1.29-.89-1.79-.4-2.7 0-6.09 2.75-12.94-1.03-13.8-7.67-.47-3.62-.21-7.1 2.38-10.03 2.92-3.31 7.12-4.25 11.14-2.46 1.05.47 1.65 1.32 3.2-.06 2.11-1.89 4.73-.11 4.74 2.83.01 2.48 0 4.96 0 7.44Zm-5.29.03c.06-3.41-2.14-5.92-5.31-6.07-3.16-.15-5.51 2.23-5.64 5.69-.13 3.53 2.25 6.3 5.42 6.31 3.02.01 5.46-2.61 5.52-5.93Zm-154.33.04v6.78c-.01 3.55-2.17 4.83-5.29 3.21-.54-.28-1.41-.43-1.93-.21-4.77 2.07-9.02 1.15-12.12-2.74-3.24-4.07-3.2-10.62.09-14.69 2.9-3.58 7.45-4.51 11.92-2.36.88.42 1.23.71 2.24-.21.85-.77 2.84-.56 4.23-.27.46.1.78 1.78.82 2.75.11 2.58.04 5.16.04 7.74Zm-5.37-.23c-.02-3.56-2.21-5.91-5.46-5.85-3.14.05-5.43 2.61-5.39 6.02.04 3.3 2.56 5.99 5.56 5.94 3.12-.06 5.31-2.59 5.29-6.1Zm96.49 1.76c-1.93 0-3.87-.04-5.8.03-.59.02-1.16.31-1.75.48.24.67.33 1.45.73 2 1.59 2.09 4.82 2.58 7.65 1.27.76-.35 1.64-1.11 2.26-.94 1.3.35 2.46 1.2 3.68 1.84-.77.94-1.37 2.12-2.32 2.79-4.39 3.11-11.57 2.29-15.09-1.6-3.47-3.83-3.62-10.44-.34-14.6 2.71-3.43 7.34-4.79 11.96-3.51 3.98 1.1 7.03 4.71 7.46 8.82.32 3.03.04 3.37-2.96 3.42-1.83.03-3.65 0-5.48 0Zm-2.34-4.5c1.07 0 2.14.06 3.21-.03.56-.05 1.1-.36 1.64-.55-.33-.52-.57-1.15-1-1.55-1.92-1.78-5.34-1.89-7.39-.21-.54.44-.86 1.16-1.28 1.75.65.2 1.28.5 1.94.56.95.1 1.92.02 2.88.03ZM29.69 27.38v-5.49c0-1.18.1-2.23-1.58-2.65-1.26-.32-1.6-4-.45-4.31 3.35-.89 1.88-3.44 1.95-5.25.09-2.14.86-2.75 2.89-2.79 2.09-.04 2.83.67 2.87 2.76.05 1.98-1.14 4.62 2.42 5.27 1.07.19.7 4.15-.48 4.33-2.29.35-1.96 1.91-1.97 3.36-.04 3.55-.09 7.1 0 10.65.05 2.01-.82 2.62-2.71 2.57-1.85-.04-3.17-.28-2.97-2.64.16-1.92.03-3.87.03-5.81Zm35.68-2.36c0-2.47-.03-4.95 0-7.42.04-2.77 1.84-4.21 4.02-2.77 1.32.87 1.86.7 2.83-.03.33-.24.82-.47 1.19-.41 1.06.18 2.09.51 3.13.78-.69 1.34-1.28 3.76-2.08 3.83-2.95.28-3.22 2.18-3.34 4.25-.18 3.11-.22 6.23-.2 9.35.01 1.93-.16 3.25-2.7 3.26-2.66.01-2.99-1.3-2.89-3.43.11-2.47.03-4.95.03-7.42Zm125.3.15c0-2.79.07-5.58-.02-8.36-.07-2.07 1.21-2.14 2.73-2.17 1.58-.03 2.71.22 2.69 2.22-.07 5.57-.09 11.15 0 16.72.03 2.13-1.28 2.11-2.74 2.14-1.54.04-2.76-.15-2.69-2.19.09-2.78.02-5.57.02-8.36h.02ZM52.98 67.82c-.82.25-1.64.5-3.03.93 1.81.27 3.02.46 4.22.64 0 .2-.02.41-.03.61H43.81l-.12-.6 3.98-.54.03-.42c-.58-.09-1.23-.04-1.73-.3-.85-.44-1.6-1.07-2.39-1.63.93-1 1.37-2.96 3.45-1.66.25.16.76-.11 1.2-.61-.54-.15-1.09-.45-1.63-.43-2.14.08-2.03-1.34-2.07-2.81-.05-1.72.99-1.9 2.3-1.88 1.08.02 2.17-.11 3.23.03 1.19.15 2.93-.81 3.18 1.56.23 2.13-.43 3.29-2.7 3.24-.12 0-.24.27-.58.67 1.27.24 2.4.45 3.52.66.01.19.03.38.04.57-.94.22-1.89.44-3.25.76 1.13.3 1.91.5 2.68.7v.5Zm68.44-.58c-1.39-.28-2.26-.46-3.14-.64l-.03-.56c1.28-.17 2.55-.34 4.48-.6-1.04-.16-1.43-.2-1.82-.28-.87-.2-2.43-.31-2.49-.65-.2-1.22-.02-2.55.29-3.77.22-.86.74-2.07 1.9-.52.17.22 1.16.18 1.4-.09.9-.99 1.64-.87 2.57-.06.25.22 1.15.19 1.28-.02 1.56-2.55 1.03 1.7 2.09.62.26 1.22.55 2.43.73 3.66.03.19-.48.62-.78.67-.94.14-1.9.15-2.88.53 1.09.14 2.17.27 3.26.41.06.15.12.29.19.44-.76.28-1.52.57-2.6.97 1.02.68 1.89 1.28 2.77 1.87-.08.2-.15.4-.23.6-.9-.3-1.93-.42-2.68-.93-1.08-.75-1.8-1.31-1.9.63 0 .12-.56.21-.86.32-.39-3.03-1.65-.64-2.56-.41-.67.17-1.34.32-2.26-.03.9-.59 1.79-1.18 3.27-2.16Zm51.36 2.75c-1.59 0-4.16.58-4.57-.12-.82-1.4-.59-3.49-.58-5.3.03-6.38-.73-5.4 5.52-5.42 5.94-.03 4.82-.58 4.94 4.97v.32c-.09 1.81.4 4.02-.47 5.3-.53.78-3.15.14-4.83.14v.11Zm-1.89-1.15c.26 0 .39.04.47 0 .7-.38 1.39-.78 2.09-1.17-.56.14-1.16.46-1.68.36-.62-.12-1.29-.48-1.7-.95-.33-.38-.31-1.08-.45-1.63 1.83-.43.08-1.59.45-2.21.54-.9-1.67-2.32.58-2.79.19-.04.35-.18.53-.28-.32-.04-.78-.22-.92-.08-.49.51-1.18 1.09-1.24 1.7-.16 1.7.05 3.42-.06 5.13-.11 1.62.6 2.13 1.92 1.93Zm3.53-8.72c.55.32 1.48.55 1.57.97.31 1.48.38 3.01.43 4.53.02.5-.25 1.03-.5 1.5-.24.46-.62.86-.94 1.28.36.13.89.48 1.06.35.43-.31.95-.83.98-1.29.12-1.7-.05-3.42.09-5.12.18-2.17-.92-2.55-2.7-2.22ZM152.8 61.2c-.51.05-1.02.1-1.52.16-.29.04-.57.12-.85.18.31.08.71.06.91.25 1 .96 2.22 1.99-.14 2.8-.2.07-.42.08-.63.12.28.06.57.1.85.17.46.11.91.24 1.3.81-1.01.1-2.02.2-3.03.31l.02.4c.63 0 1.26-.02 1.88 0 1.08.04 2.9-.24.67 1.4-.03.02.2.4.32.61.2.34.4.68.61 1.01-.49.03-1 .16-1.46.07-1.15-.23-2.65-2.5-3.16.62 0 .01-.78-.01-.8-.11-.73-3.27-2.04-.15-3.04-.28-.5-.06-1.02-.02-1.53-.02.24-.35.41-.81.73-1.02.81-.53 1.35-.87-.13-1.16-.19-.04-.49-.9-.36-1.05 1.04-1.25 1.23-2.2-.22-3.41-.25-.21.87-2.27 1.57-3.34.86-1.3 1.28-.43 1.66.49.06.15.77.27.86.15 2.08-2.73 3.63 1.41 5.48.84Zm-84.3 8.12c1.05-.66 1.92-1.21 3.06-1.92-1.15-.39-1.96-.67-2.76-.94l.06-.51 3.83-.45c-.74-.16-.98-.24-1.23-.27-2.44-.21-3.39-1.28-2.83-3.58.2-.82 1.06-1.47 1.62-2.2-.34 1.17 2.17 1.01 1.19 2.56-.15.23.26.81.42 1.23.15-.4.39-.78.44-1.19.23-1.75 0-4.11 2.83-1.79.2.16.94.01 1.14-.23 1.71-2.07 1.42 1.15 2.42.89-.97 1.24-.13 2.24.37 3.32.05.11-.57.74-.91.77-1.01.11-2.04.04-3.06.6.59.04 1.18.08 1.77.14.58.06 1.17.14 1.81.7-.73.24-1.46.49-2.55.85 1.11.7 2.03 1.27 3.07 1.93-1.64 1.83-4.07-2.91-5.28.73-1.44-3.61-3.57 1.21-5.39-.64Zm80.73-24.15c.18-.52.27-.72.32-.92l.99-3.66c.23 1.32.61 2.63.65 3.95.1 2.79.06 5.59 0 8.38-.02 1.15.14 2.7-1.91 1.5-.3-.18-.97.26-1.47.43-2.87.99-5.36.35-6.85-1.77-1.35-1.91-1.33-4.77.04-6.67 1.59-2.19 3.88-2.78 6.89-1.76.4.14.79.31 1.31.52Zm.39 4.56c-.02-2.4-1.68-4.06-4.02-4.02-2.4.04-3.96 1.67-3.94 4.1.03 2.32 1.8 4.15 4.01 4.12 2.22-.02 3.96-1.88 3.95-4.2Zm42.94-.11c.09 4.02-3.65 6.72-7.47 5.37-.3-.11-.62-.44-.86-.39-3.73.8-2.89-1.85-2.9-3.83-.01-2.9-.02-5.81.06-8.71.02-.52.5-1.03.78-1.54.28.51.63 1 .81 1.54.13.39.06.85.05 1.28-.06 1.38.16 1.8 1.81 1.26 4.2-1.38 7.64.98 7.73 5Zm-9.71.1c.01 2.23 1.91 4.19 4.05 4.18 2.19 0 3.99-1.91 3.99-4.19 0-2.39-1.68-4.1-4-4.09-2.34.02-4.05 1.75-4.04 4.1Zm34.88-4.63c.48-1.75.85-3.13 1.22-4.5.29 1.44.76 2.88.83 4.33.13 2.78.06 5.57.03 8.35-.01 1.01 0 2.1-1.63 1.31-.44-.21-1.18.11-1.75.29-2.87.93-5.02.43-6.61-1.59-1.45-1.84-1.53-5.05-.15-6.91 1.5-2.04 3.83-2.72 6.61-1.89.5.15.96.4 1.44.6Zm-3.3.61c-2.38-.06-4.06 1.55-4.11 3.94-.05 2.36 1.62 4.21 3.86 4.27 2.16.06 4.15-1.84 4.23-4.03.08-2.24-1.73-4.13-3.98-4.19ZM13.57 47.95c0 .75.04 1.51 0 2.26-.08 1.48.1 4.12-.38 4.25-2.25.6-4.79 1.01-7.04.57-3.11-.61-4.61-4.16-3.61-7.21.91-2.79 4.14-4.6 7.04-3.36 2.23.95 2.59.41 2.42-1.62-.04-.43-.06-.88.07-1.28.1-.34.42-.62.65-.92.25.29.71.58.72.87.06 2.15.03 4.3.03 6.45h.09Zm-5.56 5.98c2.17-.04 4.07-2.04 4.03-4.21-.05-2.3-1.84-4.04-4.14-4.01-2.37.03-3.99 1.72-3.95 4.12.05 2.34 1.83 4.15 4.06 4.11Zm54.2-4.3c.09 4.12-3.98 6.84-7.83 5.23-.39-.16-.85-.71-1.09-.61-3.78 1.51-2.18-1.68-2.25-2.81-.21-3.22-.09-6.45-.02-9.68 0-.4.47-.79.72-1.19.25.4.61.76.73 1.19.13.51.09 1.07.05 1.61-.15 1.7.25 1.87 1.93 1.24 4.01-1.51 7.68 1.01 7.76 5.03Zm-5.75-4c-2.35.02-3.99 1.74-3.95 4.13.04 2.35 1.82 4.17 4.04 4.14 2.12-.03 4.09-2.08 4.06-4.23a4.093 4.093 0 0 0-4.15-4.05Zm41.01 21.99c-1.36.75-2.71 1.5-4.07 2.25 2.41-2.06.31-4.47.22-6.35-.1-2.03 1.07-2.92 1.88-4.4.13.53.09 1.29.42 1.52.38.27 1.4.29 1.6.02.97-1.3 4.71-2.25 5.62-1.16.4.48.48 1.42.35 2.08-.09.42-.78.86-1.29 1.01-.59.18-1.29.16-1.92.06-2.38-.38-3.44.58-3.2 2.98.13.66.25 1.32.38 1.99ZM.09 66.95h34.13v.48H.1v-.48Zm221.82.58h-34.85c1.75-1.19 31.12-1.39 34.85 0ZM96.55 44.16c3.07.03 5.55 2.46 5.59 5.5.04 3.11-2.67 5.86-5.72 5.82-3.17-.04-5.55-2.63-5.46-5.95.08-3.23 2.34-5.39 5.59-5.37Zm-3.98 5.49c-.05 2.41 1.6 4.23 3.84 4.25 2.21.02 4.02-1.85 4.01-4.16 0-2.21-1.6-3.92-3.75-4.02-2.36-.11-4.06 1.52-4.11 3.92Zm104.86-4.33c5.59-2.32 7.84-.86 7.8 4.61-.01 1.63-.37 3.27-.58 4.9-.32-1.64-.76-3.27-.92-4.92-.18-1.94.16-4.11-2.7-4.24-2.15-.1-3.46 1.57-3.56 4.44-.04 1.29 0 2.59-.09 3.87-.02.3-.47.57-.73.85-.24-.29-.68-.59-.69-.88-.03-4.2-.02-8.4.04-12.6 0-.27.49-.53.75-.8.22.32.61.62.64.95.08 1.17.03 2.35.03 3.81Zm-4.18-39.16c1.81-.02 3.47 1.67 3.47 3.52 0 1.82-1.7 3.57-3.52 3.41-1.95-.17-3.11-1.26-3.17-3.33-.06-2.04 1.32-3.59 3.23-3.6ZM74.82 48.5c-.09 1.07-.14 2.15-.28 3.21-.31 2.43-1.96 3.55-4.18 3.72-2.09.16-4.06-.65-4.52-2.8-.51-2.37-.41-4.87-.51-7.32 0-.25.5-.52.78-.78.21.32.59.62.61.95.09 1.61.04 3.22.11 4.83.09 2.11 1.08 3.58 3.32 3.53 2.11-.05 2.93-1.47 2.91-3.49-.01-1.5 0-3.01.11-4.51.03-.45.43-.87.66-1.31.3.46.77.9.86 1.4.14.83.04 1.71.04 2.57h.08Zm80.27.93c0-.75-.1-1.52.02-2.26.19-1.15-.91-3.8 2.13-2.06.06.04.21-.04.3-.09 2.05-1.13 4.74-1.75 5.7.5 1.1 2.6.84 5.78 1.12 8.72.02.18-.51.61-.57.58-.31-.19-.77-.48-.78-.76-.09-1.61-.09-3.23-.1-4.84-.01-1.88-.36-3.57-2.73-3.54-2.2.03-3.29 1.41-3.44 3.5-.11 1.5 0 3.02-.1 4.52-.03.4-.51.76-.78 1.14-.25-.4-.68-.8-.71-1.22-.09-1.39-.03-2.8-.03-4.2h-.02Zm-49.75-.02c0-.97-.04-1.93.01-2.9.06-1.2-.28-2.95 1.92-1.37.32.23 1.29-.55 1.99-.76 2.97-.88 5.14.54 5.42 3.64.15 1.7.12 3.43.06 5.15-.02.55-.4 1.08-.62 1.62-.3-.58-.79-1.14-.85-1.75-.14-1.38-.06-2.79-.1-4.18-.04-1.46-.22-2.87-2.06-3.13-1.86-.27-3.25.53-3.73 2.29-.39 1.42-.26 2.97-.5 4.44-.13.82-.54 1.6-.83 2.39-.24-.84-.59-1.67-.7-2.53-.12-.95-.03-1.93-.03-2.89Zm-21.96-4.47c0 .11.04.29 0 .31-3.66 2.07-1.17 5.56-1.93 8.3-.06.21 0 .46-.11.63-.16.25-.52.66-.62.61-.33-.15-.8-.46-.83-.74-.12-1.39.02-2.81-.2-4.18-.24-1.47-.83-2.87-1.17-4.33-.09-.38.11-.87.3-1.25.22-.45.62-.81.83-1.26.37-.8.65-1.64.97-2.47.29.85.5 1.74.9 2.53.4.78 1.01 1.46 1.52 2.18l.34-.34Zm51.56.58-2.1.93c.36.71.6 1.53 1.11 2.09.48.53 1.32.73 1.89 1.21 1.58 1.31 1.91 2.87.51 4.49-1.34 1.54-3 1.57-4.64.48-.32-.21-.37-.84-.54-1.27.38-.04.76-.07 1.14-.12 1.03-.13 2.06-.27 3.09-.41-.64-.94-1.09-2.11-1.94-2.78-1.54-1.21-3.18-2.49-1.87-4.44.61-.9 2.51-1.02 3.87-1.27.31-.06.79.8 1.2 1.24l-1.48.45c-.08-.2-.15-.41-.23-.61Zm-109.42-.03c-.68.36-1.35.71-2.03 1.07.41.68.72 1.47 1.26 2.01.67.67 1.68 1.02 2.31 1.71 1.34 1.46 1.06 2.96-.33 4.26-1.31 1.23-3.59 1.18-4.67-.08-.18-.21-.21-.57-.31-.86.35-.11.73-.36 1.06-.3.51.09 1.04.61 1.48.52.67-.13 1.57-.48 1.8-1 .2-.45-.21-1.42-.65-1.87-.66-.68-1.9-.94-2.3-1.69-.58-1.08-1.24-2.81-.76-3.59.52-.86 2.27-1.09 3.53-1.29.39-.06.94.89 1.42 1.38-.53.11-1.06.21-1.6.32-.08-.2-.15-.4-.23-.59Zm12.8 4.27c0-.85-.01-1.71 0-2.56.02-1.58-.32-3.42 2.42-2.55.79.25 1.75-.01 2.64-.04-.68.49-1.5.86-2 1.5-.56.71-1.02 1.62-1.16 2.5-.23 1.46-.08 2.98-.25 4.46-.07.62-.54 1.2-.83 1.8-.27-.63-.69-1.25-.77-1.91-.13-1.05-.03-2.13-.03-3.19Z" />
  <path
    d="M97.47 67.62c-.13-.66-.25-1.32-.38-1.99.73-.11 1.46-.21 2.18-.32-.52-.35-1.05-.7-1.57-1.06l.36-.51h5.76c-1.22.64-1.84.95-2.96 1.53 1.37.23 2.3.39 3.51.59q-2.57 1.35-.23 3.47c-.26.18-.64.53-.7.48-1.86-1.45-3.68-2.09-5.49.08-.23-.37-.57-.71-.66-1.12-.08-.36.11-.78.17-1.17ZM33.14 55.5c-.48-.92-.86-1.32-.87-1.72-.07-1.83.07-3.67-.11-5.49-.09-.89-.74-1.72-1.07-2.6-.14-.38-.11-.82-.14-1.24 0-.03.22-.05.28-.12.44-.49 3.86-.43 4.21.15.16.27.1 1.03.04 1.05-2.7.54-1.45 2.68-1.64 4.16-.17 1.27 0 2.58-.07 3.87-.02.46-.28.91-.63 1.94ZM.24 63.84H34.3v.49H.15c.03-.16.05-.32.08-.49Zm220.87.56h-34.07v-.49h34.11c-.01.16-.03.32-.04.49Zm-135-14.85c0-1.38-.04-2.77.03-4.14.02-.31.46-.61.7-.91.25.28.72.56.73.85.06 2.87.08 5.74.03 8.61 0 .31-.46.61-.71.92-.28-.39-.77-.77-.8-1.18-.1-1.38-.04-2.76-.04-4.15h.06Zm-38.83.06c0 1.4.06 2.81-.04 4.2-.03.37-.57.69-.88 1.04-.2-.34-.57-.67-.57-1.02-.04-2.8-.03-5.6.03-8.4 0-.3.43-.59.66-.88.25.29.7.56.71.86.08 1.39.03 2.8.03 4.19h.05Zm-28.49.05c0 1.4.04 2.8-.03 4.19-.02.33-.4.65-.62.97-.29-.35-.84-.69-.84-1.05-.06-2.79-.03-5.59.04-8.39 0-.28.45-.55.69-.83.24.3.67.59.69.9.08 1.39.03 2.79.03 4.19h.04Z" />
</svg>
