<svg xmlns="http://www.w3.org/2000/svg" viewBox="0 0 195.34 90.45">
  <path
    d="M195.34 6.83c-1.61 1.44-3.11 2.77-4.6 4.09-1.66 1.47-3.31 2.93-4.99 4.37-.23.19-.59.22-.89.32-.06-.31-.2-.63-.17-.93.12-1.13.3-2.26.47-3.39.06-.44.08-.96-.41-1.03-.45-.06-1.05.06-1.39.33-.34.27-.49.82-.63 1.27-.28.85-.46 1.74-.74 2.59-.55 1.64-1.61 2.87-3.12 3.73-1.98 1.13-5.55-.03-6.73-1.36-.9-1.02-1.7-2.08-2.21-3.36-.38-.96-.88-1.88-1.39-2.78-.53-.95-1.26-.98-1.98-.14-.94 1.08-.96 1.75.17 2.6 2.59 1.97 3.6 4.77 4.16 7.77.91 4.94 1.43 9.92 1.72 14.93.3 5.35.38 10.71.16 16.07-.32 7.58-1.17 15.1-2.92 22.49-.45 1.91-1.12 3.82-2.8 5.08-.65.49-1.37.98-2.14 1.19-3.68.97-7.38 1.85-11.09 2.73-6.98 1.66-14.11 2.51-21.2 3.51-4.66.66-9.36 1.04-14.04 1.48-5.52.51-11.04.98-16.56 1.38-3.62.26-7.26.39-10.89.52-2.94.1-5.89.2-8.83.12-4.81-.13-9.62-.4-14.42-.63-2.01-.1-4.02-.17-6.01-.37-5.61-.56-11.23-1.08-16.83-1.79-6.28-.8-12.56-1.66-18.8-2.74-4.7-.81-9.34-2-14-3.04-1.22-.27-2.41-.66-3.63-.88-1.91-.35-3.16-1.51-4.05-3.12-1.16-2.11-1.81-4.4-2.18-6.77-.53-3.31-1.2-6.61-1.54-9.94-.41-3.95-.62-7.93-.75-11.9-.11-3.73-.09-7.48.06-11.21.09-2.1.54-4.18.85-6.26.39-2.56.67-5.15 1.23-7.68.63-2.86 1.47-5.68 2.31-8.49.49-1.64 1.9-2.48 3.28-3.29.5-.29 1.08-.46 1.63-.67 1.11-.42 1.79-.14 2.18.98.96 2.7 1.91 5.41 2.82 8.13 1.69 5.01 3.33 10.04 5.02 15.05 2.35 6.98 4.72 13.95 7.09 20.92.15.45.33.9.51 1.38h7.77c3.86-11.19 7.74-22.4 11.65-33.73h-6.92c-2.89 8.35-5.78 16.69-8.71 25.16-.7-.89-11.82-38.9-11.73-40 1.13-.19 2.31-.4 3.49-.57 5.1-.73 10.21-1.5 15.32-2.17 3.95-.52 7.91-.96 11.87-1.34 5.41-.51 10.83-.92 16.25-1.4 5.42-.49 10.86-.48 16.3-.53 8.91-.09 17.81.18 26.69.72 7.53.46 15.07 1.04 22.57 1.85 4.81.52 9.56 1.55 14.35 2.33 3.01.49 6.01 1.03 9.04 1.38 1.81.21 3.66.11 5.5.15.58.01.97-.26 1.27-.74.42-.68.89-1.32 1.31-2 1.18-1.9 3-2.42 5.09-2.36 2.07.07 3.5 1.21 4.51 2.88.8 1.33 1.44 2.75 2.14 4.14.14.28.21.62.41.82.27.26.64.57.97.57.27 0 .67-.37.79-.66.6-1.44 1.14-2.89 1.66-4.36.37-1.04 1.05-1.82 2.02-2.25.71-.32 1.52-.43 2.29-.63.29-.07.59-.12.95-.19-.14-1.74-.91-3.32-.98-5.01.08-.06.17-.11.25-.17 3.99 2.24 7.99 4.49 12.15 6.83ZM98.43 58.6c.42.07.75.14 1.09.17 1.48.11 2.97.24 4.45.32 4.06.21 8.1.06 12.07-.94 5.58-1.39 9.67-4.53 11.63-10.07 1.38-3.91 1.58-7.93.67-11.96-1.07-4.74-3.91-8.08-8.33-10.08-1.84-.83-3.79-1.32-5.79-1.57-4.49-.56-8.98-.37-13.46.13-.77.09-1.54.21-2.32.32v33.67Zm32.85-34.13v1.07c0 6.12-.02 12.25.01 18.37.01 2.32.27 4.62.97 6.86 1.28 4.05 3.84 6.83 8 7.99 2.64.74 5.34.79 8.04.35 3.41-.55 6.32-2 8.36-4.9 1.75-2.48 2.59-5.32 2.65-8.29.13-6.95.07-13.91.09-20.86 0-.19-.07-.39-.11-.58h-7.68v19.67c0 1.88-.2 3.73-.94 5.48-.98 2.3-2.8 3.39-5.23 3.42-2.39.03-4.2-1.02-5.23-3.24-.7-1.5-1.01-3.09-1.01-4.73-.02-6.47-.01-12.94-.02-19.41 0-.4-.03-.79-.05-1.2h-7.83Zm-49.6 6.35h13.27v-6.36H73.84v34.25h21.84v-6.38H81.7v-8.07h12.5v-6.39H81.69v-7.05ZM49.16 58.7h21.83v-6.41H57.06v-8.04h12.48v-6.37H57.09V30.8h13.2v-6.31H49.16v34.2Zm31.36 4.04c-.37-.02-.6-.05-.84-.05-2.72-.04-5.45-.09-8.17-.12-.48 0-.98.02-1.44.11-1.89.4-3.19 1.49-3.64 3.4-.46 1.99-.16 3.85 1.6 5.11 1.66 1.19 3.53 1.13 5.47.47-.11-.59-.2-1.08-.29-1.57-.67.06-1.22.14-1.77.14-1.83.01-2.9-1.07-2.91-2.9 0-2.12 1.47-3.28 3.69-2.92.36.06.73.02 1.09.05.84.05 1.68.11 2.61.18v7.23h2.18v-7.26c.87-.04 1.64-.08 2.42-.12v-1.75Zm38.97-.02v9.14h1.93v-6.22c1.18 2.16 2.3 4.22 3.4 6.24h2.23v-9.13h-1.86v5.81c-1.13-2.06-2.17-3.95-3.21-5.83h-2.49Zm-24.36 2.85c1.23 2.26 2.35 4.31 3.44 6.32h2.23v-9.13h-1.88v5.76c-1.11-2.01-2.16-3.93-3.16-5.74h-2.5v9.09h1.88v-6.3Zm54.24 6.32c2.08.27 4.06.36 5.94-.57 1.7-.84 2.46-2.7 2.19-5.07-.2-1.71-1.33-3.07-3.17-3.36-1.48-.23-3.01-.1-4.52-.11-.15 0-.29.13-.43.2v8.91Zm-38.67-9.06v9.04c1.66.31 3.26.29 4.85-.13 1.79-.47 2.83-1.65 3.2-3.44.5-2.42-.44-4.47-2.47-5.23-1.81-.68-3.66-.47-5.58-.24Zm27.66 4.1c1.09-.62 1.49-1.45 1.22-2.52-.26-1.05-1.12-1.48-2.07-1.64-1.43-.25-2.88-.2-4.36.08v9.02c1.47.29 2.91.26 4.34-.01 1.25-.24 2.21-.86 2.46-2.19.24-1.27-.39-2.12-1.59-2.74Zm-89.02 4.99c2.01.22 3.94.33 5.76-.53 1.64-.78 2.28-2.23 2.37-3.96.09-1.7-.39-3.19-1.96-4.06-1.96-1.09-4.05-.76-6.18-.55v9.09Zm-5.17.16c2.2 0 3.88-1.21 4.31-3.29.19-.92.2-1.93.04-2.86-.35-2-1.85-3.23-3.9-3.4-1.92-.16-3.65.87-4.41 2.63-.51 1.19-.57 2.41-.26 3.65.52 2.08 2.08 3.27 4.22 3.27Zm43.83 0c2.77.01 4.56-1.85 4.59-4.76.03-2.84-1.8-4.83-4.44-4.81-2.61.02-4.48 2.02-4.5 4.81-.02 2.83 1.74 4.75 4.35 4.76Zm54.83-9.3h-2.12v9.12h2.15v-3.71h3.32v3.71h2.05v-9.13h-2.11v3.37h-3.3v-3.36Zm-105.29 9.1h2.23c-.52-1.55-.51-3.16-1.69-4.31.29-.25.54-.43.75-.66 1.08-1.18.79-3.12-.65-3.79-1.73-.81-3.55-.49-5.35-.28v9.03h2.19v-3.46c1.31-.07 1.58.11 1.89 1.23.21.73.41 1.45.63 2.24Zm20.57-9.13c0 2.1-.06 4.07.02 6.03.05 1.17.52 2.22 1.62 2.85 2.61 1.49 5.67-.1 5.85-3.09.1-1.69.04-3.38.04-5.07 0-.23-.06-.46-.09-.7h-1.93c-.06.14-.11.2-.11.26-.01 1.52-.01 3.04-.04 4.56 0 .51-.02 1.04-.14 1.54-.2.82-.74 1.21-1.47 1.21s-1.25-.4-1.46-1.22c-.12-.46-.17-.95-.18-1.43-.02-1.35 0-2.69-.01-4.04 0-.3-.05-.59-.08-.9h-2.02Zm-30.36 6.03c.4-.02.72.02 1.01-.06.79-.22 1.66-.35 2.32-.78 1.76-1.15 1.51-4.05-.39-4.89-1.64-.73-3.36-.41-5.05-.26v9.09h2.12v-3.1Zm75.86 2.72c1.58.69 3.08.83 4.61.25 1.06-.4 1.68-1.18 1.76-2.34.08-1.16-.42-2.01-1.43-2.54-.58-.31-1.2-.53-1.79-.81-.45-.21-1.01-.49-.74-1.04.16-.33.74-.6 1.15-.63.63-.05 1.28.13 2.02.23.14-.52.28-1.03.41-1.52-1.41-.68-3.16-.71-4.32-.14-1.89.93-2.11 3.26-.38 4.45.56.39 1.23.61 1.86.9.55.25 1.16.5.97 1.25-.18.71-.86.74-1.44.73-.48 0-.95-.15-1.42-.25-.26-.05-.5-.14-.82-.23-.15.58-.28 1.07-.44 1.69Zm-22.64-8.76v9.12h2.08v-9.12h-2.08Zm76.95 7.98c-.04.71.45 1.3 1.14 1.36.76.07 1.34-.44 1.37-1.21.03-.75-.42-1.3-1.12-1.36-.75-.07-1.35.46-1.39 1.22Zm-27.46.11c.02-.78-.51-1.34-1.26-1.33-.7 0-1.23.53-1.25 1.25-.02.76.53 1.34 1.27 1.33.72 0 1.22-.52 1.24-1.25Z" />
  <path
    d="M106.29 52.9V30.48c.58-.07 1.18-.22 1.78-.21 1.58.04 3.2-.02 4.75.27 4.34.8 7.26 4.05 7.58 8.44.13 1.78.11 3.61-.19 5.36-.86 5.07-4.27 8.12-9.41 8.54-1.47.12-2.96.02-4.51.02Zm45.26 17.35v-5.7c1.29-.4 2.45-.14 3.12.69.71.87.8 2.62.2 3.73-.56 1.03-1.67 1.48-3.33 1.28Zm-38.68-5.83c1.36-.16 2.59-.12 3.28 1.12.66 1.19.62 2.48-.13 3.63-.72 1.12-1.87 1.25-3.15 1.11v-5.87Zm22.42 5.9V68c.83-.17 1.64-.21 2.17.5.21.28.23.92.05 1.23-.48.82-1.33.69-2.22.59Zm.02-6c.82-.14 1.56-.22 2.03.48.15.22.12.72-.04.94-.48.67-1.22.6-2 .57v-1.99Zm-83.8 5.98v-5.85c1.21-.22 2.3-.16 3.13.85.71.87.76 2.68.11 3.74-.73 1.2-1.88 1.37-3.24 1.26Zm-9.54-2.98c.16-.62.26-1.27.51-1.86.31-.76.94-1.17 1.79-1.16.81.01 1.38.43 1.71 1.14.57 1.22.57 2.47.03 3.7-.33.75-.92 1.2-1.77 1.2s-1.47-.43-1.78-1.18c-.23-.56-.32-1.18-.48-1.83Zm43.85 0c.21-.7.31-1.4.62-1.99.72-1.36 2.45-1.4 3.3-.12.74 1.1.73 3.14-.02 4.24-.83 1.23-2.52 1.23-3.25-.07-.34-.61-.44-1.34-.67-2.06Zm-50.79-2.94c.82-.12 1.61-.26 2.04.47.19.33.17.98-.04 1.31-.44.71-1.21.58-2 .48v-2.26Zm-7.21.01c.76-.08 1.54-.23 1.99.5.21.35.24.98.07 1.35-.38.8-1.17.86-2.06.74v-2.59Z" />
</svg>
