<svg xmlns="http://www.w3.org/2000/svg" viewBox="0 0 487.37 202.27">
  <path
    d="M239.1 54.02c-.98-.47-1.72-.32-2.42-.32-10.08-.01-20.16-.02-30.24 0-2.78 0-2.33-.25-3.4 2.36-7.43 18.29-14.85 36.59-22.28 54.88-1.02 2.52-.56 2.33-3.42 2.33H155.5c-1.14 0-2.23.08-2.76-1.29-.34-.86-1.21-.62-1.9-.61-3.36.02-6.72.08-10.08.11-2.01.02-2.02 0-2.71-1.9-.53-1.49-1.03-2.99-1.61-4.69h13.13c.69-.55-.09-1.35.47-2.23 2.56 0 5.34.05 8.12-.03 1.02-.03 1.04 1.05 1.94 1.5 6.11-16.77 12.17-33.4 18.33-50.28h-36.54c.19 2.44 1.53 4.52 1.98 6.99-1.36.48-2.71.19-4.01.25-1.12.05-2.24 0-3.36.01-1.13.01-2.24.11-2.77-1.27-.33-.85-1.2-.65-1.89-.66-3.68-.05-7.36-.18-11.04-.08-1.75.05-2.71-.48-3.5-2.1-1.9-3.93-.75-3.31-5.29-3.28-5.83.03-11.67-.21-17.49.53-16.18 2.08-27.98 10.24-34.93 25.12-2.72 5.82-4.79 11.86-5.33 18.33-.73 8.88 1.23 17.21 5.52 24.93 6.42 11.56 15.8 19.57 28.74 23.05 2.79.75 5.64 1.16 8.53 1.19 32.56.3 65.12.14 97.67.12 14 0 28-.02 42-.03.31 0 .63.05.92.08.51.65.18 1.28.03 1.86-.87 3.41-1.77 6.81-2.68 10.2-.48 1.8-.5 1.81-2.43 1.83-2.56.02-5.12-.01-7.68.01-1.93.02-1.97.04-1.97 2.03-.01 9.28 0 18.56 0 27.84 0 .64-.03 1.28 0 1.92.03.89-.34 1.31-1.26 1.31-4.32-.02-8.64-.02-12.96 0-1.08 0-1.39-.52-1.36-1.47.02-.64 0-1.28 0-1.92V164c0-.64-.01-1.28-.02-1.92 0-.78-.37-1.17-1.17-1.16-.72.02-1.44 0-2.16 0-33.04-.15-66.08.12-99.11-.33-4.64-.06-9.29.11-13.9-.42-10.74-1.25-20.12-5.65-28.27-12.62-11.66-9.97-19.36-22.4-21.69-37.64-3.71-24.24 4.96-43.63 24.27-58.36 7.47-5.7 15.93-9.44 25.17-11.33 2.13-.44 4.3-.42 6.45-.42 34.56.02 69.12.07 103.67.08 70.8.02 141.59.03 212.39.03 23.84 0 47.68-.05 71.52-.08h.72c2.09.03 2.11.03 2.12 2.14.02 3.2-.06 6.4.03 9.6.04 1.45-.39 2.59-1.2 3.76-9.43 13.51-18.8 27.06-28.25 40.56-.93 1.32-1.32 2.62-1.31 4.21.04 11.04.02 22.08.02 33.12 0 .56-.04 1.12 0 1.68.08 1.07-.27 1.61-1.46 1.6-7.52-.04-15.04-.04-22.56-.06-.15 0-.3-.1-.49-.18-.51-.86-.28-1.84-.28-2.78-.02-11.2-.04-22.4.02-33.6.01-1.85-.4-3.39-1.48-4.9-9.45-13.3-18.86-26.63-28.25-39.98-.67-.96-1.41-1.35-2.57-1.34-5.68.04-11.36.05-17.04 0-1.19-.01-1.9.47-2.55 1.4-8.93 12.89-17.85 25.77-26.85 38.61-.88 1.25-.65 2.04.13 3.15 7.38 10.46 14.71 20.94 22.05 31.42 1.65 2.36 3.31 4.71 4.95 7.08.17.24.44.49.24.93-.59.41-1.32.22-2 .22-7.6.02-15.2-.04-22.8.05-1.65.02-2.61-.58-3.55-1.85-4.26-5.8-8.6-11.54-12.94-17.29-.52-.68-.88-1.54-1.75-1.91-.68.5-1.02 1.24-1.46 1.88-4.02 5.88-8.04 11.75-12 17.66-.7 1.04-1.42 1.51-2.71 1.5-8.24-.06-16.48-.03-24.72-.03-.46 0-.93.04-1.51-.33.51-.79.95-1.52 1.45-2.21 8.63-12.22 17.26-24.43 25.89-36.64.32-.46.62-.93.97-1.37.53-.67.5-1.29-.05-1.94-.26-.3-.46-.66-.69-.98-8.82-12.48-17.65-24.94-26.42-37.44-.98-1.4-2.03-1.93-3.74-1.92-9.44.09-18.88.05-28.32.07-.67 0-1.39-.2-2.26.41 12.58 3.94 21.7 11.68 27 23.56 4 8.97 4.72 18.38 2.14 27.86-5.25 19.3-22.43 32.3-42.98 31.13-19.91-1.13-35.86-15.21-39.19-35.53-2.96-18.11 6.72-39.84 30.24-47.11Zm11.38 57.36c9.14 0 16.78-7.69 16.69-16.86-.08-8.72-7.07-16.58-16.67-16.62-9.42-.04-16.77 7.58-16.82 16.72-.06 9.11 7.67 16.76 16.81 16.76Zm73.02-57.61c.47 1.67 12.4 19.01 14.28 20.78 2.47-2.71 13.89-19.05 14.49-20.78H323.5Zm135.56.07h-29.74c5 7.17 9.76 14.01 14.72 21.12 5.04-7.09 9.92-13.94 15.02-21.12Zm-177.4 21.91c-3.33-5.29-7.34-9.34-12.63-12.46-2.41 4.13-4.72 8.08-7.1 12.14 2.76 1.98 5.2 4.11 7.04 6.85.4.59.91.5 1.45.18 3.68-2.2 7.36-4.39 11.23-6.71Zm-50.03 30.97c-4.16 2.61-8.03 5.03-11.98 7.51 3.25 5.02 7.1 8.89 12.23 11.75 2.41-4.14 4.71-8.1 7.06-12.14-2.9-2.01-5.31-4.17-7.31-7.11Z" />
  <path
    d="M288.08 13.71c-50.15.15-100.31.29-150.46.46-14.24.05-28.48.12-42.71.33-15.91.23-30.6 4.56-43.76 13.67-11.99 8.3-20.83 19.29-27.21 32.31-4.89 9.99-8.14 20.49-9.44 31.56-2.3 19.61 1.99 37.69 12.89 54.13 8.99 13.56 20.47 24.52 34.91 32.2 10.51 5.58 21.78 8.28 33.67 8.29 33.68.03 67.35.03 101.03.05 4.65 0 3.86-.34 3.92 4 .04 2.64.03 5.28 0 7.92-.02 1.95-.07 2.05-2.03 2.06-4.8.03-9.6 0-14.4-.03-27.19-.2-54.4-.83-81.58.14-38.44 1.36-70.26-19.93-87.57-47.88C6.91 139.31 1.61 124.57.33 108.58-.76 95.04.86 81.75 5.45 68.9c8.78-24.6 24.16-43.78 47.02-56.69C63.13 6.19 74.67 2.89 86.8 1.46 95.16.47 103.53.07 111.94.07c92.39.02 184.78.01 277.16 0 31.76 0 63.51-.05 95.27-.07 3.27 0 2.95-.23 2.97 2.98.01 3.04.02 6.08 0 9.12-.02 1.72-.06 1.74-1.75 1.8-.72.03-1.44 0-2.16 0H288.1v-.19Z" />
  <path
    d="M288.35 19.63h195.36c4.14 0 3.59-.45 3.62 3.53.03 3.04.03 6.08 0 9.12-.02 1.58-.08 1.61-1.62 1.69-.64.03-1.28.01-1.92.01H123.55c-8.64 0-17.29-.31-25.91.15-35.17 1.88-52.71 24.16-59.91 45.14-8.52 24.82-2.81 47.01 14.62 66.23 10.22 11.28 22.97 18.2 38.16 20.39 4.77.69 9.55.86 14.36.86h89.76c1.6 0 3.2-.02 4.8-.13 1.18-.08 1.54.42 1.53 1.53-.04 3.68 0 7.36-.02 11.04-.01 1.84-.05 1.83-1.91 1.83-8.72 0-17.44-.04-26.16 0-22.72.12-45.44.45-68.16-.17-6.39-.17-12.8-.19-19.15-1.1-15.44-2.23-28.57-9.05-39.5-20.05-11.62-11.69-20.22-25.3-23.74-41.53-6.48-29.84 2.03-55.34 23.67-76.52 10.33-10.1 22.79-16.66 36.82-20.17 5.55-1.39 11.24-1.6 16.92-1.63 14.88-.09 29.76-.08 44.64-.08h144v-.14Zm76.71 153.4v5.2c0 4.64.01 9.27 0 13.91 0 1.82-.05 1.85-1.88 1.86-3.92.02-7.83.02-11.75 0-1.83-.01-1.87-.04-1.88-1.86-.02-5.51 0-11.03 0-16.54v-25.42c0-.56.03-1.12 0-1.68-.07-1.07.28-1.6 1.48-1.59 4.56.05 9.11.05 13.67 0 1.06-.01 1.57.58 2.1 1.31 2.32 3.15 4.66 6.29 7 9.43l9.45 12.69c.18.25.41.45.82.89.64-2.12.25-4.08.32-6 .07-2 .02-4 .02-5.99v-11.59c.51-.74.93-.7 1.32-.7 4.16-.01 8.31-.03 12.47 0 1.79.01 1.83.05 1.84 1.92.02 5.59 0 11.19 0 16.78v25.42c0 .56-.03 1.12 0 1.68.04.93-.42 1.27-1.31 1.27-5.44-.01-10.87-.03-16.3.02-1.19.01-1.66-.78-2.22-1.54l-10.44-14.04c-1.38-1.85-2.76-3.7-4.14-5.54-.18.04-.36.09-.53.13Zm-50.39-10.33c0 3.92.03 7.83 0 11.75-.04 3.7-.68 7.31-1.96 10.79-1.06 2.89-2.67 5.44-4.9 7.58-.85.82-1.77 1.21-2.99 1.2-8.95-.04-17.9-.04-26.86 0-1.13 0-1.98-.38-2.78-1.12-2.89-2.71-4.64-6.06-5.71-9.82-.94-3.33-1.33-6.75-1.35-10.19-.06-7.91-.03-15.83-.02-23.74 0-2.2.03-2.21 2.28-2.22 3.84-.01 7.67-.02 11.51 0 1.82.01 1.86.05 1.87 1.91.02 7.19 0 14.39.01 21.58 0 2.4-.05 4.8.61 7.14 1.26 4.44 4.76 6.48 9.2 5.35 2.3-.58 3.72-2.12 4.54-4.24.79-2.03 1.05-4.17 1.05-6.35v-22.78c0-2.81-.11-2.63 2.59-2.63 3.68 0 7.35-.02 11.03 0 1.85.01 1.9.04 1.91 1.85.03 4.64 0 9.27 0 13.91h-.04Zm165.07 2.24c-1.17 4.53-2.31 8.92-3.43 13.32-.23.9-.68 1.4-1.66 1.31-.48-.04-.96 0-1.44 0h-34.03c-2.09-.04-2.11-.04-2.12-2.14-.02-3.44-.01-6.87 0-10.31 0-2.5.01-2.51 2.46-2.51h28.28c3.12 0 6.23-.01 9.35 0 .79 0 1.6-.15 2.6.33Zm-.5-17.79c.15 1.43-.39 2.54-.67 3.69-.68 2.79-1.52 5.55-2.14 8.35-.3 1.37-.94 1.85-2.3 1.74-1.43-.11-2.87-.02-4.31-.02h-29.49c-.56 0-1.12.02-1.68 0-1.52-.07-1.57-.08-1.58-1.7-.03-3.52-.03-7.03 0-10.55.02-1.63.06-1.7 1.58-1.7 13.26-.01 26.53 0 39.79.01.23 0 .46.1.8.18Zm.48 36.48c-.81 3.12-1.62 6.27-2.43 9.43-.16.64-.55.94-1.19.94-.48 0-.96.01-1.44.01h-34.97c-2.62 0-2.62-.01-2.63-2.58 0-2.24.03-4.47 0-6.71-.02-.98.32-1.51 1.37-1.46.48.02.96 0 1.44 0H477c.86 0 1.76-.2 2.74.37Z" />
  <path
    d="M140.81 118.13h13.08c.59-.8 0-1.53.24-2.21.59-.45 21.28-.38 24.06.08.26.48.05.93-.12 1.37-.98 2.53-1.99 5.05-2.92 7.61-.34.94-.79 1.43-1.88 1.42-4.64-.05-9.27-.02-13.91-.02-.75 0-1.5-.02-1.7-.94-.26-1.18-1.14-1.14-2.05-1.13-3.28.05-6.56 0-9.83.16-1.52.07-2.35-.45-2.89-1.83-.57-1.46-1.3-2.86-2.07-4.52Zm12.68-31.2c-3.51 0-6.53-.01-9.56 0-4.23.02-8.45 0-12.68.12-1.43.04-2.15-.45-2.63-1.77-.81-2.22-1.79-4.38-2.75-6.71 1.18-.36 2.13-.23 3.05-.23 3.11-.02 6.22.02 9.33-.02.86-.01 1.98.42 2.16-1.13.06-.53.76-.44 1.22-.44 2.31-.01 4.62 0 6.94-.01.78 0 1.36.17 1.65 1.01 1.01 2.92 2.06 5.82 3.26 9.19Zm-22.62 2.65c.74-.36 1.54-.18 2.32-.17 6.47.08 12.94.17 19.41.27 2.03.03 2.05.04 2.72 1.88.95 2.61 1.87 5.23 2.88 8.08-3.21.43-6.21.24-9.19.3-.32 0-.7-.14-.78-.45-.45-1.79-1.87-1.41-3.1-1.42-2.96-.01-5.91 0-8.87 0-2.65-.01-2.23.16-3.24-2.24-.65-1.55-1.29-3.09-1.93-4.64-.21-.5-.56-.99-.22-1.6Zm3.78-23.93c.8-.68.17-1.45.6-1.89h9.1c.61 0 1.05.24 1.28.86 1.11 2.97 2.25 5.93 3.46 9.11-3.17.39-6.09.23-9 .3-.73.02-1.17-.49-1.53-1-.63-.9-1.49-1.05-2.5-1.03-3.51.07-7.02.05-10.52.16-1.21.04-1.91-.33-2.35-1.48-.65-1.69-1.43-3.33-2.32-5.36 4.9-.12 9.46.15 13.79.34Zm11.66 65.17h12.72c.66-.55-.3-1.2.16-1.79h14.92c-1.01 2.72-2.38 4.86-3.55 7.1-.47.9-1.38.66-2.15.66-4.64.01-9.28 0-13.92 0-1.44 0-2.88-.04-4.32.01-.93.03-1.48-.31-1.83-1.19-.6-1.53-1.28-3.04-2.03-4.79Zm262.23 67.6c-.84 1.17-.73 2.2-1.17 3.06-.15.29-.34.54-.72.51a.79.79 0 0 1-.71-.53c-.31-.8-.29-1.71-.89-2.49-.38.69-.18 1.39-.26 2.06-.06.5-.16.99-.8.94-.51-.03-.58-.48-.58-.88-.02-1.51-.02-3.03 0-4.54 0-.48.06-.98.69-1.06.67-.08 1.3-.04 1.56.73.3.87.55 1.75.85 2.72.92-.6.82-1.5 1.04-2.21.28-.91.68-1.4 1.67-1.24.92.14.8.86.8 1.47 0 1.43 0 2.86-.04 4.3-.01.44-.26.73-.76.7-.41-.02-.52-.36-.54-.67-.07-.87-.09-1.74-.14-2.87Zm-108.26.95c.43.89 1.23 1.43 1.3 2.49-2.17.62-2.03-2.5-3.91-2.35-.58.52-.21 1.31-.4 1.95-.11.36-.34.53-.69.51-.36-.02-.6-.26-.6-.61-.03-1.67-.04-3.34-.03-5.01 0-.42.21-.8.68-.83 1.19-.09 2.39-.26 3.55.15 1.14.4 1.54 1.37 1.04 2.49-.19.42-.56.74-.94 1.22Zm-1.77-1.21c.45-.02 1.16.08 1.26-.62.12-.84-.64-.73-1.14-.73-.5 0-1.22-.19-1.23.66 0 .63.52.69 1.11.69Zm86.02.37c.65-.72.25-1.57.43-2.31.08-.33.22-.62.57-.67.36-.05.63.18.64.53.03 1.76.03 3.51.02 5.27 0 .35-.21.6-.57.65-.42.05-.79-.07-1.04-.43-.63-.9-1.25-1.81-2.16-3.14-.08 1.23-.12 1.97-.17 2.71-.03.42-.15.8-.66.83-.52.03-.69-.33-.7-.76-.02-1.6-.02-3.2-.02-4.79 0-.41.09-.81.58-.9.42-.07.77.06 1.07.38.73.81 1.02 1.98 2.01 2.63Zm-153.76.51c0 .55.03 1.1 0 1.65-.03.52.11 1.25-.71 1.22-.65-.02-.57-.67-.58-1.11-.03-1.43-.02-2.86 0-4.29 0-.38 0-.83.5-.96.52-.15.92.06 1.22.5.61.89 1.23 1.78 1.91 2.77.55-.73.28-1.37.36-1.96.07-.52-.12-1.24.66-1.3.84-.07.74.66.75 1.19.03 1.35.02 2.7 0 4.05 0 .46.06 1.01-.54 1.18-.63.17-1.05-.16-1.39-.66-.56-.83-1.13-1.66-1.7-2.49-.16.07-.31.14-.47.21Zm219.93.03c-.03.22-.03.46-.09.69-.2.74.49 2.09-.74 2.09-.96 0-.52-1.28-.57-2-.07-1.03-.03-2.06 0-3.1.01-.45-.08-1.01.52-1.19.66-.2 1.03.22 1.35.7.56.83 1.13 1.66 1.78 2.62.51-.88.27-1.59.35-2.26.05-.46 0-1.02.66-1.06.67-.04.73.49.74.97.02 1.43.02 2.86 0 4.29 0 .46.05 1.01-.55 1.17-.63.17-1.06-.16-1.39-.67-.43-.67-.87-1.33-1.31-1.99-.18-.27-.37-.52-.77-.25Zm-172.01-.28c-.95.85-1.88.42-2.71.6-.46.1-.69.34-.65.82.04.44.4.46.7.48.72.05 1.44.03 2.15.08.43.03.79.2.74.72-.04.37-.33.5-.67.54-.08 0-.16.02-.24.03-4.01.54-4.21.37-4.19-3.64.01-3.23-.29-2.97 2.97-2.93.66 0 1.9-.54 1.85.73-.04.98-1.17.42-1.8.58-.08.02-.16 0-.24 0-.5.08-1.27-.19-1.26.67 0 .81.74.65 1.27.71.66.07 1.41-.18 2.09.63Zm-66.52.03c-.89.83-1.81.4-2.64.55-.46.09-.69.34-.66.81.02.42.35.5.67.52.72.04 1.43.04 2.15.07.34.02.62.17.66.54.05.51-.27.71-.71.72-1.11.02-2.23.02-3.34 0-.59 0-.84-.41-.85-.94-.02-1.59-.01-3.19.01-4.78 0-.21.14-.46.29-.61.39-.39 4.07-.39 4.39.04.27.35.17.85-.3.94-.61.13-1.27.08-1.9.12-.45.03-1.04-.07-1.07.62-.02.63.46.7.98.76.73.09 1.59-.32 2.32.64Zm219.79-.01c-.78.86-1.71.41-2.51.54-.46.08-.75.29-.75.74 0 .53.42.6.83.62.64.02 1.27.02 1.91.04.44.02.78.22.76.71-.02.36-.31.52-.65.57-.08.01-.16.01-.24.02-3.75.52-4.09.25-4.07-3.51.02-3.44-.41-3.08 3.29-3.08.57 0 1.5-.29 1.52.63.02.93-.92.58-1.49.7-.63.13-1.73-.4-1.81.55-.11 1.3 1.12.68 1.79.82.45.09.97-.08 1.4.65Zm-92.89 2.98c.71-1.88 1.36-3.66 2.04-5.43.21-.56.56-.94 1.24-.9.53.03.9.23 1.09.74.62 1.63 1.24 3.26 1.85 4.89.12.31.08.67-.24.83-.18.09-.57.08-.66-.04-1.58-2.24-3.05-1.42-4.53.11-.05.05-.28-.07-.79-.21Zm3.17-4.35c-.35.65-.95 1.11-.34 1.73.12.12.54.14.67.03.67-.59.14-1.07-.32-1.76Zm-87.8-1.96c.64 0 1.28-.01 1.91 0 .35.01.62.2.65.55.03.34-.17.68-.52.67-1.48-.04-1.36.97-1.36 1.95 0 .88-.01 1.75-.05 2.63-.01.32-.11.64-.52.66-.48.02-.74-.26-.76-.71-.04-.87-.06-1.75-.05-2.63 0-.99.07-1.98-1.39-1.92-.34.01-.54-.31-.5-.67.05-.37.33-.52.67-.53.64-.02 1.27 0 1.91 0Zm66.61-.03c.32 0 .64-.03.96 0 .57.08 1.46-.28 1.53.65.06.78-.76.61-1.26.73-.49.12-.57.5-.58.9-.02.8.02 1.6-.04 2.39-.05.66.31 1.72-.66 1.78-1.06.06-.64-1.03-.71-1.65-.08-.71-.02-1.43-.02-2.15 0-.67-.03-1.3-.95-1.32-.5-.01-1.01-.16-.88-.81.13-.62.72-.49 1.18-.51.48-.02.96 0 1.43 0Zm153.22.03c.64 0 1.28-.01 1.91 0 .34.01.63.19.66.55.03.34-.16.69-.51.68-1.47-.04-1.38.96-1.37 1.94 0 .88 0 1.75-.05 2.63-.01.31-.1.65-.51.67-.48.03-.75-.25-.77-.7-.04-.87-.06-1.75-.06-2.63 0-.98.09-1.98-1.39-1.92-.34.01-.55-.31-.51-.67.05-.37.33-.53.67-.54.64-.02 1.27 0 1.91 0Zm-110.5 3.37c-.05.86-.08 1.73-.16 2.59-.03.34-.3.57-.66.48-.18-.05-.43-.27-.46-.44-.24-1.8-.22-3.61-.02-5.41.04-.34.3-.55.66-.49.37.06.51.37.52.67.03.86.01 1.73.01 2.6h.1Z" />
  <path
    d="M281.66 75.75c-3.87 2.31-7.55 4.5-11.23 6.71-.54.33-1.05.41-1.45-.18-1.84-2.73-4.28-4.87-7.04-6.85 2.38-4.06 4.69-8.02 7.1-12.14 5.29 3.13 9.3 7.17 12.63 12.46Zm-50.03 30.97c2 2.94 4.41 5.1 7.31 7.11-2.35 4.04-4.65 8-7.06 12.14-5.13-2.85-8.98-6.72-12.23-11.75 3.95-2.47 7.82-4.9 11.98-7.51Z"
    style="fill:#fff;stroke-width:0" />
</svg>
