<svg width="512" height="512" viewBox="0 0 512 512" fill="none" xmlns="http://www.w3.org/2000/svg">
  <rect width="512" height="512" rx="52" fill="hsl(-4,70%,50%)" />
  <path
    d="M308.903 455.941L363.52 331H404.929L459.546 455.941H415.995L375.657 350.991H392.078L351.74 455.941H308.903ZM341.387 434.166L352.097 403.823H409.569L420.279 434.166H341.387Z"
    fill="#fff" />
  <path
    d="M212.674 455.941V331H272.824C284.485 331 294.54 332.904 302.989 336.712C311.556 340.519 318.16 345.993 322.801 353.132C327.441 360.153 329.762 368.482 329.762 378.121C329.762 387.759 327.441 396.088 322.801 403.109C318.16 410.129 311.556 415.603 302.989 419.53C294.54 423.337 284.485 425.241 272.824 425.241H236.056L254.797 407.214V455.941H212.674ZM254.797 411.855L236.056 392.757H270.147C275.978 392.757 280.261 391.448 282.998 388.83C285.854 386.212 287.282 382.642 287.282 378.121C287.282 373.599 285.854 370.029 282.998 367.411C280.261 364.794 275.978 363.485 270.147 363.485H236.056L254.797 344.387V411.855Z"
    fill="#fff" />
  <path
    d="M53 455.941V331H87.6265L137.603 412.569H119.397L167.946 331H202.572L202.929 455.941H164.554L164.197 388.83H170.266L137.067 444.696H118.505L83.8783 388.83H91.3747V455.941H53Z"
    fill="#fff" />
</svg>
