<svg xmlns="http://www.w3.org/2000/svg" xml:space="preserve" viewBox="0 0 500 500">
  <path fill="#C49438"
    d="M53.13 374c.71-.87.32-1.95.54-2.92 1.44-6.6 5.28-11.27 11.07-14.64 20.92-12.18 41.79-24.47 62.68-36.71 14.49-8.49 28.97-16.99 43.49-25.43 12.45-7.23 27.28-1.18 31.1 12.63.44 1.58.66 3.22.66 4.86 0 41.77.11 83.53-.1 125.3-.05 8.84-.14 17.7-.24 26.55-.06 5.81 4.27 10.72 9.88 11.4 5.96.71 11.23-2.75 12.78-8.37.33-1.18.25-2.38.25-3.58V293.36c0-8.5 2.46-16.11 8.56-22.19 4.99-4.97 11.03-7.87 18.16-8.46 9.89-.82 18.15 2.45 24.75 9.76 4.61 5.1 7.07 11.23 7.2 18.11.16 8.67.06 17.34.06 26.01 0 41.39.03 82.77-.05 124.16-.01 4.09 2.82 9.79 8.28 11.15 7.59 1.89 13.61-2.92 14.58-9.22.22-1.45.28-2.89.28-4.34-.01-32.91.14-65.82-.07-98.72-.09-14.59 11.34-27.69 26.02-29.12 16.92-1.65 31.03 9.71 32.86 26.35.08.75.05 1.52.05 2.27 0 26.2.03 52.4-.03 78.6-.01 4.13 1.17 7.63 4.5 10.15 3.63 2.74 7.65 3.22 11.78 1.23 4.21-2.03 6.15-5.62 6.53-10.17.06-.69.01-1.39.01-2.09 0-126.32.06-252.63-.09-378.95-.02-14.54 10.63-27.91 25.7-29.63.22-.03.42-.21.63-.33h4.94c2.55.62 5.17.93 7.67 1.82 11.49 4.11 19.33 15.11 19.34 27.32.02 23.03 0 46.07 0 69.1 0 51.51-.01 103.02.05 154.54 0 1.9-.43 2.48-2.38 2.42-4.61-.16-9.24-.1-13.86-.03-1.31.02-1.83-.35-1.73-1.71.1-1.45.02-2.91.02-4.36V37.94c0-6.49-3.58-10.77-9.92-11.87-5.89-1.03-12.12 3.88-12.51 9.87-.05.82-.04 1.64-.04 2.47 0 126.19-.01 252.37.01 378.55 0 7.22-1.99 13.62-6.27 19.57-9.04 12.55-28.76 15.88-41.96 4.4-6.88-5.98-10.18-13.63-10.17-22.78.04-25.82-.01-51.64.04-77.46.01-4.89-1.6-8.81-6.04-11.18-8.03-4.3-17.37 1.23-17.4 10.33-.05 14.62-.01 29.24-.01 43.86 0 18.86-.03 37.72.01 56.57.02 9.75-3.66 17.73-11.34 23.71-6.25 4.86-13.38 6.59-21.3 5.88-11.83-1.06-23.08-10.67-25.4-23.37-.33-1.8-.57-3.61-.57-5.45.01-49.42 0-98.85.03-148.27 0-4.36-1.34-7.89-4.95-10.48-6.96-5.01-17-.57-18.05 7.96-.19 1.58-.26 3.14-.26 4.72v168.96c0 14.37-10.42 26.43-24.63 28.52-.32.05-.63.06-.8.4h-7.59c-.16-.34-.48-.35-.79-.41-11.43-2.12-19.1-8.7-23.11-19.57-1.56-4.24-1.64-8.67-1.45-13.1.07-1.61-.45-2.04-2.03-1.96-4.01.2-7.74-.85-11.22-2.86-15.51-8.92-31.04-17.81-46.56-26.71-20.29-11.65-40.57-23.31-60.86-34.95-5.6-3.22-8.95-8.03-10.33-14.3-.2-.91.19-1.92-.49-2.73v-2.28l.09.02zm138.18.95v-46.32c0-1.96-.05-3.91-.24-5.87-1.14-12.37-15.18-19.83-25.99-13.62-12.37 7.1-24.61 14.41-36.91 21.62-7.53 4.41-15.06 8.82-22.58 13.23-9 5.27-18.05 10.47-26.98 15.85-9.19 5.53-11.49 17.05-5.27 25.67 2.38 3.3 5.89 5.09 9.3 7.04L143 427.2c7.4 4.25 14.72 8.65 22.22 12.7 6.48 3.5 12.92 2.94 18.9-1.41 4.99-3.62 7.16-8.74 7.18-14.75.05-16.26.01-32.52.01-48.79z" />
  <path fill="#C49438"
    d="M185.29 374.51v46.89c0 10.21-8.56 17.15-18.45 14.8-3.29-.78-6.01-2.9-8.91-4.56-25.28-14.49-50.52-29.05-75.81-43.52-10.5-6.01-10.21-20.43-.3-26.13 22.85-13.14 45.52-26.59 68.26-39.91 4.36-2.56 8.68-5.19 13.1-7.64 9.09-5.05 19.52-.33 21.88 9.8.25 1.07.23 2.13.23 3.2 0 15.69-.01 31.38 0 47.07zm-10.32-.12c0-10.63.05-21.26-.02-31.89-.06-9.95-9.84-15.86-18.19-10.97-18.66 10.9-37.3 21.85-55.91 32.83-8.53 5.04-8.49 16.04.04 20.98 10.01 5.8 20.05 11.54 30.08 17.3 8.66 4.97 17.3 9.97 25.98 14.91 3.79 2.16 7.7 2.33 11.56.18 4.55-2.53 6.41-6.66 6.44-11.66.07-10.56.03-21.12.02-31.68z" />
  <path fill="#C49438"
    d="M169.65 374.67c0 9.43-.01 18.85.01 28.28 0 1.53-.14 3.04-.55 4.49-1.66 5.83-8.06 8.47-13.34 5.45-14.64-8.37-29.26-16.79-43.88-25.19-2.74-1.57-5.48-3.16-8.21-4.74-6.51-3.77-6.74-12.15-.28-16.12 6.89-4.24 13.94-8.21 20.92-12.3 10.03-5.88 20.07-11.73 30.06-17.66 3.86-2.29 7.64-2.93 11.49-.14 3.03 2.19 3.75 5.43 3.77 8.88.04 9.7.01 19.37.01 29.05z" />
</svg>
