<svg xmlns="http://www.w3.org/2000/svg" width="512" height="512" fill="none">
  <path fill="hsl(-5,70%,50%)" d="M0 0h512v512H0z" />
  <path fill="#fff"
    d="m321.781 477.059 62.321-142.565h47.25l62.321 142.565h-49.694l-46.028-119.755h18.737L370.66 477.059h-48.879Zm37.067-24.847 12.22-34.623h65.579l12.22 34.623h-90.019ZM211.978 477.059V334.494h68.635c13.306 0 24.779 2.172 34.419 6.517 9.776 4.345 17.312 10.591 22.607 18.737 5.295 8.011 7.943 17.515 7.943 28.513 0 10.998-2.648 20.502-7.943 28.513-5.295 8.011-12.831 14.257-22.607 18.737-9.64 4.345-21.113 6.518-34.419 6.518h-41.955l21.385-20.571v55.601h-48.065Zm48.065-50.305-21.385-21.792h38.9c6.653 0 11.541-1.494 14.664-4.481 3.259-2.987 4.888-7.06 4.888-12.22 0-5.159-1.629-9.233-4.888-12.22-3.123-2.987-8.011-4.48-14.664-4.48h-38.9l21.385-21.792v76.985ZM29.78 477.059V334.494h39.512l57.026 93.074h-20.774l55.397-93.074h39.51l.408 142.565h-43.788l-.407-76.578h6.924l-37.881 63.747h-21.181l-39.511-63.747h8.554v76.578H29.78Z" />
</svg>
