<svg xmlns="http://www.w3.org/2000/svg" viewBox="0 0 136.27 60.15">
  <path
    d="M84.86 59.48h-6.1v-2.52s-.09-.03-.13-.04c-.09.09-.19.18-.26.28-1.41 1.85-3.28 2.76-5.59 2.89-2.44.13-4.67-.4-6.63-1.9-1.63-1.25-2.68-2.91-3.4-4.8-.13-.34-.24-.69-.44-1.03v7.13h-6.07v-2.87l-.14-.03c-.09.1-.18.19-.26.3-1.51 1.97-3.51 3.02-5.98 3.2-1.63.12-3.21-.02-4.69-.76-1.95-.98-3.19-2.57-3.91-4.59-.4-1.13-.54-2.3-.54-3.5V35.59h6.38c.02.26.05.49.05.72 0 4.75 0 9.49.01 14.24 0 .63.09 1.28.28 1.88.41 1.3 1.36 2.01 2.71 2.25 1.55.27 3.68-.09 4.78-1.72.64-.95.92-2.01 1-3.14v-.27c0-13.18.02-26.37.02-39.55v-.82h6.17v2.63c.16-.14.24-.18.29-.25 1.58-2.18 3.78-3.06 6.4-3.05 2.55.01 4.8.83 6.67 2.6 1.37 1.3 2.28 2.9 2.84 4.68 1.18 3.8 1.19 7.63-.11 11.4-.85 2.49-2.32 4.56-4.8 5.63-3.37 1.46-6.65 1.32-9.63-1.07-.53-.42-1.02-.88-1.47-1.28v11.86c.28-.7.49-1.31.76-1.9 1.11-2.42 2.82-4.22 5.4-5.04 3.35-1.06 7.16-.51 9.69 2.6.09.11.19.2.4.27V26.87h6.3v32.62Zm-16.63-11.9v.44c.06 1.78.44 3.47 1.54 4.93 1.31 1.74 3.43 2.4 5.46 1.61 1.79-.7 2.79-2.14 3.27-3.92.61-2.26.43-4.53-.23-6.75-.46-1.53-1.35-2.78-2.99-3.22-.73-.2-1.52-.27-2.27-.22-1.72.1-3.05.89-3.86 2.47-.75 1.47-.89 3.06-.93 4.68Zm4.35-26.46c0-.47.04-.95 0-1.42-.15-1.45-.58-2.81-1.47-4-1.5-2.02-3.96-2.41-5.86-1.48-1.43.7-2.35 1.92-2.79 3.43-.73 2.49-.57 4.98.25 7.42.29.86.76 1.61 1.49 2.19 1.12.89 2.42 1.06 3.78.93 1.75-.17 3.05-1.02 3.8-2.64.66-1.4.83-2.9.79-4.42Zm42.21 33.5c-.78.89-1.47 1.82-2.3 2.6-1.42 1.35-3.16 2.16-5.07 2.56-2.64.54-5.26.5-7.83-.37-3.32-1.13-5.58-3.35-6.8-6.64-.02-.07-.05-.14-.07-.2 0-.01-.03-.02-.12-.09v6.99h-6.39v-23.9h6.37v6.89s.07 0 .1.01c.21-.48.39-.96.62-1.42 1.45-2.85 3.72-4.75 6.8-5.61 3.38-.94 6.72-.83 9.93.68 1.99.93 3.53 2.37 4.62 4.29.12.21.24.43.42.74.16-.6.25-1.1.42-1.57.68-1.82 2.07-2.91 3.8-3.63 1.62-.68 3.33-.94 5.07-1 1.61-.05 3.21 0 4.8.32 2.81.58 4.87 2.07 5.89 4.83.31.86.5 1.74.51 2.64-.42.17-5.26.22-6.09.08-.09-.28-.18-.59-.29-.9-.38-1.15-1.2-1.81-2.36-2.02-1.42-.26-2.83-.25-4.22.18-.68.21-1.15.62-1.25 1.37-.1.76.21 1.37.86 1.69.88.44 1.79.81 2.73 1.11 2.43.76 4.9 1.44 7.33 2.22.65.21 1.26.58 1.83.96 1.47.99 2.03 2.48 2.12 4.18.06 1.13.08 2.26-.34 3.35-.8 2.08-2.34 3.4-4.34 4.23-1.41.58-2.91.82-4.43.9-2.07.1-4.12.05-6.13-.52-1.75-.49-3.34-1.26-4.63-2.58-.6-.62-1.09-1.32-1.44-2.11-.04-.1-.1-.18-.14-.24Zm-16.33-7.09c.1.87.14 1.75.31 2.6.3 1.59.95 3 2.42 3.86 1.14.67 2.41.84 3.7.72 2.25-.2 3.86-1.31 4.54-3.51.78-2.54.78-5.1-.09-7.63-.45-1.32-1.34-2.29-2.66-2.81-1.26-.49-2.57-.53-3.88-.29-1.62.3-2.79 1.21-3.48 2.72-.63 1.37-.8 2.83-.86 4.33Zm22.24 4.18c.09.14.12.17.13.2.02.07.05.14.05.21.07 1.19.72 2 1.74 2.54 1.46.77 3.03.74 4.59.51a6.07 6.07 0 0 0 1.66-.53c1.34-.66 1.44-2.59.15-3.35-.68-.4-1.46-.66-2.22-.88-1.66-.48-3.36-.85-5.01-1.36-1.98-.61-3.86-1.44-5.33-2.98-.02-.02-.06 0-.14 0 .07 1.88.07 3.75-.49 5.65h4.87ZM20.86 9.16h6.38V35.5h13.05v4.6H27.28c-.02.25-.04.44-.04.64 0 3.12-.02 6.24.01 9.37 0 .74.15 1.49.35 2.2.36 1.27 1.22 2.05 2.57 2.2 1.92.21 3.44-.43 3.96-2.49.19-.73.27-1.51.29-2.27.04-1.79.01-3.58.01-5.37v-.62h5.88c.01.25.03.44.03.64 0 2.1.03 4.2 0 6.3-.03 1.94-.44 3.8-1.51 5.47-1.18 1.84-2.85 3.02-4.95 3.55-2.38.6-4.78.6-7.13-.16-2.19-.72-3.87-2.08-4.89-4.19-.06-.11-.12-.22-.2-.36-.06.07-.12.12-.14.18-1.19 2.6-3.33 3.96-6.02 4.51-1.32.27-2.68.42-4.02.43-2.58.02-5.1-.33-7.4-1.63C2.25 57.46.9 56.01.29 53.95c-.2-.69-.4-1.4-.26-2.18h6.44c.04.16.1.29.11.43.16 1.43 1.04 2.28 2.31 2.71 1.81.61 3.63.56 5.41-.14.7-.27 1.23-.71 1.29-1.54.06-.95-.26-1.68-1.13-2.12-1.05-.54-2.2-.78-3.33-1.04-2.13-.5-4.26-1.04-6.22-2.05-.8-.41-1.55-.95-2.26-1.51-1.07-.85-1.56-2.05-1.73-3.38-.19-1.49-.13-2.95.62-4.31.69-1.25 1.76-2.08 3.02-2.68 1.64-.78 3.4-1.1 5.2-1.18 1.72-.08 3.43-.04 5.13.32 2.72.57 4.75 1.98 5.8 4.63.02.05.05.09.16.14V9.16Zm-5.63 33.71c-.11-.34-.19-.58-.26-.82-.29-1.02-.91-1.75-1.95-2.04a8.186 8.186 0 0 0-4.85.1c-.64.21-1.03.68-1.1 1.37-.07.68.19 1.23.77 1.58.46.28.95.55 1.47.71 2.25.69 4.51 1.33 6.76 1.99 1.7.5 3.38 1.07 4.65 2.41.02.02.07 0 .11 0v-5.31h-5.61Z" />
  <path
    d="M36.63 11.98c.11-.13.23-.26.34-.4 2.16-2.56 4.95-3.45 8.2-2.94 3.94.61 6.21 3.14 7.43 6.75.78 2.29.95 4.67.76 7.08-.17 2.17-.67 4.25-1.73 6.16-1.65 2.99-4.17 4.71-7.6 5.04-1.85.18-3.63-.02-5.22-1.03-.67-.42-1.22-1.02-1.81-1.56-.17-.16-.3-.36-.53-.65-.04.94-.08 1.76-.12 2.62h-6.09V.48h6.24c0 .94.01 1.9.01 2.85v8.62c.04 0 .07.02.11.03Zm4.97 2.03c-2.28 0-3.78 1-4.59 3.12-.75 1.97-.82 4.03-.59 6.09.15 1.35.68 2.56 1.58 3.6 1.32 1.56 3.55 2.11 5.42 1.29 1.65-.72 2.55-2.09 3.06-3.73.68-2.17.57-4.36.03-6.54-.62-2.48-2.36-3.84-4.9-3.84Zm51.37 19.42h-6.76v-7.07s.08-.04.11-.06c2.18 2.34 4.37 4.69 6.65 7.13ZM27.47 0v6.6h-7.01c.14-.39 6.36-6.24 7.01-6.6Z" />
</svg>
