<svg xmlns="http://www.w3.org/2000/svg" viewBox="0 0 75.89 80.18">
  <path
    d="M21.56 34.1c.04.51.08 1.03.15 1.89 8.12-6.36 17.25-9.7 26.92-11.69.15.34.3.68.45 1.03-3.37 1.48-6.86 2.75-10.08 4.51-2.28 1.25-4.63 2.82-6.16 4.84-2.59 3.41-1.82 7.07 2.07 8.93 3.29 1.57 7.09 2.84 10.67 2.84 8.34 0 16.68-.82 25.02-1.33 1.38-.08 2.74-.3 4.11-.46.39.48.77.96 1.16 1.44-.67.11-1.35.21-2.01.35-15.09 3.22-30.25 5.11-45.56 1.78-3.26-.71-6.3-2.45-9.41-3.7-2.98 8.53-6.21 17.73-9.43 26.93l.1-.09c-2.31-.16-1.92-1.71-1.42-3.06 4.23-11.59 8.51-23.16 12.78-34.73.21.17.42.34.63.52Z" />
  <path
    d="M9.48 71.47c3.71-2.95 7.42-5.9 9.34-7.43-2.98 5.13-8.73 10.86-15.71 16.14C-.47 75 .81 69.89 1.8 64.97c1.01-5.05 2.57-9.98 4.01-15.44H0c2.77-2.61 4.65-4.38 6.7-6.32-.71-1.02-1.53-1.94-2.05-3.01-1.29-2.64-1.22-5.26 1.03-7.36 1.77-1.66 3.91-1.87 5.82-.24 2.33 1.99 2.36 4.49 1.54 7.32-2.24 7.65-4.51 15.29-6.31 23.05-.69 2.97-.11 6.24-.11 10.26 1.6-1.01 2.28-1.43 2.95-1.86l-.1.09Zm11.45-37.88C21.89 20.82 26.15 9.47 35.1 0c.4.45.81.77.76.89-4.75 11.08-9.53 22.15-14.31 33.21-.21-.17-.42-.35-.63-.52Z" />
</svg>
