<svg xmlns="http://www.w3.org/2000/svg" viewBox="0 0 90.54 92.39">
  <path
    d="M90.54 46.22v45.23c0 .67-.28.94-.92.93H1.22C.19 92.36.01 92.2 0 91.19c-.01-.71 0-1.43 0-2.14V1.5C0 0 .01 0 1.46 0h87.8c1.21 0 1.26.04 1.26 1.25v44.98h.02Zm-1.59-.12V2.92q0-1.36-1.38-1.36H2.94q-1.37 0-1.37 1.37v86.35q0 1.4 1.43 1.41h84.54q1.42 0 1.42-1.42V46.09Z" />
  <path
    d="M24.87 15.77v-3.64c0-1.28.18-1.47 1.42-1.47h56.36c1.07 0 1.17.1 1.17 1.19v62.11c0 1.09-.06 1.14-1.18 1.14H26.11c-1.14 0-1.23-.09-1.23-1.21v-4.8c0-.85-.14-.93-.9-.58-1.01.47-2.01.95-3.02 1.42-2.22 1.02-4.5 1.39-6.89.66-2.15-.66-3.46-2.26-4.49-4.12-1.12-2.02-2.11-4.11-3.2-6.15-.31-.58-.16-.82.39-1 1.62-.53 2.23-1.83 2.1-3.34-.21-2.43-.66-4.85-.99-7.27-.29-2.14-.56-4.29-.82-6.43-.25-2.09.71-3.67 2.1-5.11 2.54-2.65 5.71-3.88 9.28-4.26.68-.07 1.38-.06 2.04-.2.36-.08.81-.34.97-.64 1.04-1.93.39-3.02-1.8-3.03-1.55 0-3.08-.07-4.55-.62-3.71-1.39-4.84-5.27-2.43-8.51 1.95-2.62 4.72-3.8 7.87-4.11 1.38-.14 2.79-.02 4.36-.02Zm.67 34.11c-.46 1.27-.45 1.21-1.38.32-.59-.56-1.36-1.14-2.13-1.26-1.81-.28-3.31 1.12-3.48 2.98-.32 3.49 2.12 6.03 5.62 5.86.48-.02.84-.1.86-.69.02-.57-.09-.85-.75-1.08-.99-.34-2.01-.85-2.77-1.55-.85-.79-.28-2.36.91-2.65 0 .3.01.57 0 .84-.06 1.18.56 1.91 1.7 2.03.6.06.94-.11.92-.78-.02-.6-.02-1.2.02-1.8.03-.44.24-.82.69-.38.75.75 1.4.55 2.08-.06.3-.27.62-.51.94-.75 1.02-.78 2.11-1.44 3.46-1.14.76.17 1.27-.04 1.83-.56 1.31-1.23 2.91-1.66 4.67-1.27.83.19 1.61.57 2.43.8.31.09.69 0 1.02-.05.83-.15 1.66-.5 2.48-.46 1.1.05 2.19.37 3.27.62 1.25.29 2.48.69 3.73.93.65.13 1.35.02 2.03.02.06-.12.11-.24.17-.35-.8-.77-1.53-1.66-2.43-2.3-1.65-1.16-3.62-1.28-5.56-1.39-.96-.05-1.51-.45-1.53-1.15-.02-.62.5-1.03 1.55-.9 1.8.23 3.66.39 5.36.97 3.11 1.07 6.21 1.03 9.38.63 2.55-.33 5.09-.53 7.68-.27 2.38.24 4.78.32 7.18.34.68 0 1.56-.23 2.02-.69 1.4-1.38.92-3.79-.79-4.78-1.88-1.08-3.96-1.51-6.06-1.64-3.65-.22-7.15-.99-10.57-2.26-3.39-1.26-6.81-2.46-10.25-3.58-1.35-.44-2.81-.5-4.19-.84-2.18-.53-3.9-1.84-5.48-3.37-2.44-2.37-4.82-4.79-7.29-7.11-1.91-1.79-4.11-3.17-6.52-4.2-.25-.1-.53-.12-.89-.21-.03.42-.07.72-.07 1.03v16.96c.02.47.29.64.68.43.54-.3 1.19-.57 1.51-1.05.63-.94 1.11-1.98 1.57-3.02 1.9-4.35 6.3-5.4 9.96-2.4 2.22 1.82 4.28 3.87 6.91 5.15.03.01.02.1.06.31-.39-.07-.74-.08-1.06-.19-2.15-.72-3.94-2.02-5.65-3.48-1.13-.97-2.37-1.83-3.91-1.97-2.5-.23-4.61 1.31-5.59 4.02-.68 1.87-1.69 3.3-3.91 3.4-.19 0-.52.45-.52.68 0 .36.23 1.03.39 1.04 1.54.07 3.17.4 4.46-.86 1.22-1.2 2.41-2.43 3.63-3.63 1.36-1.34 2.96-1.81 4.79-1.18 2.3.79 4.07 2.38 5.79 4.01.15.14.15.69 0 .87-2.97 3.74-6.28 4.69-10.53 3.65-2.52-.62-5.08-.64-7.6-1.03-.77-.12-.99.27-.98.99.03 2 .07 4-.01 6-.05 1.08.48 1.69 1.43 2.38.12-.2.2-.42.35-.59 1.18-1.34 2.69-1.55 4.3-1.11.73.2 1.21.13 1.74-.44 1-1.08 2.19-1.78 3.74-1.21 1.68.62 3.35 1.28 5.02 1.93.02 0 .02.1.04.31-.4 0-.79.06-1.15-.01-1.03-.2-2.06-.44-3.08-.71-1.67-.43-3.24.04-4.11 1.48-.49.8-.99.85-1.76.63-1.32-.36-2.54-.14-3.61.75q-1.2 1-2.41.12c-.07-.05-.16-.06-.3-.12Zm-.1 17.35c.93-.34 1.71-.68 2.52-.91 1.41-.39 2.85-.71 4.27-1.06.13-.03.3-.07.41-.02 1.6.75 3.23.41 4.88.25.53-.05 1.21.02 1.6.32 1.44 1.13 2.99 1.98 4.75 2.45 2.46.66 4.88.62 7.14-.65 1.75-.98 2.47-2.33 2.2-3.9-.32-1.86-2.23-3.53-4.14-3.71-1.67-.15-3.36-.16-5.02-.4-1.11-.16-2.22-.52-3.24-.98-.82-.38-.81-1.11-.05-1.6 1.24-.8 2.32-.98 3.17.2.28.39.68.69 1.04 1.01.79.69 1.69.62 2.67.29-1.61-1.09-3.24-2.1-4.95-2.96-.6-.3-1.41-.41-2.08-.31-2.7.38-5.4.84-8.08 1.34-2.18.4-4.35.92-6.53 1.32-.51.09-.66.25-.65.75.02 2.57.01 5.14.02 7.71 0 .25.04.5.07.85Zm-5.96-2.65c.13-.3.39-.6.38-.91-.01-1.18.12-2.43-.21-3.53-.69-2.32-1.69-4.54-2.46-6.83-.66-1.97-.18-3.74 1.41-5.11 1.29-1.11 3.43-1.08 5.23-.04.28.16.57.29.85.43.38-.66.23-1.07-.3-1.39-.56-.34-1.08-.75-1.66-1.05-2.09-1.09-4.09-.94-5.59.38-1.97 1.73-2.74 4.74-1.67 7.2.93 2.14 2.11 4.17 3.1 6.28.66 1.41 1.41 2.84.92 4.57Zm10.15-25.96c.62.09 1.37.17 2.12.32 1.06.21 2.1.53 3.16.72 3.08.55 5.77-.21 7.98-2.48.32-.33.74-.75.2-1.14-1.45-1.04-2.89-2.13-4.46-2.96-1.42-.75-2.84-.35-4 .79-.79.78-1.55 1.6-2.36 2.37-.88.84-1.8 1.63-2.63 2.38Zm11.8 14.61.04.24h1.63q1.49.02 1.49-1.5s.02-.07 0-.08c-.16-.2-.32-.56-.5-.57-2.25-.13-4.51-.14-6.7.47-3.83 1.08-7.65 2.23-11.47 3.37-.23.07-.42.29-.62.44.25.07.51.23.74.19 2.33-.4 4.64-.87 6.97-1.25 2.8-.47 5.61-.87 8.42-1.3Zm-19.7-15.5c-.01.1-.03.19-.04.29.87.21 1.74.43 2.62.61.15.03.34-.17.51-.26-.11-.14-.21-.38-.34-.4-.91-.11-1.83-.16-2.75-.24Zm-5.57 28.68c-1.02-.26-2.18-.28-3.02-.82-1.11-.71-.47-1.97-.25-3.13-.58.64-.77 2.19-.38 2.88.9 1.59 2.42.79 3.64 1.07ZM62.94 85.09c-.84.57-1.49 1.01-2.15 1.45-.33.22-.66.46-1.01.64-.87.44-1.23.32-1.9-.67-1.12.65-2.25 1.31-3.38 1.96-.64.37-1.27.8-1.95 1.06-.51.2-1.12.29-1.66.21-1.16-.16-1.6-1.24-.89-2.17.54-.69 1.2-1.28 1.82-1.91.47-.48.95-.84.61-1.73-.17-.45.18-1.32.58-1.71 1.05-1.03 2.22-1.95 3.4-2.83.89-.66 1.84-1.24 2.82-1.77.3-.16.75-.03 1.14-.03-.14.39-.17.86-.43 1.15-1.09 1.23-2.69 1.72-4.03 2.59-.79.51-1.44 1.25-2.16 1.88.05.1.11.2.16.31.84-.35 1.69-.66 2.51-1.05.7-.32 1.34-.77 2.05-1.06.25-.1.63.14.95.23-.09.29-.09.73-.28.85-1.09.66-2.23 1.26-3.36 1.85-1.66.87-3.08 2.02-4.22 3.51-.11.15-.17.34-.13.71.74-.34 1.53-.61 2.21-1.05 2.19-1.43 4.34-2.92 6.51-4.38.42-.28.81-.92 1.39-.46.54.42.23.99 0 1.49-.02.04 0 .11.01.19 1.15-.23 2.26-2.22 3.48-.07.56-.26 1.12-.54 1.69-.79 1.05-.46 1.61-.09 1.52 1.03-.05.69.26.93.87.73 1.26-.42 2.51-.9 3.76-1.34.56-.2 1.11-.47 1.69-.55.93-.13 1.37.55 1 1.41-.2.47-.43.93-.62 1.4-.02.06.04.16.12.4.57-.28 1.1-.57 1.65-.81 2.05-.9 4.09-1.9 6.41-1.91.81 0 1.57.2 2.16.85.67.73.64 1.35-.15 1.92-1.54 1.12-3.31 1.45-5.16 1.49-.2 0-.42-.02-.58-.11-.18-.1-.31-.29-.46-.44.18-.15.34-.38.55-.43.89-.22 1.8-.33 2.67-.58.59-.17 1.13-.53 1.69-.8-.03-.14-.06-.29-.08-.43-.62-.02-1.29-.2-1.84-.02-1.4.46-2.76 1.07-4.12 1.64-.84.35-1.64.79-2.49 1.11-1.16.44-1.54.2-1.8-1.01-.03-.16-.1-.31-.19-.59-.36.19-.67.36-.99.5-.73.32-1.42.59-2.06-.25-.18-.23-.74-.31-1.08-.23-1.11.24-2 .09-2.5-1.28-.9.54-1.7 1.07-2.54 1.5-.39.2-.86.24-1.29.35-.01-.47-.03-.95-.03-1.42 0-.08.04-.16.13-.53ZM20.05 87.77c-.44.28-.83.51-1.2.78-1.66 1.22-2.31 1.08-3.23-.79-.43.21-.87.39-1.28.63-1.41.83-2.13.56-2.6-1-.06-.18-.14-.36-.28-.69-.94.63-1.82 1.23-2.7 1.82-.64.43-1.27.88-1.94 1.25-.58.33-1.22.38-1.74-.13-.56-.55-.82-1.23-.35-1.93 1.09-1.63 2.12-3.31 3.38-4.81 1.79-2.13 3.73-4.13 5.65-6.15.92-.97 1.93-1.86 2.9-2.79.44-.43.94-.64 1.43-.18.48.45.25.96-.11 1.37-.67.78-1.37 1.53-2.08 2.27-.17.18-.38.38-.62.45-2.2.62-3.3 2.51-4.69 4.05-1.08 1.19-2.08 2.47-3.06 3.75-.55.72-1.02 1.51-1.5 2.28-.11.17-.11.41-.15.62l.18.18c.61-.37 1.25-.7 1.83-1.12 1.7-1.24 3.39-2.51 5.06-3.79.5-.38.91-.87 1.43-1.22.25-.16.65-.1.98-.13 0 .33.15.75 0 .98-.64.97-1.39 1.88-2.06 2.83-.14.2-.15.51-.23.76.32 0 .73.12.94-.04 1.35-1.04 2.65-2.13 3.97-3.21.22-.18.37-.51.61-.58.3-.09.74-.09.98.08.17.12.23.65.1.87-.27.49-.71.88-1.04 1.35-.49.69-.93 1.4-1.4 2.1l.21.24c.47-.27.98-.49 1.39-.83 1.33-1.07 2.61-2.2 3.95-3.27.27-.22.7-.24 1.06-.34.32-.09.64-.16.96-.25.44-.12.86-.34 1.3-.36.87-.03 1.28.65.89 1.43-.23.46-.56.87-.78 1.33-.2.41-.36.84-.45 1.29-.12.57-1.89 2.18-2.5 2.19-.53 0-1.05-.71-.81-1.24.19-.4.51-.75.8-1.09.48-.55.98-1.07 1.41-1.67-1.35.61-2.16 1.78-3.05 2.86-.71.85-.93.86-1.57-.15ZM35.34 87.28c.81-.73 1.61-1.46 2.43-2.18.42-.37.68-1.15 1.43-.75.72.38.17 1.02.17 1.55 0 .17-.12.35-.08.5.15.58.19 1.32.57 1.66.27.24 1.06.01 1.56-.18.6-.23 1.14-.64 1.7-.97.17-.1.35-.26.53-.27.32-.02.64.06.96.1-.11.33-.11.81-.34.96-1 .66-2.02 1.29-3.1 1.79-1.04.48-2.13.02-2.7-1-.23-.42-.37-.89-.57-1.4-.72.51-1.46 1.02-2.18 1.56-.71.53-1.37.63-2.06-.07-.13-.13-.52-.14-.71-.04-.43.22-.8.54-1.2.82-.69.5-1.36.82-2.16.15-.2-.17-.59-.13-.89-.13-.43 0-.86.1-1.27.05-1.14-.15-1.8-1.24-1.3-2.26.37-.76.83-1.52 1.41-2.12.87-.9 1.86-1.67 2.83-2.47.21-.17.52-.31.78-.31.33 0 .83.06.94.27.13.23.02.78-.19.97-1 .89-2.08 1.67-3.09 2.55-.46.4-.84.91-1.17 1.43-.34.54 0 .91.52.74.68-.22 1.37-.57 1.92-1.01 1.15-.93 2.19-1.99 3.33-2.94.38-.32.88-.57 1.37-.66.34-.06.86.1 1.08.36.19.21.14.73.04 1.06-.12.36-.46.65-.64 1-.15.3-.21.64-.31.96.13.09.27.18.4.27ZM46.32 76.69c-.37.55-.71 1.11-1.11 1.62-.1.12-.5.17-.61.08a8.11 8.11 0 0 1-1.12-1.22c-.06-.08.06-.39.18-.51.38-.39 2.23-.33 2.66.04Z" />
  <path
    d="M49.36 47.74c-.24.03-.47.1-.71.1-1.06 0-2.13.1-3.16-.04-.91-.13-1.85-.4-2.65-.84-1.06-.58-1.35-2.06-.92-3.62.33-1.17 1.25-2.04 2.48-2.01 1.9.04 3.8.24 5.7.38.12 0 .23.13.39.45-.39.1-.78.29-1.16.27-.97-.06-1.92-.25-2.89-.34-.62-.05-1.26-.08-1.87.02-1.44.23-2.14 1.2-2.04 2.69.07 1.09 1.1 2.03 2.32 2.14 1.25.11 2.5.2 3.75.32.26.02.52.12.78.18 0 .1 0 .2-.01.29ZM35.96 36.4c0-1.28.87-2.6 1.94-2.99.21-.08.56-.09.72.03 1.07.79 2.13 1.59 3.12 2.47.17.15.13.79-.05 1.04-.81 1.13-1.89 1.96-3.24 2.4-.53.18-.97.1-1.36-.38-.65-.79-1.2-1.6-1.13-2.57Z" />
</svg>
