<svg xmlns="http://www.w3.org/2000/svg" viewBox="0 0 104.14 116.92">
  <path
    d="M24.22 27.66c.23.45.37.76.53 1.05 1.45 2.69 2.89 5.38 4.38 8.05.34.61.34 1.05-.03 1.67-5.39 9.11-10.74 18.24-16.11 27.37-.16.28-.35.54-.57.88-6.73-17.93-.49-40.18 18.6-51.25 18.6-10.78 42.13-5.84 55.04 11.54 12.48 16.8 9.91 38.63-1.17 51.62-.16-.23-.33-.45-.48-.68-3.43-5.1-6.84-10.21-10.29-15.29-.37-.54-.35-.93-.04-1.47 4.23-7.46 8.43-14.94 12.67-22.4.3-.52.32-.9.02-1.43-1.7-2.98-3.37-5.97-5.01-8.97-.27-.5-.56-.7-1.14-.69-3.4.03-6.8.03-10.2 0-.57 0-.89.17-1.17.66-1.53 2.61-3.1 5.2-4.65 7.79-.11.19-.19.4-.31.68 3.24 0 6.37-.01 9.49.02.34 0 .87.15.98.39.13.3.01.8-.15 1.13-.4.8-.84 1.59-1.36 2.31-.51.7-.55 1.24.2 1.76.44.3.52.64.21 1.16-2.9 4.88-5.75 9.79-8.66 14.67-.18.29-.68.6-1 .57-1.19-.14-1.94.27-2.34 1.39-.06.17-.16.34-.28.48-.53.61-.44 1.11.02 1.78 5.76 8.33 11.49 16.68 17.22 25.03 1.46 2.13 2.89 4.3 4.33 6.45 15.3-10.96 25.14-31.98 19.67-54.29C97.34 18.13 78.52 1.3 54.69.07c-22.43-1.16-43.1 12.19-51.27 33.5-7.72 20.16-1.54 41.21 10.19 53.41.17-.27.33-.52.48-.78 1.76-3.08 3.49-6.18 5.3-9.23.41-.69.49-1.2-.1-1.76-.57-.54-.45-1.03-.06-1.68 2.83-4.71 5.63-9.44 8.4-14.18.33-.56.68-.82 1.31-.73.55.07.96-.03 1.29-.6 3.68-6.5 7.4-12.97 11.08-19.47.16-.28.17-.79.02-1.07-1.7-3.12-3.43-6.21-5.19-9.3-.14-.24-.5-.5-.76-.5-3.68-.03-7.35-.02-11.18-.02Zm16.92 9.11c3.31 0 6.42-.01 9.54.02.37 0 .9.17 1.05.43.14.27 0 .8-.2 1.12-6 10.07-12.02 20.14-18.04 30.2-.52.87-1.46 1.78-1.42 2.63.05.9 1.02 1.76 1.62 2.61 1.78 2.54 3.57 5.08 5.41 7.69.21-.35.37-.61.52-.87 1.69-2.94 3.36-5.9 5.09-8.82.39-.66.45-1.17-.1-1.7-.58-.56-.43-1.07-.05-1.71 2.8-4.66 5.57-9.33 8.31-14.01.39-.67.8-.99 1.59-.93.33.02.86-.21 1.02-.49 2.8-4.8 5.56-9.61 8.31-14.44.14-.26.15-.73 0-.99-1.7-3.11-3.43-6.21-5.19-9.29-.16-.27-.6-.54-.91-.54-3.49-.04-6.99-.03-10.48 0-.28 0-.69.17-.82.39-1.74 2.83-3.44 5.69-5.25 8.71Zm-1.66 79.94V95.58c-.81 0-1.55.03-2.29-.01-.5-.03-.69.19-.84.64-.46 1.44-.97 2.86-1.46 4.28-.7 2.02-1.41 4.04-2.11 6.06h-.2c-1.27-3.65-2.54-7.29-3.8-10.91h-2.89v21.07h3.03v-12.19c.27.23.36.48.44.73.78 2.37 1.59 4.73 2.32 7.11.18.58.48.67 1 .68.54 0 .81-.14.98-.7.75-2.41 1.57-4.8 2.37-7.2.07-.22.18-.43.27-.65l.2.06v12.17h2.98Zm35.1-15.06h3.01c0-.54.01-1.03 0-1.52-.08-2.55-2.1-4.53-4.8-4.72-2.51-.18-5.09 1.67-5.2 4.12-.18 4.41-.19 8.83-.02 13.24.1 2.43 2.35 4.12 4.86 4.16 2.55.04 4.86-1.65 5.07-4.07.21-2.54.05-5.11.05-7.77h-5.31v2.77h2.35c0 1.42.04 2.71-.01 4-.05 1.31-.93 2.12-2.12 2.07-1.19-.05-1.93-.83-1.94-2.13-.02-3.74-.02-7.48 0-11.22 0-1.32.73-2.06 1.96-2.08 1.22-.02 1.99.68 2.11 1.98.03.37 0 .74 0 1.19ZM41.8 116.76c.88 0 1.66-.04 2.42.01.59.04.88-.17 1.07-.73.53-1.57 1.12-3.13 1.7-4.69.18-.49.38-.97.65-1.63.83 2.26 1.57 4.31 2.36 6.35.1.27.38.63.61.65.91.07 1.83.03 2.87.03-.99-2.52-1.76-5.01-2.92-7.3-1.32-2.61-1.35-4.95.03-7.54 1.05-1.96 1.7-4.14 2.57-6.33-.88 0-1.65.05-2.41-.02-.66-.06-.92.22-1.12.79-.62 1.77-1.29 3.52-2 5.46-.5-1.35-.94-2.52-1.37-3.7q-.96-2.64-3.76-2.53c-.09 0-.18.03-.34.06.11.3.21.59.32.87 1.11 2.84 2.24 5.67 3.32 8.52.14.38.14.91 0 1.3-1.03 2.77-2.12 5.52-3.18 8.28-.26.68-.51 1.37-.8 2.15Zm13.98-21.15v21.1h8.95v-2.96h-5.97V95.61h-2.98Z" />
  <path
    d="M24.22 27.66c3.83 0 7.51-.01 11.18.02.26 0 .62.26.76.5 1.75 3.08 3.49 6.18 5.19 9.3.15.28.14.79-.02 1.07-3.68 6.5-7.4 12.97-11.08 19.47-.32.57-.74.68-1.29.6-.63-.08-.99.17-1.31.73-2.77 4.74-5.57 9.47-8.4 14.18-.39.64-.5 1.14.06 1.68.59.56.51 1.07.1 1.76-1.81 3.05-3.54 6.15-5.3 9.23-.15.26-.32.52-.48.78C1.88 74.79-4.3 53.73 3.42 33.57 11.59 12.26 32.26-1.09 54.69.07c23.84 1.23 42.65 18.06 47.92 39.54 5.47 22.31-4.37 43.33-19.67 54.29-1.44-2.15-2.87-4.31-4.33-6.45-5.73-8.35-11.46-16.7-17.22-25.03-.46-.67-.55-1.17-.02-1.78.12-.14.22-.31.28-.48.4-1.12 1.15-1.54 2.34-1.39.31.04.82-.27 1-.57 2.9-4.88 5.76-9.79 8.66-14.67.31-.53.23-.86-.21-1.16-.75-.52-.71-1.06-.2-1.76.52-.72.96-1.51 1.36-2.31.17-.33.29-.83.15-1.13-.11-.23-.64-.38-.98-.39-3.12-.03-6.24-.02-9.49-.02.13-.28.2-.49.31-.68 1.55-2.6 3.12-5.19 4.65-7.79.28-.48.6-.66 1.17-.66 3.4.03 6.8.03 10.2 0 .58 0 .87.19 1.14.69 1.64 3 3.31 5.99 5.01 8.97.3.53.27.91-.02 1.43-4.23 7.46-8.44 14.94-12.67 22.4-.31.55-.33.93.04 1.47 3.45 5.08 6.87 10.19 10.29 15.29.15.23.32.45.48.68 11.08-12.99 13.65-34.82 1.17-51.62-12.9-17.36-36.43-22.3-55.03-11.52-19.1 11.07-25.33 33.32-18.6 51.25.22-.34.41-.6.57-.88 5.37-9.12 10.72-18.25 16.11-27.37.36-.61.37-1.05.03-1.67-1.49-2.67-2.93-5.36-4.38-8.05-.16-.29-.3-.6-.53-1.05Z" />
  <path
    d="M41.14 36.77c1.81-3.02 3.51-5.88 5.25-8.71.14-.22.54-.39.82-.39 3.49-.03 6.99-.03 10.48 0 .31 0 .76.27.91.54 1.76 3.08 3.49 6.18 5.19 9.29.14.26.14.73 0 .99-2.74 4.83-5.51 9.65-8.31 14.44-.16.28-.68.51-1.02.49-.8-.06-1.2.26-1.59.93-2.74 4.69-5.51 9.36-8.31 14.01-.38.64-.53 1.15.05 1.71.55.53.49 1.04.1 1.7-1.73 2.92-3.4 5.87-5.09 8.82-.15.26-.31.52-.52.87-1.83-2.61-3.63-5.14-5.41-7.69-.6-.86-1.58-1.72-1.62-2.61-.04-.85.9-1.76 1.42-2.63 6.02-10.06 12.04-20.13 18.04-30.2.19-.32.34-.86.2-1.12-.14-.26-.68-.43-1.05-.43-3.12-.03-6.24-.02-9.54-.02Zm-1.66 79.94H36.5v-12.17l-.2-.06c-.09.22-.2.43-.27.65-.8 2.4-1.61 4.79-2.37 7.2-.17.56-.44.71-.98.7-.52 0-.82-.1-1-.68-.74-2.38-1.54-4.75-2.32-7.11-.08-.25-.17-.5-.44-.73v12.19h-3.03V95.63h2.89c1.26 3.62 2.53 7.26 3.8 10.91h.2c.7-2.02 1.41-4.04 2.11-6.06.49-1.43 1-2.85 1.46-4.28.14-.45.34-.66.84-.64.74.04 1.48.01 2.29.01v21.13Zm35.1-15.06c0-.45.03-.82 0-1.19-.12-1.29-.88-2-2.11-1.98-1.22.02-1.95.76-1.96 2.08-.02 3.74-.02 7.48 0 11.22 0 1.3.75 2.08 1.94 2.13 1.2.05 2.07-.76 2.12-2.07.05-1.29.01-2.59.01-4h-2.35v-2.77h5.31c0 2.66.17 5.24-.05 7.77-.2 2.43-2.51 4.11-5.07 4.07-2.51-.04-4.76-1.73-4.86-4.16-.17-4.41-.17-8.83.02-13.24.1-2.45 2.69-4.29 5.2-4.12 2.71.19 4.73 2.17 4.8 4.72.01.49 0 .98 0 1.52h-3.01ZM41.8 116.76c.29-.78.54-1.47.8-2.15 1.06-2.76 2.15-5.51 3.18-8.28.14-.38.14-.91 0-1.3-1.08-2.85-2.21-5.68-3.32-8.52-.11-.28-.21-.56-.32-.87.16-.03.25-.06.34-.06q2.8-.11 3.76 2.53c.43 1.18.87 2.35 1.37 3.7.71-1.94 1.38-3.69 2-5.46.2-.58.46-.85 1.12-.79.76.07 1.53.02 2.41.02-.87 2.19-1.52 4.37-2.57 6.33-1.38 2.59-1.35 4.94-.03 7.54 1.16 2.29 1.93 4.78 2.92 7.3-1.04 0-1.96.04-2.87-.03-.22-.02-.51-.39-.61-.65-.78-2.04-1.52-4.09-2.36-6.35-.27.67-.47 1.15-.65 1.63-.57 1.56-1.16 3.12-1.7 4.69-.19.56-.47.77-1.07.73-.76-.06-1.54-.01-2.42-.01Zm13.98-21.15h2.98v18.14h5.97v2.96h-8.95v-21.1Z" />
</svg>
