<svg xmlns="http://www.w3.org/2000/svg" viewBox="0 0 157.11 81.66">
  <path
    d="M78.76 68.26c-2.23 5.31-6.35 8.3-11.23 10.38-4.47 1.9-9.17 2.83-14.05 2.96-8.24.22-16.38-.22-24.26-2.96-7.39-2.57-14.21-6.07-19.61-11.88C3.47 60.14.09 52.37.01 43.25c-.04-4.95-.08-9.86 1.65-14.64 3.93-10.8 11.3-18.39 21.5-23.33C32.28.85 42.02-.41 52.04.11c1.8.09 3.61.39 5.36.84 2.59.67 4.76 1.89 6.65 4.04 4.15 4.72 8.68 9.11 13.1 13.59 4.88 4.95 4.14 10.83-1.86 14.43-1.14.68-2.27 1.37-3.41 2.06-.1.06-.17.18-.39.42 1.36 1.46 2.74 2.94 4.11 4.42-2.21 6.05-4.39 12.02-6.66 18.25l9.81 10.11ZM62.27 53.5c-.18-.24-.37-.48-.55-.72-.67.37-1.44.63-1.98 1.14-.79.74-1.37 1.68-2.11 2.48-1.51 1.63-3.45 2.13-5.6 1.91-1.78-.18-2.81-1.52-2.52-3.27.09-.58.41-1.13.6-1.7 3.14-9.2 6.29-18.39 9.49-27.76-.58-.64-1.19-1.32-1.75-1.94-10.48 4.39-21.39 3.2-32.19 3.86 1.65.87 3.3 1.75 4.92 2.61.14 2.56.14 4.78-.56 7.05-1.52 4.93-3.1 9.87-4.15 14.9-1.27 6.08-.43 9.85 7 12.63 7.46 2.79 14.72 1.78 21.51-2.23 3.57-2.11 6.25-5.14 7.89-8.96ZM51.49 1.19c-5.22.39-9.9 1.47-13.41 5.59-1.15 1.35-1.78 2.81-1.73 4.61.09 3.21 1.74 5.43 4.36 7.04 2.3 1.42 4.9 1.84 7.53 2.25 5.13.79 9.57-.7 13.26-4.16 4.26-3.99 3.56-11.3-2.74-13.45-2.36-.8-4.84-1.26-7.26-1.88Z" />
  <path
    d="M156.98 41.42c.6 10.84-3.21 20.23-10.37 28.07-7.02 7.68-15.86 11.87-26.52 12.15-9.79.26-18.26-2.77-25.63-9.01-6.56-5.56-10.96-12.66-12.77-20.99-2.61-12.02-1.08-23.49 6.14-33.86 6.1-8.77 14.4-14.5 24.86-16.01 13.95-2.01 25.97 2.22 35.23 13.3 4.85 5.8 7.69 12.49 9 19.83.38 2.11.06 4.34.06 6.52Zm-1.59 4.6c2.49-15.09-5.8-31.19-18.54-38.54-12.09-6.97-28.77-6.42-40.98 3.54C86.26 18.87 79.73 35 82.69 45.39c7.03-.92 14.11-1.84 21.12-2.76.85-10.24 5.87-16.06 13.83-16.55 3.91-.24 7.48.54 10.5 3.05 4.39 3.65 5.85 8.63 5.81 14.26 7.23.88 14.23 1.74 21.44 2.62Zm-48.46 32.15c4.14 1.56 7.94 2.35 12.08 1.81V57.33c-2.03-.39-3.88-.75-5.95-1.15-2.04 7.29-4.06 14.54-6.14 21.99Zm31.31-3.62c3.47-2.25 6.36-4.51 8.58-7.59-2.74-2.61-5.33-5.13-7.97-7.59-2.73-2.55-5.51-5.05-8.27-7.57-1.35 1.1-2.64 2.15-4.16 3.38 3.88 6.37 7.74 12.69 11.82 19.38Zm-5.85-33.17c.29-2.74-.74-5.46-2.34-7.91-3.49-5.34-10.15-7.88-16.46-5.01-6.99 3.18-10.13 11.62-7.12 18.68 2.19 5.13 7.75 8.92 12.73 8.68 7.39-.36 13.17-6.57 13.19-14.45Zm-26.81 7.9c-6.3 3.99-12.55 7.72-18.7 12.03 1.32 1.85 2.41 3.37 3.61 5.06l16.9-14.73c-.73-.95-1.22-1.57-1.82-2.35Zm-1.12-3.98c-.27-.25-.56-.72-.75-.68-6.88 1.37-13.75 2.79-20.84 4.24.12 1.3.2 2.3.3 3.34 7.12-1.65 19.08-5.53 21.29-6.91Zm17.57 12.07c-.8 7.48-.45 15 .42 22.7.99-.15 1.76-.26 2.84-.43-1.11-7.57-2.18-14.92-3.26-22.28Zm32.09-3.58c-7-2.35-13.8-4.64-20.61-6.9-.06-.02-.24.35-.56.85 6.63 3 13.17 6.04 20.06 8.64.41-.96.68-1.59 1.11-2.59Z" />
  <path
    d="M139.67 32.76c-.74-.92-1.47-1.85-2.23-2.79 1.13-2.21 2.18-4.28 3.63-7.1-2.27 1.62-3.82 2.72-5.44 3.88-.82-1.54-2.69-2.29-2.76-4.43-.02-.67-1.26-1.31-1.86-1.88-3.36.96-5.89-.87-8.83-1.65.19-3.31 1.42-6.14 2.23-9.26l2.04.18c-.64 2.64-1.22 5.05-1.86 7.69 1.27.42 2.5.83 3.86 1.28l6.35-5c.85.47 1.66.91 2.54 1.4-.71 2.89-1.4 5.66-2.27 9.2 2.65-1.8 4.75-3.22 6.97-4.72.68.8 1.29 1.51 2 2.34l-2.94 6.06.41.35c1.32-.9 2.65-1.81 4.17-2.85.44.49.87.96 1.36 1.49-2.61 2.07-5.03 3.99-7.46 5.91l.09-.09ZM92.1 38.28c1.51.45 3.09.93 4.72 1.42-.11.64-.18 1.09-.32 1.95-3.1-.77-6.05-1.5-9.27-2.3.42-1.19.72-2.05 1.1-3.13 1.91-.25 3.8-.5 5.95-.78-1.21-1.69-3.06-2.33-4.62-3.67v-2.92c.52-.17.88-.43 1.17-.37 2.23.47 4.46.96 6.67 1.52 1.26.33 1.78 1.14 1.11 2.63-1.66-.42-3.33-.84-5.01-1.26-.06.13-.12.27-.17.4 1.58 1.18 3.16 2.36 4.8 3.59-1.22 3.05-4.45 1.37-6.11 2.93Z" />
  <path
    d="M139.58 32.85c2.91-.59 5.83-1.19 9.01-1.83.44 2.04.92 3.74 1.14 5.47.24 1.91-.48 2.9-2.28 3.56-.67.25-1.37.46-2.07.6-3.23.67-4.37-.04-5.08-3.3-.33-1.51-.43-3.06-.63-4.6l-.09.09Zm7.9 4.77c.19-1.55.47-2.82-.76-3.98-1.57.37-3.13.74-5.11 1.21.43 1.39.79 2.54 1.11 3.57.75.07 1.12.19 1.44.11 1.03-.24 2.04-.56 3.32-.92Zm-44.15-14.93v-1.91c1.47-.73 3.62.69 4.74-1.5-.12-.31-.29-.73-.58-1.43-1.45.62-2.82 1.21-4.59 1.96-.89-1.14-1.8-2.3-2.62-3.35 2.9-4.39 5.01-5.04 7.28-2.47-.85 2.23-4.26-.5-4.74 2.76.53.06 1.16.3 1.68.15 1.14-.33 2.23-.86 3.7-1.46.86 1.24 1.71 2.46 2.42 3.5-.88 2.79-3.19 3.24-4.98 4.38-.84-.26-1.63-.49-2.42-.73l.1.11Z" />
  <path
    d="M103.23 22.57c.53 2.2-.25 4-1.73 5.58-1.24 1.33-2.7 1.58-4.16.49-1.72-1.29-3.33-2.74-5.11-4.23l1.1-1.92c2.05 1.64 3.96 3.16 6.14 4.9.73-1 1.32-1.8 2-2.73-1.96-1.85-3.69-3.49-5.49-5.18.38-.6.7-1.09 1.05-1.64 2.15 1.66 4.22 3.25 6.29 4.84l-.1-.11Zm18.6-10.32c-2.56.29-3.77-2.72-5.91-.72v4.52c2.59 2.18 3.38-.69 5.25-1.62l.4 3.19c-2.28 1.83-4.54 1.63-7.3.66-.26-1.78-.72-3.65-.75-5.52-.04-2.92 1-3.83 3.92-3.94.84-.03 1.68 0 2.87 0 .44 1 .88 2.01 1.5 3.44Zm-8.18 7.24-2.07.32c-.89-2.98-1.76-5.92-2.7-9.06.72-.23 1.24-.4 2.01-.65.91 3.1 1.78 6.05 2.76 9.4Zm5.21 33.7c-5.26.67-11.28-4.99-11.27-11.65 0-5.93 4.9-11.91 11.56-11.83 6.1.07 11.17 5.95 11.07 11.93-.11 6.46-5.51 12.09-11.36 11.54Zm.21-1.46c5.68.32 9.82-5.42 9.75-10.38-.07-4.77-4.2-10.21-10.06-10.15-5.95.06-9.85 5.88-9.76 10.44.12 5.91 5.4 10.65 10.08 10.09Z" />
  <path
    d="M118.93 33.56c3.78-.03 7.65 3.78 7.53 7.77-.13 4.6-2.88 7.78-7.57 8.08-3.91.25-7.61-3.91-7.57-8.1.04-3.91 3.78-7.72 7.61-7.75Zm-.05 14.48c3.31 0 6.26-3.18 6.21-6.68-.05-3.26-3.05-6.37-6.15-6.37-3.31 0-6.28 3.19-6.21 6.67.06 3.31 3.03 6.38 6.15 6.38Z" />
</svg>
