<svg xmlns="http://www.w3.org/2000/svg" viewBox="0 0 108.82 46.61">
  <path
    d="M79.4 1.41V.67c.24-.01.45-.03.67-.03 4.41.03 8.82-.01 13.22.13 1.53.05 3.13.34 4.55.9 4.75 1.87 6.18 7.81 2.9 11.73-1.24 1.48-2.92 2.25-4.73 2.77-.23.07-.46.13-.79.22.94 1.35 1.82 2.63 2.72 3.9 1.65 2.32 3.28 4.65 4.97 6.94 1.33 1.8 3.13 2.84 5.38 3.09.59.07.61.13.44.96h-4.28c-.97 0-1.93-.02-2.9 0-.44.01-.71-.15-.97-.52-3.07-4.41-6.17-8.79-9.24-13.2-.32-.46-.64-.67-1.21-.62-.73.06-1.47.01-2.26.01-.02.27-.05.48-.05.7v8.77c0 .59.06 1.19.15 1.77.18 1.25.87 1.94 2.12 2.12.61.09 1.23.1 1.89.15.15.47.2.83-.52.83-3.84-.02-7.68-.01-11.52-.02-.17 0-.33-.04-.54-.06-.01-.25-.02-.46-.04-.74.62-.05 1.21-.06 1.78-.15 1.49-.22 2.22-.99 2.37-2.49.07-.79.12-1.58.12-2.37V6.22c0-.74-.06-1.48-.13-2.22-.14-1.43-.84-2.18-2.27-2.41-.58-.09-1.18-.11-1.85-.16Zm8.46 14.1c1.82.14 3.53 0 5.2-.53 2.75-.88 4.53-3.3 4.54-6.19 0-2.76-1.49-5.12-3.83-5.97-1.96-.71-3.93-.4-5.9.02v12.67Zm-42.72 6.1c-1.14.08-2.27.15-3.4.24-2.66.21-5.33.44-7.99.65-.29.02-.6.03-.89 0-1.06-.13-1.62-.76-1.57-1.71.05-1.01.66-1.62 1.74-1.62 4.13-.03 8.27-.05 12.4-.02.68 0 .99-.22 1.24-.84C49.09 12.38 51.54 6.46 54 .55c.1-.24.41-.53.63-.53.21 0 .53.28.63.52 2.37 5.82 4.73 11.64 7.05 17.47.32.8.69 1.11 1.59 1.1 3.39-.05 6.78 0 10.18.01.17 0 .34.02.52.14-3.73.3-7.47.61-11.26.92.04.2.04.35.09.47.93 2.24 1.84 4.48 2.79 6.71.72 1.67 1.85 2.86 3.79 3.01.59.05.44.46.38.88H58.77c-.02-.24-.03-.47-.06-.78.4-.06.75-.11 1.11-.17 1.64-.29 2.25-1.15 1.74-2.74-.55-1.71-1.24-3.38-1.9-5.06-.59-1.49-.6-1.51-2.2-1.46-3.14.1-6.28.22-9.41.36-.25.01-.63.22-.72.44-.76 1.77-1.52 3.55-2.18 5.36-.67 1.86-.17 2.65 1.79 3.05.43.09.87.13 1.34.2v.85h-.98c-2.48 0-4.95 0-7.43-.01-.31 0-.79.25-.89-.35-.1-.61.35-.6.74-.67 1.15-.21 2.03-.81 2.53-1.86 1.01-2.15 1.95-4.32 2.92-6.49.03-.06 0-.14-.01-.28Zm3.3-2.56h9.92c-1.64-4.03-3.23-7.95-4.89-12.04-1.71 4.09-3.34 8-5.02 12.04ZM32.19.68v.74c-.56.04-1.1.04-1.63.12-1.66.26-2.33.98-2.45 2.65-.05.72-.05 1.44-.05 2.15v25.29c-.67.31-.97-.06-1.3-.47-6.2-7.84-12.42-15.68-18.63-23.52-.08-.1-.16-.19-.33-.39-.04.28-.08.45-.08.62 0 6.22 0 12.43.01 18.65 0 .52.05 1.04.13 1.55.21 1.45.78 2.02 2.23 2.24.56.08 1.13.09 1.76.13.02.23.03.46.05.76H1.67c-.02-.23-.03-.46-.05-.74.65-.06 1.26-.07 1.86-.17 1.37-.23 2.05-.95 2.18-2.32.08-.76.13-1.53.13-2.29.01-6.76.01-13.52-.01-20.28 0-.4-.17-.88-.42-1.19-1.64-2-2.48-2.42-5.36-2.8V.64h4.01C5.07.64 6.14.67 7.2.63c.61-.03.99.2 1.36.67C14.25 8.54 19.95 15.77 25.65 23c.1.13.22.24.46.5V5.99c0-.59-.05-1.19-.09-1.78-.14-1.78-.99-2.61-2.79-2.73-.2-.01-.4 0-.59-.01-.31-.03-.75.16-.74-.44.01-.55.43-.38.71-.39 1.26-.02 2.53 0 3.79 0h5.13c.22 0 .43.02.67.04ZM53 46.51c-2.77 0-4.95-2.03-4.97-4.63-.02-2.67 2.14-4.81 4.88-4.83 2.82-.02 4.98 2.04 4.98 4.77 0 2.64-2.13 4.69-4.89 4.69Zm-.07-.89c2.27 0 3.98-1.63 3.99-3.8 0-2.14-1.7-3.83-3.88-3.84-2.29-.01-4.02 1.65-4.02 3.86 0 2.15 1.69 3.78 3.92 3.79Zm31.83-8.16c1.54.09 3.03.05 4.47.28 2.21.35 3.54 2.39 3.35 4.87-.17 2.2-1.73 3.76-3.95 3.86-1.28.06-2.56.01-3.88.01v-9.03Zm.88 8.24c1.11-.05 2.18-.02 3.22-.16 1.59-.22 2.57-1.3 2.72-2.79.19-1.86-.55-3.36-1.99-3.93-1.27-.5-2.6-.39-3.96-.37v7.25Zm-81.9-3.22c1.12 1.39 2.15 2.68 3.23 4.03-.68.19-1.12.11-1.53-.42-.85-1.12-1.75-2.21-2.65-3.29-.14-.17-.38-.25-.58-.37-.08.21-.22.42-.22.63-.02 1.16-.01 2.31-.01 3.51h-.89V37.5c1.4.09 2.78.08 4.14.28 1.09.16 1.69 1.16 1.65 2.32-.04 1.13-.74 1.96-1.86 2.19-.38.08-.78.12-1.28.2Zm-.35-4.06v.04c-.32 0-.65-.05-.96.02-.17.04-.41.27-.42.42-.04.74-.04 1.48 0 2.21 0 .14.25.39.39.39.81 0 1.63 0 2.42-.13.71-.12 1.1-.66 1.11-1.38 0-.71-.37-1.24-1.08-1.4-.47-.11-.97-.12-1.46-.17Zm64.72-.84c1.24 0 2.43-.07 3.6.02 1.35.11 2.17 1.05 2.18 2.28 0 1.31-.77 2.18-2.15 2.41-.29.05-.58.06-1.01.1 1.1 1.38 2.13 2.68 3.21 4.03-.68.21-1.11.12-1.51-.41a73.68 73.68 0 0 0-2.6-3.24c-.15-.18-.43-.27-.64-.4-.07.24-.2.48-.2.72-.02 1.11 0 2.22 0 3.38h-.88v-8.89Zm.88 3.91c1.01-.05 1.9-.03 2.77-.15.76-.11 1.22-.77 1.19-1.47-.04-.7-.56-1.3-1.31-1.38-.73-.07-1.48-.07-2.21-.06-.14 0-.41.18-.41.28-.03.9-.02 1.8-.02 2.78Zm-29.53-2.5c-.24.18-.44.35-.65.5-2.15-1.88-4.74-1.98-6.42-.29-1.38 1.4-1.42 3.76-.07 5.18 1.67 1.76 4.23 1.74 6.45-.13.21.15.43.31.66.47-1.1 1.59-3.61 2.25-5.82 1.58-1.94-.59-3.26-2.4-3.28-4.48-.01-2.06 1.24-3.76 3.28-4.47 2.1-.73 4.58-.06 5.84 1.63Zm-17.44-1.37c-.02.27-.03.51-.05.81h-4.33v2.82h4.29v.9h-4.3v3.5h4.29v.88h-5.23v-8.91h5.32Zm80.1 7.14c.47-.28.68-.4.9-.53.28.32.51.64.8.91.74.69 1.89.67 2.53-.03.59-.65.52-1.47-.27-2.22-.55-.53-1.18-.97-1.78-1.46-.15-.12-.31-.24-.46-.37-1.06-.93-1.29-2.15-.58-3.08.75-.98 2.26-1.19 3.33-.42.35.25.65.59 1.04.96-.3.23-.51.39-.75.58-.26-.24-.49-.49-.76-.7-.66-.51-1.56-.47-2.02.08-.41.48-.3 1.3.34 1.85.56.48 1.18.9 1.77 1.35.25.2.5.4.72.64.96 1.02 1.1 2.18.39 3.16-.75 1.04-2.24 1.46-3.37.83-.63-.35-1.14-.94-1.82-1.53Z" />
</svg>
