<svg xmlns="http://www.w3.org/2000/svg" viewBox="0 0 72.88 30.13">
  <path
    d="M0 29.76c1.47-.54 2.27-1.49 2.55-3.14 1.27-7.58 2.66-15.14 4.04-22.7.16-.9-.3-1.41-.9-1.84-.77-.55-1.58-1.03-2.55-1.66.4-.05.62-.09.83-.09C7.51.31 11.04.32 14.57.26c.7-.01 1.02.21 1.27.86 2.45 6.41 4.94 12.8 7.41 19.2.14.36.29.72.61 1.08.26-1.4.53-2.8.79-4.2.89-4.85 1.79-9.7 2.67-14.55.25-1.37.18-1.49-1.14-2.05-.19-.08-.38-.17-.81-.37h6.49c-1.72.54-1.7 2.06-1.96 3.43-1.6 8.55-3.21 17.1-4.78 25.65-.12.64-.38.78-.96.77-2.09-.04-4.18-.07-6.27-.04-.74 0-1.06-.27-1.3-.96C14.08 22.01 11.54 14.95 9 7.89c-.13-.36-.28-.71-.59-1.05-.26 1.49-.53 2.98-.78 4.48-.9 5.41-1.77 10.82-2.7 16.22-.12.72.1 1.1.66 1.42.58.33 1.15.66 1.71 1.18H0v-.37ZM45.34 2.67c-1.24-1.08-2.67-1.58-4.32-1.24-.95.2-1.77.64-2.05 1.63-.28.99.27 1.74 1 2.3.92.7 1.92 1.32 2.89 1.97 1.77 1.21 3.65 2.29 5.29 3.65 1.78 1.47 2.82 3.41 2.21 5.84-.34 1.37-1.25 2.39-2.37 3.18-3.13 2.18-6.61 2.99-10.33 2.14-2.24-.51-4.13-1.73-5.09-3.99-.47-1.1-.41-2.13.13-2.49.53-.36 1.85-.11 2.54.61 1 1.05 1.91 2.16 1.62 3.81-.05.27.34.77.65.91 1.66.77 4.22.09 5.36-1.36.98-1.24.77-2.92-.56-3.88-.69-.5-1.5-.84-2.22-1.3-1.69-1.1-3.48-2.1-5.01-3.39-.92-.77-1.62-1.94-2.09-3.07-1.16-2.81-.16-5.3 2.53-6.74 2.87-1.54 8.31-2.26 12.18 1.19.93.83 1.61 1.99 2.18 3.11.23.46.03 1.36-.3 1.84-.46.67-1.27.45-1.94.14-1.22-.57-2.14-1.48-2.52-2.78-.18-.61-.03-1.31-.03-1.97.08-.04.17-.09.25-.13ZM27.75 29.75c.23-1.73.45-3.39.68-5.14h44.2c-.17 1.69-.35 3.38-.53 5.14H27.75Zm36.27-7.44h-12.2c.02-.1.01-.19.04-.2 1.49-.56 2.01-1.68 2.26-3.22.77-4.9 1.7-9.77 2.56-14.65.04-.24.09-.49.07-.73-.05-.86-.48-1.15-1.28-.83-.51.2-.98.5-1.46.75.51-1.3 2.86-2.86 4.5-2.95 2.38-.12 3.63 1.45 4.8 3.27.84-.66 1.69-1.35 2.56-2.01C66.94.94 68.08.3 69.47.28c1.42-.03 2.5.64 3.05 1.94.63 1.47.42 2.91-.42 4.21-1.12 1.74-4.35 1.53-5.42-.37-.43-.77-.58-1.69-.88-2.62-.99.56-1.85 1.16-2.02 2.58-.54 4.47-1.18 8.92-1.88 13.37-.15.96.14 1.52.85 2.01.37.25.73.52 1.27.9Z" />
</svg>
