<svg xmlns="http://www.w3.org/2000/svg" viewBox="0 0 723.91 263">
	<path fill-rule="evenodd"
		d="M95 85.5V171h35v-30c0-24.9.3-30.7 1.6-33.8 3.3-8 11-13.2 19.4-13.2 7.9 0 13.3 3.7 16.5 11.2 1.2 3.1 1.5 9 1.5 34.8v31h36.1l-.3-37.8-.3-37.7-2.9-6.2c-5.2-11.4-15.5-18.7-30.8-21.9-13.8-3-26 .1-36.5 9.1l-4.3 3.7V0H95v85.5ZM610 50v19h-15v27h15v23.7c0 17.2.4 25.3 1.4 29 3.4 12.6 9 19.4 19.2 23.3 5.2 1.9 7.3 2.1 16.9 1.7 11.9-.5 22.5-3.5 22.5-6.5 0-.8-1.8-7.3-4.1-14.4-2.6-8.5-4.4-12.8-5.2-12.4-6.2 2.6-8.7 2.9-11.1 1.3-3.8-2.5-4.6-7.4-4.6-27.5V96h22V69h-22V31h-35v19ZM58.7 67.1c-6.1 1.4-11.7 4.8-17.9 10.7L35 83.3V69H0v102h35v-28c0-25.7.2-28.4 2.1-33.4 3.5-9.4 10.2-13.2 21.8-12.4 4.1.3 8.3 1.4 11.1 2.8 3.3 1.7 4.5 1.9 4.8 1 .3-.7 3.5-7.5 7.3-15.1l6.8-13.7-4.8-2.1c-9.2-3.9-17.4-4.9-25.4-3ZM405.2 67.6c-5.3 1.4-14.6 6.7-17.1 9.7-2.3 2.8-3.1 1.9-3.1-3.3v-5h-36v102h36v-62.3l2.4-4.2c3.8-6.3 9.5-9.8 17-10.3 7.8-.4 12 1.7 16.1 8.3l3 4.8.3 31.9.3 31.8h35l-.3-38.8c-.3-38.1-.3-38.8-2.6-43.3-4-8.1-8.7-12.5-17.5-16.9-11.8-5.8-23.1-7.3-33.5-4.4ZM221.2 105.7c.3 35.6.4 37 2.6 42.4 4.8 12.1 12.5 18.8 26.2 23.1 6.7 2.1 9.5 2.3 26 2.3 17.6 0 18.9-.1 27-2.8 10.1-3.3 16.5-7.7 20.9-14.3 6.3-9.5 6.5-11.2 6.9-51.2l.3-36.2h-34.9l-.4 31.2c-.4 34.2-.6 35.8-6.4 41.1-3.8 3.6-11.8 5.2-18.5 3.8-6.7-1.5-9.4-3.4-12.1-8.9-2.2-4.6-2.3-5.7-2.6-36l-.3-31.2h-35l.3 36.7ZM475.3 104.2c.4 37.2.7 40.1 5.5 49.3 2.7 5.4 10.1 12.1 16.7 15.1 7.7 3.6 19 5.4 33 5.4 34.3 0 50.3-10.7 54.5-36.2.5-3.5 1-20.4 1-37.6V69h-34.8l-.4 30.2c-.4 25.2-.8 31.1-2.2 34.8-3.2 8.5-7.8 11.4-18.1 11.4s-14.9-2.9-18.1-11.4c-1.4-3.7-1.8-9.6-2.2-34.8l-.4-30.2h-35l.5 35.2ZM691.3 131.1c-8.6 4.2-12.7 11.7-12.1 22 .4 7.9 3.5 13.4 9.9 17.6 5.9 3.9 15.9 4.5 22.3 1.3 11.9-5.7 16.2-21.1 9-32.7-5.8-9.3-19.2-13.1-29.1-8.2ZM450 236v27h35v-54h-35v27zM165 240.4V262h8.9l.3-12.3.3-12.2 6 9.7c8.1 13.3 9 13.3 17-.2l6-10.1.3 12.6.3 12.5h8.9v-43h-7.9l-7.7 13c-4.2 7.1-7.9 13-8.3 13-.3 0-4-5.8-8.1-12.8l-7.6-12.7-4.2-.3-4.2-.3v21.5ZM232.2 235.4c.3 18.1.8 19.6 7.6 24.2 8.4 5.7 21.4 3.4 27.6-4.9 1.9-2.6 2.1-4.4 2.4-19.3l.3-16.4H261v11.7c-.1 13.7-1.1 19.1-4.1 21.5-2.8 2.4-9.1 2.3-12-.1-2.3-1.8-2.4-2.6-2.9-17.3l-.5-15.3-4.8-.3-4.8-.3.3 16.5ZM296.2 219.7c-1.2.2-3.8 1.9-5.7 3.7-3 2.9-3.5 4-3.5 8.1 0 6.3 4.1 10.6 12 12.5 8.7 2 12 3.6 12 5.9 0 1.1-1 2.7-2.2 3.5-3.6 2.5-9 2-18-1.8-1.2-.6-2.1 0-3.2 2.3-.9 1.6-1.6 3.3-1.6 3.6s2.1 1.6 4.8 2.7c5.9 2.7 17 2.9 22.4.5 4.5-1.9 7.8-6.9 7.8-11.7-.1-6.2-4-9.2-16.3-12.5-7.7-2.1-9.5-4-7-7.5 1.4-2 2.1-2.2 8.2-1.7 3.6.3 7.6.8 8.7 1.2 1.8.5 2.3.1 3.3-2.6.6-1.8.8-3.6.4-4-2.8-2.4-14.7-3.6-22.1-2.2ZM337 240.5V262h10v-43h-10v21.5zM375.3 221.5c-11.4 5.7-15.2 20.5-8 31.4 6.7 10.2 22.1 12.7 33.1 5.5l3.8-2.6-2.8-2.9c-3.3-3.4-3.8-3.5-7.1-.9-1.7 1.3-4.1 2-7.1 2-8.4 0-13.8-5.7-13.5-14.3.5-10.3 12-16.1 20.5-10.3l3.5 2.3 3.2-2.6 3.2-2.6-2.3-2.2c-6.2-5.8-17.9-7.1-26.5-2.8Z" />
</svg>