<svg xmlns="http://www.w3.org/2000/svg" viewBox="0 0 135.4 85.76">
  <path
    d="M92.09 23.05c1.14-.94 2.32-1.83 3.4-2.84 1.22-1.13 2.33-2.36 3.51-3.54.42-.42.49-.79.16-1.33-.85-1.35-1.63-2.75-2.46-4.15-.37.12-.67.22-1.03.34-.86-1.13-1.95-1.96-3.44-2.09-1.06-.1-2.07.1-2.98.68-1.95 1.26-2.46 3.13-1.56 6.04-5.58 3.17-11.19 6.36-16.87 9.59-.23-.35-.43-.63-.61-.93-.38-.64-.75-1.28-1.12-1.92-.64-1.13-.85-.86.15-2.15 3.07-4 6.84-7.23 11.08-9.93 3.96-2.52 8.23-4.2 12.83-5.08.55-.11.81.03 1.07.47 1.8 3.1 3.61 6.21 5.45 9.29.31.53.28.85-.13 1.31-2.08 2.31-4.37 4.36-6.94 6.09-.14.1-.29.17-.44.26l-.06-.12Z" />
  <path
    d="M58.4 19.81c3.16-.79 6.26-.96 9.21.72-.19 0-.39-.05-.56 0-.37.13-1 .27-1.04.49-.15.94-1.6 1.36-1.02 2.55.09.19.23.36.27.56.02.12-.09.28-.16.44-1.01-.91-1.06-1.9-.28-2.84.31-.37.52-.83.85-1.39-.51-.15-.89-.28-1.27-.36-1.6-.32-3.19-.15-4.77.19-1.1.24-2.2.45-3.31.68 0-.12-.02-.19 0-.22 3.09-3.12 6.38-5.96 10.56-7.55 2.69-1.02 5.45-1.67 8.34-1.6.5.01.91-.12 1.32-.41 3.12-2.25 6.41-4.19 10.04-5.49 3.48-1.25 7.07-2.08 10.76-2.27 2.34-.12 4.68-.06 7.02-.02.7.01 1.34-.07 1.98-.35 1.12-.48 2.25-.94 3.38-1.37.55-.21.94-.56 1.34-.97.8-.84 2.18-.8 2.96.01.81.85.78 2.15-.11 2.94-.27.24-.66.45-1.01.5-.57.07-1 .33-1.42.66-1.01.78-2.06 1.52-3.04 2.33-.42.35-.8.8-1.04 1.28-2.72 5.51-6.32 10.31-11.11 14.19-2.88 2.34-6.09 4.12-9.48 5.59-.6.26-1.01.62-1.35 1.2-2.08 3.59-5.09 6.21-8.68 8.23-2.77 1.56-5.82 2.33-8.95 3.09.28-.31.55-.63.83-.94.79-.89 1.66-1.72 2.34-2.68.68-.96 1.2-2.04 1.75-3.08.14-.27.16-.61.28-1.05-.67 0-1.23-.06-1.76.01-.99.14-1.87-.3-2.21-1.22-.05-.13.03-.3.05-.45.14.06.36.08.42.19.48.79 1.08 1.17 2 .73.1-.05.23-.02.34 0 1.23.14 1.34.08 2-.95-.02.32-.02.63-.07.94-.32 2.14-1.21 4.02-2.62 5.66-.43.5-.88 1-1.39 1.59.26.03.35.07.43.05 5.93-1.55 10.89-4.55 14.28-9.76.79-1.21 1.7-1.97 3-2.55 7.8-3.43 13.67-8.99 17.9-16.34.43-.75.88-1.49 1.21-2.28.39-.94.98-1.65 1.81-2.23 1.02-.71 2-1.5 2.98-2.25.38-.29.74-.53 1.27-.54.67-.01 1.16-.54 1.28-1.16.11-.59-.18-1.2-.72-1.5-.57-.32-1.32-.31-1.71.23-.57.79-1.41 1.03-2.22 1.36-.96.39-1.93.76-2.88 1.19-.7.31-1.4.39-2.16.33-9.83-.74-18.86 1.47-26.89 7.33-.83.61-1.65.88-2.69.89-4.99.04-9.39 1.83-13.34 4.78-.95.71-1.8 1.54-2.69 2.33-.12.11-.22.25-.33.38l.03.19Z" />
  <path
    d="M28.09 54.17c.57-.58 1.12-1.18 1.7-1.74 4.43-4.32 9.29-8.12 14.32-11.7 6.58-4.68 13.43-8.94 20.4-13.01.35-.2.71-.39 1.14-.63.49.84.93 1.6 1.4 2.42-.35.22-.62.4-.89.56-5.78 3.34-11.59 6.63-17.33 10.03-6.59 3.91-13.03 8.04-19.01 12.85-.55.44-1.09.89-1.63 1.34l-.1-.1ZM10.38 74.09c2.7 1.22 4.34 3.13 4.92 5.99-1.71.55-3.34 1.07-5.08 1.63-.63-2.38-2.05-3.9-4.5-4.49-.07.35-.15.65-.19.96-.18 1.26-.36 2.53-.51 3.79-.05.42-.23.63-.64.72-1.21.3-2.41.62-3.62.92-.14.03-.29 0-.57 0 .79-5.83 1.69-11.62 2.66-17.55-.6.16-1.09.3-1.63.45-.05-.16-.13-.29-.14-.42-.07-1.07-.11-2.13-.2-3.2-.04-.49.11-.77.59-.94 3.35-1.14 6.77-2.01 10.32-2.15.73-.03 1.49.07 2.2.25 1.94.49 2.92 1.86 2.8 3.87-.12 2.07-.93 3.91-2 5.64-.96 1.56-2.23 2.84-3.69 3.94-.21.16-.41.32-.72.57Zm-6.9-8.76C2.56 71.31 1.68 77.1.76 83.06c1.12-.28 2.02-.53 2.94-.71.6-.12.8-.44.87-1.02.15-1.36.36-2.71.56-4.06.04-.25.13-.49.19-.72 2.58.56 3.6 1.42 5.34 4.48 1.29-.42 2.6-.84 3.93-1.27-.07-.93-.47-1.62-.88-2.29-1.01-1.65-2.58-2.55-4.52-3.23.45-.31.75-.52 1.06-.73 2.78-1.92 4.77-4.44 5.68-7.72.23-.81.32-1.7.29-2.54-.05-1.38-.85-2.26-2.18-2.59-.71-.18-1.47-.32-2.2-.29-3.41.14-6.69.93-9.9 2.04-.2.07-.48.35-.48.52.01.94.1 1.87.17 2.89.64-.16 1.17-.29 1.84-.46Zm83.23-12.99c-.55.03-.98.05-1.51.07.05-.79.09-1.49.15-2.19.04-.56.14-1.12.15-1.68 0-.54.24-.77.77-.88 2.26-.48 4.52-.99 6.77-1.53 2.16-.52 4.31-1.09 6.55-1.66.02.28.06.51.04.72-.1 1.06-.25 2.12-.31 3.19-.04.61-.29.86-.88 1-1.94.44-3.85.96-5.79 1.42-.64.15-.98.45-1 1.13-.03.91-.11 1.82-.18 2.86 2.18-.57 4.22-1.1 6.43-1.67-.17 1.67-.33 3.17-.49 4.66-.05.5-.49.44-.81.52-1.55.39-3.1.8-4.66 1.14-.74.16-1.01.59-1.07 1.29-.2 2.31-.45 4.61-.62 6.92-.05.64-.25.93-.89 1.07-1.29.28-2.57.65-4 1.02.2-5.87.92-11.57 1.37-17.4Zm.57-.6c-.41 5.8-1.16 11.48-1.37 17.32 1.05-.27 1.93-.5 2.82-.73.92-.24.91-.24.99-1.16.19-2.16.44-4.31.59-6.47.07-1 .46-1.55 1.46-1.76 1.48-.32 2.92-.77 4.4-1.09.54-.12.76-.33.8-.85.07-.89.18-1.77.26-2.66.01-.13-.06-.27-.12-.5-2.04.54-4.03 1.07-6.17 1.64.03-1.33.08-2.56.2-3.8.08-.82.42-1.19 1.21-1.37 1.91-.44 3.8-.94 5.69-1.44.25-.07.64-.26.67-.44.17-1.04.25-2.09.36-3.19-.25 0-.37-.02-.48 0l-11.94 2.85c-.4.09-.61.28-.64.72-.05.8-.14 1.6-.2 2.39-.01.19.05.39.08.6.46-.02.87-.04 1.39-.07Zm-15.54-2.3c-.11 1.17-.22 2.28-.33 3.39-.04.43-.4.45-.72.53-1.5.38-2.98.78-4.49 1.12-.61.14-.85.44-.87 1.03-.03.64-.1 1.28-.16 2.05 1.75-.44 3.36-.85 5.13-1.3-.14 1.47-.25 2.75-.37 4.04-1.31.32-2.55.56-3.77.93-1.45.44-1.38.09-1.57 1.9-.04.43-.05.87-.08 1.44 1.96-.51 3.81-.98 5.83-1.5-.14 1.37-.25 2.6-.41 3.82-.02.15-.31.34-.5.39-3.02.74-6.04 1.46-9.22 2.22.11-4.64.77-9.2 1.1-13.84-.41.05-.7.08-1.05.12-.03-.19-.1-.38-.09-.57.06-.86.16-1.71.23-2.57.03-.4.16-.63.6-.74 3.37-.79 6.74-1.62 10.12-2.42.16-.04.34-.03.63-.05ZM63.9 65.31c.11-1.21.21-2.23.28-3.26.04-.59.32-.9.89-1.04 1.21-.29 2.41-.62 3.62-.94.33-.09.73-.08.77-.57.06-.79.14-1.58.23-2.55-1.73.45-3.32.87-5.08 1.33.08-1 .19-1.91.2-2.81.01-.88.39-1.33 1.26-1.51 1.36-.28 2.71-.66 4.06-1.01.31-.08.75-.04.79-.55.06-.73.14-1.46.22-2.34-3.47.84-6.8 1.64-10.21 2.46-.08.84-.15 1.68-.23 2.59.46-.05.78-.09 1.21-.14-.35 4.64-1.01 9.2-1.14 13.85 2.86-.69 5.57-1.33 8.27-2 .16-.04.38-.25.4-.4.11-.84.17-1.68.26-2.68-1.96.53-3.76 1.01-5.82 1.56Zm62.35-25.07c-.12 1.29-.21 2.44-.37 3.57-.02.17-.35.36-.57.42-1.49.39-2.99.74-4.48 1.13-.89.23-.89.26-.99 1.21-.06.58-.09 1.16-.15 1.88 1.75-.43 3.36-.82 5.12-1.25-.13 1.37-.24 2.54-.35 3.72-.04.45-.42.42-.73.5-1.26.32-2.52.66-3.79.96-.53.12-.73.44-.77.93-.06.69-.13 1.39-.21 2.21 2.03-.52 3.88-1 5.89-1.52-.14 1.37-.26 2.57-.38 3.77-.05.45-.44.43-.74.5-1.38.33-2.78.63-4.16.96-1.24.3-2.47.64-3.7.96-.34.09-.68.17-1.17.29.15-4.69.74-9.24 1.14-13.88-.43.04-.77.07-1.24.11.11-1.19.19-2.34.36-3.47.03-.19.48-.38.77-.45 2.45-.59 4.91-1.15 7.36-1.73 1-.24 2-.51 3.16-.81ZM115.2 59.58c.07.02.14.05.21.07.03.01.06.04.08.03 2.68-.64 5.36-1.28 8.03-1.94.17-.04.4-.23.42-.38.12-.84.19-1.69.29-2.7-1.98.52-3.79 1-5.69 1.5-.2-1.12.06-2.13.14-3.15.04-.61.33-.95.94-1.1a90.9 90.9 0 0 0 3.69-.98c.24-.07.6-.28.63-.47.13-.8.17-1.62.25-2.6-1.75.46-3.33.87-5.09 1.33.1-1.18.21-2.2.27-3.22.04-.6.31-.9.91-.99.44-.07.86-.23 1.29-.34 1.26-.32 2.51-.64 3.82-.98.08-.88.16-1.72.24-2.54-.17-.04-.24-.08-.29-.07-3.14.74-6.29 1.48-9.43 2.24-.17.04-.42.21-.44.35-.13.77-.28 1.55-.18 2.36.41-.03.72-.05 1.1-.07-.41 4.6-.81 9.14-1.21 13.67Zm-63.94-.5c.14-.17.3-.33.41-.52 1.11-1.92 2.24-3.84 3.31-5.79.27-.49.55-.7 1.11-.64.94.1 1.88.14 2.99.22-1.77 3.11-3.43 6.18-5.45 9.06 1.64 2.01 3.02 4.1 3.86 6.66-1.31.72-2.62 1.44-4.01 2.21-.7-1.83-1.27-3.64-2.89-5.09-.16 1.36-.29 2.49-.42 3.63-.06.59-.08 1.19-.18 1.77-.04.22-.23.52-.41.58-1.13.33-2.28.61-3.5.92-.02-.33-.06-.56-.05-.78.19-5.52.72-11.01 1.57-16.47.09-.61.34-.86.94-.94 1-.13 1.98-.35 3.11-.55-.19 1.94-.37 3.8-.55 5.66l.15.06Zm6.9-6.24c-.67-.07-1.22-.11-1.76-.18-.51-.07-.8.11-1.06.57-1.42 2.47-2.87 4.92-4.32 7.37-.13.22-.29.41-.44.61-.05-.02-.11-.04-.16-.06.21-2.33.41-4.67.62-7-.17-.03-.26-.07-.34-.05-.59.09-1.17.23-1.75.29-.58.06-.78.37-.86.92-.76 5.02-1.27 10.06-1.48 15.14-.01.28 0 .57 0 .99.86-.22 1.57-.41 2.28-.57.45-.1.61-.35.65-.8.14-1.57.32-3.13.49-4.69.03-.31.09-.62.16-1.1 2.01 1.3 2.81 3.24 3.6 5.27 1.1-.61 2.07-1.14 3.08-1.69-.23-.57-.35-1.04-.6-1.43-.91-1.46-1.82-2.91-2.8-4.32-.34-.49-.39-.79-.05-1.32 1.35-2.13 2.64-4.29 3.94-6.45.27-.45.51-.92.82-1.48Zm46.28-8.49c-.09 1.16-.17 2.13-.25 3.09-.2 2.25-.46 4.49-.6 6.74-.05.84.05 1.73.29 2.53.29 1.01 1.06 1.3 2.05.91 1.11-.44 1.78-1.3 1.98-2.45.31-1.72.56-3.46.78-5.19.23-1.85.42-3.72.57-5.58.05-.61.29-.9.87-1.02 1.06-.23 2.11-.51 3.25-.79 0 .28.01.42 0 .56-.32 3.22-.59 6.44-.98 9.65-.36 2.91-1.74 5.33-3.94 7.27-1.07.95-2.33 1.51-3.75 1.72-2.01.3-3.85-.91-4.25-2.9-.2-1.01-.34-2.06-.3-3.09.11-3.29.32-6.58.47-9.87.02-.45.17-.69.64-.8 1.01-.22 2-.5 3.17-.79Zm-.61.71c-.71.17-1.27.34-1.84.42-.61.09-.85.39-.87 1-.14 3.02-.34 6.04-.43 9.07-.03 1.06.11 2.14.3 3.18.31 1.75 1.94 2.83 3.68 2.55a6.79 6.79 0 0 0 3.56-1.71c2.07-1.89 3.35-4.22 3.68-7.02.33-2.83.57-5.67.84-8.51.02-.22 0-.45 0-.78-.8.2-1.48.42-2.17.54-.57.1-.77.41-.82.96-.16 1.8-.34 3.61-.57 5.4-.23 1.79-.49 3.59-.84 5.36-.25 1.28-1.1 2.16-2.33 2.61-1.18.43-2.11.02-2.62-1.14-.41-.92-.46-1.9-.37-2.88.21-2.22.42-4.43.62-6.65.07-.76.11-1.51.18-2.41ZM44.73 66c-.67 3.03-3.65 6.62-7.55 7.08-1.57.19-2.77-.46-3.63-1.76-.79-1.2-1.12-2.56-1.18-3.97-.14-3.73 1.07-7.01 3.45-9.85 1.39-1.67 3.19-2.61 5.37-2.84 1.72-.18 3.37.65 4.17 2.16.14.27.29.52.02.81-.78.82-1.54 1.65-2.32 2.46-.14.15-.3.27-.54.48-.06-.12-.1-.19-.13-.28-.39-1.16-1.28-1.61-2.85-1.12-1.12.35-1.83 1.19-2.35 2.19-.88 1.71-1.19 3.53-1 5.44.02.23.08.47.14.7.45 1.62 1.31 1.97 2.79 1.12.88-.5 1.51-1.26 1.89-2.18.21-.49.48-.68 1.01-.63.88.09 1.77.12 2.73.18Zm-1.93-6.41c.6-.64 1.19-1.29 1.8-1.92.34-.35.28-.65.02-1.01-.81-1.11-1.91-1.58-3.24-1.49-1.78.12-3.36.78-4.6 2.08-2.75 2.87-4.04 6.31-3.86 10.27.05 1.2.36 2.34 1 3.38.83 1.35 1.99 1.9 3.55 1.59 2.66-.51 4.51-2.13 5.86-4.39.28-.47.49-.99.79-1.62-.92-.07-1.68-.12-2.42-.17-.17.31-.29.55-.42.78-.63 1.09-1.49 1.92-2.7 2.33-1.17.4-2.05.02-2.55-1.1-.11-.24-.21-.5-.26-.76-.49-2.73-.06-5.28 1.64-7.5 1.45-1.89 3.53-2.06 5.38-.47Zm65.65-55.2c-3.41 1.94-6.83 3.88-10.35 5.87-.95-1.63-1.86-3.17-2.85-4.85 1.1-.11 2.04-.28 2.97-.28 2.22 0 4.44.07 6.66.08.49 0 1-.08 1.46-.23.69-.22 1.36-.52 2.04-.79l.07.2ZM72.72 53.92c.12-1.29.21-2.41.36-3.53.03-.2.26-.49.46-.54 3.56-.92 7.12-1.81 10.68-2.71.03 0 .06 0 .15.03 0 .45.03.91 0 1.37-.06.83-.16 1.65-.22 2.48-.03.44-.23.69-.68.79-.84.18-1.66.43-2.5.62-.49.11-.75.34-.8.88-.22 2.3-.49 4.6-.73 6.9-.17 1.68-.35 3.36-.47 5.05-.04.63-.32.88-.89 1-.98.21-1.95.47-3.06.75.16-4.6.69-9.06 1.06-13.66-1.14.19-2.17.37-3.35.57Zm2.76 12.46c.94-.24 1.65-.44 2.37-.61.37-.09.54-.3.57-.68.07-.89.17-1.77.26-2.66.32-3.04.63-6.08.95-9.11.12-1.09.13-1.09 1.22-1.38.72-.19 1.44-.37 2.15-.58.21-.06.52-.21.55-.36.2-1.03.26-2.08.31-3.26-.92.23-1.66.42-2.4.61-2.35.6-4.71 1.2-7.06 1.82-.32.08-.76.05-.82.54-.09.81-.16 1.63-.25 2.57 1.18-.19 2.21-.36 3.32-.54-.39 4.57-.77 9.02-1.17 13.66Zm56.79-26.47c-.53 4.59-1.04 9.02-1.57 13.57 1.69-.16 3.09-.71 4.69-1.13-.13.91-.23 1.71-.36 2.52-.29 1.76-.28 1.8-1.99 2.27-2.05.56-4.13 1.04-6.32 1.59-.03-.42-.06-.67-.05-.92.19-5.49.69-10.95 1.56-16.38.1-.61.35-.85.95-.93.99-.14 1.98-.36 3.1-.57Zm-2.1 14.24c.23-2.39.42-4.6.67-6.8.25-2.22.55-4.44.84-6.79-.94.18-1.72.31-2.5.49-.16.04-.33.24-.39.41-.1.27-.12.58-.17.87-.79 4.84-1.18 9.72-1.4 14.61-.01.32 0 .63 0 1.05 2.36-.41 4.57-.97 6.73-1.72.14-.05.32-.22.35-.36.17-.89.31-1.78.48-2.81-.89.24-1.6.45-2.31.61-.71.16-1.43.27-2.29.43Zm-99.07 5.6c-.32.39-.61.75-.9 1.1 1.63 3.3.9 6.39-.69 9.39-.99 1.86-2.33 3.44-4.24 4.44a7.3 7.3 0 0 1-1.57.61c-2.36.64-4.05-.17-5.07-2.4-.85-1.85-.92-3.79-.61-5.75.43-2.79 1.59-5.27 3.46-7.39 1.24-1.4 2.78-2.27 4.64-2.59 2.27-.39 3.93.43 4.98 2.6Zm-12.72 9.26c.03 1.4.23 2.8.96 4.08.9 1.59 2.18 2.17 3.96 1.77 1.24-.28 2.34-.86 3.27-1.72 2.31-2.15 3.66-4.79 3.98-7.93.13-1.26.03-2.52-.64-3.62-.36-.59-.41-1 .16-1.43.43-.33.35-.68.07-1.07-.67-.92-1.56-1.46-2.71-1.48-2.25-.05-4.1.85-5.57 2.52-2.22 2.53-3.34 5.5-3.48 8.9Zm45.91 7.73c.55-1.36.5-2.55.03-3.84.72-.16 1.37-.31 2.11-.47.2.55.39 1.06.58 1.58.06.01.12.03.18.04.09-.25.24-.49.26-.74.08-.97.6-1.42 1.55-1.46.25-.01.5-.08.77-.12-.07.85-.16 1.63-.19 2.4-.01.28.05.59.18.84.23.47.05.67-.38.76-.35.07-.69.12-1.2.21.21-.83.52-1.59.07-2.4-.19.67-.38 1.33-.55 2-.08.34-.2.59-.59.68-.45.11-.74.02-.87-.46-.13-.47-.3-.93-.54-1.37-.27.47-.27.94-.08 1.41.24.62.22.7-.38.84-.25.06-.51.06-.93.11Zm-4.67 1.12c.09-.79.21-1.47.23-2.14 0-.42-.16-.84-.24-1.26-.02-.14-.05-.31 0-.41.24-.39 1.51-.42 1.84-.05.33.37.64.76 1.02 1.22.28-.5.32-.87.04-1.23-.34-.43-.16-.64.28-.75.33-.08.67-.13 1.19-.22-.64 1.2-.41 2.32-.45 3.42-.01.32-.07.59-.43.68-.38.09-.74.19-1.04-.21-.33-.44-.7-.85-1.16-1.41-.14.64-.35 1.05.13 1.45.33.27.17.54-.2.64-.39.11-.79.18-1.2.27Zm-27.27 3.92c-.11.64-.35 1.06.16 1.45.36.27.2.53-.15.64-.39.12-.8.18-1.2.27-.05-.15-.13-.25-.11-.31.42-1.04.52-2.08.04-3.14-.05-.11 0-.31.07-.41.27-.35 1.46-.36 1.77-.02.34.38.67.78 1.01 1.17.08-.04.17-.07.25-.11-.05-.35 0-.77-.18-1.03-.37-.53-.12-.68.34-.78.3-.07.62-.1 1.09-.17-.61 1.16-.34 2.25-.43 3.31-.02.25-.16.61-.35.7-.32.16-.75.26-1.06-.12-.19-.23-.37-.46-.57-.69-.18-.21-.37-.42-.68-.76Zm44.79-9.85c.26-.49.29-.85.02-1.18-.34-.42-.16-.64.28-.75.31-.08.63-.13.91-.19.08.1.15.16.14.19-.45.97-.26 2.01-.31 3.02-.02.34.05.72-.42.86-.48.14-.85.09-1.15-.35-.26-.38-.59-.72-.96-1.16-.26.55-.35.94.04 1.35.28.29.2.55-.19.65-.39.1-.78.15-1.14.22.07-.87.15-1.65.18-2.42.01-.25-.02-.55-.14-.76-.29-.49-.12-.68.37-.81.95-.25 1.03-.24 1.65.53.21.26.45.51.73.82Zm-22.5 6.77c.15-.24.3-.48.58-.92-.6.1-1.03.17-1.6.27.19.27.35.39.36.52.02.17-.03.48-.13.52-.45.17-.92.38-1.43.16.25-.65.52-1.26.7-1.89.17-.61.23-1.24.38-2.05.5-.11 1.17-.27 1.93-.44.28.77.51 1.46.78 2.14.13.31.31.61.53.87.23.28.22.53-.1.63-.61.18-1.24.28-1.86.41-.04-.07-.08-.14-.12-.2Zm-10.65 2.59c-.02-.22-.08-.38-.03-.5.41-.94.35-1.88.03-2.81-.14-.42-.02-.63.38-.71.61-.13 1.21-.26 1.82-.36.39-.06.86-.05.98.39.09.32-.06.71-.14 1.07-.03.13-.17.23-.25.33.2.35.39.67.59 1.01.14-.05.29-.09.53-.17-.05.27-.06.48-.14.65-.23.45-.64.61-1.12.54-.42-.06-.56-.39-.62-.76-.02-.12 0-.26-.06-.34-.07-.11-.26-.26-.31-.23-.13.07-.28.23-.29.35 0 .18.07.4.17.56.25.39.13.62-.27.73-.39.11-.8.17-1.24.25Zm1.4-3.53v.96c.52-.01.84-.21.81-.67-.04-.47-.4-.4-.81-.29Zm-14.95 5.46c.25.94.2 1.05-.65 1.24-.82.19-1.65.35-2.53.53-.03-.23-.08-.36-.04-.44.46-.98.48-1.95.03-2.95-.06-.13.09-.52.2-.55.99-.26 1.99-.47 3.05-.71.04.26.07.41.07.55 0 .66-.26.79-.88.57-.27-.09-.62-.09-.88 0-.12.05-.12.43-.18.71.42.02.7.03.98.05.2.44-.07.57-.38.63-.64.13-.73.48-.53.98.89.54.96-.96 1.74-.62Zm39.9-7.97c.56-1.19.48-2.38-.03-3.67 1.12-.25 2.18-.49 3.29-.73.06.21.13.37.14.52 0 .67-.25.79-.87.55-.26-.1-.62-.09-.88.01-.13.05-.12.43-.19.72h1c.23.48-.07.58-.42.66-.56.14-.69.49-.5.99.87.59.96-.91 1.79-.57v1.04c-1.07.23-2.12.46-3.18.68-.05-.07-.09-.14-.14-.22Zm-28.68 5.98c.33-.17.69-.25.83-.46.21-.33.41-.48.85-.41v1.1c-1.07.23-2.14.46-3.23.7.1-.78.24-1.4.25-2.02 0-.45-.13-.91-.25-1.35-.08-.31-.06-.54.28-.61.95-.21 1.89-.42 2.89-.63.06.26.14.43.13.59-.02.6-.28.71-.86.5-.26-.1-.62-.1-.87 0-.13.05-.13.42-.21.72h1.05c.14.4-.01.61-.41.67-.64.1-.75.47-.44 1.21ZM70.04 68.3c.14.53.07.81-.4.92-3.08.74-6.16 1.5-9.24 2.25-.08.02-.17-.01-.28-.02-.26-.46-.08-.71.39-.83.72-.19 1.43-.39 2.15-.57 2.18-.54 4.37-1.07 6.56-1.6.25-.06.51-.09.82-.14Zm44.59-5.86c-.27-.66.04-.84.46-.95 1.15-.3 2.29-.61 3.44-.9 1.67-.41 3.34-.81 5.01-1.21.31-.07.63-.11.95-.17.25.5.12.79-.36.91-.55.13-1.1.23-1.65.36-2.21.55-4.43 1.1-6.64 1.66-.4.1-.79.19-1.22.3Z" />
  <path
    d="M42.49 71.97c-1.67 1.95-3.68 3.21-6.34 3.06-.87-.05-1.58-.47-2.18-1.08-.78-.8-1.23-1.78-1.38-2.91.16.27.32.54.5.8 1.21 1.83 3.09 2.58 5.24 2.12 1.29-.28 2.47-.82 3.55-1.57.2-.14.41-.28.62-.42Zm-24.33 1.47c.07.13.15.25.22.38 1.44 2.41 3.52 3.19 6.22 2.37 1.3-.4 2.42-1.09 3.53-2.04-1.28 2.07-4.06 3.41-6.01 3.35-1.41-.05-2.49-.75-3.21-1.94-.39-.65-.66-1.36-.99-2.04.08-.02.15-.05.23-.07Zm91.61-12.74c-1.53 1.88-3.42 3.16-5.97 3.11-1.72-.04-3.27-1.45-3.43-3.18 1.16 1.53 2.64 2.34 4.56 2.18 1.85-.15 3.4-.97 4.84-2.11ZM48.25 77.64c-.12-1.18-.11-1.19.92-1.42.89-.2 1.78-.38 2.69-.57.06.2.13.31.11.41-.07.32-.17.64-.26.95-.25-.14-.49-.28-.91-.51-.01.02-.12.16-.11.29.05.82-.34 1.69.29 2.46.22.27.03.5-.29.58-.48.11-.97.21-1.72.37.66-1.15.68-2.18.47-3.22-.74-.3-.39 1.08-1.2.66Zm-8.75.73c.05.22.12.36.11.5-.03.33.18.8-.3.9-.2.04-.46-.29-.75-.48.03 0-.06-.02-.08.01-.34.54-.33 2.12.05 2.56.31.36.25.58-.18.69-.5.14-1.02.23-1.58.36-.02-.21-.09-.37-.04-.42.7-.72.38-1.61.42-2.44 0-.13-.17-.26-.27-.39-.12.11-.25.21-.35.33-.14.18-.26.38-.43.63-.58-1-.42-1.4.5-1.61.95-.22 1.9-.41 2.89-.63Zm42.2-8.77c-.12.32-.27.52-.26.72.05.73-.3 1.54.38 2.17.04.04-.13.46-.27.51-.5.16-1.02.24-1.64.28.57-1.03.51-2.06.34-3.09-.75-.27-.38 1.12-1.18.7-.3-1.08-.23-1.22.82-1.44.92-.2 1.83-.39 2.82-.6.03.38.08.65.05.9-.02.17-.18.33-.27.49-.15-.1-.31-.2-.45-.3-.07-.05-.13-.11-.35-.32Zm44.85-9.11c-.15-.4-.12-.71.41-.83 2.57-.61 5.13-1.23 7.7-1.84.08-.02.17 0 .29.02.08.36.03.67-.36.79-2.61.8-5.21 1.61-7.93 1.93-.02 0-.05-.03-.1-.06Zm-25.78-45.67c.09-.25.12-.54.27-.74 1.33-1.89 2.55-3.84 3.51-5.95.23-.52.7-.73 1.19-.94-1.24 2.79-2.8 5.37-4.68 7.74-.1-.04-.2-.08-.29-.11ZM93.15 52.6c-.2-.53-.07-.79.37-.9 1.92-.5 3.84-.99 5.81-1.5.13.53.13.87-.43 1.01-1.9.45-3.79.92-5.75 1.4ZM59 74.07c.03.21.09.35.05.43-.5 1-.51 1.99-.04 3.01.06.12-.06.46-.17.5-.46.14-.94.21-1.41.31.07-.86.17-1.57.18-2.29 0-.33-.1-.68-.21-1-.12-.35-.1-.57.3-.66.4-.09.8-.18 1.31-.29Zm38.49-14.75c.1.38.14.72-.35.83-1.58.36-3.17.7-4.79 1.06-.13-.44-.08-.75.37-.86 1.49-.37 2.99-.73 4.49-1.09.07-.02.17.03.28.05Zm-12.4 12.16c.13-.21.22-.57.4-.62 1.58-.46 3.18-.86 4.82-1.29.09.45.13.8-.28.91-1.56.43-3.14.83-4.71 1.24-.07-.08-.15-.16-.22-.24Zm-69.86 9.8c.32.47.21.73-.18.85-1.49.48-2.97.97-4.47 1.42-.16.05-.39-.12-.58-.19.11-.17.18-.45.33-.5 1.62-.54 3.25-1.05 4.91-1.58ZM5.05 83.64c.19.55.03.84-.43.96-1.48.39-2.97.77-4.47 1.16-.23-.42-.23-.75.22-.88 1.55-.43 3.12-.83 4.68-1.25Zm61.69-27.68c.11-.19.19-.52.34-.56 1.44-.41 2.9-.76 4.36-1.14.21.51.11.74-.3.84-1.4.35-2.8.7-4.21 1.05l-.2-.2Zm-20.8 18.16c-.21-.51-.14-.8.3-.92 1.25-.33 2.5-.65 3.76-.98.19.39.26.74-.15.86-1.29.38-2.6.7-3.91 1.04Zm80.02-28.95c.23.53.06.76-.32.85-1.4.35-2.79.69-4.21 1.04-.23-.44-.14-.71.31-.82 1.39-.36 2.79-.71 4.22-1.08Zm-47 21.97c.15.5.09.8-.3.91-1.22.34-2.45.66-3.69.99-.25-.52-.16-.8.33-.93 1.2-.31 2.41-.63 3.66-.96Zm45.59-14.87c.16.6.02.84-.37.94-1.15.28-2.29.56-3.46.84-.21-.44-.16-.74.3-.86 1.16-.31 2.32-.6 3.53-.92Zm-54.36 9.37c-.12.2-.21.53-.38.58-1.19.34-2.39.62-3.63.93-.14-.47-.11-.75.3-.86 1.17-.31 2.33-.61 3.5-.91l.2.26Zm22.58-49.76c-.66 1.02-1.98 1.25-2.92.56.44-1 1.94-1.31 2.92-.56Zm-25.91 9.6c.65.39 2.86 4.15 2.87 4.88-.12-.03-.28-.03-.32-.09-.87-1.45-1.73-2.9-2.58-4.36-.06-.1 0-.26.02-.43ZM42.27 62.04c-.85-1.23-1.32-1.33-3.47-.66.28-.59.69-.94 1.2-1.18 1.06-.51 1.56-.28 1.94.83.11.33.22.67.33 1Zm15.36 7.58c-.08.17-.11.41-.24.49-1.2.69-2.41 1.36-3.64 2.01-.14.07-.4-.08-.6-.12 0-.06.01-.13.02-.19 1.43-.78 2.85-1.55 4.28-2.33.06.05.13.1.19.15ZM9.61 82.12a5.928 5.928 0 0 0-2.49-2.42c-.5-.26-.28-.62-.11-1.05 1.68.59 2.19 1.99 2.6 3.47Zm58.78-54.86c-.25-.3-.43-.46-.54-.66-.67-1.21-1.51-2.33-2.05-3.79.83.44 2.63 3.51 2.59 4.44Zm4.21 28.68c-.1-.44-.17-.81.3-.92.74-.17 1.5-.29 2.27-.43.17.5.14.85-.37.95-.72.15-1.44.26-2.2.4Zm11.6-3.21c.14.57.01.85-.47.96-.68.15-1.35.34-2.03.52-.26-.55-.06-.81.39-.93.68-.18 1.37-.35 2.11-.55Zm1.68.81c.06.83.04.84-.81.77q-.07-.83.81-.77ZM51.9 68.03c.31.8.62 1.6.94 2.4l-.14.06c-.37-.78-.73-1.55-1.1-2.33.1-.04.2-.09.31-.13Z" />
  <path
    d="M3.48 65.33c-.67.17-1.2.3-1.84.46-.07-1.01-.16-1.95-.17-2.89 0-.18.28-.45.48-.52 3.21-1.1 6.49-1.9 9.9-2.04.73-.03 1.48.11 2.2.29 1.32.33 2.13 1.21 2.18 2.59.03.85-.06 1.73-.29 2.54-.91 3.28-2.9 5.8-5.68 7.72-.31.21-.61.42-1.06.73 1.94.68 3.52 1.58 4.52 3.23.41.68.82 1.37.88 2.29-1.33.43-2.64.85-3.93 1.27-1.75-3.06-2.77-3.92-5.34-4.48-.06.24-.15.48-.19.72-.2 1.35-.41 2.7-.56 4.06-.06.58-.27.9-.87 1.02-.92.18-1.82.44-2.94.71.92-5.97 1.8-11.76 2.72-17.73Zm2.64 6.96c.49-.14.81-.2 1.1-.32 1.58-.68 2.98-1.63 3.99-3.03.44-.61.78-1.35.94-2.08.36-1.57-.38-2.54-1.99-2.68-1.96-.17-3.76.57-5.61.98 0 .07-.01.15-.02.22.72.29 1.44.58 2.17.87-.19 2.03-.37 3.96-.56 6.05Zm81.16-20.55c-.52.03-.92.05-1.39.07-.03-.21-.09-.41-.08-.6.06-.8.15-1.6.2-2.39.03-.43.24-.62.64-.72 3.98-.94 7.96-1.9 11.94-2.85.11-.03.22 0 .48 0-.11 1.1-.19 2.15-.36 3.19-.03.18-.42.37-.67.44-1.89.5-3.78 1-5.69 1.44-.78.18-1.13.55-1.21 1.37-.12 1.24-.17 2.46-.2 3.8 2.14-.57 4.13-1.1 6.17-1.64.06.23.13.37.12.5-.08.89-.19 1.77-.26 2.66-.04.53-.27.74-.8.85-1.48.32-2.92.77-4.4 1.09-1 .22-1.39.76-1.46 1.76-.15 2.16-.39 4.31-.59 6.47-.08.92-.07.92-.99 1.16-.88.23-1.77.46-2.82.73.21-5.84.96-11.52 1.37-17.32ZM63.9 65.31c2.06-.55 3.85-1.04 5.82-1.56-.09 1-.15 1.85-.26 2.68-.02.15-.24.36-.4.4-2.7.67-5.41 1.31-8.27 2 .14-4.66.79-9.22 1.14-13.85-.44.05-.75.08-1.21.14.08-.91.16-1.74.23-2.59 3.41-.82 6.74-1.63 10.21-2.46-.08.88-.16 1.61-.22 2.34-.04.51-.48.47-.79.55-1.35.36-2.69.73-4.06 1.01-.87.18-1.25.62-1.26 1.51-.01.9-.13 1.81-.2 2.81 1.76-.46 3.35-.88 5.08-1.33-.09.97-.16 1.76-.23 2.55-.04.5-.44.49-.77.57-1.2.32-2.41.65-3.62.94-.57.14-.85.45-.89 1.04-.07 1.02-.18 2.05-.28 3.26Zm51.3-5.73c.4-4.53.8-9.06 1.21-13.67-.38.03-.69.05-1.1.07-.11-.81.05-1.59.18-2.36.02-.14.27-.31.44-.35 3.14-.76 6.28-1.5 9.43-2.24.05-.01.11.02.29.07-.08.82-.16 1.66-.24 2.54-1.3.33-2.56.65-3.82.98-.43.11-.85.28-1.29.34-.6.09-.87.39-.91.99-.07 1.02-.17 2.05-.27 3.22 1.76-.46 3.34-.88 5.09-1.33-.08.98-.11 1.8-.25 2.6-.03.19-.38.4-.63.47-1.22.35-2.46.68-3.69.98-.61.15-.9.49-.94 1.1-.07 1.02-.34 2.03-.14 3.15 1.9-.5 3.71-.98 5.69-1.5-.1 1.01-.17 1.86-.29 2.7-.02.15-.25.34-.42.38-2.67.66-5.35 1.3-8.03 1.94-.02 0-.05-.02-.08-.03-.07-.02-.14-.05-.21-.07Zm-57.04-6.74c-.31.56-.55 1.03-.82 1.48-1.3 2.16-2.59 4.32-3.94 6.45-.34.53-.29.83.05 1.32.98 1.41 1.89 2.86 2.8 4.32.24.39.37.87.6 1.43-1.01.55-1.98 1.09-3.08 1.69-.79-2.03-1.59-3.97-3.6-5.27-.07.48-.13.79-.16 1.1-.17 1.56-.35 3.12-.49 4.69-.04.46-.21.7-.65.8-.71.16-1.42.36-2.28.57 0-.42-.01-.71 0-.99.21-5.07.72-10.12 1.48-15.14.08-.55.29-.85.86-.92.59-.07 1.17-.2 1.75-.29.08-.01.17.02.34.05-.21 2.34-.41 4.67-.62 7 .05.02.11.04.16.06.15-.2.31-.4.44-.61 1.45-2.45 2.91-4.9 4.32-7.37.26-.46.55-.64 1.06-.57.55.08 1.1.12 1.76.18Zm45.67-7.78c-.06.9-.11 1.66-.18 2.41-.2 2.22-.42 4.43-.62 6.65-.09.99-.04 1.96.37 2.88.51 1.15 1.43 1.57 2.62 1.14 1.23-.45 2.07-1.33 2.33-2.61.35-1.77.61-3.57.84-5.36.23-1.79.41-3.6.57-5.4.05-.55.25-.86.82-.96.69-.13 1.37-.34 2.17-.54 0 .34.02.56 0 .78-.27 2.84-.51 5.68-.84 8.51-.32 2.8-1.61 5.13-3.68 7.02a6.79 6.79 0 0 1-3.56 1.71c-1.74.28-3.38-.8-3.68-2.55-.18-1.05-.33-2.12-.3-3.18.09-3.02.3-6.04.43-9.07.03-.61.27-.91.87-1 .57-.09 1.14-.26 1.84-.42ZM42.8 59.59c-1.85-1.59-3.93-1.42-5.38.47-1.7 2.22-2.14 4.78-1.64 7.5.05.26.15.51.26.76.5 1.12 1.37 1.5 2.55 1.1 1.21-.41 2.07-1.24 2.7-2.33.13-.23.25-.47.42-.78.74.05 1.49.11 2.42.17-.31.64-.51 1.15-.79 1.62-1.35 2.26-3.21 3.88-5.86 4.39-1.56.3-2.72-.24-3.55-1.59-.64-1.04-.94-2.18-1-3.38-.18-3.97 1.12-7.41 3.86-10.27 1.24-1.3 2.82-1.95 4.6-2.08 1.33-.09 2.44.38 3.24 1.49.26.36.32.66-.02 1.01-.62.63-1.21 1.28-1.8 1.92Zm32.68 6.79c.4-4.64.78-9.09 1.17-13.66-1.12.18-2.15.35-3.32.54.09-.94.16-1.75.25-2.57.05-.49.5-.45.82-.54 2.35-.62 4.71-1.21 7.06-1.82.74-.19 1.48-.37 2.4-.61-.05 1.18-.11 2.23-.31 3.26-.03.15-.34.3-.55.36-.71.21-1.43.39-2.15.58-1.09.29-1.1.29-1.22 1.38-.33 3.04-.64 6.08-.95 9.11-.09.88-.19 1.77-.26 2.66-.03.38-.19.59-.57.68-.72.17-1.42.36-2.37.61Zm54.69-12.23c.87-.16 1.59-.27 2.29-.43.72-.16 1.42-.37 2.31-.61-.17 1.02-.31 1.92-.48 2.81-.03.14-.2.31-.35.36-2.16.75-4.36 1.3-6.73 1.72 0-.41-.01-.73 0-1.05.22-4.89.61-9.77 1.4-14.61.05-.29.07-.6.17-.87.06-.17.23-.37.39-.41.77-.18 1.56-.31 2.5-.49-.29 2.35-.59 4.56-.84 6.79-.24 2.2-.43 4.41-.67 6.8ZM18.38 69.01c.14-3.39 1.26-6.37 3.48-8.9 1.47-1.67 3.32-2.57 5.57-2.52 1.15.02 2.03.56 2.71 1.48.29.39.37.74-.07 1.07-.57.43-.52.84-.16 1.43.67 1.1.76 2.37.64 3.62-.31 3.14-1.66 5.79-3.98 7.93-.93.86-2.03 1.44-3.27 1.72-1.79.4-3.06-.18-3.96-1.77-.72-1.28-.92-2.68-.96-4.08Zm2.61-.77c.16.78.24 1.58.5 2.32.4 1.14 1.3 1.56 2.48 1.31.85-.18 1.52-.66 2.06-1.31 1.19-1.44 1.81-3.12 1.82-4.99 0-.44-.05-.92-.23-1.3-.28-.58-.2-1.01.28-1.39.45-.37.37-.74.04-1.14-.54-.64-1.23-.92-2.05-.85-1.21.09-2.21.61-2.96 1.59-1.3 1.7-1.78 3.65-1.94 5.76Zm24.4 9.52c.41-.12.77-.19.81.29.04.46-.29.66-.81.67v-.96Z" />
  <path
    d="M6.12 72.29c.19-2.08.37-4.02.56-6.05-.73-.29-1.45-.58-2.17-.87 0-.07.01-.15.02-.22 1.86-.41 3.65-1.15 5.61-.98 1.61.14 2.35 1.11 1.99 2.68-.17.73-.51 1.47-.94 2.08-1 1.41-2.41 2.35-3.99 3.03-.29.12-.61.18-1.1.32Zm.6-.67c2.02-.9 3.59-1.99 4.57-3.79.19-.36.3-.78.37-1.18.2-1.2-.26-1.83-1.45-1.96-1.35-.15-2.63.23-4.08.63.47.26.77.42 1.14.63-.17 1.8-.34 3.62-.53 5.67Zm14.27-3.38c.16-2.12.64-4.07 1.94-5.76.75-.98 1.75-1.49 2.96-1.59.82-.06 1.51.21 2.05.85.33.4.42.77-.04 1.14-.48.39-.56.81-.28 1.39.19.38.23.86.23 1.3-.01 1.87-.63 3.54-1.82 4.99-.54.65-1.21 1.13-2.06 1.31-1.17.25-2.08-.18-2.48-1.31-.26-.74-.34-1.55-.5-2.32Zm5.69-4.77c.23-.27.43-.52.66-.75.39-.38.27-.75-.13-.93-.44-.2-.95-.37-1.42-.35-1.21.06-2.09.76-2.74 1.75-.9 1.37-1.35 2.9-1.38 4.53-.01.85.05 1.72.28 2.53.3 1.09 1.08 1.42 2.15 1.06.33-.11.65-.3.93-.51 2.04-1.56 2.83-4.95 1.65-7.32Z" />
  <path
    d="M10.89 66.72c-.69-.03-1.38-.07-2.09-.1-.18-.55-.07-.88.54-.92.29-.02.59-.04.88-.03.82.02.92.18.67 1.06Zm15.52-4.21c-.38.91-1.14 1.02-1.89 1.2.32-.85.89-1.22 1.89-1.2Z" />
</svg>
