<svg xmlns="http://www.w3.org/2000/svg" viewBox="0 0 504.3 332.1">
	<path
		d="M330.58 0h1.14c26.92 12.16 49.42 36.59 63.76 62.06 4.37 7.76 7.76 15.92 11 24.22 1.31 0 1.33-.97 1.44-1.96.87-7.73-.44-16.15-.62-23.85-.21-9.37-.09-18.76-.54-28.12 1.02-1.05 6.18 4.68 7.11 5.67 52.73 55.91 57.93 166.84 18.93 231.22-4.24 7-17.64 25.81-24.02 29.94-.7.45-1.13.7-2.01.54.51-9.36.34-18.75.54-28.12.17-7.66 1.53-16.15.62-23.85-.13-1.07-.26-2.15-1.73-1.96-4.08 13-10.65 25.3-18.3 36.51-11.46 16.8-29.7 36.39-47.83 45.9-1.55.81-6.88 3.58-8.18 3.78-.96.15-1.31.1-1.81-.8l1.65-26.06-.88-1.42c-.82-.24-8.8 5.09-10.47 5.97-42.6 22.34-98.24 21.34-140.23-1.9-1.8-1-4.98-3.83-6.72-4.08-1.16-.17-.75.1-.86.85-1.21 8.51 1.49 18.94.85 27.55-1.9.12-9.02-3.68-11.09-4.82-24.52-13.49-48.27-43.38-59.78-68.6-.83-1.82-4.63-12.71-5.31-12.87-.99-.24-1.55 1.11-1.44 1.96l1.16 51.97c-.88.16-1.32-.09-2.01-.54-4.12-2.66-14.54-16.3-17.77-20.85-41.4-58.31-41.95-164.15-1.14-222.88 4.55-6.55 13.03-17.51 19.22-22.25.57-.44.72-1.1 1.71-.85l-1.16 51.97 1.44 1.96c.76-.19 5.11-12.33 6.06-14.39 13.34-29.02 39.76-58.92 69.24-71.9h.57c.6.95.66 2 .59 3.09-.52 7.74-2.03 16.15-1.18 23.9.09.85.05 1.42.88 1.95 45.82-30.08 111.09-30.21 156.9-.05l1.12-1.08L330.59 0ZM31.57 75.5c-.42 14.27-1.13 28.56-1.68 42.88-1.63 42.68-.84 83.37 1.09 126.02.17 3.67 1.12 7.57.59 11.34-.11.79.32.97-.86.85-15.15-13.15-23.29-33.96-27.39-53.26C-4 168.82-.91 99.92 29.86 76.35c.57-.44.72-1.1 1.71-.85ZM472.13 256.58c.56-9.16.71-18.35 1.14-27.52 2.4-51.23 1.68-98.04-1.17-149.28-.05-.86-.56-4.56.88-4.29 1.19.2 3.86 3.24 4.81 4.28 34.83 38.11 35.54 133.45.88 171.71-.86.95-5.55 6.12-6.54 5.1Z" />
</svg>