<svg xmlns="http://www.w3.org/2000/svg" viewBox="0 0 81.51 84.74">
  <path
    d="M.06 40.46c7.01-3.68 14.02-7.41 21.1-11.01.78-.4 2.11-.42 2.88-.03 8.09 4.12 16.13 8.36 24.17 12.59.15.08.19.38.47.98-4.72 2.55-9.45 5.16-14.23 7.68-7.03 3.71-14.06 7.44-21.18 10.97-2.16 1.07-2.97 2.43-2.88 4.77.14 3.4.1 6.82-.06 10.22-.06 1.13-.43 2.75-1.22 3.26-2.73 1.75-5.7 3.1-9.04 4.84V40.45Zm27.01 2.45c-2.63-2.68-4.86-3.11-7.62-1.19-1.94 1.35-4.16 2.33-6.33 3.31-2.72 1.23-3.17 3.19-2.21 6.17 5.39-2.77 10.59-5.44 16.15-8.29Z" />
  <path
    d="M81.51 42.72c-3.7 1.97-6.53 3.65-9.52 4.95-.94.41-2.49.11-3.48-.4C54.43 39.9 40.4 32.42 26.34 25.01c-5.01-2.64-10.08-5.17-15.96-8.18 0 3.64-.16 6.62.05 9.58.19 2.69-.86 4.22-3.3 5.22-2.29.93-4.45 2.16-7.13 3.5V0c27.17 14.24 53.93 28.27 81.51 42.72Z" />
</svg>
