<svg xmlns="http://www.w3.org/2000/svg" viewBox="0 0 96.23 85.22">
  <path
    d="M.46 70.83c3.24.46 6.48.95 9.72 1.36.99.12 2.01.02 3.63.02-1-1.3-1.57-2.03-2.13-2.76C-1.35 52.3-.43 28.88 15.92 12.84 23.36 5.54 32.56 1.42 42.94.05c1.37-.18 2.48.1 3.4 1.11.97 1.06 1.93 2.13 2.32 3.29-.24 2.79-.47 5.59-.74 8.72 3.6.34 6.81 1.35 9.47-1.61 1.77.73 3.46 1.32 4.53 3.47-3.98 1.32-7.99.04-11.69.86-1.47 6.21 12.76 20.61 20.25 20.1.56 2.37 2.57 2.27 4.62 2.59.07-.85.14-1.57.21-2.48 1.01-.04 2.05-.09 3.19-.14-.08 1.05-.15 2.01-.24 3.26 1.83.09 3.42.17 5.28.27.2-8.37-3.24-15.15-7.6-21.6C71.46 11.26 65 7.44 57.6 4.74c1.18.25 2.38.43 3.53.77 2.21.65 4.4 1.4 6.6 2.11l-.03-.04h.64l-.03.03c2.6.21 4.33 2.01 6.16 3.53 8.25 6.84 12.35 15.87 13.66 26.33.07.56.17 1.11.31 2.02h7.78c-2.26 2.62-4.99 2.76-7.48 4.02-.18.93-.44 2.04-.59 3.17-1.98 14.85-9.74 25.75-22.62 33.14-3.08 1.77-6.2 3.47-9.67 5.41-1.48-1.15-3.13-2.42-4.67-3.61-.15-1.5-.27-2.73-.41-4.17h-9.36c-.23.96-.44 1.87-.72 3.04-1.08.15-2.15.3-3.57.5V70.03c-2.48 1.37-4.53 2.79-6.79 3.65-2.2.84-4.62 1.12-7.17 1.7.62 1.73 2.05 2.54 3.35 3.45.94.65 1.92 1.25 2.88 1.87l.03-.04c-1.88-.79-3.75-1.61-5.65-2.37-.61-.24-1.28-.34-1.92-.5l.03-.03c-.96-.58-1.92-1.17-2.88-1.75-.1-.03-.19-.05-.29-.08.07.05.15.1.22.15-.26.09-.65.34-.76.24-2.44-1.94-5.46-1.39-8.22-1.94-3.37-.67-6.84-1.04-9.51-3.57l-.03.03Zm55.36 8.4c12.36-1.37 29.51-22.93 27.72-35.09-1.59-.16-3.25-.33-5.3-.54.09 1.8.16 3.17.22 4.55h-3.28v-4.81c-1.63-.63-3.13-1.21-5.16-2 .22 2.67.41 4.87.61 7.31-1.22-.05-2.48-.11-3.61-.16V40.1c-1.22-.3-2.33-.57-3.88-.95-1.36-1.89-3.33-2.59-5.25-1.52-1.88 1.05-2.8 4.41-1.85 6.75.6 1.49 1.72 2.47 3.28 2.42 1.4-.04 2.79-.53 4.23-.83-1.58 2.57-3.01 3.14-6.08 2.45-2.74-.61-4.47-2.39-4.67-5.17-.31-4.52 2.27-6.91 6.86-7.95-5.93-4.98-9.27-11.17-11.78-18.4-1.11 3.28-1.61 6.14-3.01 8.47-1.34 2.25-3.42 4.18-5.52 5.81-2.11 1.63-4.59 2.85-7.54 2.74 7.56-3.64 11.41-9.56 11.7-18.09-1.07-.05-2.01-.13-2.95-.14-2.03-.03-4.06 0-6.09-.04-.97-.02-1.99-.06-1.95-1.88h11.01V4.79c-1.66.11-3.09.08-4.46.33-6.02 1.12-11.47 3.8-16.11 7.59C12.71 21.09 6.93 31.67 7.87 45.45c.64 9.33 3.69 17.46 9.79 24.53 1.29 1.49 2.56 1.9 4.53 1.67 8.27-.97 13.21-6.23 17.07-12.91.73-1.27 1.45-2.72.73-4.6-1.65 0-3.29.1-4.9-.03-1.61-.13-3.41.67-5.36-1.24 1.57-.23 2.63-.51 3.69-.52 5.99-.04 11.98-.02 17.97-.02h3.26l1.75-2.76c2.17 1.29 3.82 2.17 5.07 4.43H46.39c-1.43 3.16-2.72 6.01-4.23 9.34 3.7-.44 7.13 1.28 10.07-1.87 1.38 1.08 2.71 2.13 3.61 2.84v14.92Zm-14.53-3.6h9.58c.39-3.63.26-6.99-.06-10.37h-9.52v10.37Z" />
  <path
    d="M.49 70.8c-.16-.05-.33-.1-.49-.14.15.06.31.12.46.18l.03-.03Zm28.94 9.9c.2.06.4.11.13.04.23.17.06.05-.1-.07l-.03.04ZM67.74 7.62h.58l.03-.03h-.64l.03.04ZM21.9 77.79l.16.11-.13-.14-.03.03zm8.43-41.91c4 .04 6.29 2.49 6.24 6.67-.05 4.11-2.35 6.28-6.61 6.26-4-.02-6.34-2.52-6.25-6.64.1-4.12 2.42-6.32 6.63-6.28Zm3.75 6.68c-.03-.6 0-1.19-.1-1.75-.36-2.09-2-3.49-3.98-3.45-1.89.04-3.2 1.34-3.44 3.55-.11 1.04-.11 2.12.05 3.15.3 1.97 1.89 3.31 3.75 3.33 1.79.02 3.11-1.13 3.54-3.14.12-.56.12-1.14.17-1.69Zm4.38-6.37h3.93c-.07 2.68-.21 5.24-.19 7.79.02 1.99.69 2.71 2.41 2.97 1.8.28 4.22-.59 4.42-1.94.41-2.87.86-5.82-.67-8.86.85-.04 1.73-.08 2.54-.12 0 2.78.05 5.33-.01 7.88-.08 2.97-2.55 5.02-5.89 4.99-3.5-.04-5.48-1.72-5.64-4.81-.05-.96.06-1.94-.06-2.89-.21-1.62-.54-3.23-.85-5Zm-23.21 1.65h-4.08c-.46-1.08-.11-1.71 1.01-1.73 3.45-.05 6.91-.02 10.49-.02.15.85.25 1.46.37 2.13-1.58-.23-3.01-.43-4.93-.71.26 3.79-1.27 7.27 1.33 10.56h-5.22c2.04-3.3.86-6.72 1.04-10.24Z" />
</svg>
