<svg xmlns="http://www.w3.org/2000/svg" viewBox="0 0 259.01 44.52">
	<path
		d="m10.01 13.92-2.04-1.09-7.97.59V1.41L64.42.5c6.9 1.59 14.9 4.15 16.6 11.91 2.34.31 3.14-2.77 5.26-4.29 15.62-11.2 36.98-10.81 50.66 3.08l5.06 9.21c-5.05-28.34 52.08-26.32 43.24.74-3.06 9.38-14.46 8.56-22.22 10.27.5-2.44-.8-10.46.12-11.86.65-1 7.06-.48 5.79-4.54-1.1-3.53-8.92-2.91-8.92.91v28.5c-.73.26-1.2-1-1.5-1h-15c-.33 0-1.11 1.91-2.38-.49l.87-18.51c-2.71 1.47-2.33 4.96-3.98 7.51-10.8 16.69-43.97 16.23-56 .49v11H63.01v-14c0-.25-4.55-.69-4.88-1.12-.28-.37-.39-8.57-.15-9.31.44-1.37 4.29.31 5.6-1.49 4.05-5.57-8.57-7.39-8.57-2.58v28.5h-18V12.42c-3.27 1.9-6.99-.68-9 1.5v29.5h-18v-29.5ZM99.3 27.13c5.01 6.19 22.39 5.35 22.77-4.24.63-16.03-33.52-9.05-22.77 4.24Zm-19.29-7.7c-4.3.93-7.67 3.7-1.01 3.99l1.01-3.99ZM259.01.41v13.01c-25.95-3.52-25.57 21.27 0 17.99l-.02 13c-12.76-1.29-31.56-.24-37.48-15.01-8.83-21.99 20.82-31.02 37.5-28.99ZM211.01 44.42c-.36.5-1.29-1-1.5-1h-15c-.36 0-.81 1.63-1.5.51l-.98-1.01c.01-.36.98-.69.98-1v-39c0-.36-1.76-1.13.5-2.5h17l1.27 1.5c.03.4-.77.75-.77 1v41.5Z" />
</svg>