<svg xmlns="http://www.w3.org/2000/svg" viewBox="0 0 210.46 79.33">
  <path
    d="M43.03 79.33c-.12-.4-.46-.29-.73-.29h-6.18c.08-.35.2-.64.2-.92.02-1.78.02-3.57 0-5.35 0-.29-.14-.58-.24-.93.16-.02.37-.06.59-.06 1.87 0 3.75 0 5.62-.01.32 0 .63-.14.95-.22.17.58.17 1.53 0 2.22-.25-.08-.5-.22-.76-.22-1.29-.02-2.57-.01-3.86-.01-.22.32-.12.63-.1 1.03 1.03-.08 2.04.23 3.06-.31v2.09c-1.01-.3-2-.11-3.03-.18v1.04c.19.02.39.05.58.05 1.08 0 2.17.02 3.25 0 .28 0 .57-.14.92-.24.18.73 0 1.54.08 2.33h-.35ZM0 71.79h2.87c-.43.35-.38.79-.38 1.22v2.36c0 .2-.01.41.02.61.12.84.43 1.14 1.29 1.27.2.03.4.07.6.05 1.15-.11 1.51-.52 1.52-1.69 0-.88.02-1.75 0-2.63-.01-.38-.12-.75-.18-1.17h2.53c-.06.39-.16.77-.17 1.14-.02 1.02 0 2.04-.02 3.06-.02.8-.19 1.58-.83 2.13-.32.28-.7.53-1.1.67-1.21.43-2.46.42-3.69.07C1.15 78.5.4 77.51.37 76.09c-.03-1.14-.01-2.28 0-3.41 0-.31-.03-.58-.35-.73v-.18Zm167.36 7.54c-.11-.41-.46-.29-.73-.29-1.61-.01-3.22 0-4.82 0h-1.77c.12-.19.23-.3.26-.43.04-.17.03-.35.03-.52 0-1.75.01-3.5 0-5.26 0-.33-.13-.65-.2-1.01h2.71c-.08.3-.22.59-.22.88-.02 1.37-.01 2.74 0 4.12 0 .11.03.22.05.39.25.02.47.05.69.05 1.08 0 2.16.02 3.25 0 .35 0 .7-.12 1.12-.19v2.29h-.35Zm-85.7 0c-.16-.42-.53-.29-.83-.29h-6.42c.08-.33.19-.58.2-.84.02-1.81.02-3.62 0-5.43 0-.29-.14-.58-.21-.88.53-.15 1.82-.17 2.74 0-.36.31-.37.69-.37 1.09.01 1.17 0 2.33 0 3.5v.75c1.61 0 3.15 0 4.69-.01.11 0 .22-.16.36-.27.31.36.15.78.18 1.16.03.41.02.82.02 1.22h-.35ZM93.1 17.89c-.57-.87-.53-1.83-1.27-2.4.34-1.11.06-2.14-.35-3.15-.11-.27-.09-.49-.02-.75.26-1 .66-1.93 1.33-2.72.49-.58.89-1.16 1.03-1.97.11-.62.55-1.21.92-1.76.33-.5.76-.94 1.22-1.48-4.53 1.04-13.22 5.82-17.41 15.17 0-.22-.03-.35 0-.45 1.6-4.1 3.85-7.79 7.01-10.88C88.91 4.23 92.9 2.08 97.44.92c3.38-.86 6.81-1.06 10.26-.81 3.12.22 6.14.99 9.02 2.28 3.52 1.57 6.59 3.76 9.2 6.58 2.65 2.86 4.63 6.14 6.05 9.76.03.08.04.17.05.25 0 .02-.02.05-.06.16-.37-.73-.7-1.41-1.06-2.09-1-1.89-2.22-3.62-3.65-5.23-2.51-2.84-5.49-5.05-8.89-6.71-2.47-1.21-5.06-2.14-7.79-2.51-2.39-.33-4.73-.03-6.75 1.5-.16.12-.32.25-.47.39-.08.07-.14.17-.23.27.48.47 1.11.41 1.65.52.58.11 1.05.29 1.4.79.18.25.38.55.82.44.19-.46-.05-1.14.61-1.41q-.69-.56-.46-1.23c.34.03.69 0 1.02.09.33.09.65.26.93.46.46.34.9.56 1.45.12.99.65 1.96 1.28 2.91 1.9-.1.37-.33.49-.61.48-.38 0-.75-.05-1.13-.09l-.83-.09q-.06.61.97 1.33c-.35.53-.93.49-1.49.63-.21.41-.44.87-.96 1.13-.25.12-.41.49-.52.78-.42 1.08-1.11 1.89-2.13 2.46-.75.41-.78.63-.47 1.43.13.33.27.65.39.97.14.39.17.79-.09 1.23-.46-.16-.69-.52-.85-.92-.14-.35-.23-.72-.36-1.07-.12-.32-.33-.49-.68-.34-.45.19-.9.17-1.37.11-.46-.06-.92-.07-1.35.22-.15.1-.44.06-.66.02-1.16-.22-2.08.2-2.64 1.23-.1.18-.18.36-.28.55-.62 1.23-.25 2.31.54 3.32.07.09.18.22.26.21.55-.04 1.1-.08 1.64-.17.38-.07.54-.41.7-.73.14-.28.32-.54.47-.8.46.09.85.17 1.28.26-.26.74-.5 1.45-.77 2.21h-.89c-1.43 0-2.87-.01-4.3 0-.49 0-.9-.1-1.29-.43-.3-.26-.68-.41-1.12-.67.02-.3-.45-.64-.12-1.13.06-.09-.11-.37-.21-.54-.28-.54-.59-1.07-.86-1.63-.39-.81-.81-1.62-.86-2.59-.06.1-.17.21-.16.3.07.49.13.98.28 1.45.18.59.32 1.18.25 1.8-.02.13-.08.26-.17.56Zm32.02 18.79c0 .16-.08.35-.01.48.2.39.02.66-.18.96-.25.39-.46.8-.69 1.2-.2.36-.38.72-.58 1.07-.22.39-.51.57-.99.56-.84 0-1.53.36-1.96 1.1-1.03 1.8-2.42 3.2-4.41 4.02.11.78-.38 1.03-1.04 1.18-.48.11-.92.34-1.38.52-.4.16-.79.33-1.29.53-.27.61-.72 1.24-1.5 1.59.26.92-.73.79-1.06 1.29.07.14.15.31.24.5-.12.04-.21.11-.28.09-.89-.23-1.21-.79-.96-1.69.09-.34.19-.67.32-1 .1-.25.15-.47.07-.75-.12-.42.03-.8.31-1.13.76-.9 1.08-1.98 1.26-3.11.03-.17 0-.42.1-.5.61-.47.44-1.17.56-1.77.1-.53.03-1.08.34-1.6.25-.42-.22-1.3-.77-1.73-.69-.54-1.36-1.1-2.03-1.65-.04-.03-.04-.1-.07-.21.17-.03.32-.07.48-.08 4.69-.13 14.76-.05 15.53.12Z" />
  <path
    d="M78.6 39.8c.37.71.73 1.42 1.11 2.12 1.52 2.76 3.49 5.15 5.86 7.24 3.37 2.97 7.24 4.99 11.54 6.2 1.4.39 2.82.69 4.28.83 1.45.15 2.9.35 4.36.29 6.56-.27 12.53-2.18 17.76-6.24 3.24-2.51 5.78-5.58 7.67-9.21.08-.15.17-.29.36-.39-.04.16-.05.32-.12.47a30.678 30.678 0 0 1-4.37 7.04c-1.86 2.24-3.98 4.19-6.41 5.79-2.3 1.52-4.77 2.68-7.42 3.46-1.99.59-4.02.9-6.09 1.1-1.61.16-3.21.1-4.81-.06-5.88-.56-11.12-2.65-15.61-6.57-3.69-3.22-6.29-7.17-8.12-11.67-.05-.12-.07-.26-.1-.39.03-.01.06-.02.1-.03Zm39.8-5.95c.21-.28.37-.48.58-.76-.63-.94-1.25-1.88-1.89-2.85h-1.21c-.09.36-.21 2.52-.1 2.76.13.28.33.53.51.8-.65.16-3.17.19-4.29.06 0-.05-.02-.12 0-.15.47-.42.57-.95.56-1.57-.03-2.25-.03-4.5 0-6.75 0-.77.01-1.51-.72-2.14.32-.03.51-.07.7-.07 2.08 0 4.15-.02 6.23.01.55 0 1.11.08 1.63.23 1.14.32 1.94 1 2.24 2.21.31 1.26-.03 2.3-.94 3.17-.38.36-.84.63-1.3.97.9 1.31 1.81 2.65 2.73 3.99-.65.18-3.53.21-4.73.06Zm-2.62-5.78h.79c.29 0 .59.04.87 0 .43-.07.87-.13 1.26-.3.53-.23.78-.76.69-1.29-.1-.52-.49-.77-.95-.92-.33-.11-2.23-.03-2.67.09v2.43Zm-47.49.99c0-1.55-.03-3.1.02-4.64.01-.49-.43-.67-.56-1.12.63-.19 1.23-.07 1.83-.09.58-.02 1.16 0 1.73 0 .03.1.07.17.05.19-.5.53-.55 1.17-.55 1.86.03 2.57 0 5.14 0 7.71v.89c-.79.15-1.52.07-2.24.06-.17 0-.37-.16-.5-.3-1.26-1.35-2.5-2.7-3.75-4.06-.49-.53-1-1.05-1.59-1.67-.02.34-.05.56-.05.78 0 1.11.01 2.22 0 3.33-.01.65-.01 1.28.52 1.78-.62.2-2.75.23-3.69.05.61-.52.56-1.19.56-1.87 0-2.25-.01-4.5 0-6.75 0-.68.04-1.34-.64-1.9.28-.05.43-.11.59-.11.79 0 1.58.01 2.37-.01.39-.01.63.13.89.43 1.49 1.72 3.01 3.42 4.52 5.13.11.13.2.29.29.44.06-.04.13-.08.19-.13Zm-24.34-5.82h4.38c-.74.74-.57 1.6-.57 2.42 0 1.4.02 2.8 0 4.21-.02 1.29.56 1.63 1.55 1.87.6.14 1.22.06 1.79-.22.62-.3.87-.84.88-1.49.01-.85 0-1.69 0-2.54 0-.76-.02-1.52 0-2.28.02-.67.05-1.34-.56-1.83.61-.22 3.34-.26 4.35-.1q-.57 1.01-.57 2.29c0 1.64 0 3.27-.02 4.91-.03 1.85-.98 3.05-2.77 3.42-1.67.35-3.36.36-5.04.01-1.24-.26-2.24-.89-2.66-2.15a5.82 5.82 0 0 1-.27-1.71c-.04-1.63-.02-3.27 0-4.91 0-.64.06-1.29-.48-1.9Zm53.84 0h9.92c.19.56.22 1.76.07 2.89-.17-.14-.31-.27-.47-.36-.17-.1-.36-.23-.54-.23-1.66-.02-3.32-.01-5.03-.01v1.84c.21.02.44.06.66.06h1.58c.64.02 1.29.06 1.75-.55.23.59.27 2.11.12 3.28-.05.02-.13.06-.15.04-.44-.45-.99-.53-1.6-.5-.7.03-1.4 0-2.1.01-.06 0-.11.02-.22.05-.16.58-.04 1.17-.08 1.82.29.02.52.04.74.04h3.42c.66 0 1.37.15 1.88-.64.2.6.11 1.06.13 1.5.02.44 0 .87 0 1.26-.06.07-.08.09-.1.11-.02.02-.04.05-.07.05l-9.47.03c-.11 0-.22-.03-.42-.06.61-.55.57-1.22.57-1.89-.01-2.1 0-4.2 0-6.3 0-.82.16-1.68-.58-2.43Zm30.06 10.24c-.23.21-.5.47-.83.79-.03-.26-.06-.43-.06-.59v-3.36c.41.19.72.33 1.02.47 1.3.61 2.65 1.05 4.12 1.01.25 0 .54-.05.75-.18.58-.34.56-.9-.07-1.2-.47-.23-.99-.34-1.48-.51-.79-.28-1.6-.55-2.37-.89-.42-.18-.84-.45-1.15-.78-1.33-1.4-1.18-3.86.88-4.74 1.46-.62 2.98-.78 4.53-.44.45.1.92.17 1.35.35.5.21.89.19 1.24-.25.05-.06.15-.08.23-.11.19.56.23 2.2.08 3.38-.85-.27-1.69-.57-2.55-.78-.64-.16-1.31-.23-1.98-.29-.28-.02-.58.07-.84.17-.44.17-.52.58-.17.89.21.19.48.33.75.43.6.21 1.23.35 1.83.57.71.26 1.42.53 2.08.9.76.43 1.28 1.07 1.46 1.97.31 1.51-.56 2.83-1.54 3.32-1.18.6-2.45.79-3.74.61-1.15-.16-2.27-.46-3.54-.73Zm15.92-10.23h3.66c1.71 3.47 3.45 6.99 5.18 10.51-.61.22-3.65.24-4.43.03.18-.24.34-.47.53-.73-.15-.33-.31-.67-.48-1.01h-5.02c-.14.31-.3.64-.46.99.16.26.32.5.47.75-.56.19-2.84.22-3.79.04.05-.14.08-.27.14-.39 1.34-2.78 2.67-5.56 4.02-8.34.28-.58.62-1.13.17-1.85Zm.27 6.77h3.36c-.58-1.24-1.1-2.36-1.69-3.61-.59 1.29-1.11 2.41-1.67 3.61Zm-54.71-.32c.67-1.45 1.32-2.85 1.97-4.25.07-.16.11-.34.21-.48.4-.58.42-1.12-.14-1.63.65-.18 2.9-.2 3.8-.03l-5 10.6h-2.34c-1.63-3.48-3.28-7-4.93-10.53.57-.21 3.23-.26 4.42-.08-.18.28-.35.53-.52.8.77 1.74 1.55 3.5 2.33 5.25.05.1.11.19.21.35Zm70.11 1.92c1.66 0 3.18.03 4.69-.02.34-.01.68-.27 1.01-.42.18.54.2 1.73.04 2.71h-9.66c.76-.71.6-1.54.6-2.34V25.5c0-.77.18-1.58-.67-2.26h4.59c-.77.7-.6 1.53-.6 2.33v6.04Zm-16.4 47.36c-.81-1.78-1.55-3.39-2.28-5 .02 1.67-.28 3.33.08 5.01h-2.25c.11-.16.23-.27.27-.4.04-.13.03-.29.03-.43 0-1.78.01-3.56 0-5.35 0-.31-.14-.63-.23-.99h3.5c-.08.18-.2.34-.21.5 0 .16.1.33.17.49.31.69.62 1.38.98 2.2l1.33-2.69c-.09-.17-.16-.3-.27-.51h3.79c-.47.38-.39.81-.39 1.22v4.91c0 .34-.09.72.38.97-.55.19-1.02.09-1.47.11-.43.02-.86 0-1.32 0 .12-.27.28-.47.28-.66.02-1.4.01-2.8-.12-4.23-.73 1.56-1.45 3.11-2.26 4.84Zm-55.32-7.17h3.53c-.1.19-.18.32-.29.51.38.84.77 1.7 1.21 2.68.42-.84.81-1.58 1.14-2.34.1-.23.02-.54.02-.85h3.5c-.08.41-.21.77-.21 1.15-.02 1.66-.01 3.33 0 5 0 .35-.07.71.32 1-.9.09-1.76.08-2.66.08.4-.81.18-1.64.21-2.44.04-.81 0-1.62-.11-2.46-.72 1.55-1.44 3.1-2.23 4.79-.89-1.69-1.53-3.34-2.4-4.91 0 .82-.04 1.64.01 2.45.05.81-.22 1.67.24 2.51-.74.11-1.51.04-2.24.04.08-.34.2-.62.2-.9.02-1.78.02-3.56 0-5.35 0-.29-.13-.58-.23-.96ZM48.15 79h-2.97c.12-.17.23-.28.27-.41.04-.13.03-.29.03-.43 0-1.81.01-3.62 0-5.42 0-.29-.14-.59-.22-.92.1-.01.24-.04.38-.04 1.69 0 3.39 0 5.08.02.31 0 .63.09.94.16.96.22 1.41.91 1.54 1.8.12.85-.12 1.62-.9 2.12-.29.19-.6.35-.97.57.61.84 1.21 1.67 1.84 2.54h-2.88c.1-.14.17-.22.29-.38-.53-.73-1.08-1.47-1.62-2.21h-1.12c-.16.43-.09.86-.08 1.28.01.41-.18.88.39 1.32Zm-.37-5.59v1.24c.09.05.13.1.18.1.73 0 1.46.03 2.19.01.46-.01.71-.22.76-.56.06-.37-.1-.56-.59-.71-.08-.03-.17-.07-.25-.07h-2.29ZM16.9 75.76c-.07-1.44.09-2.67-.14-3.94h2.52c-.55.47-.43 1.04-.43 1.59v4.56c0 .37-.02.74.58 1.01h-2.88c.11-.14.18-.22.28-.35-1.22-1.32-2.44-2.65-3.76-4.08-.08.59-.04 1.07-.05 1.54 0 .5-.03 1 0 1.49.04.46-.23.98.4 1.41h-2.67c.11-.16.22-.27.27-.4.04-.13.03-.29.03-.43 0-1.81.01-3.62-.01-5.43 0-.29-.16-.57-.26-.9h3.27c-.11.16-.19.27-.31.44 1 1.1 2.01 2.22 3.17 3.51Zm45.57-3.53c-.3.61-.6 1.22-.92 1.86-1-.93-2.2-.88-3.38-.89-.47 0-.94.03-1.26.51.2.44.61.47 1.01.51.92.11 1.85.23 2.77.36.23.03.45.11.66.21.64.3 1.13.73 1.2 1.49.07.87-.1 1.64-.91 2.12-.37.22-.77.47-1.19.53-.92.14-1.83.3-2.78.15-.81-.13-1.61-.24-2.39-.46-.18-.05-.39 0-.58 0 0-.58.28-1.31.93-2.45.56 1.12 1.62 1.15 2.64 1.24.41.04.82.02 1.23-.02.48-.04.9-.22 1.06-.75-.28-.39-.69-.4-1.1-.45-.84-.09-1.67-.21-2.51-.33-.26-.04-.52-.11-.76-.21-.61-.25-1.17-.57-1.27-1.31-.11-.86.2-1.55.94-2.02.5-.31 1.04-.53 1.64-.55 1.29-.06 2.56-.02 3.81.36.34.1.71.07 1.14.11Zm124.57 6.34c.34-.82.66-1.6 1.04-2.5.37 1.03 1.23 1.13 1.99 1.27.65.12 1.34.07 2.01.02.27-.02.55-.19.78-.35.11-.08.11-.31.15-.45-.28-.34-.63-.34-.98-.38-.9-.11-1.79-.21-2.68-.36-.36-.06-.73-.2-1.06-.39-1.06-.6-1.23-1.73-.44-2.66.54-.63 1.25-.96 2.07-1.01 1.29-.08 2.56-.04 3.82.33.36.11.76.1 1.23.15-.3.6-.59 1.18-.92 1.82-1.18-1.01-2.55-.9-3.9-.84-.35.02-.68.19-.67.67.32.26.69.29 1.06.34.9.1 1.8.19 2.68.36.74.14 1.38.52 1.71 1.24.49 1.05-.16 2.3-.99 2.7-1.17.56-2.4.7-3.67.56-.87-.1-1.74-.18-2.56-.52-.18-.07-.42-.01-.67-.01Zm-69.84-6.31c-.3.6-.59 1.2-.92 1.87-.56-.72-1.34-.77-2.07-.89-.54-.09-1.11-.06-1.66-.02-.4.03-.82.12-.86.77.37.08.72.19 1.08.24.89.13 1.79.22 2.68.37.33.06.67.21.96.39 1.05.64 1.26 2.01.48 2.95-.49.59-1.14.91-1.87 1.04-1.58.28-3.13.18-4.66-.29-.29-.09-.6-.1-.97-.16.17-.81.58-1.53.93-2.41.46 1.02 1.36 1.09 2.19 1.23.57.1 1.17.05 1.75.01.49-.03.92-.2 1.03-.78-.16-.28-.44-.36-.73-.39-.64-.08-1.28-.1-1.91-.2-.63-.11-1.27-.22-1.86-.45-1.37-.55-1.55-2.15-.38-3.08.54-.42 1.16-.68 1.85-.71 1.23-.05 2.45-.06 3.64.33.36.12.77.11 1.29.18ZM75.61 33.89c.59-.54.64-1.1.64-1.7-.02-2.28 0-4.56-.01-6.83 0-.72.14-1.47-.55-2.04.86-.17 3.75-.16 4.43.03-.11.15-.22.28-.29.43-.1.23-.24.47-.24.71-.02 2.72.01 5.43-.03 8.15 0 .56.43.79.64 1.26h-4.59Zm23.5 37.92h2.82c-.08.38-.2.72-.21 1.06-.03.96-.02 1.93 0 2.89.01 1.01.32 1.36 1.32 1.48.39.05.82.03 1.2-.06.46-.1.77-.43.77-.93.01-1.26.02-2.51 0-3.77 0-.21-.16-.42-.26-.67h2.73c-.07.35-.19.7-.19 1.04-.03 1.02 0 2.04-.01 3.07-.02 1.68-.99 2.91-2.78 3.12-.83.09-1.62.08-2.43-.04-1.47-.22-2.48-1.31-2.51-2.8-.03-1.05 0-2.1-.01-3.15 0-.41.1-.86-.45-1.24Zm33.36.44c-.4.74-.79 1.45-1.23 2.25-.42-.63-1.03-.68-1.64-.83-.67-.17-1.27 0-1.89.12-.17.03-.34.11-.49.19-1.24.73-1.15 2.2-.08 2.84.75.45 1.55.45 2.37.35.23-.03.45-.1.68-.17.42-.13.84-.25.99-.87.32.46.57.8.8 1.15.22.33.43.68.66 1.05-1.18.42-2.32.74-3.5.8-1.36.07-2.68-.17-3.79-1.04-.72-.56-1.15-1.3-1.22-2.23-.06-.92.02-1.8.67-2.54.79-.89 1.78-1.43 2.95-1.53 1.31-.11 2.62-.11 3.89.34.23.08.48.08.82.13Zm45.08 6.74h-2.61c-.1-.45-.21-.9-.32-1.4-1.12-.06-2.16-.02-3.24-.04-.13.47-.53.84-.25 1.42-.8.11-1.6.06-2.39.03.23-.52.46-1.01.66-1.51.59-1.52 1.18-3.04 1.75-4.56.12-.33.15-.7.23-1.11h3.39c.02.28-.03.58.06.81.79 1.97 1.61 3.93 2.42 5.9.05.13.16.24.32.47Zm-3.42-2.7c-.41-.99-.8-1.92-1.24-2.98-.4 1.05-.76 1.99-1.14 2.98h2.37ZM69.79 71.81c.04.32.02.59.11.81.75 1.87 1.51 3.73 2.28 5.58.11.26.27.49.43.78h-2.53c-.14-.49-.27-.94-.4-1.4h-3.17c-.25.4-.5.82-.35 1.39h-2.31c.29-.72.59-1.4.86-2.1.56-1.44 1.1-2.88 1.66-4.32.1-.26.16-.49-.23-.76h3.66Zm-.58 4.48c-.4-.99-.78-1.91-1.22-3-.4 1.08-.75 2-1.12 3h2.34Zm135.05-4.48h3.37c.07.37.09.7.21 1 .73 1.81 1.47 3.61 2.22 5.4.11.26.26.49.41.78-.16.02-.3.04-.44.04h-2.08c-.15-.53-.27-.98-.4-1.44h-3.18c-.26.38-.48.8-.37 1.38h-2.26c.66-1.69 1.32-3.37 1.98-5.06.16-.41.35-.8.47-1.22.08-.27.05-.57.08-.89Zm1.58 1.48c-.41 1.1-.75 2.01-1.12 2.99.83.06 1.56.11 2.34-.04-.4-.98-.78-1.88-1.22-2.95Zm-47.49 5.7h-2.69c.22-.55-.07-.95-.29-1.39h-3.19c-.09.47-.48.85-.21 1.4h-2.35c.52-1.31 1.04-2.61 1.55-3.9.28-.7.56-1.41.81-2.12.12-.36.17-.74.27-1.16h3.32c.04.31.01.59.11.82.73 1.84 1.48 3.67 2.23 5.5.12.28.28.55.45.87Zm-5.75-2.7h2.39c-.41-.98-.81-1.92-1.25-2.99-.41 1.07-.75 1.98-1.14 2.99ZM31.73 79H29c-.07-.31-.09-.59-.2-.84-.81-1.87-1.63-3.73-2.45-5.6-.09-.21-.21-.41-.32-.61.53-.22 1.49-.25 2.69-.11.04.27.03.56.13.8.52 1.16 1.08 2.3 1.66 3.55.56-1.51 1.47-2.77 1.79-4.37h2.22c-.97 2.29-1.92 4.54-2.85 6.79-.04.09.03.22.06.39Zm146.05-7.19h2.96c-.07 1.06.84 1.6 1.27 2.49.65-.62 1.06-1.31 1.47-1.98.07-.11-.03-.31-.05-.5h2.64c-.23.29-.39.48-.53.68-.75 1.04-1.49 2.08-2.24 3.13-.05.07-.12.14-.14.22-.21 1.03-.22 2.05.05 3.14-.35.12-.81.03-1.25.04-.43.02-.87 0-1.36 0 .11-.25.2-.43.27-.62.02-.05 0-.12 0-.17.09-1.99.08-1.98-1.1-3.6-.65-.89-1.27-1.8-2-2.83Zm21.94.01c-.08.35-.2.64-.21.93-.02 1.81-.02 3.61 0 5.42 0 .26.12.52.19.81h-2.83c.36-.27.49-.52.49-.89-.03-1.78-.03-3.56 0-5.33 0-.4-.2-.63-.51-.95h2.86Zm-178.14 0h2.71c-.08.39-.2.73-.2 1.08-.02 1.72-.01 3.45 0 5.17 0 .31-.07.65.4.91h-2.75c.07-.36.18-.71.18-1.05.02-1.69 0-3.39 0-5.08 0-.5 0-.5-.34-1.02Zm97.75 7.21c.1-.32.24-.55.24-.78.02-1.86.02-3.73 0-5.59 0-.26-.16-.52-.24-.77.58-.15 1.88-.17 2.76 0-.34.31-.36.69-.35 1.1.01 1.69 0 3.38 0 5.06 0 .31-.08.65.35.89-.52.17-.98.08-1.42.1-.43.01-.87 0-1.33 0Zm43.63-53.45c0-1.17 1-2.18 2.16-2.2 1.16-.02 2.22.99 2.23 2.13.01 1.18-1.06 2.28-2.21 2.26-1.15-.01-2.18-1.05-2.18-2.2Zm.37-.12c-.1 1.18.86 1.95 1.77 1.96 1.03.01 1.87-.75 1.91-1.75.04-1.11-.7-1.91-1.79-1.94-1.07-.03-1.86.69-1.89 1.73Zm-53.26-6.45c-.49.68-1.09 0-1.46.21-.98-.49-1.88-.95-2.76-1.38.43-.31.98-.28 1.46.13.11.09.22.29.31.28.94-.11 1.49.87 2.45.77Zm.33.24c.86-.22 1.4.23 2.11.66-.64.16-1.15.28-1.76.43-.07-.05-.23-.17-.39-.28.01-.27.03-.51.05-.81Z" />
  <path
    d="M166.02 24.91c-.34-.06-.56-.13-.78-.14-.51-.02-.85.3-.85.78 0 .49.31.82.83.8.24 0 .48-.07.79-.11-.59.59-1.05.62-1.53.17-.52-.49-.57-1.13-.07-1.61.19-.19.48-.32.75-.38.31-.07.64 0 .87.48Z" />
</svg>
